G04 #@! TF.GenerationSoftware,KiCad,Pcbnew,(5.1.6)-1*
G04 #@! TF.CreationDate,2020-08-30T17:28:20+02:00*
G04 #@! TF.ProjectId,Freude_Microcontroller,46726575-6465-45f4-9d69-63726f636f6e,rev?*
G04 #@! TF.SameCoordinates,Original*
G04 #@! TF.FileFunction,Copper,L3,Inr*
G04 #@! TF.FilePolarity,Positive*
%FSLAX46Y46*%
G04 Gerber Fmt 4.6, Leading zero omitted, Abs format (unit mm)*
G04 Created by KiCad (PCBNEW (5.1.6)-1) date 2020-08-30 17:28:20*
%MOMM*%
%LPD*%
G01*
G04 APERTURE LIST*
G04 #@! TA.AperFunction,ViaPad*
%ADD10C,1.650000*%
G04 #@! TD*
G04 #@! TA.AperFunction,ViaPad*
%ADD11C,0.400000*%
G04 #@! TD*
G04 #@! TA.AperFunction,Conductor*
%ADD12C,0.254000*%
G04 #@! TD*
G04 APERTURE END LIST*
D10*
X193675000Y-69025000D03*
X210075000Y-86825000D03*
D11*
X199600000Y-81950000D03*
X200175000Y-87350000D03*
X198100000Y-81950000D03*
X199600000Y-81950000D03*
X199600000Y-81950000D03*
X199600000Y-81950000D03*
X199600000Y-81950000D03*
X196050000Y-80025000D03*
X200800000Y-78200000D03*
X206925000Y-79400000D03*
X198655000Y-73520000D03*
X198070000Y-73515000D03*
X196220000Y-86400000D03*
X202895000Y-81105000D03*
X202150000Y-78650000D03*
X202650000Y-77575000D03*
X194075004Y-81925000D03*
X195200000Y-82425000D03*
X193831361Y-82944696D03*
X193975000Y-83775000D03*
X198630000Y-75070000D03*
X193525000Y-80925000D03*
X206050000Y-79275000D03*
X195930000Y-75465000D03*
X195930000Y-76065000D03*
X201975000Y-84975000D03*
X200675000Y-75075000D03*
X198625000Y-75750000D03*
X200675000Y-75750000D03*
X193325001Y-82449999D03*
D12*
G36*
X206698216Y-72576770D02*
G01*
X206722783Y-86973000D01*
X193152433Y-86973000D01*
X193159417Y-84923095D01*
X201448000Y-84923095D01*
X201448000Y-85026905D01*
X201468252Y-85128720D01*
X201507979Y-85224628D01*
X201565652Y-85310943D01*
X201639057Y-85384348D01*
X201725372Y-85442021D01*
X201821280Y-85481748D01*
X201923095Y-85502000D01*
X202026905Y-85502000D01*
X202128720Y-85481748D01*
X202224628Y-85442021D01*
X202310943Y-85384348D01*
X202384348Y-85310943D01*
X202442021Y-85224628D01*
X202481748Y-85128720D01*
X202502000Y-85026905D01*
X202502000Y-84923095D01*
X202481748Y-84821280D01*
X202442021Y-84725372D01*
X202384348Y-84639057D01*
X202310943Y-84565652D01*
X202224628Y-84507979D01*
X202128720Y-84468252D01*
X202026905Y-84448000D01*
X201923095Y-84448000D01*
X201821280Y-84468252D01*
X201725372Y-84507979D01*
X201639057Y-84565652D01*
X201565652Y-84639057D01*
X201507979Y-84725372D01*
X201468252Y-84821280D01*
X201448000Y-84923095D01*
X193159417Y-84923095D01*
X193166124Y-82954611D01*
X193171281Y-82956747D01*
X193273096Y-82976999D01*
X193304361Y-82976999D01*
X193304361Y-82996601D01*
X193324613Y-83098416D01*
X193364340Y-83194324D01*
X193422013Y-83280639D01*
X193495418Y-83354044D01*
X193581733Y-83411717D01*
X193589694Y-83415015D01*
X193565652Y-83439057D01*
X193507979Y-83525372D01*
X193468252Y-83621280D01*
X193448000Y-83723095D01*
X193448000Y-83826905D01*
X193468252Y-83928720D01*
X193507979Y-84024628D01*
X193565652Y-84110943D01*
X193639057Y-84184348D01*
X193725372Y-84242021D01*
X193821280Y-84281748D01*
X193923095Y-84302000D01*
X194026905Y-84302000D01*
X194128720Y-84281748D01*
X194224628Y-84242021D01*
X194310943Y-84184348D01*
X194384348Y-84110943D01*
X194442021Y-84024628D01*
X194481748Y-83928720D01*
X194502000Y-83826905D01*
X194502000Y-83723095D01*
X194481748Y-83621280D01*
X194442021Y-83525372D01*
X194384348Y-83439057D01*
X194310943Y-83365652D01*
X194224628Y-83307979D01*
X194216667Y-83304681D01*
X194240709Y-83280639D01*
X194298382Y-83194324D01*
X194338109Y-83098416D01*
X194358361Y-82996601D01*
X194358361Y-82892791D01*
X194338109Y-82790976D01*
X194298382Y-82695068D01*
X194240709Y-82608753D01*
X194167304Y-82535348D01*
X194080989Y-82477675D01*
X194015223Y-82450433D01*
X194023099Y-82452000D01*
X194126909Y-82452000D01*
X194228724Y-82431748D01*
X194324632Y-82392021D01*
X194352957Y-82373095D01*
X194673000Y-82373095D01*
X194673000Y-82476905D01*
X194693252Y-82578720D01*
X194732979Y-82674628D01*
X194790652Y-82760943D01*
X194864057Y-82834348D01*
X194950372Y-82892021D01*
X195046280Y-82931748D01*
X195148095Y-82952000D01*
X195251905Y-82952000D01*
X195353720Y-82931748D01*
X195449628Y-82892021D01*
X195535943Y-82834348D01*
X195609348Y-82760943D01*
X195667021Y-82674628D01*
X195706748Y-82578720D01*
X195727000Y-82476905D01*
X195727000Y-82373095D01*
X195706748Y-82271280D01*
X195667021Y-82175372D01*
X195609348Y-82089057D01*
X195535943Y-82015652D01*
X195449628Y-81957979D01*
X195353720Y-81918252D01*
X195251905Y-81898000D01*
X195148095Y-81898000D01*
X195046280Y-81918252D01*
X194950372Y-81957979D01*
X194864057Y-82015652D01*
X194790652Y-82089057D01*
X194732979Y-82175372D01*
X194693252Y-82271280D01*
X194673000Y-82373095D01*
X194352957Y-82373095D01*
X194410947Y-82334348D01*
X194484352Y-82260943D01*
X194542025Y-82174628D01*
X194581752Y-82078720D01*
X194602004Y-81976905D01*
X194602004Y-81873095D01*
X194581752Y-81771280D01*
X194542025Y-81675372D01*
X194484352Y-81589057D01*
X194410947Y-81515652D01*
X194324632Y-81457979D01*
X194228724Y-81418252D01*
X194126909Y-81398000D01*
X194023099Y-81398000D01*
X193921284Y-81418252D01*
X193825376Y-81457979D01*
X193739061Y-81515652D01*
X193665656Y-81589057D01*
X193607983Y-81675372D01*
X193568256Y-81771280D01*
X193548004Y-81873095D01*
X193548004Y-81971949D01*
X193478721Y-81943251D01*
X193376906Y-81922999D01*
X193273096Y-81922999D01*
X193171281Y-81943251D01*
X193169568Y-81943961D01*
X193171704Y-81316995D01*
X193189057Y-81334348D01*
X193275372Y-81392021D01*
X193371280Y-81431748D01*
X193473095Y-81452000D01*
X193576905Y-81452000D01*
X193678720Y-81431748D01*
X193774628Y-81392021D01*
X193860943Y-81334348D01*
X193934348Y-81260943D01*
X193992021Y-81174628D01*
X194031748Y-81078720D01*
X194052000Y-80976905D01*
X194052000Y-80873095D01*
X194031748Y-80771280D01*
X193992021Y-80675372D01*
X193934348Y-80589057D01*
X193860943Y-80515652D01*
X193774628Y-80457979D01*
X193678720Y-80418252D01*
X193576905Y-80398000D01*
X193473095Y-80398000D01*
X193371280Y-80418252D01*
X193275372Y-80457979D01*
X193189057Y-80515652D01*
X193174384Y-80530325D01*
X193178837Y-79223095D01*
X205523000Y-79223095D01*
X205523000Y-79326905D01*
X205543252Y-79428720D01*
X205582979Y-79524628D01*
X205640652Y-79610943D01*
X205714057Y-79684348D01*
X205800372Y-79742021D01*
X205896280Y-79781748D01*
X205998095Y-79802000D01*
X206101905Y-79802000D01*
X206203720Y-79781748D01*
X206299628Y-79742021D01*
X206385943Y-79684348D01*
X206459348Y-79610943D01*
X206517021Y-79524628D01*
X206556748Y-79428720D01*
X206577000Y-79326905D01*
X206577000Y-79223095D01*
X206556748Y-79121280D01*
X206517021Y-79025372D01*
X206459348Y-78939057D01*
X206385943Y-78865652D01*
X206299628Y-78807979D01*
X206203720Y-78768252D01*
X206101905Y-78748000D01*
X205998095Y-78748000D01*
X205896280Y-78768252D01*
X205800372Y-78807979D01*
X205714057Y-78865652D01*
X205640652Y-78939057D01*
X205582979Y-79025372D01*
X205543252Y-79121280D01*
X205523000Y-79223095D01*
X193178837Y-79223095D01*
X193180967Y-78598095D01*
X201623000Y-78598095D01*
X201623000Y-78701905D01*
X201643252Y-78803720D01*
X201682979Y-78899628D01*
X201740652Y-78985943D01*
X201814057Y-79059348D01*
X201900372Y-79117021D01*
X201996280Y-79156748D01*
X202098095Y-79177000D01*
X202201905Y-79177000D01*
X202303720Y-79156748D01*
X202399628Y-79117021D01*
X202485943Y-79059348D01*
X202559348Y-78985943D01*
X202617021Y-78899628D01*
X202656748Y-78803720D01*
X202677000Y-78701905D01*
X202677000Y-78598095D01*
X202656748Y-78496280D01*
X202617021Y-78400372D01*
X202559348Y-78314057D01*
X202485943Y-78240652D01*
X202399628Y-78182979D01*
X202303720Y-78143252D01*
X202201905Y-78123000D01*
X202098095Y-78123000D01*
X201996280Y-78143252D01*
X201900372Y-78182979D01*
X201814057Y-78240652D01*
X201740652Y-78314057D01*
X201682979Y-78400372D01*
X201643252Y-78496280D01*
X201623000Y-78598095D01*
X193180967Y-78598095D01*
X193184629Y-77523095D01*
X202123000Y-77523095D01*
X202123000Y-77626905D01*
X202143252Y-77728720D01*
X202182979Y-77824628D01*
X202240652Y-77910943D01*
X202314057Y-77984348D01*
X202400372Y-78042021D01*
X202496280Y-78081748D01*
X202598095Y-78102000D01*
X202701905Y-78102000D01*
X202803720Y-78081748D01*
X202899628Y-78042021D01*
X202985943Y-77984348D01*
X203059348Y-77910943D01*
X203117021Y-77824628D01*
X203156748Y-77728720D01*
X203177000Y-77626905D01*
X203177000Y-77523095D01*
X203156748Y-77421280D01*
X203117021Y-77325372D01*
X203059348Y-77239057D01*
X202985943Y-77165652D01*
X202899628Y-77107979D01*
X202803720Y-77068252D01*
X202701905Y-77048000D01*
X202598095Y-77048000D01*
X202496280Y-77068252D01*
X202400372Y-77107979D01*
X202314057Y-77165652D01*
X202240652Y-77239057D01*
X202182979Y-77325372D01*
X202143252Y-77421280D01*
X202123000Y-77523095D01*
X193184629Y-77523095D01*
X193191819Y-75413095D01*
X195403000Y-75413095D01*
X195403000Y-75516905D01*
X195423252Y-75618720D01*
X195462979Y-75714628D01*
X195496636Y-75765000D01*
X195462979Y-75815372D01*
X195423252Y-75911280D01*
X195403000Y-76013095D01*
X195403000Y-76116905D01*
X195423252Y-76218720D01*
X195462979Y-76314628D01*
X195520652Y-76400943D01*
X195594057Y-76474348D01*
X195680372Y-76532021D01*
X195776280Y-76571748D01*
X195878095Y-76592000D01*
X195981905Y-76592000D01*
X196083720Y-76571748D01*
X196179628Y-76532021D01*
X196265943Y-76474348D01*
X196339348Y-76400943D01*
X196397021Y-76314628D01*
X196436748Y-76218720D01*
X196457000Y-76116905D01*
X196457000Y-76013095D01*
X196436748Y-75911280D01*
X196397021Y-75815372D01*
X196363364Y-75765000D01*
X196397021Y-75714628D01*
X196403869Y-75698095D01*
X198098000Y-75698095D01*
X198098000Y-75801905D01*
X198118252Y-75903720D01*
X198157979Y-75999628D01*
X198215652Y-76085943D01*
X198289057Y-76159348D01*
X198375372Y-76217021D01*
X198471280Y-76256748D01*
X198573095Y-76277000D01*
X198676905Y-76277000D01*
X198778720Y-76256748D01*
X198874628Y-76217021D01*
X198960943Y-76159348D01*
X199034348Y-76085943D01*
X199092021Y-75999628D01*
X199131748Y-75903720D01*
X199152000Y-75801905D01*
X199152000Y-75698095D01*
X199131748Y-75596280D01*
X199092021Y-75500372D01*
X199034348Y-75414057D01*
X199032791Y-75412500D01*
X199039348Y-75405943D01*
X199097021Y-75319628D01*
X199136748Y-75223720D01*
X199157000Y-75121905D01*
X199157000Y-75023095D01*
X200148000Y-75023095D01*
X200148000Y-75126905D01*
X200168252Y-75228720D01*
X200207979Y-75324628D01*
X200265652Y-75410943D01*
X200267209Y-75412500D01*
X200265652Y-75414057D01*
X200207979Y-75500372D01*
X200168252Y-75596280D01*
X200148000Y-75698095D01*
X200148000Y-75801905D01*
X200168252Y-75903720D01*
X200207979Y-75999628D01*
X200265652Y-76085943D01*
X200339057Y-76159348D01*
X200425372Y-76217021D01*
X200521280Y-76256748D01*
X200623095Y-76277000D01*
X200726905Y-76277000D01*
X200828720Y-76256748D01*
X200924628Y-76217021D01*
X201010943Y-76159348D01*
X201084348Y-76085943D01*
X201142021Y-75999628D01*
X201181748Y-75903720D01*
X201202000Y-75801905D01*
X201202000Y-75698095D01*
X201181748Y-75596280D01*
X201142021Y-75500372D01*
X201084348Y-75414057D01*
X201082791Y-75412500D01*
X201084348Y-75410943D01*
X201142021Y-75324628D01*
X201181748Y-75228720D01*
X201202000Y-75126905D01*
X201202000Y-75023095D01*
X201181748Y-74921280D01*
X201142021Y-74825372D01*
X201084348Y-74739057D01*
X201010943Y-74665652D01*
X200924628Y-74607979D01*
X200828720Y-74568252D01*
X200726905Y-74548000D01*
X200623095Y-74548000D01*
X200521280Y-74568252D01*
X200425372Y-74607979D01*
X200339057Y-74665652D01*
X200265652Y-74739057D01*
X200207979Y-74825372D01*
X200168252Y-74921280D01*
X200148000Y-75023095D01*
X199157000Y-75023095D01*
X199157000Y-75018095D01*
X199136748Y-74916280D01*
X199097021Y-74820372D01*
X199039348Y-74734057D01*
X198965943Y-74660652D01*
X198879628Y-74602979D01*
X198783720Y-74563252D01*
X198681905Y-74543000D01*
X198578095Y-74543000D01*
X198476280Y-74563252D01*
X198380372Y-74602979D01*
X198294057Y-74660652D01*
X198220652Y-74734057D01*
X198162979Y-74820372D01*
X198123252Y-74916280D01*
X198103000Y-75018095D01*
X198103000Y-75121905D01*
X198123252Y-75223720D01*
X198162979Y-75319628D01*
X198220652Y-75405943D01*
X198222209Y-75407500D01*
X198215652Y-75414057D01*
X198157979Y-75500372D01*
X198118252Y-75596280D01*
X198098000Y-75698095D01*
X196403869Y-75698095D01*
X196436748Y-75618720D01*
X196457000Y-75516905D01*
X196457000Y-75413095D01*
X196436748Y-75311280D01*
X196397021Y-75215372D01*
X196339348Y-75129057D01*
X196265943Y-75055652D01*
X196179628Y-74997979D01*
X196083720Y-74958252D01*
X195981905Y-74938000D01*
X195878095Y-74938000D01*
X195776280Y-74958252D01*
X195680372Y-74997979D01*
X195594057Y-75055652D01*
X195520652Y-75129057D01*
X195462979Y-75215372D01*
X195423252Y-75311280D01*
X195403000Y-75413095D01*
X193191819Y-75413095D01*
X193201567Y-72552231D01*
X206698216Y-72576770D01*
G37*
X206698216Y-72576770D02*
X206722783Y-86973000D01*
X193152433Y-86973000D01*
X193159417Y-84923095D01*
X201448000Y-84923095D01*
X201448000Y-85026905D01*
X201468252Y-85128720D01*
X201507979Y-85224628D01*
X201565652Y-85310943D01*
X201639057Y-85384348D01*
X201725372Y-85442021D01*
X201821280Y-85481748D01*
X201923095Y-85502000D01*
X202026905Y-85502000D01*
X202128720Y-85481748D01*
X202224628Y-85442021D01*
X202310943Y-85384348D01*
X202384348Y-85310943D01*
X202442021Y-85224628D01*
X202481748Y-85128720D01*
X202502000Y-85026905D01*
X202502000Y-84923095D01*
X202481748Y-84821280D01*
X202442021Y-84725372D01*
X202384348Y-84639057D01*
X202310943Y-84565652D01*
X202224628Y-84507979D01*
X202128720Y-84468252D01*
X202026905Y-84448000D01*
X201923095Y-84448000D01*
X201821280Y-84468252D01*
X201725372Y-84507979D01*
X201639057Y-84565652D01*
X201565652Y-84639057D01*
X201507979Y-84725372D01*
X201468252Y-84821280D01*
X201448000Y-84923095D01*
X193159417Y-84923095D01*
X193166124Y-82954611D01*
X193171281Y-82956747D01*
X193273096Y-82976999D01*
X193304361Y-82976999D01*
X193304361Y-82996601D01*
X193324613Y-83098416D01*
X193364340Y-83194324D01*
X193422013Y-83280639D01*
X193495418Y-83354044D01*
X193581733Y-83411717D01*
X193589694Y-83415015D01*
X193565652Y-83439057D01*
X193507979Y-83525372D01*
X193468252Y-83621280D01*
X193448000Y-83723095D01*
X193448000Y-83826905D01*
X193468252Y-83928720D01*
X193507979Y-84024628D01*
X193565652Y-84110943D01*
X193639057Y-84184348D01*
X193725372Y-84242021D01*
X193821280Y-84281748D01*
X193923095Y-84302000D01*
X194026905Y-84302000D01*
X194128720Y-84281748D01*
X194224628Y-84242021D01*
X194310943Y-84184348D01*
X194384348Y-84110943D01*
X194442021Y-84024628D01*
X194481748Y-83928720D01*
X194502000Y-83826905D01*
X194502000Y-83723095D01*
X194481748Y-83621280D01*
X194442021Y-83525372D01*
X194384348Y-83439057D01*
X194310943Y-83365652D01*
X194224628Y-83307979D01*
X194216667Y-83304681D01*
X194240709Y-83280639D01*
X194298382Y-83194324D01*
X194338109Y-83098416D01*
X194358361Y-82996601D01*
X194358361Y-82892791D01*
X194338109Y-82790976D01*
X194298382Y-82695068D01*
X194240709Y-82608753D01*
X194167304Y-82535348D01*
X194080989Y-82477675D01*
X194015223Y-82450433D01*
X194023099Y-82452000D01*
X194126909Y-82452000D01*
X194228724Y-82431748D01*
X194324632Y-82392021D01*
X194352957Y-82373095D01*
X194673000Y-82373095D01*
X194673000Y-82476905D01*
X194693252Y-82578720D01*
X194732979Y-82674628D01*
X194790652Y-82760943D01*
X194864057Y-82834348D01*
X194950372Y-82892021D01*
X195046280Y-82931748D01*
X195148095Y-82952000D01*
X195251905Y-82952000D01*
X195353720Y-82931748D01*
X195449628Y-82892021D01*
X195535943Y-82834348D01*
X195609348Y-82760943D01*
X195667021Y-82674628D01*
X195706748Y-82578720D01*
X195727000Y-82476905D01*
X195727000Y-82373095D01*
X195706748Y-82271280D01*
X195667021Y-82175372D01*
X195609348Y-82089057D01*
X195535943Y-82015652D01*
X195449628Y-81957979D01*
X195353720Y-81918252D01*
X195251905Y-81898000D01*
X195148095Y-81898000D01*
X195046280Y-81918252D01*
X194950372Y-81957979D01*
X194864057Y-82015652D01*
X194790652Y-82089057D01*
X194732979Y-82175372D01*
X194693252Y-82271280D01*
X194673000Y-82373095D01*
X194352957Y-82373095D01*
X194410947Y-82334348D01*
X194484352Y-82260943D01*
X194542025Y-82174628D01*
X194581752Y-82078720D01*
X194602004Y-81976905D01*
X194602004Y-81873095D01*
X194581752Y-81771280D01*
X194542025Y-81675372D01*
X194484352Y-81589057D01*
X194410947Y-81515652D01*
X194324632Y-81457979D01*
X194228724Y-81418252D01*
X194126909Y-81398000D01*
X194023099Y-81398000D01*
X193921284Y-81418252D01*
X193825376Y-81457979D01*
X193739061Y-81515652D01*
X193665656Y-81589057D01*
X193607983Y-81675372D01*
X193568256Y-81771280D01*
X193548004Y-81873095D01*
X193548004Y-81971949D01*
X193478721Y-81943251D01*
X193376906Y-81922999D01*
X193273096Y-81922999D01*
X193171281Y-81943251D01*
X193169568Y-81943961D01*
X193171704Y-81316995D01*
X193189057Y-81334348D01*
X193275372Y-81392021D01*
X193371280Y-81431748D01*
X193473095Y-81452000D01*
X193576905Y-81452000D01*
X193678720Y-81431748D01*
X193774628Y-81392021D01*
X193860943Y-81334348D01*
X193934348Y-81260943D01*
X193992021Y-81174628D01*
X194031748Y-81078720D01*
X194052000Y-80976905D01*
X194052000Y-80873095D01*
X194031748Y-80771280D01*
X193992021Y-80675372D01*
X193934348Y-80589057D01*
X193860943Y-80515652D01*
X193774628Y-80457979D01*
X193678720Y-80418252D01*
X193576905Y-80398000D01*
X193473095Y-80398000D01*
X193371280Y-80418252D01*
X193275372Y-80457979D01*
X193189057Y-80515652D01*
X193174384Y-80530325D01*
X193178837Y-79223095D01*
X205523000Y-79223095D01*
X205523000Y-79326905D01*
X205543252Y-79428720D01*
X205582979Y-79524628D01*
X205640652Y-79610943D01*
X205714057Y-79684348D01*
X205800372Y-79742021D01*
X205896280Y-79781748D01*
X205998095Y-79802000D01*
X206101905Y-79802000D01*
X206203720Y-79781748D01*
X206299628Y-79742021D01*
X206385943Y-79684348D01*
X206459348Y-79610943D01*
X206517021Y-79524628D01*
X206556748Y-79428720D01*
X206577000Y-79326905D01*
X206577000Y-79223095D01*
X206556748Y-79121280D01*
X206517021Y-79025372D01*
X206459348Y-78939057D01*
X206385943Y-78865652D01*
X206299628Y-78807979D01*
X206203720Y-78768252D01*
X206101905Y-78748000D01*
X205998095Y-78748000D01*
X205896280Y-78768252D01*
X205800372Y-78807979D01*
X205714057Y-78865652D01*
X205640652Y-78939057D01*
X205582979Y-79025372D01*
X205543252Y-79121280D01*
X205523000Y-79223095D01*
X193178837Y-79223095D01*
X193180967Y-78598095D01*
X201623000Y-78598095D01*
X201623000Y-78701905D01*
X201643252Y-78803720D01*
X201682979Y-78899628D01*
X201740652Y-78985943D01*
X201814057Y-79059348D01*
X201900372Y-79117021D01*
X201996280Y-79156748D01*
X202098095Y-79177000D01*
X202201905Y-79177000D01*
X202303720Y-79156748D01*
X202399628Y-79117021D01*
X202485943Y-79059348D01*
X202559348Y-78985943D01*
X202617021Y-78899628D01*
X202656748Y-78803720D01*
X202677000Y-78701905D01*
X202677000Y-78598095D01*
X202656748Y-78496280D01*
X202617021Y-78400372D01*
X202559348Y-78314057D01*
X202485943Y-78240652D01*
X202399628Y-78182979D01*
X202303720Y-78143252D01*
X202201905Y-78123000D01*
X202098095Y-78123000D01*
X201996280Y-78143252D01*
X201900372Y-78182979D01*
X201814057Y-78240652D01*
X201740652Y-78314057D01*
X201682979Y-78400372D01*
X201643252Y-78496280D01*
X201623000Y-78598095D01*
X193180967Y-78598095D01*
X193184629Y-77523095D01*
X202123000Y-77523095D01*
X202123000Y-77626905D01*
X202143252Y-77728720D01*
X202182979Y-77824628D01*
X202240652Y-77910943D01*
X202314057Y-77984348D01*
X202400372Y-78042021D01*
X202496280Y-78081748D01*
X202598095Y-78102000D01*
X202701905Y-78102000D01*
X202803720Y-78081748D01*
X202899628Y-78042021D01*
X202985943Y-77984348D01*
X203059348Y-77910943D01*
X203117021Y-77824628D01*
X203156748Y-77728720D01*
X203177000Y-77626905D01*
X203177000Y-77523095D01*
X203156748Y-77421280D01*
X203117021Y-77325372D01*
X203059348Y-77239057D01*
X202985943Y-77165652D01*
X202899628Y-77107979D01*
X202803720Y-77068252D01*
X202701905Y-77048000D01*
X202598095Y-77048000D01*
X202496280Y-77068252D01*
X202400372Y-77107979D01*
X202314057Y-77165652D01*
X202240652Y-77239057D01*
X202182979Y-77325372D01*
X202143252Y-77421280D01*
X202123000Y-77523095D01*
X193184629Y-77523095D01*
X193191819Y-75413095D01*
X195403000Y-75413095D01*
X195403000Y-75516905D01*
X195423252Y-75618720D01*
X195462979Y-75714628D01*
X195496636Y-75765000D01*
X195462979Y-75815372D01*
X195423252Y-75911280D01*
X195403000Y-76013095D01*
X195403000Y-76116905D01*
X195423252Y-76218720D01*
X195462979Y-76314628D01*
X195520652Y-76400943D01*
X195594057Y-76474348D01*
X195680372Y-76532021D01*
X195776280Y-76571748D01*
X195878095Y-76592000D01*
X195981905Y-76592000D01*
X196083720Y-76571748D01*
X196179628Y-76532021D01*
X196265943Y-76474348D01*
X196339348Y-76400943D01*
X196397021Y-76314628D01*
X196436748Y-76218720D01*
X196457000Y-76116905D01*
X196457000Y-76013095D01*
X196436748Y-75911280D01*
X196397021Y-75815372D01*
X196363364Y-75765000D01*
X196397021Y-75714628D01*
X196403869Y-75698095D01*
X198098000Y-75698095D01*
X198098000Y-75801905D01*
X198118252Y-75903720D01*
X198157979Y-75999628D01*
X198215652Y-76085943D01*
X198289057Y-76159348D01*
X198375372Y-76217021D01*
X198471280Y-76256748D01*
X198573095Y-76277000D01*
X198676905Y-76277000D01*
X198778720Y-76256748D01*
X198874628Y-76217021D01*
X198960943Y-76159348D01*
X199034348Y-76085943D01*
X199092021Y-75999628D01*
X199131748Y-75903720D01*
X199152000Y-75801905D01*
X199152000Y-75698095D01*
X199131748Y-75596280D01*
X199092021Y-75500372D01*
X199034348Y-75414057D01*
X199032791Y-75412500D01*
X199039348Y-75405943D01*
X199097021Y-75319628D01*
X199136748Y-75223720D01*
X199157000Y-75121905D01*
X199157000Y-75023095D01*
X200148000Y-75023095D01*
X200148000Y-75126905D01*
X200168252Y-75228720D01*
X200207979Y-75324628D01*
X200265652Y-75410943D01*
X200267209Y-75412500D01*
X200265652Y-75414057D01*
X200207979Y-75500372D01*
X200168252Y-75596280D01*
X200148000Y-75698095D01*
X200148000Y-75801905D01*
X200168252Y-75903720D01*
X200207979Y-75999628D01*
X200265652Y-76085943D01*
X200339057Y-76159348D01*
X200425372Y-76217021D01*
X200521280Y-76256748D01*
X200623095Y-76277000D01*
X200726905Y-76277000D01*
X200828720Y-76256748D01*
X200924628Y-76217021D01*
X201010943Y-76159348D01*
X201084348Y-76085943D01*
X201142021Y-75999628D01*
X201181748Y-75903720D01*
X201202000Y-75801905D01*
X201202000Y-75698095D01*
X201181748Y-75596280D01*
X201142021Y-75500372D01*
X201084348Y-75414057D01*
X201082791Y-75412500D01*
X201084348Y-75410943D01*
X201142021Y-75324628D01*
X201181748Y-75228720D01*
X201202000Y-75126905D01*
X201202000Y-75023095D01*
X201181748Y-74921280D01*
X201142021Y-74825372D01*
X201084348Y-74739057D01*
X201010943Y-74665652D01*
X200924628Y-74607979D01*
X200828720Y-74568252D01*
X200726905Y-74548000D01*
X200623095Y-74548000D01*
X200521280Y-74568252D01*
X200425372Y-74607979D01*
X200339057Y-74665652D01*
X200265652Y-74739057D01*
X200207979Y-74825372D01*
X200168252Y-74921280D01*
X200148000Y-75023095D01*
X199157000Y-75023095D01*
X199157000Y-75018095D01*
X199136748Y-74916280D01*
X199097021Y-74820372D01*
X199039348Y-74734057D01*
X198965943Y-74660652D01*
X198879628Y-74602979D01*
X198783720Y-74563252D01*
X198681905Y-74543000D01*
X198578095Y-74543000D01*
X198476280Y-74563252D01*
X198380372Y-74602979D01*
X198294057Y-74660652D01*
X198220652Y-74734057D01*
X198162979Y-74820372D01*
X198123252Y-74916280D01*
X198103000Y-75018095D01*
X198103000Y-75121905D01*
X198123252Y-75223720D01*
X198162979Y-75319628D01*
X198220652Y-75405943D01*
X198222209Y-75407500D01*
X198215652Y-75414057D01*
X198157979Y-75500372D01*
X198118252Y-75596280D01*
X198098000Y-75698095D01*
X196403869Y-75698095D01*
X196436748Y-75618720D01*
X196457000Y-75516905D01*
X196457000Y-75413095D01*
X196436748Y-75311280D01*
X196397021Y-75215372D01*
X196339348Y-75129057D01*
X196265943Y-75055652D01*
X196179628Y-74997979D01*
X196083720Y-74958252D01*
X195981905Y-74938000D01*
X195878095Y-74938000D01*
X195776280Y-74958252D01*
X195680372Y-74997979D01*
X195594057Y-75055652D01*
X195520652Y-75129057D01*
X195462979Y-75215372D01*
X195423252Y-75311280D01*
X195403000Y-75413095D01*
X193191819Y-75413095D01*
X193201567Y-72552231D01*
X206698216Y-72576770D01*
M02*
