G04 #@! TF.GenerationSoftware,KiCad,Pcbnew,(5.1.6)-1*
G04 #@! TF.CreationDate,2020-08-31T21:18:16+02:00*
G04 #@! TF.ProjectId,Freude_Microcontroller,46726575-6465-45f4-9d69-63726f636f6e,rev?*
G04 #@! TF.SameCoordinates,Original*
G04 #@! TF.FileFunction,Copper,L3,Inr*
G04 #@! TF.FilePolarity,Positive*
%FSLAX46Y46*%
G04 Gerber Fmt 4.6, Leading zero omitted, Abs format (unit mm)*
G04 Created by KiCad (PCBNEW (5.1.6)-1) date 2020-08-31 21:18:16*
%MOMM*%
%LPD*%
G01*
G04 APERTURE LIST*
G04 #@! TA.AperFunction,ViaPad*
%ADD10C,1.650000*%
G04 #@! TD*
G04 #@! TA.AperFunction,ViaPad*
%ADD11C,0.450000*%
G04 #@! TD*
G04 #@! TA.AperFunction,Conductor*
%ADD12C,0.254000*%
G04 #@! TD*
G04 APERTURE END LIST*
D10*
X193675000Y-69025000D03*
X210075000Y-86825000D03*
D11*
X199600000Y-81950000D03*
X200175000Y-87350000D03*
X198100000Y-81950000D03*
X196050000Y-80025000D03*
X200800000Y-78200000D03*
X206925000Y-79400000D03*
X198655000Y-73520000D03*
X198070000Y-73515000D03*
X196220000Y-86400000D03*
X202895000Y-81105000D03*
X202150000Y-78650000D03*
X202650000Y-77575000D03*
X194075004Y-81925000D03*
X195200000Y-82425000D03*
X193831361Y-82944696D03*
X193975000Y-83775000D03*
X198630000Y-75070000D03*
X193525000Y-80925000D03*
X206050000Y-79275000D03*
X195930000Y-75465000D03*
X195930000Y-76065000D03*
X201975000Y-84975000D03*
X200675000Y-75075000D03*
X198625000Y-75750000D03*
X200675000Y-75750000D03*
X193325001Y-82449999D03*
D12*
G36*
X206698216Y-72576770D02*
G01*
X206722783Y-86973000D01*
X193152433Y-86973000D01*
X193159425Y-84920633D01*
X201423000Y-84920633D01*
X201423000Y-85029367D01*
X201444213Y-85136012D01*
X201485824Y-85236470D01*
X201546234Y-85326880D01*
X201623120Y-85403766D01*
X201713530Y-85464176D01*
X201813988Y-85505787D01*
X201920633Y-85527000D01*
X202029367Y-85527000D01*
X202136012Y-85505787D01*
X202236470Y-85464176D01*
X202326880Y-85403766D01*
X202403766Y-85326880D01*
X202464176Y-85236470D01*
X202505787Y-85136012D01*
X202527000Y-85029367D01*
X202527000Y-84920633D01*
X202505787Y-84813988D01*
X202464176Y-84713530D01*
X202403766Y-84623120D01*
X202326880Y-84546234D01*
X202236470Y-84485824D01*
X202136012Y-84444213D01*
X202029367Y-84423000D01*
X201920633Y-84423000D01*
X201813988Y-84444213D01*
X201713530Y-84485824D01*
X201623120Y-84546234D01*
X201546234Y-84623120D01*
X201485824Y-84713530D01*
X201444213Y-84813988D01*
X201423000Y-84920633D01*
X193159425Y-84920633D01*
X193166034Y-82981193D01*
X193270634Y-83001999D01*
X193279945Y-83001999D01*
X193300574Y-83105708D01*
X193342185Y-83206166D01*
X193402595Y-83296576D01*
X193479481Y-83373462D01*
X193549264Y-83420090D01*
X193546234Y-83423120D01*
X193485824Y-83513530D01*
X193444213Y-83613988D01*
X193423000Y-83720633D01*
X193423000Y-83829367D01*
X193444213Y-83936012D01*
X193485824Y-84036470D01*
X193546234Y-84126880D01*
X193623120Y-84203766D01*
X193713530Y-84264176D01*
X193813988Y-84305787D01*
X193920633Y-84327000D01*
X194029367Y-84327000D01*
X194136012Y-84305787D01*
X194236470Y-84264176D01*
X194326880Y-84203766D01*
X194403766Y-84126880D01*
X194464176Y-84036470D01*
X194505787Y-83936012D01*
X194527000Y-83829367D01*
X194527000Y-83720633D01*
X194505787Y-83613988D01*
X194464176Y-83513530D01*
X194403766Y-83423120D01*
X194326880Y-83346234D01*
X194257097Y-83299606D01*
X194260127Y-83296576D01*
X194320537Y-83206166D01*
X194362148Y-83105708D01*
X194383361Y-82999063D01*
X194383361Y-82890329D01*
X194362148Y-82783684D01*
X194320537Y-82683226D01*
X194260127Y-82592816D01*
X194183241Y-82515930D01*
X194124978Y-82477000D01*
X194129371Y-82477000D01*
X194236016Y-82455787D01*
X194336474Y-82414176D01*
X194401640Y-82370633D01*
X194648000Y-82370633D01*
X194648000Y-82479367D01*
X194669213Y-82586012D01*
X194710824Y-82686470D01*
X194771234Y-82776880D01*
X194848120Y-82853766D01*
X194938530Y-82914176D01*
X195038988Y-82955787D01*
X195145633Y-82977000D01*
X195254367Y-82977000D01*
X195361012Y-82955787D01*
X195461470Y-82914176D01*
X195551880Y-82853766D01*
X195628766Y-82776880D01*
X195689176Y-82686470D01*
X195730787Y-82586012D01*
X195752000Y-82479367D01*
X195752000Y-82370633D01*
X195730787Y-82263988D01*
X195689176Y-82163530D01*
X195628766Y-82073120D01*
X195551880Y-81996234D01*
X195461470Y-81935824D01*
X195361012Y-81894213D01*
X195254367Y-81873000D01*
X195145633Y-81873000D01*
X195038988Y-81894213D01*
X194938530Y-81935824D01*
X194848120Y-81996234D01*
X194771234Y-82073120D01*
X194710824Y-82163530D01*
X194669213Y-82263988D01*
X194648000Y-82370633D01*
X194401640Y-82370633D01*
X194426884Y-82353766D01*
X194503770Y-82276880D01*
X194564180Y-82186470D01*
X194605791Y-82086012D01*
X194627004Y-81979367D01*
X194627004Y-81870633D01*
X194605791Y-81763988D01*
X194564180Y-81663530D01*
X194503770Y-81573120D01*
X194426884Y-81496234D01*
X194336474Y-81435824D01*
X194236016Y-81394213D01*
X194129371Y-81373000D01*
X194020637Y-81373000D01*
X193913992Y-81394213D01*
X193813534Y-81435824D01*
X193723124Y-81496234D01*
X193646238Y-81573120D01*
X193585828Y-81663530D01*
X193544217Y-81763988D01*
X193523004Y-81870633D01*
X193523004Y-81934534D01*
X193486013Y-81919212D01*
X193379368Y-81897999D01*
X193270634Y-81897999D01*
X193169656Y-81918085D01*
X193171584Y-81352230D01*
X193173120Y-81353766D01*
X193263530Y-81414176D01*
X193363988Y-81455787D01*
X193470633Y-81477000D01*
X193579367Y-81477000D01*
X193686012Y-81455787D01*
X193786470Y-81414176D01*
X193876880Y-81353766D01*
X193953766Y-81276880D01*
X194014176Y-81186470D01*
X194055787Y-81086012D01*
X194077000Y-80979367D01*
X194077000Y-80870633D01*
X194055787Y-80763988D01*
X194014176Y-80663530D01*
X193953766Y-80573120D01*
X193876880Y-80496234D01*
X193786470Y-80435824D01*
X193686012Y-80394213D01*
X193579367Y-80373000D01*
X193470633Y-80373000D01*
X193363988Y-80394213D01*
X193263530Y-80435824D01*
X193174504Y-80495310D01*
X193178846Y-79220633D01*
X205498000Y-79220633D01*
X205498000Y-79329367D01*
X205519213Y-79436012D01*
X205560824Y-79536470D01*
X205621234Y-79626880D01*
X205698120Y-79703766D01*
X205788530Y-79764176D01*
X205888988Y-79805787D01*
X205995633Y-79827000D01*
X206104367Y-79827000D01*
X206211012Y-79805787D01*
X206311470Y-79764176D01*
X206401880Y-79703766D01*
X206478766Y-79626880D01*
X206539176Y-79536470D01*
X206580787Y-79436012D01*
X206602000Y-79329367D01*
X206602000Y-79220633D01*
X206580787Y-79113988D01*
X206539176Y-79013530D01*
X206478766Y-78923120D01*
X206401880Y-78846234D01*
X206311470Y-78785824D01*
X206211012Y-78744213D01*
X206104367Y-78723000D01*
X205995633Y-78723000D01*
X205888988Y-78744213D01*
X205788530Y-78785824D01*
X205698120Y-78846234D01*
X205621234Y-78923120D01*
X205560824Y-79013530D01*
X205519213Y-79113988D01*
X205498000Y-79220633D01*
X193178846Y-79220633D01*
X193180976Y-78595633D01*
X201598000Y-78595633D01*
X201598000Y-78704367D01*
X201619213Y-78811012D01*
X201660824Y-78911470D01*
X201721234Y-79001880D01*
X201798120Y-79078766D01*
X201888530Y-79139176D01*
X201988988Y-79180787D01*
X202095633Y-79202000D01*
X202204367Y-79202000D01*
X202311012Y-79180787D01*
X202411470Y-79139176D01*
X202501880Y-79078766D01*
X202578766Y-79001880D01*
X202639176Y-78911470D01*
X202680787Y-78811012D01*
X202702000Y-78704367D01*
X202702000Y-78595633D01*
X202680787Y-78488988D01*
X202639176Y-78388530D01*
X202578766Y-78298120D01*
X202501880Y-78221234D01*
X202411470Y-78160824D01*
X202311012Y-78119213D01*
X202204367Y-78098000D01*
X202095633Y-78098000D01*
X201988988Y-78119213D01*
X201888530Y-78160824D01*
X201798120Y-78221234D01*
X201721234Y-78298120D01*
X201660824Y-78388530D01*
X201619213Y-78488988D01*
X201598000Y-78595633D01*
X193180976Y-78595633D01*
X193184638Y-77520633D01*
X202098000Y-77520633D01*
X202098000Y-77629367D01*
X202119213Y-77736012D01*
X202160824Y-77836470D01*
X202221234Y-77926880D01*
X202298120Y-78003766D01*
X202388530Y-78064176D01*
X202488988Y-78105787D01*
X202595633Y-78127000D01*
X202704367Y-78127000D01*
X202811012Y-78105787D01*
X202911470Y-78064176D01*
X203001880Y-78003766D01*
X203078766Y-77926880D01*
X203139176Y-77836470D01*
X203180787Y-77736012D01*
X203202000Y-77629367D01*
X203202000Y-77520633D01*
X203180787Y-77413988D01*
X203139176Y-77313530D01*
X203078766Y-77223120D01*
X203001880Y-77146234D01*
X202911470Y-77085824D01*
X202811012Y-77044213D01*
X202704367Y-77023000D01*
X202595633Y-77023000D01*
X202488988Y-77044213D01*
X202388530Y-77085824D01*
X202298120Y-77146234D01*
X202221234Y-77223120D01*
X202160824Y-77313530D01*
X202119213Y-77413988D01*
X202098000Y-77520633D01*
X193184638Y-77520633D01*
X193191828Y-75410633D01*
X195378000Y-75410633D01*
X195378000Y-75519367D01*
X195399213Y-75626012D01*
X195440824Y-75726470D01*
X195466569Y-75765000D01*
X195440824Y-75803530D01*
X195399213Y-75903988D01*
X195378000Y-76010633D01*
X195378000Y-76119367D01*
X195399213Y-76226012D01*
X195440824Y-76326470D01*
X195501234Y-76416880D01*
X195578120Y-76493766D01*
X195668530Y-76554176D01*
X195768988Y-76595787D01*
X195875633Y-76617000D01*
X195984367Y-76617000D01*
X196091012Y-76595787D01*
X196191470Y-76554176D01*
X196281880Y-76493766D01*
X196358766Y-76416880D01*
X196419176Y-76326470D01*
X196460787Y-76226012D01*
X196482000Y-76119367D01*
X196482000Y-76010633D01*
X196460787Y-75903988D01*
X196419176Y-75803530D01*
X196393431Y-75765000D01*
X196419176Y-75726470D01*
X196431949Y-75695633D01*
X198073000Y-75695633D01*
X198073000Y-75804367D01*
X198094213Y-75911012D01*
X198135824Y-76011470D01*
X198196234Y-76101880D01*
X198273120Y-76178766D01*
X198363530Y-76239176D01*
X198463988Y-76280787D01*
X198570633Y-76302000D01*
X198679367Y-76302000D01*
X198786012Y-76280787D01*
X198886470Y-76239176D01*
X198976880Y-76178766D01*
X199053766Y-76101880D01*
X199114176Y-76011470D01*
X199155787Y-75911012D01*
X199177000Y-75804367D01*
X199177000Y-75695633D01*
X199155787Y-75588988D01*
X199114176Y-75488530D01*
X199064204Y-75413742D01*
X199119176Y-75331470D01*
X199160787Y-75231012D01*
X199182000Y-75124367D01*
X199182000Y-75020633D01*
X200123000Y-75020633D01*
X200123000Y-75129367D01*
X200144213Y-75236012D01*
X200185824Y-75336470D01*
X200236626Y-75412500D01*
X200185824Y-75488530D01*
X200144213Y-75588988D01*
X200123000Y-75695633D01*
X200123000Y-75804367D01*
X200144213Y-75911012D01*
X200185824Y-76011470D01*
X200246234Y-76101880D01*
X200323120Y-76178766D01*
X200413530Y-76239176D01*
X200513988Y-76280787D01*
X200620633Y-76302000D01*
X200729367Y-76302000D01*
X200836012Y-76280787D01*
X200936470Y-76239176D01*
X201026880Y-76178766D01*
X201103766Y-76101880D01*
X201164176Y-76011470D01*
X201205787Y-75911012D01*
X201227000Y-75804367D01*
X201227000Y-75695633D01*
X201205787Y-75588988D01*
X201164176Y-75488530D01*
X201113374Y-75412500D01*
X201164176Y-75336470D01*
X201205787Y-75236012D01*
X201227000Y-75129367D01*
X201227000Y-75020633D01*
X201205787Y-74913988D01*
X201164176Y-74813530D01*
X201103766Y-74723120D01*
X201026880Y-74646234D01*
X200936470Y-74585824D01*
X200836012Y-74544213D01*
X200729367Y-74523000D01*
X200620633Y-74523000D01*
X200513988Y-74544213D01*
X200413530Y-74585824D01*
X200323120Y-74646234D01*
X200246234Y-74723120D01*
X200185824Y-74813530D01*
X200144213Y-74913988D01*
X200123000Y-75020633D01*
X199182000Y-75020633D01*
X199182000Y-75015633D01*
X199160787Y-74908988D01*
X199119176Y-74808530D01*
X199058766Y-74718120D01*
X198981880Y-74641234D01*
X198891470Y-74580824D01*
X198791012Y-74539213D01*
X198684367Y-74518000D01*
X198575633Y-74518000D01*
X198468988Y-74539213D01*
X198368530Y-74580824D01*
X198278120Y-74641234D01*
X198201234Y-74718120D01*
X198140824Y-74808530D01*
X198099213Y-74908988D01*
X198078000Y-75015633D01*
X198078000Y-75124367D01*
X198099213Y-75231012D01*
X198140824Y-75331470D01*
X198190796Y-75406258D01*
X198135824Y-75488530D01*
X198094213Y-75588988D01*
X198073000Y-75695633D01*
X196431949Y-75695633D01*
X196460787Y-75626012D01*
X196482000Y-75519367D01*
X196482000Y-75410633D01*
X196460787Y-75303988D01*
X196419176Y-75203530D01*
X196358766Y-75113120D01*
X196281880Y-75036234D01*
X196191470Y-74975824D01*
X196091012Y-74934213D01*
X195984367Y-74913000D01*
X195875633Y-74913000D01*
X195768988Y-74934213D01*
X195668530Y-74975824D01*
X195578120Y-75036234D01*
X195501234Y-75113120D01*
X195440824Y-75203530D01*
X195399213Y-75303988D01*
X195378000Y-75410633D01*
X193191828Y-75410633D01*
X193201567Y-72552231D01*
X206698216Y-72576770D01*
G37*
X206698216Y-72576770D02*
X206722783Y-86973000D01*
X193152433Y-86973000D01*
X193159425Y-84920633D01*
X201423000Y-84920633D01*
X201423000Y-85029367D01*
X201444213Y-85136012D01*
X201485824Y-85236470D01*
X201546234Y-85326880D01*
X201623120Y-85403766D01*
X201713530Y-85464176D01*
X201813988Y-85505787D01*
X201920633Y-85527000D01*
X202029367Y-85527000D01*
X202136012Y-85505787D01*
X202236470Y-85464176D01*
X202326880Y-85403766D01*
X202403766Y-85326880D01*
X202464176Y-85236470D01*
X202505787Y-85136012D01*
X202527000Y-85029367D01*
X202527000Y-84920633D01*
X202505787Y-84813988D01*
X202464176Y-84713530D01*
X202403766Y-84623120D01*
X202326880Y-84546234D01*
X202236470Y-84485824D01*
X202136012Y-84444213D01*
X202029367Y-84423000D01*
X201920633Y-84423000D01*
X201813988Y-84444213D01*
X201713530Y-84485824D01*
X201623120Y-84546234D01*
X201546234Y-84623120D01*
X201485824Y-84713530D01*
X201444213Y-84813988D01*
X201423000Y-84920633D01*
X193159425Y-84920633D01*
X193166034Y-82981193D01*
X193270634Y-83001999D01*
X193279945Y-83001999D01*
X193300574Y-83105708D01*
X193342185Y-83206166D01*
X193402595Y-83296576D01*
X193479481Y-83373462D01*
X193549264Y-83420090D01*
X193546234Y-83423120D01*
X193485824Y-83513530D01*
X193444213Y-83613988D01*
X193423000Y-83720633D01*
X193423000Y-83829367D01*
X193444213Y-83936012D01*
X193485824Y-84036470D01*
X193546234Y-84126880D01*
X193623120Y-84203766D01*
X193713530Y-84264176D01*
X193813988Y-84305787D01*
X193920633Y-84327000D01*
X194029367Y-84327000D01*
X194136012Y-84305787D01*
X194236470Y-84264176D01*
X194326880Y-84203766D01*
X194403766Y-84126880D01*
X194464176Y-84036470D01*
X194505787Y-83936012D01*
X194527000Y-83829367D01*
X194527000Y-83720633D01*
X194505787Y-83613988D01*
X194464176Y-83513530D01*
X194403766Y-83423120D01*
X194326880Y-83346234D01*
X194257097Y-83299606D01*
X194260127Y-83296576D01*
X194320537Y-83206166D01*
X194362148Y-83105708D01*
X194383361Y-82999063D01*
X194383361Y-82890329D01*
X194362148Y-82783684D01*
X194320537Y-82683226D01*
X194260127Y-82592816D01*
X194183241Y-82515930D01*
X194124978Y-82477000D01*
X194129371Y-82477000D01*
X194236016Y-82455787D01*
X194336474Y-82414176D01*
X194401640Y-82370633D01*
X194648000Y-82370633D01*
X194648000Y-82479367D01*
X194669213Y-82586012D01*
X194710824Y-82686470D01*
X194771234Y-82776880D01*
X194848120Y-82853766D01*
X194938530Y-82914176D01*
X195038988Y-82955787D01*
X195145633Y-82977000D01*
X195254367Y-82977000D01*
X195361012Y-82955787D01*
X195461470Y-82914176D01*
X195551880Y-82853766D01*
X195628766Y-82776880D01*
X195689176Y-82686470D01*
X195730787Y-82586012D01*
X195752000Y-82479367D01*
X195752000Y-82370633D01*
X195730787Y-82263988D01*
X195689176Y-82163530D01*
X195628766Y-82073120D01*
X195551880Y-81996234D01*
X195461470Y-81935824D01*
X195361012Y-81894213D01*
X195254367Y-81873000D01*
X195145633Y-81873000D01*
X195038988Y-81894213D01*
X194938530Y-81935824D01*
X194848120Y-81996234D01*
X194771234Y-82073120D01*
X194710824Y-82163530D01*
X194669213Y-82263988D01*
X194648000Y-82370633D01*
X194401640Y-82370633D01*
X194426884Y-82353766D01*
X194503770Y-82276880D01*
X194564180Y-82186470D01*
X194605791Y-82086012D01*
X194627004Y-81979367D01*
X194627004Y-81870633D01*
X194605791Y-81763988D01*
X194564180Y-81663530D01*
X194503770Y-81573120D01*
X194426884Y-81496234D01*
X194336474Y-81435824D01*
X194236016Y-81394213D01*
X194129371Y-81373000D01*
X194020637Y-81373000D01*
X193913992Y-81394213D01*
X193813534Y-81435824D01*
X193723124Y-81496234D01*
X193646238Y-81573120D01*
X193585828Y-81663530D01*
X193544217Y-81763988D01*
X193523004Y-81870633D01*
X193523004Y-81934534D01*
X193486013Y-81919212D01*
X193379368Y-81897999D01*
X193270634Y-81897999D01*
X193169656Y-81918085D01*
X193171584Y-81352230D01*
X193173120Y-81353766D01*
X193263530Y-81414176D01*
X193363988Y-81455787D01*
X193470633Y-81477000D01*
X193579367Y-81477000D01*
X193686012Y-81455787D01*
X193786470Y-81414176D01*
X193876880Y-81353766D01*
X193953766Y-81276880D01*
X194014176Y-81186470D01*
X194055787Y-81086012D01*
X194077000Y-80979367D01*
X194077000Y-80870633D01*
X194055787Y-80763988D01*
X194014176Y-80663530D01*
X193953766Y-80573120D01*
X193876880Y-80496234D01*
X193786470Y-80435824D01*
X193686012Y-80394213D01*
X193579367Y-80373000D01*
X193470633Y-80373000D01*
X193363988Y-80394213D01*
X193263530Y-80435824D01*
X193174504Y-80495310D01*
X193178846Y-79220633D01*
X205498000Y-79220633D01*
X205498000Y-79329367D01*
X205519213Y-79436012D01*
X205560824Y-79536470D01*
X205621234Y-79626880D01*
X205698120Y-79703766D01*
X205788530Y-79764176D01*
X205888988Y-79805787D01*
X205995633Y-79827000D01*
X206104367Y-79827000D01*
X206211012Y-79805787D01*
X206311470Y-79764176D01*
X206401880Y-79703766D01*
X206478766Y-79626880D01*
X206539176Y-79536470D01*
X206580787Y-79436012D01*
X206602000Y-79329367D01*
X206602000Y-79220633D01*
X206580787Y-79113988D01*
X206539176Y-79013530D01*
X206478766Y-78923120D01*
X206401880Y-78846234D01*
X206311470Y-78785824D01*
X206211012Y-78744213D01*
X206104367Y-78723000D01*
X205995633Y-78723000D01*
X205888988Y-78744213D01*
X205788530Y-78785824D01*
X205698120Y-78846234D01*
X205621234Y-78923120D01*
X205560824Y-79013530D01*
X205519213Y-79113988D01*
X205498000Y-79220633D01*
X193178846Y-79220633D01*
X193180976Y-78595633D01*
X201598000Y-78595633D01*
X201598000Y-78704367D01*
X201619213Y-78811012D01*
X201660824Y-78911470D01*
X201721234Y-79001880D01*
X201798120Y-79078766D01*
X201888530Y-79139176D01*
X201988988Y-79180787D01*
X202095633Y-79202000D01*
X202204367Y-79202000D01*
X202311012Y-79180787D01*
X202411470Y-79139176D01*
X202501880Y-79078766D01*
X202578766Y-79001880D01*
X202639176Y-78911470D01*
X202680787Y-78811012D01*
X202702000Y-78704367D01*
X202702000Y-78595633D01*
X202680787Y-78488988D01*
X202639176Y-78388530D01*
X202578766Y-78298120D01*
X202501880Y-78221234D01*
X202411470Y-78160824D01*
X202311012Y-78119213D01*
X202204367Y-78098000D01*
X202095633Y-78098000D01*
X201988988Y-78119213D01*
X201888530Y-78160824D01*
X201798120Y-78221234D01*
X201721234Y-78298120D01*
X201660824Y-78388530D01*
X201619213Y-78488988D01*
X201598000Y-78595633D01*
X193180976Y-78595633D01*
X193184638Y-77520633D01*
X202098000Y-77520633D01*
X202098000Y-77629367D01*
X202119213Y-77736012D01*
X202160824Y-77836470D01*
X202221234Y-77926880D01*
X202298120Y-78003766D01*
X202388530Y-78064176D01*
X202488988Y-78105787D01*
X202595633Y-78127000D01*
X202704367Y-78127000D01*
X202811012Y-78105787D01*
X202911470Y-78064176D01*
X203001880Y-78003766D01*
X203078766Y-77926880D01*
X203139176Y-77836470D01*
X203180787Y-77736012D01*
X203202000Y-77629367D01*
X203202000Y-77520633D01*
X203180787Y-77413988D01*
X203139176Y-77313530D01*
X203078766Y-77223120D01*
X203001880Y-77146234D01*
X202911470Y-77085824D01*
X202811012Y-77044213D01*
X202704367Y-77023000D01*
X202595633Y-77023000D01*
X202488988Y-77044213D01*
X202388530Y-77085824D01*
X202298120Y-77146234D01*
X202221234Y-77223120D01*
X202160824Y-77313530D01*
X202119213Y-77413988D01*
X202098000Y-77520633D01*
X193184638Y-77520633D01*
X193191828Y-75410633D01*
X195378000Y-75410633D01*
X195378000Y-75519367D01*
X195399213Y-75626012D01*
X195440824Y-75726470D01*
X195466569Y-75765000D01*
X195440824Y-75803530D01*
X195399213Y-75903988D01*
X195378000Y-76010633D01*
X195378000Y-76119367D01*
X195399213Y-76226012D01*
X195440824Y-76326470D01*
X195501234Y-76416880D01*
X195578120Y-76493766D01*
X195668530Y-76554176D01*
X195768988Y-76595787D01*
X195875633Y-76617000D01*
X195984367Y-76617000D01*
X196091012Y-76595787D01*
X196191470Y-76554176D01*
X196281880Y-76493766D01*
X196358766Y-76416880D01*
X196419176Y-76326470D01*
X196460787Y-76226012D01*
X196482000Y-76119367D01*
X196482000Y-76010633D01*
X196460787Y-75903988D01*
X196419176Y-75803530D01*
X196393431Y-75765000D01*
X196419176Y-75726470D01*
X196431949Y-75695633D01*
X198073000Y-75695633D01*
X198073000Y-75804367D01*
X198094213Y-75911012D01*
X198135824Y-76011470D01*
X198196234Y-76101880D01*
X198273120Y-76178766D01*
X198363530Y-76239176D01*
X198463988Y-76280787D01*
X198570633Y-76302000D01*
X198679367Y-76302000D01*
X198786012Y-76280787D01*
X198886470Y-76239176D01*
X198976880Y-76178766D01*
X199053766Y-76101880D01*
X199114176Y-76011470D01*
X199155787Y-75911012D01*
X199177000Y-75804367D01*
X199177000Y-75695633D01*
X199155787Y-75588988D01*
X199114176Y-75488530D01*
X199064204Y-75413742D01*
X199119176Y-75331470D01*
X199160787Y-75231012D01*
X199182000Y-75124367D01*
X199182000Y-75020633D01*
X200123000Y-75020633D01*
X200123000Y-75129367D01*
X200144213Y-75236012D01*
X200185824Y-75336470D01*
X200236626Y-75412500D01*
X200185824Y-75488530D01*
X200144213Y-75588988D01*
X200123000Y-75695633D01*
X200123000Y-75804367D01*
X200144213Y-75911012D01*
X200185824Y-76011470D01*
X200246234Y-76101880D01*
X200323120Y-76178766D01*
X200413530Y-76239176D01*
X200513988Y-76280787D01*
X200620633Y-76302000D01*
X200729367Y-76302000D01*
X200836012Y-76280787D01*
X200936470Y-76239176D01*
X201026880Y-76178766D01*
X201103766Y-76101880D01*
X201164176Y-76011470D01*
X201205787Y-75911012D01*
X201227000Y-75804367D01*
X201227000Y-75695633D01*
X201205787Y-75588988D01*
X201164176Y-75488530D01*
X201113374Y-75412500D01*
X201164176Y-75336470D01*
X201205787Y-75236012D01*
X201227000Y-75129367D01*
X201227000Y-75020633D01*
X201205787Y-74913988D01*
X201164176Y-74813530D01*
X201103766Y-74723120D01*
X201026880Y-74646234D01*
X200936470Y-74585824D01*
X200836012Y-74544213D01*
X200729367Y-74523000D01*
X200620633Y-74523000D01*
X200513988Y-74544213D01*
X200413530Y-74585824D01*
X200323120Y-74646234D01*
X200246234Y-74723120D01*
X200185824Y-74813530D01*
X200144213Y-74913988D01*
X200123000Y-75020633D01*
X199182000Y-75020633D01*
X199182000Y-75015633D01*
X199160787Y-74908988D01*
X199119176Y-74808530D01*
X199058766Y-74718120D01*
X198981880Y-74641234D01*
X198891470Y-74580824D01*
X198791012Y-74539213D01*
X198684367Y-74518000D01*
X198575633Y-74518000D01*
X198468988Y-74539213D01*
X198368530Y-74580824D01*
X198278120Y-74641234D01*
X198201234Y-74718120D01*
X198140824Y-74808530D01*
X198099213Y-74908988D01*
X198078000Y-75015633D01*
X198078000Y-75124367D01*
X198099213Y-75231012D01*
X198140824Y-75331470D01*
X198190796Y-75406258D01*
X198135824Y-75488530D01*
X198094213Y-75588988D01*
X198073000Y-75695633D01*
X196431949Y-75695633D01*
X196460787Y-75626012D01*
X196482000Y-75519367D01*
X196482000Y-75410633D01*
X196460787Y-75303988D01*
X196419176Y-75203530D01*
X196358766Y-75113120D01*
X196281880Y-75036234D01*
X196191470Y-74975824D01*
X196091012Y-74934213D01*
X195984367Y-74913000D01*
X195875633Y-74913000D01*
X195768988Y-74934213D01*
X195668530Y-74975824D01*
X195578120Y-75036234D01*
X195501234Y-75113120D01*
X195440824Y-75203530D01*
X195399213Y-75303988D01*
X195378000Y-75410633D01*
X193191828Y-75410633D01*
X193201567Y-72552231D01*
X206698216Y-72576770D01*
M02*
