G04 #@! TF.GenerationSoftware,KiCad,Pcbnew,(5.1.6)-1*
G04 #@! TF.CreationDate,2020-08-31T21:18:16+02:00*
G04 #@! TF.ProjectId,Freude_Microcontroller,46726575-6465-45f4-9d69-63726f636f6e,rev?*
G04 #@! TF.SameCoordinates,Original*
G04 #@! TF.FileFunction,Paste,Top*
G04 #@! TF.FilePolarity,Positive*
%FSLAX46Y46*%
G04 Gerber Fmt 4.6, Leading zero omitted, Abs format (unit mm)*
G04 Created by KiCad (PCBNEW (5.1.6)-1) date 2020-08-31 21:18:16*
%MOMM*%
%LPD*%
G01*
G04 APERTURE LIST*
%ADD10R,0.600000X0.400000*%
%ADD11R,1.300000X1.600000*%
%ADD12R,0.400000X0.600000*%
%ADD13R,0.700000X0.300000*%
%ADD14R,1.000000X0.300000*%
%ADD15R,0.600000X0.700000*%
G04 APERTURE END LIST*
D10*
X197040000Y-74400000D03*
X197040000Y-73500000D03*
D11*
X206390000Y-82160000D03*
X206390000Y-85460000D03*
X204390000Y-85460000D03*
X204390000Y-82160000D03*
D10*
X202790000Y-81660000D03*
X202790000Y-82560000D03*
D12*
X200800000Y-79075000D03*
X201700000Y-79075000D03*
X202675000Y-79275000D03*
X203575000Y-79275000D03*
X205275000Y-79275000D03*
X204375000Y-79275000D03*
X205740000Y-87280000D03*
X204840000Y-87280000D03*
X204350000Y-80425000D03*
X205250000Y-80425000D03*
X203575000Y-80425000D03*
X202675000Y-80425000D03*
D10*
X202920000Y-84520000D03*
X202920000Y-83620000D03*
X202950000Y-85470000D03*
X202950000Y-86370000D03*
D12*
X206080000Y-80410000D03*
X206980000Y-80410000D03*
D10*
X194900000Y-80925000D03*
X194900000Y-80025000D03*
D13*
X194850000Y-87400000D03*
X194850000Y-86900000D03*
D14*
X192200000Y-88190000D03*
X192200000Y-84110000D03*
D13*
X194850000Y-86400000D03*
X194850000Y-85900000D03*
X194850000Y-85400000D03*
G36*
G01*
X194575000Y-84750000D02*
X195125000Y-84750000D01*
G75*
G02*
X195200000Y-84825000I0J-75000D01*
G01*
X195200000Y-84975000D01*
G75*
G02*
X195125000Y-85050000I-75000J0D01*
G01*
X194575000Y-85050000D01*
G75*
G02*
X194500000Y-84975000I0J75000D01*
G01*
X194500000Y-84825000D01*
G75*
G02*
X194575000Y-84750000I75000J0D01*
G01*
G37*
D15*
X198050000Y-78725000D03*
X196950000Y-78725000D03*
D14*
X193300000Y-75740000D03*
X193300000Y-72160000D03*
D13*
X195950000Y-74950000D03*
X195950000Y-74450000D03*
X195950000Y-73950000D03*
X195950000Y-73450000D03*
G36*
G01*
X195675000Y-72800000D02*
X196225000Y-72800000D01*
G75*
G02*
X196300000Y-72875000I0J-75000D01*
G01*
X196300000Y-73025000D01*
G75*
G02*
X196225000Y-73100000I-75000J0D01*
G01*
X195675000Y-73100000D01*
G75*
G02*
X195600000Y-73025000I0J75000D01*
G01*
X195600000Y-72875000D01*
G75*
G02*
X195675000Y-72800000I75000J0D01*
G01*
G37*
G36*
G01*
X201725000Y-84362500D02*
X201725000Y-84487500D01*
G75*
G02*
X201662500Y-84550000I-62500J0D01*
G01*
X200912500Y-84550000D01*
G75*
G02*
X200850000Y-84487500I0J62500D01*
G01*
X200850000Y-84362500D01*
G75*
G02*
X200912500Y-84300000I62500J0D01*
G01*
X201662500Y-84300000D01*
G75*
G02*
X201725000Y-84362500I0J-62500D01*
G01*
G37*
G36*
G01*
X201725000Y-83862500D02*
X201725000Y-83987500D01*
G75*
G02*
X201662500Y-84050000I-62500J0D01*
G01*
X200912500Y-84050000D01*
G75*
G02*
X200850000Y-83987500I0J62500D01*
G01*
X200850000Y-83862500D01*
G75*
G02*
X200912500Y-83800000I62500J0D01*
G01*
X201662500Y-83800000D01*
G75*
G02*
X201725000Y-83862500I0J-62500D01*
G01*
G37*
G36*
G01*
X201725000Y-83362500D02*
X201725000Y-83487500D01*
G75*
G02*
X201662500Y-83550000I-62500J0D01*
G01*
X200912500Y-83550000D01*
G75*
G02*
X200850000Y-83487500I0J62500D01*
G01*
X200850000Y-83362500D01*
G75*
G02*
X200912500Y-83300000I62500J0D01*
G01*
X201662500Y-83300000D01*
G75*
G02*
X201725000Y-83362500I0J-62500D01*
G01*
G37*
G36*
G01*
X201725000Y-82862500D02*
X201725000Y-82987500D01*
G75*
G02*
X201662500Y-83050000I-62500J0D01*
G01*
X200912500Y-83050000D01*
G75*
G02*
X200850000Y-82987500I0J62500D01*
G01*
X200850000Y-82862500D01*
G75*
G02*
X200912500Y-82800000I62500J0D01*
G01*
X201662500Y-82800000D01*
G75*
G02*
X201725000Y-82862500I0J-62500D01*
G01*
G37*
G36*
G01*
X201725000Y-82362500D02*
X201725000Y-82487500D01*
G75*
G02*
X201662500Y-82550000I-62500J0D01*
G01*
X200912500Y-82550000D01*
G75*
G02*
X200850000Y-82487500I0J62500D01*
G01*
X200850000Y-82362500D01*
G75*
G02*
X200912500Y-82300000I62500J0D01*
G01*
X201662500Y-82300000D01*
G75*
G02*
X201725000Y-82362500I0J-62500D01*
G01*
G37*
G36*
G01*
X201725000Y-81862500D02*
X201725000Y-81987500D01*
G75*
G02*
X201662500Y-82050000I-62500J0D01*
G01*
X200912500Y-82050000D01*
G75*
G02*
X200850000Y-81987500I0J62500D01*
G01*
X200850000Y-81862500D01*
G75*
G02*
X200912500Y-81800000I62500J0D01*
G01*
X201662500Y-81800000D01*
G75*
G02*
X201725000Y-81862500I0J-62500D01*
G01*
G37*
G36*
G01*
X201725000Y-81362500D02*
X201725000Y-81487500D01*
G75*
G02*
X201662500Y-81550000I-62500J0D01*
G01*
X200912500Y-81550000D01*
G75*
G02*
X200850000Y-81487500I0J62500D01*
G01*
X200850000Y-81362500D01*
G75*
G02*
X200912500Y-81300000I62500J0D01*
G01*
X201662500Y-81300000D01*
G75*
G02*
X201725000Y-81362500I0J-62500D01*
G01*
G37*
G36*
G01*
X201725000Y-80862500D02*
X201725000Y-80987500D01*
G75*
G02*
X201662500Y-81050000I-62500J0D01*
G01*
X200912500Y-81050000D01*
G75*
G02*
X200850000Y-80987500I0J62500D01*
G01*
X200850000Y-80862500D01*
G75*
G02*
X200912500Y-80800000I62500J0D01*
G01*
X201662500Y-80800000D01*
G75*
G02*
X201725000Y-80862500I0J-62500D01*
G01*
G37*
G36*
G01*
X200725000Y-79862500D02*
X200725000Y-80612500D01*
G75*
G02*
X200662500Y-80675000I-62500J0D01*
G01*
X200537500Y-80675000D01*
G75*
G02*
X200475000Y-80612500I0J62500D01*
G01*
X200475000Y-79862500D01*
G75*
G02*
X200537500Y-79800000I62500J0D01*
G01*
X200662500Y-79800000D01*
G75*
G02*
X200725000Y-79862500I0J-62500D01*
G01*
G37*
G36*
G01*
X200225000Y-79862500D02*
X200225000Y-80612500D01*
G75*
G02*
X200162500Y-80675000I-62500J0D01*
G01*
X200037500Y-80675000D01*
G75*
G02*
X199975000Y-80612500I0J62500D01*
G01*
X199975000Y-79862500D01*
G75*
G02*
X200037500Y-79800000I62500J0D01*
G01*
X200162500Y-79800000D01*
G75*
G02*
X200225000Y-79862500I0J-62500D01*
G01*
G37*
G36*
G01*
X199725000Y-79862500D02*
X199725000Y-80612500D01*
G75*
G02*
X199662500Y-80675000I-62500J0D01*
G01*
X199537500Y-80675000D01*
G75*
G02*
X199475000Y-80612500I0J62500D01*
G01*
X199475000Y-79862500D01*
G75*
G02*
X199537500Y-79800000I62500J0D01*
G01*
X199662500Y-79800000D01*
G75*
G02*
X199725000Y-79862500I0J-62500D01*
G01*
G37*
G36*
G01*
X199225000Y-79862500D02*
X199225000Y-80612500D01*
G75*
G02*
X199162500Y-80675000I-62500J0D01*
G01*
X199037500Y-80675000D01*
G75*
G02*
X198975000Y-80612500I0J62500D01*
G01*
X198975000Y-79862500D01*
G75*
G02*
X199037500Y-79800000I62500J0D01*
G01*
X199162500Y-79800000D01*
G75*
G02*
X199225000Y-79862500I0J-62500D01*
G01*
G37*
G36*
G01*
X198725000Y-79862500D02*
X198725000Y-80612500D01*
G75*
G02*
X198662500Y-80675000I-62500J0D01*
G01*
X198537500Y-80675000D01*
G75*
G02*
X198475000Y-80612500I0J62500D01*
G01*
X198475000Y-79862500D01*
G75*
G02*
X198537500Y-79800000I62500J0D01*
G01*
X198662500Y-79800000D01*
G75*
G02*
X198725000Y-79862500I0J-62500D01*
G01*
G37*
G36*
G01*
X198225000Y-79862500D02*
X198225000Y-80612500D01*
G75*
G02*
X198162500Y-80675000I-62500J0D01*
G01*
X198037500Y-80675000D01*
G75*
G02*
X197975000Y-80612500I0J62500D01*
G01*
X197975000Y-79862500D01*
G75*
G02*
X198037500Y-79800000I62500J0D01*
G01*
X198162500Y-79800000D01*
G75*
G02*
X198225000Y-79862500I0J-62500D01*
G01*
G37*
G36*
G01*
X197725000Y-79862500D02*
X197725000Y-80612500D01*
G75*
G02*
X197662500Y-80675000I-62500J0D01*
G01*
X197537500Y-80675000D01*
G75*
G02*
X197475000Y-80612500I0J62500D01*
G01*
X197475000Y-79862500D01*
G75*
G02*
X197537500Y-79800000I62500J0D01*
G01*
X197662500Y-79800000D01*
G75*
G02*
X197725000Y-79862500I0J-62500D01*
G01*
G37*
G36*
G01*
X197225000Y-79862500D02*
X197225000Y-80612500D01*
G75*
G02*
X197162500Y-80675000I-62500J0D01*
G01*
X197037500Y-80675000D01*
G75*
G02*
X196975000Y-80612500I0J62500D01*
G01*
X196975000Y-79862500D01*
G75*
G02*
X197037500Y-79800000I62500J0D01*
G01*
X197162500Y-79800000D01*
G75*
G02*
X197225000Y-79862500I0J-62500D01*
G01*
G37*
G36*
G01*
X196850000Y-80862500D02*
X196850000Y-80987500D01*
G75*
G02*
X196787500Y-81050000I-62500J0D01*
G01*
X196037500Y-81050000D01*
G75*
G02*
X195975000Y-80987500I0J62500D01*
G01*
X195975000Y-80862500D01*
G75*
G02*
X196037500Y-80800000I62500J0D01*
G01*
X196787500Y-80800000D01*
G75*
G02*
X196850000Y-80862500I0J-62500D01*
G01*
G37*
G36*
G01*
X196850000Y-81362500D02*
X196850000Y-81487500D01*
G75*
G02*
X196787500Y-81550000I-62500J0D01*
G01*
X196037500Y-81550000D01*
G75*
G02*
X195975000Y-81487500I0J62500D01*
G01*
X195975000Y-81362500D01*
G75*
G02*
X196037500Y-81300000I62500J0D01*
G01*
X196787500Y-81300000D01*
G75*
G02*
X196850000Y-81362500I0J-62500D01*
G01*
G37*
G36*
G01*
X196850000Y-81862500D02*
X196850000Y-81987500D01*
G75*
G02*
X196787500Y-82050000I-62500J0D01*
G01*
X196037500Y-82050000D01*
G75*
G02*
X195975000Y-81987500I0J62500D01*
G01*
X195975000Y-81862500D01*
G75*
G02*
X196037500Y-81800000I62500J0D01*
G01*
X196787500Y-81800000D01*
G75*
G02*
X196850000Y-81862500I0J-62500D01*
G01*
G37*
G36*
G01*
X196850000Y-82362500D02*
X196850000Y-82487500D01*
G75*
G02*
X196787500Y-82550000I-62500J0D01*
G01*
X196037500Y-82550000D01*
G75*
G02*
X195975000Y-82487500I0J62500D01*
G01*
X195975000Y-82362500D01*
G75*
G02*
X196037500Y-82300000I62500J0D01*
G01*
X196787500Y-82300000D01*
G75*
G02*
X196850000Y-82362500I0J-62500D01*
G01*
G37*
G36*
G01*
X196850000Y-82862500D02*
X196850000Y-82987500D01*
G75*
G02*
X196787500Y-83050000I-62500J0D01*
G01*
X196037500Y-83050000D01*
G75*
G02*
X195975000Y-82987500I0J62500D01*
G01*
X195975000Y-82862500D01*
G75*
G02*
X196037500Y-82800000I62500J0D01*
G01*
X196787500Y-82800000D01*
G75*
G02*
X196850000Y-82862500I0J-62500D01*
G01*
G37*
G36*
G01*
X196850000Y-83362500D02*
X196850000Y-83487500D01*
G75*
G02*
X196787500Y-83550000I-62500J0D01*
G01*
X196037500Y-83550000D01*
G75*
G02*
X195975000Y-83487500I0J62500D01*
G01*
X195975000Y-83362500D01*
G75*
G02*
X196037500Y-83300000I62500J0D01*
G01*
X196787500Y-83300000D01*
G75*
G02*
X196850000Y-83362500I0J-62500D01*
G01*
G37*
G36*
G01*
X196850000Y-83862500D02*
X196850000Y-83987500D01*
G75*
G02*
X196787500Y-84050000I-62500J0D01*
G01*
X196037500Y-84050000D01*
G75*
G02*
X195975000Y-83987500I0J62500D01*
G01*
X195975000Y-83862500D01*
G75*
G02*
X196037500Y-83800000I62500J0D01*
G01*
X196787500Y-83800000D01*
G75*
G02*
X196850000Y-83862500I0J-62500D01*
G01*
G37*
G36*
G01*
X196850000Y-84362500D02*
X196850000Y-84487500D01*
G75*
G02*
X196787500Y-84550000I-62500J0D01*
G01*
X196037500Y-84550000D01*
G75*
G02*
X195975000Y-84487500I0J62500D01*
G01*
X195975000Y-84362500D01*
G75*
G02*
X196037500Y-84300000I62500J0D01*
G01*
X196787500Y-84300000D01*
G75*
G02*
X196850000Y-84362500I0J-62500D01*
G01*
G37*
G36*
G01*
X197225000Y-84737500D02*
X197225000Y-85487500D01*
G75*
G02*
X197162500Y-85550000I-62500J0D01*
G01*
X197037500Y-85550000D01*
G75*
G02*
X196975000Y-85487500I0J62500D01*
G01*
X196975000Y-84737500D01*
G75*
G02*
X197037500Y-84675000I62500J0D01*
G01*
X197162500Y-84675000D01*
G75*
G02*
X197225000Y-84737500I0J-62500D01*
G01*
G37*
G36*
G01*
X197725000Y-84737500D02*
X197725000Y-85487500D01*
G75*
G02*
X197662500Y-85550000I-62500J0D01*
G01*
X197537500Y-85550000D01*
G75*
G02*
X197475000Y-85487500I0J62500D01*
G01*
X197475000Y-84737500D01*
G75*
G02*
X197537500Y-84675000I62500J0D01*
G01*
X197662500Y-84675000D01*
G75*
G02*
X197725000Y-84737500I0J-62500D01*
G01*
G37*
G36*
G01*
X198225000Y-84737500D02*
X198225000Y-85487500D01*
G75*
G02*
X198162500Y-85550000I-62500J0D01*
G01*
X198037500Y-85550000D01*
G75*
G02*
X197975000Y-85487500I0J62500D01*
G01*
X197975000Y-84737500D01*
G75*
G02*
X198037500Y-84675000I62500J0D01*
G01*
X198162500Y-84675000D01*
G75*
G02*
X198225000Y-84737500I0J-62500D01*
G01*
G37*
G36*
G01*
X198725000Y-84737500D02*
X198725000Y-85487500D01*
G75*
G02*
X198662500Y-85550000I-62500J0D01*
G01*
X198537500Y-85550000D01*
G75*
G02*
X198475000Y-85487500I0J62500D01*
G01*
X198475000Y-84737500D01*
G75*
G02*
X198537500Y-84675000I62500J0D01*
G01*
X198662500Y-84675000D01*
G75*
G02*
X198725000Y-84737500I0J-62500D01*
G01*
G37*
G36*
G01*
X199225000Y-84737500D02*
X199225000Y-85487500D01*
G75*
G02*
X199162500Y-85550000I-62500J0D01*
G01*
X199037500Y-85550000D01*
G75*
G02*
X198975000Y-85487500I0J62500D01*
G01*
X198975000Y-84737500D01*
G75*
G02*
X199037500Y-84675000I62500J0D01*
G01*
X199162500Y-84675000D01*
G75*
G02*
X199225000Y-84737500I0J-62500D01*
G01*
G37*
G36*
G01*
X199725000Y-84737500D02*
X199725000Y-85487500D01*
G75*
G02*
X199662500Y-85550000I-62500J0D01*
G01*
X199537500Y-85550000D01*
G75*
G02*
X199475000Y-85487500I0J62500D01*
G01*
X199475000Y-84737500D01*
G75*
G02*
X199537500Y-84675000I62500J0D01*
G01*
X199662500Y-84675000D01*
G75*
G02*
X199725000Y-84737500I0J-62500D01*
G01*
G37*
G36*
G01*
X200225000Y-84737500D02*
X200225000Y-85487500D01*
G75*
G02*
X200162500Y-85550000I-62500J0D01*
G01*
X200037500Y-85550000D01*
G75*
G02*
X199975000Y-85487500I0J62500D01*
G01*
X199975000Y-84737500D01*
G75*
G02*
X200037500Y-84675000I62500J0D01*
G01*
X200162500Y-84675000D01*
G75*
G02*
X200225000Y-84737500I0J-62500D01*
G01*
G37*
G36*
G01*
X200725000Y-84737500D02*
X200725000Y-85487500D01*
G75*
G02*
X200662500Y-85550000I-62500J0D01*
G01*
X200537500Y-85550000D01*
G75*
G02*
X200475000Y-85487500I0J62500D01*
G01*
X200475000Y-84737500D01*
G75*
G02*
X200537500Y-84675000I62500J0D01*
G01*
X200662500Y-84675000D01*
G75*
G02*
X200725000Y-84737500I0J-62500D01*
G01*
G37*
G36*
G01*
X200465000Y-83592500D02*
X200465000Y-84057500D01*
G75*
G02*
X200232500Y-84290000I-232500J0D01*
G01*
X199767500Y-84290000D01*
G75*
G02*
X199535000Y-84057500I0J232500D01*
G01*
X199535000Y-83592500D01*
G75*
G02*
X199767500Y-83360000I232500J0D01*
G01*
X200232500Y-83360000D01*
G75*
G02*
X200465000Y-83592500I0J-232500D01*
G01*
G37*
G36*
G01*
X200465000Y-82442500D02*
X200465000Y-82907500D01*
G75*
G02*
X200232500Y-83140000I-232500J0D01*
G01*
X199767500Y-83140000D01*
G75*
G02*
X199535000Y-82907500I0J232500D01*
G01*
X199535000Y-82442500D01*
G75*
G02*
X199767500Y-82210000I232500J0D01*
G01*
X200232500Y-82210000D01*
G75*
G02*
X200465000Y-82442500I0J-232500D01*
G01*
G37*
G36*
G01*
X200465000Y-81292500D02*
X200465000Y-81757500D01*
G75*
G02*
X200232500Y-81990000I-232500J0D01*
G01*
X199767500Y-81990000D01*
G75*
G02*
X199535000Y-81757500I0J232500D01*
G01*
X199535000Y-81292500D01*
G75*
G02*
X199767500Y-81060000I232500J0D01*
G01*
X200232500Y-81060000D01*
G75*
G02*
X200465000Y-81292500I0J-232500D01*
G01*
G37*
G36*
G01*
X199315000Y-83592500D02*
X199315000Y-84057500D01*
G75*
G02*
X199082500Y-84290000I-232500J0D01*
G01*
X198617500Y-84290000D01*
G75*
G02*
X198385000Y-84057500I0J232500D01*
G01*
X198385000Y-83592500D01*
G75*
G02*
X198617500Y-83360000I232500J0D01*
G01*
X199082500Y-83360000D01*
G75*
G02*
X199315000Y-83592500I0J-232500D01*
G01*
G37*
G36*
G01*
X199315000Y-82442500D02*
X199315000Y-82907500D01*
G75*
G02*
X199082500Y-83140000I-232500J0D01*
G01*
X198617500Y-83140000D01*
G75*
G02*
X198385000Y-82907500I0J232500D01*
G01*
X198385000Y-82442500D01*
G75*
G02*
X198617500Y-82210000I232500J0D01*
G01*
X199082500Y-82210000D01*
G75*
G02*
X199315000Y-82442500I0J-232500D01*
G01*
G37*
G36*
G01*
X199315000Y-81292500D02*
X199315000Y-81757500D01*
G75*
G02*
X199082500Y-81990000I-232500J0D01*
G01*
X198617500Y-81990000D01*
G75*
G02*
X198385000Y-81757500I0J232500D01*
G01*
X198385000Y-81292500D01*
G75*
G02*
X198617500Y-81060000I232500J0D01*
G01*
X199082500Y-81060000D01*
G75*
G02*
X199315000Y-81292500I0J-232500D01*
G01*
G37*
G36*
G01*
X198165000Y-83592500D02*
X198165000Y-84057500D01*
G75*
G02*
X197932500Y-84290000I-232500J0D01*
G01*
X197467500Y-84290000D01*
G75*
G02*
X197235000Y-84057500I0J232500D01*
G01*
X197235000Y-83592500D01*
G75*
G02*
X197467500Y-83360000I232500J0D01*
G01*
X197932500Y-83360000D01*
G75*
G02*
X198165000Y-83592500I0J-232500D01*
G01*
G37*
G36*
G01*
X198165000Y-82442500D02*
X198165000Y-82907500D01*
G75*
G02*
X197932500Y-83140000I-232500J0D01*
G01*
X197467500Y-83140000D01*
G75*
G02*
X197235000Y-82907500I0J232500D01*
G01*
X197235000Y-82442500D01*
G75*
G02*
X197467500Y-82210000I232500J0D01*
G01*
X197932500Y-82210000D01*
G75*
G02*
X198165000Y-82442500I0J-232500D01*
G01*
G37*
G36*
G01*
X198165000Y-81292500D02*
X198165000Y-81757500D01*
G75*
G02*
X197932500Y-81990000I-232500J0D01*
G01*
X197467500Y-81990000D01*
G75*
G02*
X197235000Y-81757500I0J232500D01*
G01*
X197235000Y-81292500D01*
G75*
G02*
X197467500Y-81060000I232500J0D01*
G01*
X197932500Y-81060000D01*
G75*
G02*
X198165000Y-81292500I0J-232500D01*
G01*
G37*
M02*
