G04 #@! TF.GenerationSoftware,KiCad,Pcbnew,(5.1.6)-1*
G04 #@! TF.CreationDate,2020-08-30T17:28:20+02:00*
G04 #@! TF.ProjectId,Freude_Microcontroller,46726575-6465-45f4-9d69-63726f636f6e,rev?*
G04 #@! TF.SameCoordinates,Original*
G04 #@! TF.FileFunction,Soldermask,Top*
G04 #@! TF.FilePolarity,Negative*
%FSLAX46Y46*%
G04 Gerber Fmt 4.6, Leading zero omitted, Abs format (unit mm)*
G04 Created by KiCad (PCBNEW (5.1.6)-1) date 2020-08-30 17:28:20*
%MOMM*%
%LPD*%
G01*
G04 APERTURE LIST*
%ADD10C,2.050000*%
%ADD11R,1.700000X2.000000*%
%ADD12R,1.000000X0.800000*%
%ADD13R,0.800000X1.000000*%
%ADD14R,1.100000X0.700000*%
%ADD15R,1.400000X0.700000*%
%ADD16R,1.000000X1.100000*%
%ADD17R,3.850000X3.850000*%
%ADD18R,1.900000X1.900000*%
G04 APERTURE END LIST*
D10*
X193675000Y-69025000D03*
X210075000Y-86825000D03*
D11*
X206390000Y-82160000D03*
X206390000Y-85460000D03*
X204390000Y-85460000D03*
X204390000Y-82160000D03*
D12*
X202790000Y-81660000D03*
X202790000Y-82560000D03*
X197040000Y-74400000D03*
X197040000Y-73500000D03*
D13*
X200800000Y-79075000D03*
X201700000Y-79075000D03*
X202675000Y-79275000D03*
X203575000Y-79275000D03*
X205275000Y-79275000D03*
X204375000Y-79275000D03*
X205740000Y-87280000D03*
X204840000Y-87280000D03*
X204350000Y-80425000D03*
X205250000Y-80425000D03*
X203575000Y-80425000D03*
X202675000Y-80425000D03*
D12*
X202920000Y-84520000D03*
X202920000Y-83620000D03*
X202950000Y-85470000D03*
X202950000Y-86370000D03*
D13*
X206080000Y-80410000D03*
X206980000Y-80410000D03*
D12*
X194900000Y-80925000D03*
X194900000Y-80025000D03*
D14*
X194850000Y-87400000D03*
X194850000Y-86900000D03*
D15*
X192200000Y-88190000D03*
X192200000Y-84110000D03*
D14*
X194850000Y-86400000D03*
X194850000Y-85900000D03*
X194850000Y-85400000D03*
G36*
G01*
X194475000Y-84550000D02*
X195225000Y-84550000D01*
G75*
G02*
X195400000Y-84725000I0J-175000D01*
G01*
X195400000Y-85075000D01*
G75*
G02*
X195225000Y-85250000I-175000J0D01*
G01*
X194475000Y-85250000D01*
G75*
G02*
X194300000Y-85075000I0J175000D01*
G01*
X194300000Y-84725000D01*
G75*
G02*
X194475000Y-84550000I175000J0D01*
G01*
G37*
D16*
X198050000Y-78725000D03*
X196950000Y-78725000D03*
D15*
X193300000Y-75740000D03*
X193300000Y-72160000D03*
D14*
X195950000Y-74950000D03*
X195950000Y-74450000D03*
X195950000Y-73950000D03*
X195950000Y-73450000D03*
G36*
G01*
X195575000Y-72600000D02*
X196325000Y-72600000D01*
G75*
G02*
X196500000Y-72775000I0J-175000D01*
G01*
X196500000Y-73125000D01*
G75*
G02*
X196325000Y-73300000I-175000J0D01*
G01*
X195575000Y-73300000D01*
G75*
G02*
X195400000Y-73125000I0J175000D01*
G01*
X195400000Y-72775000D01*
G75*
G02*
X195575000Y-72600000I175000J0D01*
G01*
G37*
G36*
G01*
X201925000Y-84262500D02*
X201925000Y-84587500D01*
G75*
G02*
X201762500Y-84750000I-162500J0D01*
G01*
X200812500Y-84750000D01*
G75*
G02*
X200650000Y-84587500I0J162500D01*
G01*
X200650000Y-84262500D01*
G75*
G02*
X200812500Y-84100000I162500J0D01*
G01*
X201762500Y-84100000D01*
G75*
G02*
X201925000Y-84262500I0J-162500D01*
G01*
G37*
G36*
G01*
X201925000Y-83762500D02*
X201925000Y-84087500D01*
G75*
G02*
X201762500Y-84250000I-162500J0D01*
G01*
X200812500Y-84250000D01*
G75*
G02*
X200650000Y-84087500I0J162500D01*
G01*
X200650000Y-83762500D01*
G75*
G02*
X200812500Y-83600000I162500J0D01*
G01*
X201762500Y-83600000D01*
G75*
G02*
X201925000Y-83762500I0J-162500D01*
G01*
G37*
G36*
G01*
X201925000Y-83262500D02*
X201925000Y-83587500D01*
G75*
G02*
X201762500Y-83750000I-162500J0D01*
G01*
X200812500Y-83750000D01*
G75*
G02*
X200650000Y-83587500I0J162500D01*
G01*
X200650000Y-83262500D01*
G75*
G02*
X200812500Y-83100000I162500J0D01*
G01*
X201762500Y-83100000D01*
G75*
G02*
X201925000Y-83262500I0J-162500D01*
G01*
G37*
G36*
G01*
X201925000Y-82762500D02*
X201925000Y-83087500D01*
G75*
G02*
X201762500Y-83250000I-162500J0D01*
G01*
X200812500Y-83250000D01*
G75*
G02*
X200650000Y-83087500I0J162500D01*
G01*
X200650000Y-82762500D01*
G75*
G02*
X200812500Y-82600000I162500J0D01*
G01*
X201762500Y-82600000D01*
G75*
G02*
X201925000Y-82762500I0J-162500D01*
G01*
G37*
G36*
G01*
X201925000Y-82262500D02*
X201925000Y-82587500D01*
G75*
G02*
X201762500Y-82750000I-162500J0D01*
G01*
X200812500Y-82750000D01*
G75*
G02*
X200650000Y-82587500I0J162500D01*
G01*
X200650000Y-82262500D01*
G75*
G02*
X200812500Y-82100000I162500J0D01*
G01*
X201762500Y-82100000D01*
G75*
G02*
X201925000Y-82262500I0J-162500D01*
G01*
G37*
G36*
G01*
X201925000Y-81762500D02*
X201925000Y-82087500D01*
G75*
G02*
X201762500Y-82250000I-162500J0D01*
G01*
X200812500Y-82250000D01*
G75*
G02*
X200650000Y-82087500I0J162500D01*
G01*
X200650000Y-81762500D01*
G75*
G02*
X200812500Y-81600000I162500J0D01*
G01*
X201762500Y-81600000D01*
G75*
G02*
X201925000Y-81762500I0J-162500D01*
G01*
G37*
G36*
G01*
X201925000Y-81262500D02*
X201925000Y-81587500D01*
G75*
G02*
X201762500Y-81750000I-162500J0D01*
G01*
X200812500Y-81750000D01*
G75*
G02*
X200650000Y-81587500I0J162500D01*
G01*
X200650000Y-81262500D01*
G75*
G02*
X200812500Y-81100000I162500J0D01*
G01*
X201762500Y-81100000D01*
G75*
G02*
X201925000Y-81262500I0J-162500D01*
G01*
G37*
G36*
G01*
X201925000Y-80762500D02*
X201925000Y-81087500D01*
G75*
G02*
X201762500Y-81250000I-162500J0D01*
G01*
X200812500Y-81250000D01*
G75*
G02*
X200650000Y-81087500I0J162500D01*
G01*
X200650000Y-80762500D01*
G75*
G02*
X200812500Y-80600000I162500J0D01*
G01*
X201762500Y-80600000D01*
G75*
G02*
X201925000Y-80762500I0J-162500D01*
G01*
G37*
G36*
G01*
X200925000Y-79762500D02*
X200925000Y-80712500D01*
G75*
G02*
X200762500Y-80875000I-162500J0D01*
G01*
X200437500Y-80875000D01*
G75*
G02*
X200275000Y-80712500I0J162500D01*
G01*
X200275000Y-79762500D01*
G75*
G02*
X200437500Y-79600000I162500J0D01*
G01*
X200762500Y-79600000D01*
G75*
G02*
X200925000Y-79762500I0J-162500D01*
G01*
G37*
G36*
G01*
X200425000Y-79762500D02*
X200425000Y-80712500D01*
G75*
G02*
X200262500Y-80875000I-162500J0D01*
G01*
X199937500Y-80875000D01*
G75*
G02*
X199775000Y-80712500I0J162500D01*
G01*
X199775000Y-79762500D01*
G75*
G02*
X199937500Y-79600000I162500J0D01*
G01*
X200262500Y-79600000D01*
G75*
G02*
X200425000Y-79762500I0J-162500D01*
G01*
G37*
G36*
G01*
X199925000Y-79762500D02*
X199925000Y-80712500D01*
G75*
G02*
X199762500Y-80875000I-162500J0D01*
G01*
X199437500Y-80875000D01*
G75*
G02*
X199275000Y-80712500I0J162500D01*
G01*
X199275000Y-79762500D01*
G75*
G02*
X199437500Y-79600000I162500J0D01*
G01*
X199762500Y-79600000D01*
G75*
G02*
X199925000Y-79762500I0J-162500D01*
G01*
G37*
G36*
G01*
X199425000Y-79762500D02*
X199425000Y-80712500D01*
G75*
G02*
X199262500Y-80875000I-162500J0D01*
G01*
X198937500Y-80875000D01*
G75*
G02*
X198775000Y-80712500I0J162500D01*
G01*
X198775000Y-79762500D01*
G75*
G02*
X198937500Y-79600000I162500J0D01*
G01*
X199262500Y-79600000D01*
G75*
G02*
X199425000Y-79762500I0J-162500D01*
G01*
G37*
G36*
G01*
X198925000Y-79762500D02*
X198925000Y-80712500D01*
G75*
G02*
X198762500Y-80875000I-162500J0D01*
G01*
X198437500Y-80875000D01*
G75*
G02*
X198275000Y-80712500I0J162500D01*
G01*
X198275000Y-79762500D01*
G75*
G02*
X198437500Y-79600000I162500J0D01*
G01*
X198762500Y-79600000D01*
G75*
G02*
X198925000Y-79762500I0J-162500D01*
G01*
G37*
G36*
G01*
X198425000Y-79762500D02*
X198425000Y-80712500D01*
G75*
G02*
X198262500Y-80875000I-162500J0D01*
G01*
X197937500Y-80875000D01*
G75*
G02*
X197775000Y-80712500I0J162500D01*
G01*
X197775000Y-79762500D01*
G75*
G02*
X197937500Y-79600000I162500J0D01*
G01*
X198262500Y-79600000D01*
G75*
G02*
X198425000Y-79762500I0J-162500D01*
G01*
G37*
G36*
G01*
X197925000Y-79762500D02*
X197925000Y-80712500D01*
G75*
G02*
X197762500Y-80875000I-162500J0D01*
G01*
X197437500Y-80875000D01*
G75*
G02*
X197275000Y-80712500I0J162500D01*
G01*
X197275000Y-79762500D01*
G75*
G02*
X197437500Y-79600000I162500J0D01*
G01*
X197762500Y-79600000D01*
G75*
G02*
X197925000Y-79762500I0J-162500D01*
G01*
G37*
G36*
G01*
X197425000Y-79762500D02*
X197425000Y-80712500D01*
G75*
G02*
X197262500Y-80875000I-162500J0D01*
G01*
X196937500Y-80875000D01*
G75*
G02*
X196775000Y-80712500I0J162500D01*
G01*
X196775000Y-79762500D01*
G75*
G02*
X196937500Y-79600000I162500J0D01*
G01*
X197262500Y-79600000D01*
G75*
G02*
X197425000Y-79762500I0J-162500D01*
G01*
G37*
G36*
G01*
X197050000Y-80762500D02*
X197050000Y-81087500D01*
G75*
G02*
X196887500Y-81250000I-162500J0D01*
G01*
X195937500Y-81250000D01*
G75*
G02*
X195775000Y-81087500I0J162500D01*
G01*
X195775000Y-80762500D01*
G75*
G02*
X195937500Y-80600000I162500J0D01*
G01*
X196887500Y-80600000D01*
G75*
G02*
X197050000Y-80762500I0J-162500D01*
G01*
G37*
G36*
G01*
X197050000Y-81262500D02*
X197050000Y-81587500D01*
G75*
G02*
X196887500Y-81750000I-162500J0D01*
G01*
X195937500Y-81750000D01*
G75*
G02*
X195775000Y-81587500I0J162500D01*
G01*
X195775000Y-81262500D01*
G75*
G02*
X195937500Y-81100000I162500J0D01*
G01*
X196887500Y-81100000D01*
G75*
G02*
X197050000Y-81262500I0J-162500D01*
G01*
G37*
G36*
G01*
X197050000Y-81762500D02*
X197050000Y-82087500D01*
G75*
G02*
X196887500Y-82250000I-162500J0D01*
G01*
X195937500Y-82250000D01*
G75*
G02*
X195775000Y-82087500I0J162500D01*
G01*
X195775000Y-81762500D01*
G75*
G02*
X195937500Y-81600000I162500J0D01*
G01*
X196887500Y-81600000D01*
G75*
G02*
X197050000Y-81762500I0J-162500D01*
G01*
G37*
G36*
G01*
X197050000Y-82262500D02*
X197050000Y-82587500D01*
G75*
G02*
X196887500Y-82750000I-162500J0D01*
G01*
X195937500Y-82750000D01*
G75*
G02*
X195775000Y-82587500I0J162500D01*
G01*
X195775000Y-82262500D01*
G75*
G02*
X195937500Y-82100000I162500J0D01*
G01*
X196887500Y-82100000D01*
G75*
G02*
X197050000Y-82262500I0J-162500D01*
G01*
G37*
G36*
G01*
X197050000Y-82762500D02*
X197050000Y-83087500D01*
G75*
G02*
X196887500Y-83250000I-162500J0D01*
G01*
X195937500Y-83250000D01*
G75*
G02*
X195775000Y-83087500I0J162500D01*
G01*
X195775000Y-82762500D01*
G75*
G02*
X195937500Y-82600000I162500J0D01*
G01*
X196887500Y-82600000D01*
G75*
G02*
X197050000Y-82762500I0J-162500D01*
G01*
G37*
G36*
G01*
X197050000Y-83262500D02*
X197050000Y-83587500D01*
G75*
G02*
X196887500Y-83750000I-162500J0D01*
G01*
X195937500Y-83750000D01*
G75*
G02*
X195775000Y-83587500I0J162500D01*
G01*
X195775000Y-83262500D01*
G75*
G02*
X195937500Y-83100000I162500J0D01*
G01*
X196887500Y-83100000D01*
G75*
G02*
X197050000Y-83262500I0J-162500D01*
G01*
G37*
G36*
G01*
X197050000Y-83762500D02*
X197050000Y-84087500D01*
G75*
G02*
X196887500Y-84250000I-162500J0D01*
G01*
X195937500Y-84250000D01*
G75*
G02*
X195775000Y-84087500I0J162500D01*
G01*
X195775000Y-83762500D01*
G75*
G02*
X195937500Y-83600000I162500J0D01*
G01*
X196887500Y-83600000D01*
G75*
G02*
X197050000Y-83762500I0J-162500D01*
G01*
G37*
G36*
G01*
X197050000Y-84262500D02*
X197050000Y-84587500D01*
G75*
G02*
X196887500Y-84750000I-162500J0D01*
G01*
X195937500Y-84750000D01*
G75*
G02*
X195775000Y-84587500I0J162500D01*
G01*
X195775000Y-84262500D01*
G75*
G02*
X195937500Y-84100000I162500J0D01*
G01*
X196887500Y-84100000D01*
G75*
G02*
X197050000Y-84262500I0J-162500D01*
G01*
G37*
G36*
G01*
X197425000Y-84637500D02*
X197425000Y-85587500D01*
G75*
G02*
X197262500Y-85750000I-162500J0D01*
G01*
X196937500Y-85750000D01*
G75*
G02*
X196775000Y-85587500I0J162500D01*
G01*
X196775000Y-84637500D01*
G75*
G02*
X196937500Y-84475000I162500J0D01*
G01*
X197262500Y-84475000D01*
G75*
G02*
X197425000Y-84637500I0J-162500D01*
G01*
G37*
G36*
G01*
X197925000Y-84637500D02*
X197925000Y-85587500D01*
G75*
G02*
X197762500Y-85750000I-162500J0D01*
G01*
X197437500Y-85750000D01*
G75*
G02*
X197275000Y-85587500I0J162500D01*
G01*
X197275000Y-84637500D01*
G75*
G02*
X197437500Y-84475000I162500J0D01*
G01*
X197762500Y-84475000D01*
G75*
G02*
X197925000Y-84637500I0J-162500D01*
G01*
G37*
G36*
G01*
X198425000Y-84637500D02*
X198425000Y-85587500D01*
G75*
G02*
X198262500Y-85750000I-162500J0D01*
G01*
X197937500Y-85750000D01*
G75*
G02*
X197775000Y-85587500I0J162500D01*
G01*
X197775000Y-84637500D01*
G75*
G02*
X197937500Y-84475000I162500J0D01*
G01*
X198262500Y-84475000D01*
G75*
G02*
X198425000Y-84637500I0J-162500D01*
G01*
G37*
G36*
G01*
X198925000Y-84637500D02*
X198925000Y-85587500D01*
G75*
G02*
X198762500Y-85750000I-162500J0D01*
G01*
X198437500Y-85750000D01*
G75*
G02*
X198275000Y-85587500I0J162500D01*
G01*
X198275000Y-84637500D01*
G75*
G02*
X198437500Y-84475000I162500J0D01*
G01*
X198762500Y-84475000D01*
G75*
G02*
X198925000Y-84637500I0J-162500D01*
G01*
G37*
G36*
G01*
X199425000Y-84637500D02*
X199425000Y-85587500D01*
G75*
G02*
X199262500Y-85750000I-162500J0D01*
G01*
X198937500Y-85750000D01*
G75*
G02*
X198775000Y-85587500I0J162500D01*
G01*
X198775000Y-84637500D01*
G75*
G02*
X198937500Y-84475000I162500J0D01*
G01*
X199262500Y-84475000D01*
G75*
G02*
X199425000Y-84637500I0J-162500D01*
G01*
G37*
G36*
G01*
X199925000Y-84637500D02*
X199925000Y-85587500D01*
G75*
G02*
X199762500Y-85750000I-162500J0D01*
G01*
X199437500Y-85750000D01*
G75*
G02*
X199275000Y-85587500I0J162500D01*
G01*
X199275000Y-84637500D01*
G75*
G02*
X199437500Y-84475000I162500J0D01*
G01*
X199762500Y-84475000D01*
G75*
G02*
X199925000Y-84637500I0J-162500D01*
G01*
G37*
G36*
G01*
X200425000Y-84637500D02*
X200425000Y-85587500D01*
G75*
G02*
X200262500Y-85750000I-162500J0D01*
G01*
X199937500Y-85750000D01*
G75*
G02*
X199775000Y-85587500I0J162500D01*
G01*
X199775000Y-84637500D01*
G75*
G02*
X199937500Y-84475000I162500J0D01*
G01*
X200262500Y-84475000D01*
G75*
G02*
X200425000Y-84637500I0J-162500D01*
G01*
G37*
G36*
G01*
X200925000Y-84637500D02*
X200925000Y-85587500D01*
G75*
G02*
X200762500Y-85750000I-162500J0D01*
G01*
X200437500Y-85750000D01*
G75*
G02*
X200275000Y-85587500I0J162500D01*
G01*
X200275000Y-84637500D01*
G75*
G02*
X200437500Y-84475000I162500J0D01*
G01*
X200762500Y-84475000D01*
G75*
G02*
X200925000Y-84637500I0J-162500D01*
G01*
G37*
D17*
X198850000Y-82675000D03*
D18*
X201425000Y-86800000D03*
X193525000Y-77750000D03*
M02*
