G04 #@! TF.GenerationSoftware,KiCad,Pcbnew,(5.1.6)-1*
G04 #@! TF.CreationDate,2020-08-30T17:28:20+02:00*
G04 #@! TF.ProjectId,Freude_Microcontroller,46726575-6465-45f4-9d69-63726f636f6e,rev?*
G04 #@! TF.SameCoordinates,Original*
G04 #@! TF.FileFunction,Copper,L4,Bot*
G04 #@! TF.FilePolarity,Positive*
%FSLAX46Y46*%
G04 Gerber Fmt 4.6, Leading zero omitted, Abs format (unit mm)*
G04 Created by KiCad (PCBNEW (5.1.6)-1) date 2020-08-30 17:28:20*
%MOMM*%
%LPD*%
G01*
G04 APERTURE LIST*
G04 #@! TA.AperFunction,ComponentPad*
%ADD10C,1.650000*%
G04 #@! TD*
G04 #@! TA.AperFunction,SMDPad,CuDef*
%ADD11R,0.700000X0.300000*%
G04 #@! TD*
G04 #@! TA.AperFunction,SMDPad,CuDef*
%ADD12R,1.000000X0.300000*%
G04 #@! TD*
G04 #@! TA.AperFunction,SMDPad,CuDef*
%ADD13R,1.600000X1.400000*%
G04 #@! TD*
G04 #@! TA.AperFunction,ViaPad*
%ADD14C,0.400000*%
G04 #@! TD*
G04 #@! TA.AperFunction,Conductor*
%ADD15C,0.250000*%
G04 #@! TD*
G04 #@! TA.AperFunction,Conductor*
%ADD16C,0.254000*%
G04 #@! TD*
G04 APERTURE END LIST*
D10*
X193675000Y-69025000D03*
X210075000Y-86825000D03*
G04 #@! TA.AperFunction,SMDPad,CuDef*
G36*
G01*
X198175000Y-84200000D02*
X198725000Y-84200000D01*
G75*
G02*
X198800000Y-84275000I0J-75000D01*
G01*
X198800000Y-84425000D01*
G75*
G02*
X198725000Y-84500000I-75000J0D01*
G01*
X198175000Y-84500000D01*
G75*
G02*
X198100000Y-84425000I0J75000D01*
G01*
X198100000Y-84275000D01*
G75*
G02*
X198175000Y-84200000I75000J0D01*
G01*
G37*
G04 #@! TD.AperFunction*
D11*
X198450000Y-84850000D03*
X198450000Y-85350000D03*
X198450000Y-85850000D03*
D12*
X201100000Y-83560000D03*
X201100000Y-87640000D03*
D11*
X198450000Y-86350000D03*
X198450000Y-86850000D03*
D13*
X204725000Y-77575000D03*
X196725000Y-77575000D03*
X204725000Y-82075000D03*
X196725000Y-82075000D03*
D14*
X199600000Y-81950000D03*
X200175000Y-87350000D03*
X198100000Y-81950000D03*
X199600000Y-81950000D03*
X199600000Y-81950000D03*
X199600000Y-81950000D03*
X199600000Y-81950000D03*
X196050000Y-80025000D03*
X200800000Y-78200000D03*
X206925000Y-79400000D03*
X198655000Y-73520000D03*
X198070000Y-73515000D03*
X196220000Y-86400000D03*
X202895000Y-81105000D03*
X202150000Y-78650000D03*
X202650000Y-77575000D03*
X194075004Y-81925000D03*
X195200000Y-82425000D03*
X193831361Y-82944696D03*
X193975000Y-83775000D03*
X198630000Y-75070000D03*
X193525000Y-80925000D03*
X206050000Y-79275000D03*
X195930000Y-75465000D03*
X195930000Y-76065000D03*
X201975000Y-84975000D03*
X200675000Y-75075000D03*
X198625000Y-75750000D03*
X200675000Y-75750000D03*
X193325001Y-82449999D03*
D15*
X199800000Y-82025000D02*
X199750000Y-81975000D01*
X203200000Y-82075000D02*
X204725000Y-82075000D01*
X196725000Y-82075000D02*
X203200000Y-82075000D01*
X200175000Y-86975000D02*
X200175000Y-87350000D01*
X199050000Y-85850000D02*
X200175000Y-86975000D01*
X198450000Y-85850000D02*
X199050000Y-85850000D01*
X196220000Y-86400000D02*
X197180000Y-87360000D01*
X200165000Y-87360000D02*
X200175000Y-87350000D01*
X197180000Y-87360000D02*
X200165000Y-87360000D01*
X196725000Y-77575000D02*
X202650000Y-77575000D01*
X202650000Y-77575000D02*
X204725000Y-77575000D01*
X194275003Y-82125003D02*
X194275003Y-82124999D01*
X194275003Y-82124999D02*
X194075004Y-81925000D01*
X198450000Y-84850000D02*
X197000000Y-84850000D01*
X197000000Y-84850000D02*
X194275003Y-82125003D01*
X196100000Y-83325000D02*
X195200000Y-82425000D01*
X198450000Y-84350000D02*
X197125000Y-84350000D01*
X197125000Y-84350000D02*
X196100000Y-83325000D01*
X194014696Y-82944696D02*
X193831361Y-82944696D01*
X197420000Y-86350000D02*
X194014696Y-82944696D01*
X198450000Y-86350000D02*
X197420000Y-86350000D01*
X198450000Y-86850000D02*
X197300000Y-86850000D01*
X194225000Y-83775000D02*
X193975000Y-83775000D01*
X197300000Y-86850000D02*
X194225000Y-83775000D01*
X198450000Y-85350000D02*
X201600000Y-85350000D01*
X201600000Y-85350000D02*
X201975000Y-84975000D01*
X200670000Y-75070000D02*
X200675000Y-75075000D01*
X198630000Y-75070000D02*
X200670000Y-75070000D01*
X198450000Y-85350000D02*
X196975000Y-85350000D01*
X194074999Y-82449999D02*
X193325001Y-82449999D01*
X196975000Y-85350000D02*
X194074999Y-82449999D01*
D16*
G36*
X207073000Y-84905253D02*
G01*
X207071055Y-84925000D01*
X207078817Y-85003806D01*
X207101803Y-85079583D01*
X207114933Y-85104148D01*
X207122595Y-87498482D01*
X201928582Y-87518149D01*
X201928582Y-87490000D01*
X201922268Y-87425897D01*
X201903570Y-87364257D01*
X201873206Y-87307450D01*
X201832343Y-87257657D01*
X201782550Y-87216794D01*
X201725743Y-87186430D01*
X201664103Y-87167732D01*
X201600000Y-87161418D01*
X200600000Y-87161418D01*
X200535897Y-87167732D01*
X200474257Y-87186430D01*
X200417450Y-87216794D01*
X200367657Y-87257657D01*
X200326794Y-87307450D01*
X200296430Y-87364257D01*
X200277732Y-87425897D01*
X200271418Y-87490000D01*
X200271418Y-87524423D01*
X192877000Y-87552422D01*
X192877000Y-82728093D01*
X192915653Y-82785942D01*
X192989058Y-82859347D01*
X193075373Y-82917020D01*
X193171281Y-82956747D01*
X193273096Y-82976999D01*
X193304361Y-82976999D01*
X193304361Y-82996601D01*
X193324613Y-83098416D01*
X193364340Y-83194324D01*
X193422013Y-83280639D01*
X193495418Y-83354044D01*
X193581733Y-83411717D01*
X193589694Y-83415015D01*
X193565652Y-83439057D01*
X193507979Y-83525372D01*
X193468252Y-83621280D01*
X193448000Y-83723095D01*
X193448000Y-83826905D01*
X193468252Y-83928720D01*
X193507979Y-84024628D01*
X193565652Y-84110943D01*
X193639057Y-84184348D01*
X193725372Y-84242021D01*
X193821280Y-84281748D01*
X193923095Y-84302000D01*
X194026905Y-84302000D01*
X194098530Y-84287753D01*
X196964681Y-87153905D01*
X196978841Y-87171159D01*
X197047667Y-87227643D01*
X197103820Y-87257657D01*
X197126190Y-87269614D01*
X197211392Y-87295460D01*
X197300000Y-87304187D01*
X197322205Y-87302000D01*
X197971320Y-87302000D01*
X197974257Y-87303570D01*
X198035897Y-87322268D01*
X198100000Y-87328582D01*
X198800000Y-87328582D01*
X198864103Y-87322268D01*
X198925743Y-87303570D01*
X198982550Y-87273206D01*
X199032343Y-87232343D01*
X199073206Y-87182550D01*
X199103570Y-87125743D01*
X199122268Y-87064103D01*
X199128582Y-87000000D01*
X199128582Y-86700000D01*
X199122268Y-86635897D01*
X199111379Y-86600000D01*
X199122268Y-86564103D01*
X199123869Y-86547849D01*
X199141780Y-86538816D01*
X199240330Y-86461785D01*
X199321959Y-86367008D01*
X199383529Y-86258127D01*
X199422675Y-86139326D01*
X199435000Y-86031750D01*
X199276250Y-85873000D01*
X198816061Y-85873000D01*
X198800000Y-85871418D01*
X198303000Y-85871418D01*
X198303000Y-85828582D01*
X198800000Y-85828582D01*
X198816061Y-85827000D01*
X199276250Y-85827000D01*
X199301250Y-85802000D01*
X201577795Y-85802000D01*
X201600000Y-85804187D01*
X201622205Y-85802000D01*
X201688607Y-85795460D01*
X201773810Y-85769614D01*
X201852333Y-85727643D01*
X201921159Y-85671159D01*
X201935323Y-85653900D01*
X202102201Y-85487023D01*
X202128720Y-85481748D01*
X202224628Y-85442021D01*
X202310943Y-85384348D01*
X202384348Y-85310943D01*
X202442021Y-85224628D01*
X202481748Y-85128720D01*
X202502000Y-85026905D01*
X202502000Y-84923095D01*
X202481748Y-84821280D01*
X202442021Y-84725372D01*
X202384348Y-84639057D01*
X202310943Y-84565652D01*
X202224628Y-84507979D01*
X202128720Y-84468252D01*
X202026905Y-84448000D01*
X201923095Y-84448000D01*
X201821280Y-84468252D01*
X201725372Y-84507979D01*
X201639057Y-84565652D01*
X201565652Y-84639057D01*
X201507979Y-84725372D01*
X201468252Y-84821280D01*
X201462977Y-84847799D01*
X201412776Y-84898000D01*
X199128582Y-84898000D01*
X199128582Y-84700000D01*
X199122268Y-84635897D01*
X199103570Y-84574257D01*
X199100932Y-84569321D01*
X199120827Y-84503735D01*
X199128582Y-84425000D01*
X199128582Y-84275000D01*
X199120827Y-84196265D01*
X199097861Y-84120556D01*
X199060566Y-84050782D01*
X199010376Y-83989624D01*
X198949218Y-83939434D01*
X198879444Y-83902139D01*
X198803735Y-83879173D01*
X198725000Y-83871418D01*
X198175000Y-83871418D01*
X198096265Y-83879173D01*
X198034200Y-83898000D01*
X197312224Y-83898000D01*
X196824223Y-83410000D01*
X196852002Y-83410000D01*
X196852002Y-83251252D01*
X197010750Y-83410000D01*
X197525000Y-83413072D01*
X197556191Y-83410000D01*
X200271418Y-83410000D01*
X200271418Y-83710000D01*
X200277732Y-83774103D01*
X200296430Y-83835743D01*
X200326794Y-83892550D01*
X200367657Y-83942343D01*
X200417450Y-83983206D01*
X200474257Y-84013570D01*
X200535897Y-84032268D01*
X200600000Y-84038582D01*
X201600000Y-84038582D01*
X201664103Y-84032268D01*
X201725743Y-84013570D01*
X201782550Y-83983206D01*
X201832343Y-83942343D01*
X201873206Y-83892550D01*
X201903570Y-83835743D01*
X201922268Y-83774103D01*
X201928582Y-83710000D01*
X201928582Y-83410000D01*
X201922268Y-83345897D01*
X201903570Y-83284257D01*
X201873206Y-83227450D01*
X201832343Y-83177657D01*
X201782550Y-83136794D01*
X201725743Y-83106430D01*
X201664103Y-83087732D01*
X201600000Y-83081418D01*
X200600000Y-83081418D01*
X200535897Y-83087732D01*
X200474257Y-83106430D01*
X200417450Y-83136794D01*
X200367657Y-83177657D01*
X200326794Y-83227450D01*
X200296430Y-83284257D01*
X200277732Y-83345897D01*
X200271418Y-83410000D01*
X197556191Y-83410000D01*
X197649482Y-83400812D01*
X197769180Y-83364502D01*
X197879494Y-83305537D01*
X197976185Y-83226185D01*
X198055537Y-83129494D01*
X198114502Y-83019180D01*
X198150812Y-82899482D01*
X198163072Y-82775000D01*
X203286928Y-82775000D01*
X203299188Y-82899482D01*
X203335498Y-83019180D01*
X203394463Y-83129494D01*
X203473815Y-83226185D01*
X203570506Y-83305537D01*
X203680820Y-83364502D01*
X203800518Y-83400812D01*
X203925000Y-83413072D01*
X204439250Y-83410000D01*
X204598000Y-83251250D01*
X204598000Y-82202000D01*
X204852000Y-82202000D01*
X204852000Y-83251250D01*
X205010750Y-83410000D01*
X205525000Y-83413072D01*
X205649482Y-83400812D01*
X205769180Y-83364502D01*
X205879494Y-83305537D01*
X205976185Y-83226185D01*
X206055537Y-83129494D01*
X206114502Y-83019180D01*
X206150812Y-82899482D01*
X206163072Y-82775000D01*
X206160000Y-82360750D01*
X206001250Y-82202000D01*
X204852000Y-82202000D01*
X204598000Y-82202000D01*
X203448750Y-82202000D01*
X203290000Y-82360750D01*
X203286928Y-82775000D01*
X198163072Y-82775000D01*
X198160000Y-82360750D01*
X198001250Y-82202000D01*
X196852000Y-82202000D01*
X196852000Y-82222000D01*
X196598000Y-82222000D01*
X196598000Y-82202000D01*
X196578000Y-82202000D01*
X196578000Y-81948000D01*
X196598000Y-81948000D01*
X196598000Y-80898750D01*
X196852000Y-80898750D01*
X196852000Y-81948000D01*
X198001250Y-81948000D01*
X198160000Y-81789250D01*
X198163072Y-81375000D01*
X203286928Y-81375000D01*
X203290000Y-81789250D01*
X203448750Y-81948000D01*
X204598000Y-81948000D01*
X204598000Y-80898750D01*
X204852000Y-80898750D01*
X204852000Y-81948000D01*
X206001250Y-81948000D01*
X206160000Y-81789250D01*
X206163072Y-81375000D01*
X206150812Y-81250518D01*
X206114502Y-81130820D01*
X206055537Y-81020506D01*
X205976185Y-80923815D01*
X205879494Y-80844463D01*
X205769180Y-80785498D01*
X205649482Y-80749188D01*
X205525000Y-80736928D01*
X205010750Y-80740000D01*
X204852000Y-80898750D01*
X204598000Y-80898750D01*
X204439250Y-80740000D01*
X203925000Y-80736928D01*
X203800518Y-80749188D01*
X203680820Y-80785498D01*
X203570506Y-80844463D01*
X203473815Y-80923815D01*
X203394463Y-81020506D01*
X203335498Y-81130820D01*
X203299188Y-81250518D01*
X203286928Y-81375000D01*
X198163072Y-81375000D01*
X198150812Y-81250518D01*
X198114502Y-81130820D01*
X198055537Y-81020506D01*
X197976185Y-80923815D01*
X197879494Y-80844463D01*
X197769180Y-80785498D01*
X197649482Y-80749188D01*
X197525000Y-80736928D01*
X197010750Y-80740000D01*
X196852000Y-80898750D01*
X196598000Y-80898750D01*
X196439250Y-80740000D01*
X195925000Y-80736928D01*
X195800518Y-80749188D01*
X195680820Y-80785498D01*
X195570506Y-80844463D01*
X195473815Y-80923815D01*
X195394463Y-81020506D01*
X195335498Y-81130820D01*
X195299188Y-81250518D01*
X195286928Y-81375000D01*
X195290000Y-81789250D01*
X195448748Y-81947998D01*
X195425532Y-81947998D01*
X195353720Y-81918252D01*
X195251905Y-81898000D01*
X195148095Y-81898000D01*
X195046280Y-81918252D01*
X194950372Y-81957979D01*
X194864057Y-82015652D01*
X194834466Y-82045243D01*
X194610344Y-81821121D01*
X194596162Y-81803840D01*
X194586681Y-81796059D01*
X194581752Y-81771280D01*
X194542025Y-81675372D01*
X194484352Y-81589057D01*
X194410947Y-81515652D01*
X194324632Y-81457979D01*
X194228724Y-81418252D01*
X194126909Y-81398000D01*
X194023099Y-81398000D01*
X193921284Y-81418252D01*
X193825376Y-81457979D01*
X193739061Y-81515652D01*
X193665656Y-81589057D01*
X193607983Y-81675372D01*
X193568256Y-81771280D01*
X193548004Y-81873095D01*
X193548004Y-81971949D01*
X193478721Y-81943251D01*
X193376906Y-81922999D01*
X193273096Y-81922999D01*
X193171281Y-81943251D01*
X193075373Y-81982978D01*
X192989058Y-82040651D01*
X192915653Y-82114056D01*
X192877000Y-82171905D01*
X192877000Y-80873095D01*
X192998000Y-80873095D01*
X192998000Y-80976905D01*
X193018252Y-81078720D01*
X193057979Y-81174628D01*
X193115652Y-81260943D01*
X193189057Y-81334348D01*
X193275372Y-81392021D01*
X193371280Y-81431748D01*
X193473095Y-81452000D01*
X193576905Y-81452000D01*
X193678720Y-81431748D01*
X193774628Y-81392021D01*
X193860943Y-81334348D01*
X193934348Y-81260943D01*
X193992021Y-81174628D01*
X194031748Y-81078720D01*
X194052000Y-80976905D01*
X194052000Y-80873095D01*
X194031748Y-80771280D01*
X193992021Y-80675372D01*
X193934348Y-80589057D01*
X193860943Y-80515652D01*
X193774628Y-80457979D01*
X193678720Y-80418252D01*
X193576905Y-80398000D01*
X193473095Y-80398000D01*
X193371280Y-80418252D01*
X193275372Y-80457979D01*
X193189057Y-80515652D01*
X193115652Y-80589057D01*
X193057979Y-80675372D01*
X193018252Y-80771280D01*
X192998000Y-80873095D01*
X192877000Y-80873095D01*
X192877000Y-79223095D01*
X205523000Y-79223095D01*
X205523000Y-79326905D01*
X205543252Y-79428720D01*
X205582979Y-79524628D01*
X205640652Y-79610943D01*
X205714057Y-79684348D01*
X205800372Y-79742021D01*
X205896280Y-79781748D01*
X205998095Y-79802000D01*
X206101905Y-79802000D01*
X206203720Y-79781748D01*
X206299628Y-79742021D01*
X206385943Y-79684348D01*
X206459348Y-79610943D01*
X206517021Y-79524628D01*
X206556748Y-79428720D01*
X206577000Y-79326905D01*
X206577000Y-79223095D01*
X206556748Y-79121280D01*
X206517021Y-79025372D01*
X206459348Y-78939057D01*
X206385943Y-78865652D01*
X206299628Y-78807979D01*
X206203720Y-78768252D01*
X206101905Y-78748000D01*
X205998095Y-78748000D01*
X205896280Y-78768252D01*
X205800372Y-78807979D01*
X205714057Y-78865652D01*
X205640652Y-78939057D01*
X205582979Y-79025372D01*
X205543252Y-79121280D01*
X205523000Y-79223095D01*
X192877000Y-79223095D01*
X192877000Y-75413095D01*
X195403000Y-75413095D01*
X195403000Y-75516905D01*
X195423252Y-75618720D01*
X195462979Y-75714628D01*
X195496636Y-75765000D01*
X195462979Y-75815372D01*
X195423252Y-75911280D01*
X195403000Y-76013095D01*
X195403000Y-76116905D01*
X195423252Y-76218720D01*
X195462979Y-76314628D01*
X195520652Y-76400943D01*
X195594057Y-76474348D01*
X195680372Y-76532021D01*
X195776280Y-76571748D01*
X195792592Y-76574993D01*
X195742450Y-76601794D01*
X195692657Y-76642657D01*
X195651794Y-76692450D01*
X195621430Y-76749257D01*
X195602732Y-76810897D01*
X195596418Y-76875000D01*
X195596418Y-78275000D01*
X195602732Y-78339103D01*
X195621430Y-78400743D01*
X195651794Y-78457550D01*
X195692657Y-78507343D01*
X195742450Y-78548206D01*
X195799257Y-78578570D01*
X195860897Y-78597268D01*
X195925000Y-78603582D01*
X197525000Y-78603582D01*
X197580706Y-78598095D01*
X201623000Y-78598095D01*
X201623000Y-78701905D01*
X201643252Y-78803720D01*
X201682979Y-78899628D01*
X201740652Y-78985943D01*
X201814057Y-79059348D01*
X201900372Y-79117021D01*
X201996280Y-79156748D01*
X202098095Y-79177000D01*
X202201905Y-79177000D01*
X202303720Y-79156748D01*
X202399628Y-79117021D01*
X202485943Y-79059348D01*
X202559348Y-78985943D01*
X202617021Y-78899628D01*
X202656748Y-78803720D01*
X202677000Y-78701905D01*
X202677000Y-78598095D01*
X202656748Y-78496280D01*
X202617021Y-78400372D01*
X202559348Y-78314057D01*
X202485943Y-78240652D01*
X202399628Y-78182979D01*
X202303720Y-78143252D01*
X202201905Y-78123000D01*
X202098095Y-78123000D01*
X201996280Y-78143252D01*
X201900372Y-78182979D01*
X201814057Y-78240652D01*
X201740652Y-78314057D01*
X201682979Y-78400372D01*
X201643252Y-78496280D01*
X201623000Y-78598095D01*
X197580706Y-78598095D01*
X197589103Y-78597268D01*
X197650743Y-78578570D01*
X197707550Y-78548206D01*
X197757343Y-78507343D01*
X197798206Y-78457550D01*
X197828570Y-78400743D01*
X197847268Y-78339103D01*
X197853582Y-78275000D01*
X197853582Y-78027000D01*
X202377891Y-78027000D01*
X202400372Y-78042021D01*
X202496280Y-78081748D01*
X202598095Y-78102000D01*
X202701905Y-78102000D01*
X202803720Y-78081748D01*
X202899628Y-78042021D01*
X202922109Y-78027000D01*
X203596418Y-78027000D01*
X203596418Y-78275000D01*
X203602732Y-78339103D01*
X203621430Y-78400743D01*
X203651794Y-78457550D01*
X203692657Y-78507343D01*
X203742450Y-78548206D01*
X203799257Y-78578570D01*
X203860897Y-78597268D01*
X203925000Y-78603582D01*
X205525000Y-78603582D01*
X205589103Y-78597268D01*
X205650743Y-78578570D01*
X205707550Y-78548206D01*
X205757343Y-78507343D01*
X205798206Y-78457550D01*
X205828570Y-78400743D01*
X205847268Y-78339103D01*
X205853582Y-78275000D01*
X205853582Y-76875000D01*
X205847268Y-76810897D01*
X205828570Y-76749257D01*
X205798206Y-76692450D01*
X205757343Y-76642657D01*
X205707550Y-76601794D01*
X205650743Y-76571430D01*
X205589103Y-76552732D01*
X205525000Y-76546418D01*
X203925000Y-76546418D01*
X203860897Y-76552732D01*
X203799257Y-76571430D01*
X203742450Y-76601794D01*
X203692657Y-76642657D01*
X203651794Y-76692450D01*
X203621430Y-76749257D01*
X203602732Y-76810897D01*
X203596418Y-76875000D01*
X203596418Y-77123000D01*
X202922109Y-77123000D01*
X202899628Y-77107979D01*
X202803720Y-77068252D01*
X202701905Y-77048000D01*
X202598095Y-77048000D01*
X202496280Y-77068252D01*
X202400372Y-77107979D01*
X202377891Y-77123000D01*
X197853582Y-77123000D01*
X197853582Y-76875000D01*
X197847268Y-76810897D01*
X197828570Y-76749257D01*
X197798206Y-76692450D01*
X197757343Y-76642657D01*
X197707550Y-76601794D01*
X197650743Y-76571430D01*
X197589103Y-76552732D01*
X197525000Y-76546418D01*
X196144871Y-76546418D01*
X196179628Y-76532021D01*
X196265943Y-76474348D01*
X196339348Y-76400943D01*
X196397021Y-76314628D01*
X196436748Y-76218720D01*
X196457000Y-76116905D01*
X196457000Y-76013095D01*
X196436748Y-75911280D01*
X196397021Y-75815372D01*
X196363364Y-75765000D01*
X196397021Y-75714628D01*
X196403869Y-75698095D01*
X198098000Y-75698095D01*
X198098000Y-75801905D01*
X198118252Y-75903720D01*
X198157979Y-75999628D01*
X198215652Y-76085943D01*
X198289057Y-76159348D01*
X198375372Y-76217021D01*
X198471280Y-76256748D01*
X198573095Y-76277000D01*
X198676905Y-76277000D01*
X198778720Y-76256748D01*
X198874628Y-76217021D01*
X198960943Y-76159348D01*
X199034348Y-76085943D01*
X199092021Y-75999628D01*
X199131748Y-75903720D01*
X199152000Y-75801905D01*
X199152000Y-75698095D01*
X199131748Y-75596280D01*
X199100980Y-75522000D01*
X200199020Y-75522000D01*
X200168252Y-75596280D01*
X200148000Y-75698095D01*
X200148000Y-75801905D01*
X200168252Y-75903720D01*
X200207979Y-75999628D01*
X200265652Y-76085943D01*
X200339057Y-76159348D01*
X200425372Y-76217021D01*
X200521280Y-76256748D01*
X200623095Y-76277000D01*
X200726905Y-76277000D01*
X200828720Y-76256748D01*
X200924628Y-76217021D01*
X201010943Y-76159348D01*
X201084348Y-76085943D01*
X201142021Y-75999628D01*
X201181748Y-75903720D01*
X201202000Y-75801905D01*
X201202000Y-75698095D01*
X201181748Y-75596280D01*
X201142021Y-75500372D01*
X201084348Y-75414057D01*
X201082791Y-75412500D01*
X201084348Y-75410943D01*
X201142021Y-75324628D01*
X201181748Y-75228720D01*
X201202000Y-75126905D01*
X201202000Y-75023095D01*
X201181748Y-74921280D01*
X201142021Y-74825372D01*
X201084348Y-74739057D01*
X201010943Y-74665652D01*
X200924628Y-74607979D01*
X200828720Y-74568252D01*
X200726905Y-74548000D01*
X200623095Y-74548000D01*
X200521280Y-74568252D01*
X200425372Y-74607979D01*
X200410374Y-74618000D01*
X198902109Y-74618000D01*
X198879628Y-74602979D01*
X198783720Y-74563252D01*
X198681905Y-74543000D01*
X198578095Y-74543000D01*
X198476280Y-74563252D01*
X198380372Y-74602979D01*
X198294057Y-74660652D01*
X198220652Y-74734057D01*
X198162979Y-74820372D01*
X198123252Y-74916280D01*
X198103000Y-75018095D01*
X198103000Y-75121905D01*
X198123252Y-75223720D01*
X198162979Y-75319628D01*
X198220652Y-75405943D01*
X198222209Y-75407500D01*
X198215652Y-75414057D01*
X198157979Y-75500372D01*
X198118252Y-75596280D01*
X198098000Y-75698095D01*
X196403869Y-75698095D01*
X196436748Y-75618720D01*
X196457000Y-75516905D01*
X196457000Y-75413095D01*
X196436748Y-75311280D01*
X196397021Y-75215372D01*
X196339348Y-75129057D01*
X196265943Y-75055652D01*
X196179628Y-74997979D01*
X196083720Y-74958252D01*
X195981905Y-74938000D01*
X195878095Y-74938000D01*
X195776280Y-74958252D01*
X195680372Y-74997979D01*
X195594057Y-75055652D01*
X195520652Y-75129057D01*
X195462979Y-75215372D01*
X195423252Y-75311280D01*
X195403000Y-75413095D01*
X192877000Y-75413095D01*
X192877000Y-72151695D01*
X207073001Y-72127220D01*
X207073000Y-84905253D01*
G37*
X207073000Y-84905253D02*
X207071055Y-84925000D01*
X207078817Y-85003806D01*
X207101803Y-85079583D01*
X207114933Y-85104148D01*
X207122595Y-87498482D01*
X201928582Y-87518149D01*
X201928582Y-87490000D01*
X201922268Y-87425897D01*
X201903570Y-87364257D01*
X201873206Y-87307450D01*
X201832343Y-87257657D01*
X201782550Y-87216794D01*
X201725743Y-87186430D01*
X201664103Y-87167732D01*
X201600000Y-87161418D01*
X200600000Y-87161418D01*
X200535897Y-87167732D01*
X200474257Y-87186430D01*
X200417450Y-87216794D01*
X200367657Y-87257657D01*
X200326794Y-87307450D01*
X200296430Y-87364257D01*
X200277732Y-87425897D01*
X200271418Y-87490000D01*
X200271418Y-87524423D01*
X192877000Y-87552422D01*
X192877000Y-82728093D01*
X192915653Y-82785942D01*
X192989058Y-82859347D01*
X193075373Y-82917020D01*
X193171281Y-82956747D01*
X193273096Y-82976999D01*
X193304361Y-82976999D01*
X193304361Y-82996601D01*
X193324613Y-83098416D01*
X193364340Y-83194324D01*
X193422013Y-83280639D01*
X193495418Y-83354044D01*
X193581733Y-83411717D01*
X193589694Y-83415015D01*
X193565652Y-83439057D01*
X193507979Y-83525372D01*
X193468252Y-83621280D01*
X193448000Y-83723095D01*
X193448000Y-83826905D01*
X193468252Y-83928720D01*
X193507979Y-84024628D01*
X193565652Y-84110943D01*
X193639057Y-84184348D01*
X193725372Y-84242021D01*
X193821280Y-84281748D01*
X193923095Y-84302000D01*
X194026905Y-84302000D01*
X194098530Y-84287753D01*
X196964681Y-87153905D01*
X196978841Y-87171159D01*
X197047667Y-87227643D01*
X197103820Y-87257657D01*
X197126190Y-87269614D01*
X197211392Y-87295460D01*
X197300000Y-87304187D01*
X197322205Y-87302000D01*
X197971320Y-87302000D01*
X197974257Y-87303570D01*
X198035897Y-87322268D01*
X198100000Y-87328582D01*
X198800000Y-87328582D01*
X198864103Y-87322268D01*
X198925743Y-87303570D01*
X198982550Y-87273206D01*
X199032343Y-87232343D01*
X199073206Y-87182550D01*
X199103570Y-87125743D01*
X199122268Y-87064103D01*
X199128582Y-87000000D01*
X199128582Y-86700000D01*
X199122268Y-86635897D01*
X199111379Y-86600000D01*
X199122268Y-86564103D01*
X199123869Y-86547849D01*
X199141780Y-86538816D01*
X199240330Y-86461785D01*
X199321959Y-86367008D01*
X199383529Y-86258127D01*
X199422675Y-86139326D01*
X199435000Y-86031750D01*
X199276250Y-85873000D01*
X198816061Y-85873000D01*
X198800000Y-85871418D01*
X198303000Y-85871418D01*
X198303000Y-85828582D01*
X198800000Y-85828582D01*
X198816061Y-85827000D01*
X199276250Y-85827000D01*
X199301250Y-85802000D01*
X201577795Y-85802000D01*
X201600000Y-85804187D01*
X201622205Y-85802000D01*
X201688607Y-85795460D01*
X201773810Y-85769614D01*
X201852333Y-85727643D01*
X201921159Y-85671159D01*
X201935323Y-85653900D01*
X202102201Y-85487023D01*
X202128720Y-85481748D01*
X202224628Y-85442021D01*
X202310943Y-85384348D01*
X202384348Y-85310943D01*
X202442021Y-85224628D01*
X202481748Y-85128720D01*
X202502000Y-85026905D01*
X202502000Y-84923095D01*
X202481748Y-84821280D01*
X202442021Y-84725372D01*
X202384348Y-84639057D01*
X202310943Y-84565652D01*
X202224628Y-84507979D01*
X202128720Y-84468252D01*
X202026905Y-84448000D01*
X201923095Y-84448000D01*
X201821280Y-84468252D01*
X201725372Y-84507979D01*
X201639057Y-84565652D01*
X201565652Y-84639057D01*
X201507979Y-84725372D01*
X201468252Y-84821280D01*
X201462977Y-84847799D01*
X201412776Y-84898000D01*
X199128582Y-84898000D01*
X199128582Y-84700000D01*
X199122268Y-84635897D01*
X199103570Y-84574257D01*
X199100932Y-84569321D01*
X199120827Y-84503735D01*
X199128582Y-84425000D01*
X199128582Y-84275000D01*
X199120827Y-84196265D01*
X199097861Y-84120556D01*
X199060566Y-84050782D01*
X199010376Y-83989624D01*
X198949218Y-83939434D01*
X198879444Y-83902139D01*
X198803735Y-83879173D01*
X198725000Y-83871418D01*
X198175000Y-83871418D01*
X198096265Y-83879173D01*
X198034200Y-83898000D01*
X197312224Y-83898000D01*
X196824223Y-83410000D01*
X196852002Y-83410000D01*
X196852002Y-83251252D01*
X197010750Y-83410000D01*
X197525000Y-83413072D01*
X197556191Y-83410000D01*
X200271418Y-83410000D01*
X200271418Y-83710000D01*
X200277732Y-83774103D01*
X200296430Y-83835743D01*
X200326794Y-83892550D01*
X200367657Y-83942343D01*
X200417450Y-83983206D01*
X200474257Y-84013570D01*
X200535897Y-84032268D01*
X200600000Y-84038582D01*
X201600000Y-84038582D01*
X201664103Y-84032268D01*
X201725743Y-84013570D01*
X201782550Y-83983206D01*
X201832343Y-83942343D01*
X201873206Y-83892550D01*
X201903570Y-83835743D01*
X201922268Y-83774103D01*
X201928582Y-83710000D01*
X201928582Y-83410000D01*
X201922268Y-83345897D01*
X201903570Y-83284257D01*
X201873206Y-83227450D01*
X201832343Y-83177657D01*
X201782550Y-83136794D01*
X201725743Y-83106430D01*
X201664103Y-83087732D01*
X201600000Y-83081418D01*
X200600000Y-83081418D01*
X200535897Y-83087732D01*
X200474257Y-83106430D01*
X200417450Y-83136794D01*
X200367657Y-83177657D01*
X200326794Y-83227450D01*
X200296430Y-83284257D01*
X200277732Y-83345897D01*
X200271418Y-83410000D01*
X197556191Y-83410000D01*
X197649482Y-83400812D01*
X197769180Y-83364502D01*
X197879494Y-83305537D01*
X197976185Y-83226185D01*
X198055537Y-83129494D01*
X198114502Y-83019180D01*
X198150812Y-82899482D01*
X198163072Y-82775000D01*
X203286928Y-82775000D01*
X203299188Y-82899482D01*
X203335498Y-83019180D01*
X203394463Y-83129494D01*
X203473815Y-83226185D01*
X203570506Y-83305537D01*
X203680820Y-83364502D01*
X203800518Y-83400812D01*
X203925000Y-83413072D01*
X204439250Y-83410000D01*
X204598000Y-83251250D01*
X204598000Y-82202000D01*
X204852000Y-82202000D01*
X204852000Y-83251250D01*
X205010750Y-83410000D01*
X205525000Y-83413072D01*
X205649482Y-83400812D01*
X205769180Y-83364502D01*
X205879494Y-83305537D01*
X205976185Y-83226185D01*
X206055537Y-83129494D01*
X206114502Y-83019180D01*
X206150812Y-82899482D01*
X206163072Y-82775000D01*
X206160000Y-82360750D01*
X206001250Y-82202000D01*
X204852000Y-82202000D01*
X204598000Y-82202000D01*
X203448750Y-82202000D01*
X203290000Y-82360750D01*
X203286928Y-82775000D01*
X198163072Y-82775000D01*
X198160000Y-82360750D01*
X198001250Y-82202000D01*
X196852000Y-82202000D01*
X196852000Y-82222000D01*
X196598000Y-82222000D01*
X196598000Y-82202000D01*
X196578000Y-82202000D01*
X196578000Y-81948000D01*
X196598000Y-81948000D01*
X196598000Y-80898750D01*
X196852000Y-80898750D01*
X196852000Y-81948000D01*
X198001250Y-81948000D01*
X198160000Y-81789250D01*
X198163072Y-81375000D01*
X203286928Y-81375000D01*
X203290000Y-81789250D01*
X203448750Y-81948000D01*
X204598000Y-81948000D01*
X204598000Y-80898750D01*
X204852000Y-80898750D01*
X204852000Y-81948000D01*
X206001250Y-81948000D01*
X206160000Y-81789250D01*
X206163072Y-81375000D01*
X206150812Y-81250518D01*
X206114502Y-81130820D01*
X206055537Y-81020506D01*
X205976185Y-80923815D01*
X205879494Y-80844463D01*
X205769180Y-80785498D01*
X205649482Y-80749188D01*
X205525000Y-80736928D01*
X205010750Y-80740000D01*
X204852000Y-80898750D01*
X204598000Y-80898750D01*
X204439250Y-80740000D01*
X203925000Y-80736928D01*
X203800518Y-80749188D01*
X203680820Y-80785498D01*
X203570506Y-80844463D01*
X203473815Y-80923815D01*
X203394463Y-81020506D01*
X203335498Y-81130820D01*
X203299188Y-81250518D01*
X203286928Y-81375000D01*
X198163072Y-81375000D01*
X198150812Y-81250518D01*
X198114502Y-81130820D01*
X198055537Y-81020506D01*
X197976185Y-80923815D01*
X197879494Y-80844463D01*
X197769180Y-80785498D01*
X197649482Y-80749188D01*
X197525000Y-80736928D01*
X197010750Y-80740000D01*
X196852000Y-80898750D01*
X196598000Y-80898750D01*
X196439250Y-80740000D01*
X195925000Y-80736928D01*
X195800518Y-80749188D01*
X195680820Y-80785498D01*
X195570506Y-80844463D01*
X195473815Y-80923815D01*
X195394463Y-81020506D01*
X195335498Y-81130820D01*
X195299188Y-81250518D01*
X195286928Y-81375000D01*
X195290000Y-81789250D01*
X195448748Y-81947998D01*
X195425532Y-81947998D01*
X195353720Y-81918252D01*
X195251905Y-81898000D01*
X195148095Y-81898000D01*
X195046280Y-81918252D01*
X194950372Y-81957979D01*
X194864057Y-82015652D01*
X194834466Y-82045243D01*
X194610344Y-81821121D01*
X194596162Y-81803840D01*
X194586681Y-81796059D01*
X194581752Y-81771280D01*
X194542025Y-81675372D01*
X194484352Y-81589057D01*
X194410947Y-81515652D01*
X194324632Y-81457979D01*
X194228724Y-81418252D01*
X194126909Y-81398000D01*
X194023099Y-81398000D01*
X193921284Y-81418252D01*
X193825376Y-81457979D01*
X193739061Y-81515652D01*
X193665656Y-81589057D01*
X193607983Y-81675372D01*
X193568256Y-81771280D01*
X193548004Y-81873095D01*
X193548004Y-81971949D01*
X193478721Y-81943251D01*
X193376906Y-81922999D01*
X193273096Y-81922999D01*
X193171281Y-81943251D01*
X193075373Y-81982978D01*
X192989058Y-82040651D01*
X192915653Y-82114056D01*
X192877000Y-82171905D01*
X192877000Y-80873095D01*
X192998000Y-80873095D01*
X192998000Y-80976905D01*
X193018252Y-81078720D01*
X193057979Y-81174628D01*
X193115652Y-81260943D01*
X193189057Y-81334348D01*
X193275372Y-81392021D01*
X193371280Y-81431748D01*
X193473095Y-81452000D01*
X193576905Y-81452000D01*
X193678720Y-81431748D01*
X193774628Y-81392021D01*
X193860943Y-81334348D01*
X193934348Y-81260943D01*
X193992021Y-81174628D01*
X194031748Y-81078720D01*
X194052000Y-80976905D01*
X194052000Y-80873095D01*
X194031748Y-80771280D01*
X193992021Y-80675372D01*
X193934348Y-80589057D01*
X193860943Y-80515652D01*
X193774628Y-80457979D01*
X193678720Y-80418252D01*
X193576905Y-80398000D01*
X193473095Y-80398000D01*
X193371280Y-80418252D01*
X193275372Y-80457979D01*
X193189057Y-80515652D01*
X193115652Y-80589057D01*
X193057979Y-80675372D01*
X193018252Y-80771280D01*
X192998000Y-80873095D01*
X192877000Y-80873095D01*
X192877000Y-79223095D01*
X205523000Y-79223095D01*
X205523000Y-79326905D01*
X205543252Y-79428720D01*
X205582979Y-79524628D01*
X205640652Y-79610943D01*
X205714057Y-79684348D01*
X205800372Y-79742021D01*
X205896280Y-79781748D01*
X205998095Y-79802000D01*
X206101905Y-79802000D01*
X206203720Y-79781748D01*
X206299628Y-79742021D01*
X206385943Y-79684348D01*
X206459348Y-79610943D01*
X206517021Y-79524628D01*
X206556748Y-79428720D01*
X206577000Y-79326905D01*
X206577000Y-79223095D01*
X206556748Y-79121280D01*
X206517021Y-79025372D01*
X206459348Y-78939057D01*
X206385943Y-78865652D01*
X206299628Y-78807979D01*
X206203720Y-78768252D01*
X206101905Y-78748000D01*
X205998095Y-78748000D01*
X205896280Y-78768252D01*
X205800372Y-78807979D01*
X205714057Y-78865652D01*
X205640652Y-78939057D01*
X205582979Y-79025372D01*
X205543252Y-79121280D01*
X205523000Y-79223095D01*
X192877000Y-79223095D01*
X192877000Y-75413095D01*
X195403000Y-75413095D01*
X195403000Y-75516905D01*
X195423252Y-75618720D01*
X195462979Y-75714628D01*
X195496636Y-75765000D01*
X195462979Y-75815372D01*
X195423252Y-75911280D01*
X195403000Y-76013095D01*
X195403000Y-76116905D01*
X195423252Y-76218720D01*
X195462979Y-76314628D01*
X195520652Y-76400943D01*
X195594057Y-76474348D01*
X195680372Y-76532021D01*
X195776280Y-76571748D01*
X195792592Y-76574993D01*
X195742450Y-76601794D01*
X195692657Y-76642657D01*
X195651794Y-76692450D01*
X195621430Y-76749257D01*
X195602732Y-76810897D01*
X195596418Y-76875000D01*
X195596418Y-78275000D01*
X195602732Y-78339103D01*
X195621430Y-78400743D01*
X195651794Y-78457550D01*
X195692657Y-78507343D01*
X195742450Y-78548206D01*
X195799257Y-78578570D01*
X195860897Y-78597268D01*
X195925000Y-78603582D01*
X197525000Y-78603582D01*
X197580706Y-78598095D01*
X201623000Y-78598095D01*
X201623000Y-78701905D01*
X201643252Y-78803720D01*
X201682979Y-78899628D01*
X201740652Y-78985943D01*
X201814057Y-79059348D01*
X201900372Y-79117021D01*
X201996280Y-79156748D01*
X202098095Y-79177000D01*
X202201905Y-79177000D01*
X202303720Y-79156748D01*
X202399628Y-79117021D01*
X202485943Y-79059348D01*
X202559348Y-78985943D01*
X202617021Y-78899628D01*
X202656748Y-78803720D01*
X202677000Y-78701905D01*
X202677000Y-78598095D01*
X202656748Y-78496280D01*
X202617021Y-78400372D01*
X202559348Y-78314057D01*
X202485943Y-78240652D01*
X202399628Y-78182979D01*
X202303720Y-78143252D01*
X202201905Y-78123000D01*
X202098095Y-78123000D01*
X201996280Y-78143252D01*
X201900372Y-78182979D01*
X201814057Y-78240652D01*
X201740652Y-78314057D01*
X201682979Y-78400372D01*
X201643252Y-78496280D01*
X201623000Y-78598095D01*
X197580706Y-78598095D01*
X197589103Y-78597268D01*
X197650743Y-78578570D01*
X197707550Y-78548206D01*
X197757343Y-78507343D01*
X197798206Y-78457550D01*
X197828570Y-78400743D01*
X197847268Y-78339103D01*
X197853582Y-78275000D01*
X197853582Y-78027000D01*
X202377891Y-78027000D01*
X202400372Y-78042021D01*
X202496280Y-78081748D01*
X202598095Y-78102000D01*
X202701905Y-78102000D01*
X202803720Y-78081748D01*
X202899628Y-78042021D01*
X202922109Y-78027000D01*
X203596418Y-78027000D01*
X203596418Y-78275000D01*
X203602732Y-78339103D01*
X203621430Y-78400743D01*
X203651794Y-78457550D01*
X203692657Y-78507343D01*
X203742450Y-78548206D01*
X203799257Y-78578570D01*
X203860897Y-78597268D01*
X203925000Y-78603582D01*
X205525000Y-78603582D01*
X205589103Y-78597268D01*
X205650743Y-78578570D01*
X205707550Y-78548206D01*
X205757343Y-78507343D01*
X205798206Y-78457550D01*
X205828570Y-78400743D01*
X205847268Y-78339103D01*
X205853582Y-78275000D01*
X205853582Y-76875000D01*
X205847268Y-76810897D01*
X205828570Y-76749257D01*
X205798206Y-76692450D01*
X205757343Y-76642657D01*
X205707550Y-76601794D01*
X205650743Y-76571430D01*
X205589103Y-76552732D01*
X205525000Y-76546418D01*
X203925000Y-76546418D01*
X203860897Y-76552732D01*
X203799257Y-76571430D01*
X203742450Y-76601794D01*
X203692657Y-76642657D01*
X203651794Y-76692450D01*
X203621430Y-76749257D01*
X203602732Y-76810897D01*
X203596418Y-76875000D01*
X203596418Y-77123000D01*
X202922109Y-77123000D01*
X202899628Y-77107979D01*
X202803720Y-77068252D01*
X202701905Y-77048000D01*
X202598095Y-77048000D01*
X202496280Y-77068252D01*
X202400372Y-77107979D01*
X202377891Y-77123000D01*
X197853582Y-77123000D01*
X197853582Y-76875000D01*
X197847268Y-76810897D01*
X197828570Y-76749257D01*
X197798206Y-76692450D01*
X197757343Y-76642657D01*
X197707550Y-76601794D01*
X197650743Y-76571430D01*
X197589103Y-76552732D01*
X197525000Y-76546418D01*
X196144871Y-76546418D01*
X196179628Y-76532021D01*
X196265943Y-76474348D01*
X196339348Y-76400943D01*
X196397021Y-76314628D01*
X196436748Y-76218720D01*
X196457000Y-76116905D01*
X196457000Y-76013095D01*
X196436748Y-75911280D01*
X196397021Y-75815372D01*
X196363364Y-75765000D01*
X196397021Y-75714628D01*
X196403869Y-75698095D01*
X198098000Y-75698095D01*
X198098000Y-75801905D01*
X198118252Y-75903720D01*
X198157979Y-75999628D01*
X198215652Y-76085943D01*
X198289057Y-76159348D01*
X198375372Y-76217021D01*
X198471280Y-76256748D01*
X198573095Y-76277000D01*
X198676905Y-76277000D01*
X198778720Y-76256748D01*
X198874628Y-76217021D01*
X198960943Y-76159348D01*
X199034348Y-76085943D01*
X199092021Y-75999628D01*
X199131748Y-75903720D01*
X199152000Y-75801905D01*
X199152000Y-75698095D01*
X199131748Y-75596280D01*
X199100980Y-75522000D01*
X200199020Y-75522000D01*
X200168252Y-75596280D01*
X200148000Y-75698095D01*
X200148000Y-75801905D01*
X200168252Y-75903720D01*
X200207979Y-75999628D01*
X200265652Y-76085943D01*
X200339057Y-76159348D01*
X200425372Y-76217021D01*
X200521280Y-76256748D01*
X200623095Y-76277000D01*
X200726905Y-76277000D01*
X200828720Y-76256748D01*
X200924628Y-76217021D01*
X201010943Y-76159348D01*
X201084348Y-76085943D01*
X201142021Y-75999628D01*
X201181748Y-75903720D01*
X201202000Y-75801905D01*
X201202000Y-75698095D01*
X201181748Y-75596280D01*
X201142021Y-75500372D01*
X201084348Y-75414057D01*
X201082791Y-75412500D01*
X201084348Y-75410943D01*
X201142021Y-75324628D01*
X201181748Y-75228720D01*
X201202000Y-75126905D01*
X201202000Y-75023095D01*
X201181748Y-74921280D01*
X201142021Y-74825372D01*
X201084348Y-74739057D01*
X201010943Y-74665652D01*
X200924628Y-74607979D01*
X200828720Y-74568252D01*
X200726905Y-74548000D01*
X200623095Y-74548000D01*
X200521280Y-74568252D01*
X200425372Y-74607979D01*
X200410374Y-74618000D01*
X198902109Y-74618000D01*
X198879628Y-74602979D01*
X198783720Y-74563252D01*
X198681905Y-74543000D01*
X198578095Y-74543000D01*
X198476280Y-74563252D01*
X198380372Y-74602979D01*
X198294057Y-74660652D01*
X198220652Y-74734057D01*
X198162979Y-74820372D01*
X198123252Y-74916280D01*
X198103000Y-75018095D01*
X198103000Y-75121905D01*
X198123252Y-75223720D01*
X198162979Y-75319628D01*
X198220652Y-75405943D01*
X198222209Y-75407500D01*
X198215652Y-75414057D01*
X198157979Y-75500372D01*
X198118252Y-75596280D01*
X198098000Y-75698095D01*
X196403869Y-75698095D01*
X196436748Y-75618720D01*
X196457000Y-75516905D01*
X196457000Y-75413095D01*
X196436748Y-75311280D01*
X196397021Y-75215372D01*
X196339348Y-75129057D01*
X196265943Y-75055652D01*
X196179628Y-74997979D01*
X196083720Y-74958252D01*
X195981905Y-74938000D01*
X195878095Y-74938000D01*
X195776280Y-74958252D01*
X195680372Y-74997979D01*
X195594057Y-75055652D01*
X195520652Y-75129057D01*
X195462979Y-75215372D01*
X195423252Y-75311280D01*
X195403000Y-75413095D01*
X192877000Y-75413095D01*
X192877000Y-72151695D01*
X207073001Y-72127220D01*
X207073000Y-84905253D01*
M02*
