G04 #@! TF.GenerationSoftware,KiCad,Pcbnew,(5.1.6)-1*
G04 #@! TF.CreationDate,2020-08-31T21:18:16+02:00*
G04 #@! TF.ProjectId,Freude_Microcontroller,46726575-6465-45f4-9d69-63726f636f6e,rev?*
G04 #@! TF.SameCoordinates,Original*
G04 #@! TF.FileFunction,Copper,L2,Inr*
G04 #@! TF.FilePolarity,Positive*
%FSLAX46Y46*%
G04 Gerber Fmt 4.6, Leading zero omitted, Abs format (unit mm)*
G04 Created by KiCad (PCBNEW (5.1.6)-1) date 2020-08-31 21:18:16*
%MOMM*%
%LPD*%
G01*
G04 APERTURE LIST*
G04 #@! TA.AperFunction,ViaPad*
%ADD10C,1.650000*%
G04 #@! TD*
G04 #@! TA.AperFunction,ViaPad*
%ADD11C,0.450000*%
G04 #@! TD*
G04 #@! TA.AperFunction,Conductor*
%ADD12C,0.254000*%
G04 #@! TD*
G04 APERTURE END LIST*
D10*
X193675000Y-69025000D03*
X210075000Y-86825000D03*
D11*
X199600000Y-81950000D03*
X200175000Y-87350000D03*
X198100000Y-81950000D03*
X196050000Y-80025000D03*
X200800000Y-78200000D03*
X206925000Y-79400000D03*
X198655000Y-73520000D03*
X198070000Y-73515000D03*
X196220000Y-86400000D03*
X202895000Y-81105000D03*
X202150000Y-78650000D03*
X202650000Y-77575000D03*
X194075004Y-81925000D03*
X195200000Y-82425000D03*
X193831361Y-82944696D03*
X193975000Y-83775000D03*
X198630000Y-75070000D03*
X193525000Y-80925000D03*
X206050000Y-79275000D03*
X195930000Y-75465000D03*
X195930000Y-76065000D03*
X201975000Y-84975000D03*
X200675000Y-75075000D03*
X198625000Y-75750000D03*
X200675000Y-75750000D03*
X193325001Y-82449999D03*
D12*
G36*
X206698216Y-72576770D02*
G01*
X206708993Y-78891993D01*
X206663530Y-78910824D01*
X206573120Y-78971234D01*
X206496234Y-79048120D01*
X206435824Y-79138530D01*
X206394213Y-79238988D01*
X206373000Y-79345633D01*
X206373000Y-79454367D01*
X206394213Y-79561012D01*
X206435824Y-79661470D01*
X206496234Y-79751880D01*
X206573120Y-79828766D01*
X206663530Y-79889176D01*
X206710728Y-79908726D01*
X206722783Y-86973000D01*
X200578646Y-86973000D01*
X200526880Y-86921234D01*
X200436470Y-86860824D01*
X200336012Y-86819213D01*
X200229367Y-86798000D01*
X200120633Y-86798000D01*
X200013988Y-86819213D01*
X199913530Y-86860824D01*
X199823120Y-86921234D01*
X199771354Y-86973000D01*
X193152433Y-86973000D01*
X193154570Y-86345633D01*
X195668000Y-86345633D01*
X195668000Y-86454367D01*
X195689213Y-86561012D01*
X195730824Y-86661470D01*
X195791234Y-86751880D01*
X195868120Y-86828766D01*
X195958530Y-86889176D01*
X196058988Y-86930787D01*
X196165633Y-86952000D01*
X196274367Y-86952000D01*
X196381012Y-86930787D01*
X196481470Y-86889176D01*
X196571880Y-86828766D01*
X196648766Y-86751880D01*
X196709176Y-86661470D01*
X196750787Y-86561012D01*
X196772000Y-86454367D01*
X196772000Y-86345633D01*
X196750787Y-86238988D01*
X196709176Y-86138530D01*
X196648766Y-86048120D01*
X196571880Y-85971234D01*
X196481470Y-85910824D01*
X196381012Y-85869213D01*
X196274367Y-85848000D01*
X196165633Y-85848000D01*
X196058988Y-85869213D01*
X195958530Y-85910824D01*
X195868120Y-85971234D01*
X195791234Y-86048120D01*
X195730824Y-86138530D01*
X195689213Y-86238988D01*
X195668000Y-86345633D01*
X193154570Y-86345633D01*
X193166343Y-82890329D01*
X193279361Y-82890329D01*
X193279361Y-82999063D01*
X193300574Y-83105708D01*
X193342185Y-83206166D01*
X193402595Y-83296576D01*
X193479481Y-83373462D01*
X193549264Y-83420090D01*
X193546234Y-83423120D01*
X193485824Y-83513530D01*
X193444213Y-83613988D01*
X193423000Y-83720633D01*
X193423000Y-83829367D01*
X193444213Y-83936012D01*
X193485824Y-84036470D01*
X193546234Y-84126880D01*
X193623120Y-84203766D01*
X193713530Y-84264176D01*
X193813988Y-84305787D01*
X193920633Y-84327000D01*
X194029367Y-84327000D01*
X194136012Y-84305787D01*
X194236470Y-84264176D01*
X194326880Y-84203766D01*
X194403766Y-84126880D01*
X194464176Y-84036470D01*
X194505787Y-83936012D01*
X194527000Y-83829367D01*
X194527000Y-83720633D01*
X194505787Y-83613988D01*
X194464176Y-83513530D01*
X194403766Y-83423120D01*
X194326880Y-83346234D01*
X194257097Y-83299606D01*
X194260127Y-83296576D01*
X194320537Y-83206166D01*
X194362148Y-83105708D01*
X194383361Y-82999063D01*
X194383361Y-82890329D01*
X194362148Y-82783684D01*
X194320537Y-82683226D01*
X194260127Y-82592816D01*
X194183241Y-82515930D01*
X194124978Y-82477000D01*
X194129371Y-82477000D01*
X194236016Y-82455787D01*
X194336474Y-82414176D01*
X194401640Y-82370633D01*
X194648000Y-82370633D01*
X194648000Y-82479367D01*
X194669213Y-82586012D01*
X194710824Y-82686470D01*
X194771234Y-82776880D01*
X194848120Y-82853766D01*
X194938530Y-82914176D01*
X195038988Y-82955787D01*
X195145633Y-82977000D01*
X195254367Y-82977000D01*
X195361012Y-82955787D01*
X195461470Y-82914176D01*
X195551880Y-82853766D01*
X195628766Y-82776880D01*
X195689176Y-82686470D01*
X195730787Y-82586012D01*
X195752000Y-82479367D01*
X195752000Y-82370633D01*
X195730787Y-82263988D01*
X195689176Y-82163530D01*
X195628766Y-82073120D01*
X195551880Y-81996234D01*
X195461470Y-81935824D01*
X195364441Y-81895633D01*
X197548000Y-81895633D01*
X197548000Y-82004367D01*
X197569213Y-82111012D01*
X197610824Y-82211470D01*
X197671234Y-82301880D01*
X197748120Y-82378766D01*
X197838530Y-82439176D01*
X197938988Y-82480787D01*
X198045633Y-82502000D01*
X198154367Y-82502000D01*
X198261012Y-82480787D01*
X198361470Y-82439176D01*
X198451880Y-82378766D01*
X198528766Y-82301880D01*
X198589176Y-82211470D01*
X198630787Y-82111012D01*
X198652000Y-82004367D01*
X198652000Y-81895633D01*
X199048000Y-81895633D01*
X199048000Y-82004367D01*
X199069213Y-82111012D01*
X199110824Y-82211470D01*
X199171234Y-82301880D01*
X199248120Y-82378766D01*
X199338530Y-82439176D01*
X199438988Y-82480787D01*
X199545633Y-82502000D01*
X199654367Y-82502000D01*
X199761012Y-82480787D01*
X199861470Y-82439176D01*
X199951880Y-82378766D01*
X200028766Y-82301880D01*
X200089176Y-82211470D01*
X200130787Y-82111012D01*
X200152000Y-82004367D01*
X200152000Y-81895633D01*
X200130787Y-81788988D01*
X200089176Y-81688530D01*
X200028766Y-81598120D01*
X199951880Y-81521234D01*
X199861470Y-81460824D01*
X199761012Y-81419213D01*
X199654367Y-81398000D01*
X199545633Y-81398000D01*
X199438988Y-81419213D01*
X199338530Y-81460824D01*
X199248120Y-81521234D01*
X199171234Y-81598120D01*
X199110824Y-81688530D01*
X199069213Y-81788988D01*
X199048000Y-81895633D01*
X198652000Y-81895633D01*
X198630787Y-81788988D01*
X198589176Y-81688530D01*
X198528766Y-81598120D01*
X198451880Y-81521234D01*
X198361470Y-81460824D01*
X198261012Y-81419213D01*
X198154367Y-81398000D01*
X198045633Y-81398000D01*
X197938988Y-81419213D01*
X197838530Y-81460824D01*
X197748120Y-81521234D01*
X197671234Y-81598120D01*
X197610824Y-81688530D01*
X197569213Y-81788988D01*
X197548000Y-81895633D01*
X195364441Y-81895633D01*
X195361012Y-81894213D01*
X195254367Y-81873000D01*
X195145633Y-81873000D01*
X195038988Y-81894213D01*
X194938530Y-81935824D01*
X194848120Y-81996234D01*
X194771234Y-82073120D01*
X194710824Y-82163530D01*
X194669213Y-82263988D01*
X194648000Y-82370633D01*
X194401640Y-82370633D01*
X194426884Y-82353766D01*
X194503770Y-82276880D01*
X194564180Y-82186470D01*
X194605791Y-82086012D01*
X194627004Y-81979367D01*
X194627004Y-81870633D01*
X194605791Y-81763988D01*
X194564180Y-81663530D01*
X194503770Y-81573120D01*
X194426884Y-81496234D01*
X194336474Y-81435824D01*
X194236016Y-81394213D01*
X194129371Y-81373000D01*
X194020637Y-81373000D01*
X193913992Y-81394213D01*
X193813534Y-81435824D01*
X193723124Y-81496234D01*
X193646238Y-81573120D01*
X193585828Y-81663530D01*
X193544217Y-81763988D01*
X193523004Y-81870633D01*
X193523004Y-81979367D01*
X193544217Y-82086012D01*
X193585828Y-82186470D01*
X193646238Y-82276880D01*
X193723124Y-82353766D01*
X193781387Y-82392696D01*
X193776994Y-82392696D01*
X193670349Y-82413909D01*
X193569891Y-82455520D01*
X193479481Y-82515930D01*
X193402595Y-82592816D01*
X193342185Y-82683226D01*
X193300574Y-82783684D01*
X193279361Y-82890329D01*
X193166343Y-82890329D01*
X193172610Y-81050633D01*
X202343000Y-81050633D01*
X202343000Y-81159367D01*
X202364213Y-81266012D01*
X202405824Y-81366470D01*
X202466234Y-81456880D01*
X202543120Y-81533766D01*
X202633530Y-81594176D01*
X202733988Y-81635787D01*
X202840633Y-81657000D01*
X202949367Y-81657000D01*
X203056012Y-81635787D01*
X203156470Y-81594176D01*
X203246880Y-81533766D01*
X203323766Y-81456880D01*
X203384176Y-81366470D01*
X203425787Y-81266012D01*
X203447000Y-81159367D01*
X203447000Y-81050633D01*
X203425787Y-80943988D01*
X203384176Y-80843530D01*
X203323766Y-80753120D01*
X203246880Y-80676234D01*
X203156470Y-80615824D01*
X203056012Y-80574213D01*
X202949367Y-80553000D01*
X202840633Y-80553000D01*
X202733988Y-80574213D01*
X202633530Y-80615824D01*
X202543120Y-80676234D01*
X202466234Y-80753120D01*
X202405824Y-80843530D01*
X202364213Y-80943988D01*
X202343000Y-81050633D01*
X193172610Y-81050633D01*
X193176290Y-79970633D01*
X195498000Y-79970633D01*
X195498000Y-80079367D01*
X195519213Y-80186012D01*
X195560824Y-80286470D01*
X195621234Y-80376880D01*
X195698120Y-80453766D01*
X195788530Y-80514176D01*
X195888988Y-80555787D01*
X195995633Y-80577000D01*
X196104367Y-80577000D01*
X196211012Y-80555787D01*
X196311470Y-80514176D01*
X196401880Y-80453766D01*
X196478766Y-80376880D01*
X196539176Y-80286470D01*
X196580787Y-80186012D01*
X196602000Y-80079367D01*
X196602000Y-79970633D01*
X196580787Y-79863988D01*
X196539176Y-79763530D01*
X196478766Y-79673120D01*
X196401880Y-79596234D01*
X196311470Y-79535824D01*
X196211012Y-79494213D01*
X196104367Y-79473000D01*
X195995633Y-79473000D01*
X195888988Y-79494213D01*
X195788530Y-79535824D01*
X195698120Y-79596234D01*
X195621234Y-79673120D01*
X195560824Y-79763530D01*
X195519213Y-79863988D01*
X195498000Y-79970633D01*
X193176290Y-79970633D01*
X193182508Y-78145633D01*
X200248000Y-78145633D01*
X200248000Y-78254367D01*
X200269213Y-78361012D01*
X200310824Y-78461470D01*
X200371234Y-78551880D01*
X200448120Y-78628766D01*
X200538530Y-78689176D01*
X200638988Y-78730787D01*
X200745633Y-78752000D01*
X200854367Y-78752000D01*
X200961012Y-78730787D01*
X201061470Y-78689176D01*
X201151880Y-78628766D01*
X201185013Y-78595633D01*
X201598000Y-78595633D01*
X201598000Y-78704367D01*
X201619213Y-78811012D01*
X201660824Y-78911470D01*
X201721234Y-79001880D01*
X201798120Y-79078766D01*
X201888530Y-79139176D01*
X201988988Y-79180787D01*
X202095633Y-79202000D01*
X202204367Y-79202000D01*
X202311012Y-79180787D01*
X202411470Y-79139176D01*
X202501880Y-79078766D01*
X202578766Y-79001880D01*
X202639176Y-78911470D01*
X202680787Y-78811012D01*
X202702000Y-78704367D01*
X202702000Y-78595633D01*
X202680787Y-78488988D01*
X202639176Y-78388530D01*
X202578766Y-78298120D01*
X202501880Y-78221234D01*
X202411470Y-78160824D01*
X202311012Y-78119213D01*
X202204367Y-78098000D01*
X202095633Y-78098000D01*
X201988988Y-78119213D01*
X201888530Y-78160824D01*
X201798120Y-78221234D01*
X201721234Y-78298120D01*
X201660824Y-78388530D01*
X201619213Y-78488988D01*
X201598000Y-78595633D01*
X201185013Y-78595633D01*
X201228766Y-78551880D01*
X201289176Y-78461470D01*
X201330787Y-78361012D01*
X201352000Y-78254367D01*
X201352000Y-78145633D01*
X201330787Y-78038988D01*
X201289176Y-77938530D01*
X201228766Y-77848120D01*
X201151880Y-77771234D01*
X201061470Y-77710824D01*
X200961012Y-77669213D01*
X200854367Y-77648000D01*
X200745633Y-77648000D01*
X200638988Y-77669213D01*
X200538530Y-77710824D01*
X200448120Y-77771234D01*
X200371234Y-77848120D01*
X200310824Y-77938530D01*
X200269213Y-78038988D01*
X200248000Y-78145633D01*
X193182508Y-78145633D01*
X193184637Y-77520633D01*
X202098000Y-77520633D01*
X202098000Y-77629367D01*
X202119213Y-77736012D01*
X202160824Y-77836470D01*
X202221234Y-77926880D01*
X202298120Y-78003766D01*
X202388530Y-78064176D01*
X202488988Y-78105787D01*
X202595633Y-78127000D01*
X202704367Y-78127000D01*
X202811012Y-78105787D01*
X202911470Y-78064176D01*
X203001880Y-78003766D01*
X203078766Y-77926880D01*
X203139176Y-77836470D01*
X203180787Y-77736012D01*
X203202000Y-77629367D01*
X203202000Y-77520633D01*
X203180787Y-77413988D01*
X203139176Y-77313530D01*
X203078766Y-77223120D01*
X203001880Y-77146234D01*
X202911470Y-77085824D01*
X202811012Y-77044213D01*
X202704367Y-77023000D01*
X202595633Y-77023000D01*
X202488988Y-77044213D01*
X202388530Y-77085824D01*
X202298120Y-77146234D01*
X202221234Y-77223120D01*
X202160824Y-77313530D01*
X202119213Y-77413988D01*
X202098000Y-77520633D01*
X193184637Y-77520633D01*
X193198471Y-73460633D01*
X197518000Y-73460633D01*
X197518000Y-73569367D01*
X197539213Y-73676012D01*
X197580824Y-73776470D01*
X197641234Y-73866880D01*
X197718120Y-73943766D01*
X197808530Y-74004176D01*
X197908988Y-74045787D01*
X198015633Y-74067000D01*
X198124367Y-74067000D01*
X198231012Y-74045787D01*
X198331470Y-74004176D01*
X198358758Y-73985942D01*
X198393530Y-74009176D01*
X198493988Y-74050787D01*
X198600633Y-74072000D01*
X198709367Y-74072000D01*
X198816012Y-74050787D01*
X198916470Y-74009176D01*
X199006880Y-73948766D01*
X199083766Y-73871880D01*
X199144176Y-73781470D01*
X199185787Y-73681012D01*
X199207000Y-73574367D01*
X199207000Y-73465633D01*
X199185787Y-73358988D01*
X199144176Y-73258530D01*
X199083766Y-73168120D01*
X199006880Y-73091234D01*
X198916470Y-73030824D01*
X198816012Y-72989213D01*
X198709367Y-72968000D01*
X198600633Y-72968000D01*
X198493988Y-72989213D01*
X198393530Y-73030824D01*
X198366242Y-73049058D01*
X198331470Y-73025824D01*
X198231012Y-72984213D01*
X198124367Y-72963000D01*
X198015633Y-72963000D01*
X197908988Y-72984213D01*
X197808530Y-73025824D01*
X197718120Y-73086234D01*
X197641234Y-73163120D01*
X197580824Y-73253530D01*
X197539213Y-73353988D01*
X197518000Y-73460633D01*
X193198471Y-73460633D01*
X193201567Y-72552231D01*
X206698216Y-72576770D01*
G37*
X206698216Y-72576770D02*
X206708993Y-78891993D01*
X206663530Y-78910824D01*
X206573120Y-78971234D01*
X206496234Y-79048120D01*
X206435824Y-79138530D01*
X206394213Y-79238988D01*
X206373000Y-79345633D01*
X206373000Y-79454367D01*
X206394213Y-79561012D01*
X206435824Y-79661470D01*
X206496234Y-79751880D01*
X206573120Y-79828766D01*
X206663530Y-79889176D01*
X206710728Y-79908726D01*
X206722783Y-86973000D01*
X200578646Y-86973000D01*
X200526880Y-86921234D01*
X200436470Y-86860824D01*
X200336012Y-86819213D01*
X200229367Y-86798000D01*
X200120633Y-86798000D01*
X200013988Y-86819213D01*
X199913530Y-86860824D01*
X199823120Y-86921234D01*
X199771354Y-86973000D01*
X193152433Y-86973000D01*
X193154570Y-86345633D01*
X195668000Y-86345633D01*
X195668000Y-86454367D01*
X195689213Y-86561012D01*
X195730824Y-86661470D01*
X195791234Y-86751880D01*
X195868120Y-86828766D01*
X195958530Y-86889176D01*
X196058988Y-86930787D01*
X196165633Y-86952000D01*
X196274367Y-86952000D01*
X196381012Y-86930787D01*
X196481470Y-86889176D01*
X196571880Y-86828766D01*
X196648766Y-86751880D01*
X196709176Y-86661470D01*
X196750787Y-86561012D01*
X196772000Y-86454367D01*
X196772000Y-86345633D01*
X196750787Y-86238988D01*
X196709176Y-86138530D01*
X196648766Y-86048120D01*
X196571880Y-85971234D01*
X196481470Y-85910824D01*
X196381012Y-85869213D01*
X196274367Y-85848000D01*
X196165633Y-85848000D01*
X196058988Y-85869213D01*
X195958530Y-85910824D01*
X195868120Y-85971234D01*
X195791234Y-86048120D01*
X195730824Y-86138530D01*
X195689213Y-86238988D01*
X195668000Y-86345633D01*
X193154570Y-86345633D01*
X193166343Y-82890329D01*
X193279361Y-82890329D01*
X193279361Y-82999063D01*
X193300574Y-83105708D01*
X193342185Y-83206166D01*
X193402595Y-83296576D01*
X193479481Y-83373462D01*
X193549264Y-83420090D01*
X193546234Y-83423120D01*
X193485824Y-83513530D01*
X193444213Y-83613988D01*
X193423000Y-83720633D01*
X193423000Y-83829367D01*
X193444213Y-83936012D01*
X193485824Y-84036470D01*
X193546234Y-84126880D01*
X193623120Y-84203766D01*
X193713530Y-84264176D01*
X193813988Y-84305787D01*
X193920633Y-84327000D01*
X194029367Y-84327000D01*
X194136012Y-84305787D01*
X194236470Y-84264176D01*
X194326880Y-84203766D01*
X194403766Y-84126880D01*
X194464176Y-84036470D01*
X194505787Y-83936012D01*
X194527000Y-83829367D01*
X194527000Y-83720633D01*
X194505787Y-83613988D01*
X194464176Y-83513530D01*
X194403766Y-83423120D01*
X194326880Y-83346234D01*
X194257097Y-83299606D01*
X194260127Y-83296576D01*
X194320537Y-83206166D01*
X194362148Y-83105708D01*
X194383361Y-82999063D01*
X194383361Y-82890329D01*
X194362148Y-82783684D01*
X194320537Y-82683226D01*
X194260127Y-82592816D01*
X194183241Y-82515930D01*
X194124978Y-82477000D01*
X194129371Y-82477000D01*
X194236016Y-82455787D01*
X194336474Y-82414176D01*
X194401640Y-82370633D01*
X194648000Y-82370633D01*
X194648000Y-82479367D01*
X194669213Y-82586012D01*
X194710824Y-82686470D01*
X194771234Y-82776880D01*
X194848120Y-82853766D01*
X194938530Y-82914176D01*
X195038988Y-82955787D01*
X195145633Y-82977000D01*
X195254367Y-82977000D01*
X195361012Y-82955787D01*
X195461470Y-82914176D01*
X195551880Y-82853766D01*
X195628766Y-82776880D01*
X195689176Y-82686470D01*
X195730787Y-82586012D01*
X195752000Y-82479367D01*
X195752000Y-82370633D01*
X195730787Y-82263988D01*
X195689176Y-82163530D01*
X195628766Y-82073120D01*
X195551880Y-81996234D01*
X195461470Y-81935824D01*
X195364441Y-81895633D01*
X197548000Y-81895633D01*
X197548000Y-82004367D01*
X197569213Y-82111012D01*
X197610824Y-82211470D01*
X197671234Y-82301880D01*
X197748120Y-82378766D01*
X197838530Y-82439176D01*
X197938988Y-82480787D01*
X198045633Y-82502000D01*
X198154367Y-82502000D01*
X198261012Y-82480787D01*
X198361470Y-82439176D01*
X198451880Y-82378766D01*
X198528766Y-82301880D01*
X198589176Y-82211470D01*
X198630787Y-82111012D01*
X198652000Y-82004367D01*
X198652000Y-81895633D01*
X199048000Y-81895633D01*
X199048000Y-82004367D01*
X199069213Y-82111012D01*
X199110824Y-82211470D01*
X199171234Y-82301880D01*
X199248120Y-82378766D01*
X199338530Y-82439176D01*
X199438988Y-82480787D01*
X199545633Y-82502000D01*
X199654367Y-82502000D01*
X199761012Y-82480787D01*
X199861470Y-82439176D01*
X199951880Y-82378766D01*
X200028766Y-82301880D01*
X200089176Y-82211470D01*
X200130787Y-82111012D01*
X200152000Y-82004367D01*
X200152000Y-81895633D01*
X200130787Y-81788988D01*
X200089176Y-81688530D01*
X200028766Y-81598120D01*
X199951880Y-81521234D01*
X199861470Y-81460824D01*
X199761012Y-81419213D01*
X199654367Y-81398000D01*
X199545633Y-81398000D01*
X199438988Y-81419213D01*
X199338530Y-81460824D01*
X199248120Y-81521234D01*
X199171234Y-81598120D01*
X199110824Y-81688530D01*
X199069213Y-81788988D01*
X199048000Y-81895633D01*
X198652000Y-81895633D01*
X198630787Y-81788988D01*
X198589176Y-81688530D01*
X198528766Y-81598120D01*
X198451880Y-81521234D01*
X198361470Y-81460824D01*
X198261012Y-81419213D01*
X198154367Y-81398000D01*
X198045633Y-81398000D01*
X197938988Y-81419213D01*
X197838530Y-81460824D01*
X197748120Y-81521234D01*
X197671234Y-81598120D01*
X197610824Y-81688530D01*
X197569213Y-81788988D01*
X197548000Y-81895633D01*
X195364441Y-81895633D01*
X195361012Y-81894213D01*
X195254367Y-81873000D01*
X195145633Y-81873000D01*
X195038988Y-81894213D01*
X194938530Y-81935824D01*
X194848120Y-81996234D01*
X194771234Y-82073120D01*
X194710824Y-82163530D01*
X194669213Y-82263988D01*
X194648000Y-82370633D01*
X194401640Y-82370633D01*
X194426884Y-82353766D01*
X194503770Y-82276880D01*
X194564180Y-82186470D01*
X194605791Y-82086012D01*
X194627004Y-81979367D01*
X194627004Y-81870633D01*
X194605791Y-81763988D01*
X194564180Y-81663530D01*
X194503770Y-81573120D01*
X194426884Y-81496234D01*
X194336474Y-81435824D01*
X194236016Y-81394213D01*
X194129371Y-81373000D01*
X194020637Y-81373000D01*
X193913992Y-81394213D01*
X193813534Y-81435824D01*
X193723124Y-81496234D01*
X193646238Y-81573120D01*
X193585828Y-81663530D01*
X193544217Y-81763988D01*
X193523004Y-81870633D01*
X193523004Y-81979367D01*
X193544217Y-82086012D01*
X193585828Y-82186470D01*
X193646238Y-82276880D01*
X193723124Y-82353766D01*
X193781387Y-82392696D01*
X193776994Y-82392696D01*
X193670349Y-82413909D01*
X193569891Y-82455520D01*
X193479481Y-82515930D01*
X193402595Y-82592816D01*
X193342185Y-82683226D01*
X193300574Y-82783684D01*
X193279361Y-82890329D01*
X193166343Y-82890329D01*
X193172610Y-81050633D01*
X202343000Y-81050633D01*
X202343000Y-81159367D01*
X202364213Y-81266012D01*
X202405824Y-81366470D01*
X202466234Y-81456880D01*
X202543120Y-81533766D01*
X202633530Y-81594176D01*
X202733988Y-81635787D01*
X202840633Y-81657000D01*
X202949367Y-81657000D01*
X203056012Y-81635787D01*
X203156470Y-81594176D01*
X203246880Y-81533766D01*
X203323766Y-81456880D01*
X203384176Y-81366470D01*
X203425787Y-81266012D01*
X203447000Y-81159367D01*
X203447000Y-81050633D01*
X203425787Y-80943988D01*
X203384176Y-80843530D01*
X203323766Y-80753120D01*
X203246880Y-80676234D01*
X203156470Y-80615824D01*
X203056012Y-80574213D01*
X202949367Y-80553000D01*
X202840633Y-80553000D01*
X202733988Y-80574213D01*
X202633530Y-80615824D01*
X202543120Y-80676234D01*
X202466234Y-80753120D01*
X202405824Y-80843530D01*
X202364213Y-80943988D01*
X202343000Y-81050633D01*
X193172610Y-81050633D01*
X193176290Y-79970633D01*
X195498000Y-79970633D01*
X195498000Y-80079367D01*
X195519213Y-80186012D01*
X195560824Y-80286470D01*
X195621234Y-80376880D01*
X195698120Y-80453766D01*
X195788530Y-80514176D01*
X195888988Y-80555787D01*
X195995633Y-80577000D01*
X196104367Y-80577000D01*
X196211012Y-80555787D01*
X196311470Y-80514176D01*
X196401880Y-80453766D01*
X196478766Y-80376880D01*
X196539176Y-80286470D01*
X196580787Y-80186012D01*
X196602000Y-80079367D01*
X196602000Y-79970633D01*
X196580787Y-79863988D01*
X196539176Y-79763530D01*
X196478766Y-79673120D01*
X196401880Y-79596234D01*
X196311470Y-79535824D01*
X196211012Y-79494213D01*
X196104367Y-79473000D01*
X195995633Y-79473000D01*
X195888988Y-79494213D01*
X195788530Y-79535824D01*
X195698120Y-79596234D01*
X195621234Y-79673120D01*
X195560824Y-79763530D01*
X195519213Y-79863988D01*
X195498000Y-79970633D01*
X193176290Y-79970633D01*
X193182508Y-78145633D01*
X200248000Y-78145633D01*
X200248000Y-78254367D01*
X200269213Y-78361012D01*
X200310824Y-78461470D01*
X200371234Y-78551880D01*
X200448120Y-78628766D01*
X200538530Y-78689176D01*
X200638988Y-78730787D01*
X200745633Y-78752000D01*
X200854367Y-78752000D01*
X200961012Y-78730787D01*
X201061470Y-78689176D01*
X201151880Y-78628766D01*
X201185013Y-78595633D01*
X201598000Y-78595633D01*
X201598000Y-78704367D01*
X201619213Y-78811012D01*
X201660824Y-78911470D01*
X201721234Y-79001880D01*
X201798120Y-79078766D01*
X201888530Y-79139176D01*
X201988988Y-79180787D01*
X202095633Y-79202000D01*
X202204367Y-79202000D01*
X202311012Y-79180787D01*
X202411470Y-79139176D01*
X202501880Y-79078766D01*
X202578766Y-79001880D01*
X202639176Y-78911470D01*
X202680787Y-78811012D01*
X202702000Y-78704367D01*
X202702000Y-78595633D01*
X202680787Y-78488988D01*
X202639176Y-78388530D01*
X202578766Y-78298120D01*
X202501880Y-78221234D01*
X202411470Y-78160824D01*
X202311012Y-78119213D01*
X202204367Y-78098000D01*
X202095633Y-78098000D01*
X201988988Y-78119213D01*
X201888530Y-78160824D01*
X201798120Y-78221234D01*
X201721234Y-78298120D01*
X201660824Y-78388530D01*
X201619213Y-78488988D01*
X201598000Y-78595633D01*
X201185013Y-78595633D01*
X201228766Y-78551880D01*
X201289176Y-78461470D01*
X201330787Y-78361012D01*
X201352000Y-78254367D01*
X201352000Y-78145633D01*
X201330787Y-78038988D01*
X201289176Y-77938530D01*
X201228766Y-77848120D01*
X201151880Y-77771234D01*
X201061470Y-77710824D01*
X200961012Y-77669213D01*
X200854367Y-77648000D01*
X200745633Y-77648000D01*
X200638988Y-77669213D01*
X200538530Y-77710824D01*
X200448120Y-77771234D01*
X200371234Y-77848120D01*
X200310824Y-77938530D01*
X200269213Y-78038988D01*
X200248000Y-78145633D01*
X193182508Y-78145633D01*
X193184637Y-77520633D01*
X202098000Y-77520633D01*
X202098000Y-77629367D01*
X202119213Y-77736012D01*
X202160824Y-77836470D01*
X202221234Y-77926880D01*
X202298120Y-78003766D01*
X202388530Y-78064176D01*
X202488988Y-78105787D01*
X202595633Y-78127000D01*
X202704367Y-78127000D01*
X202811012Y-78105787D01*
X202911470Y-78064176D01*
X203001880Y-78003766D01*
X203078766Y-77926880D01*
X203139176Y-77836470D01*
X203180787Y-77736012D01*
X203202000Y-77629367D01*
X203202000Y-77520633D01*
X203180787Y-77413988D01*
X203139176Y-77313530D01*
X203078766Y-77223120D01*
X203001880Y-77146234D01*
X202911470Y-77085824D01*
X202811012Y-77044213D01*
X202704367Y-77023000D01*
X202595633Y-77023000D01*
X202488988Y-77044213D01*
X202388530Y-77085824D01*
X202298120Y-77146234D01*
X202221234Y-77223120D01*
X202160824Y-77313530D01*
X202119213Y-77413988D01*
X202098000Y-77520633D01*
X193184637Y-77520633D01*
X193198471Y-73460633D01*
X197518000Y-73460633D01*
X197518000Y-73569367D01*
X197539213Y-73676012D01*
X197580824Y-73776470D01*
X197641234Y-73866880D01*
X197718120Y-73943766D01*
X197808530Y-74004176D01*
X197908988Y-74045787D01*
X198015633Y-74067000D01*
X198124367Y-74067000D01*
X198231012Y-74045787D01*
X198331470Y-74004176D01*
X198358758Y-73985942D01*
X198393530Y-74009176D01*
X198493988Y-74050787D01*
X198600633Y-74072000D01*
X198709367Y-74072000D01*
X198816012Y-74050787D01*
X198916470Y-74009176D01*
X199006880Y-73948766D01*
X199083766Y-73871880D01*
X199144176Y-73781470D01*
X199185787Y-73681012D01*
X199207000Y-73574367D01*
X199207000Y-73465633D01*
X199185787Y-73358988D01*
X199144176Y-73258530D01*
X199083766Y-73168120D01*
X199006880Y-73091234D01*
X198916470Y-73030824D01*
X198816012Y-72989213D01*
X198709367Y-72968000D01*
X198600633Y-72968000D01*
X198493988Y-72989213D01*
X198393530Y-73030824D01*
X198366242Y-73049058D01*
X198331470Y-73025824D01*
X198231012Y-72984213D01*
X198124367Y-72963000D01*
X198015633Y-72963000D01*
X197908988Y-72984213D01*
X197808530Y-73025824D01*
X197718120Y-73086234D01*
X197641234Y-73163120D01*
X197580824Y-73253530D01*
X197539213Y-73353988D01*
X197518000Y-73460633D01*
X193198471Y-73460633D01*
X193201567Y-72552231D01*
X206698216Y-72576770D01*
M02*
