M48
; DRILL file {KiCad (5.1.6)-1} date 08/31/20 21:18:13
; FORMAT={-:-/ absolute / inch / decimal}
; #@! TF.CreationDate,2020-08-31T21:18:13+02:00
; #@! TF.GenerationSoftware,Kicad,Pcbnew,(5.1.6)-1
; #@! TF.FileFunction,Plated,1,4,PTH
FMAT,2
INCH
T1C0.0079
T2C0.0650
%
G90
G05
T1
X7.6112Y-3.2461
X7.6191Y-3.186
X7.6312Y-3.2655
X7.6368Y-3.2982
X7.6407Y-3.2254
X7.685Y-3.2451
X7.7138Y-2.9711
X7.7138Y-2.9947
X7.7185Y-3.1506
X7.7252Y-3.4016
X7.798Y-2.8943
X7.7992Y-3.2264
X7.8199Y-2.9823
X7.8201Y-2.9555
X7.8211Y-2.8945
X7.8583Y-3.2264
X7.8809Y-3.439
X7.9006Y-2.9557
X7.9006Y-2.9823
X7.9055Y-3.0787
X7.9518Y-3.3455
X7.9587Y-3.0965
X7.9783Y-3.0541
X7.988Y-3.1931
X8.1122Y-3.1211
X8.1467Y-3.126
T2
X7.625Y-2.7175
X8.2707Y-3.4183
T0
M30
