G04 #@! TF.GenerationSoftware,KiCad,Pcbnew,(5.1.6)-1*
G04 #@! TF.CreationDate,2020-08-31T21:18:16+02:00*
G04 #@! TF.ProjectId,Freude_Microcontroller,46726575-6465-45f4-9d69-63726f636f6e,rev?*
G04 #@! TF.SameCoordinates,Original*
G04 #@! TF.FileFunction,Soldermask,Top*
G04 #@! TF.FilePolarity,Negative*
%FSLAX46Y46*%
G04 Gerber Fmt 4.6, Leading zero omitted, Abs format (unit mm)*
G04 Created by KiCad (PCBNEW (5.1.6)-1) date 2020-08-31 21:18:16*
%MOMM*%
%LPD*%
G01*
G04 APERTURE LIST*
%ADD10R,0.590000X0.390000*%
%ADD11C,2.050000*%
%ADD12R,1.700000X2.000000*%
%ADD13R,0.390000X0.590000*%
%ADD14R,0.690000X0.290000*%
%ADD15R,0.990000X0.290000*%
%ADD16R,0.590000X0.690000*%
%ADD17R,3.440000X3.440000*%
%ADD18R,1.490000X1.490000*%
G04 APERTURE END LIST*
D10*
X197040000Y-74400000D03*
X197040000Y-73500000D03*
D11*
X193675000Y-69025000D03*
X210075000Y-86825000D03*
D12*
X206390000Y-82160000D03*
X206390000Y-85460000D03*
X204390000Y-85460000D03*
X204390000Y-82160000D03*
D10*
X202790000Y-81660000D03*
X202790000Y-82560000D03*
D13*
X200800000Y-79075000D03*
X201700000Y-79075000D03*
X202675000Y-79275000D03*
X203575000Y-79275000D03*
X205275000Y-79275000D03*
X204375000Y-79275000D03*
X205740000Y-87280000D03*
X204840000Y-87280000D03*
X204350000Y-80425000D03*
X205250000Y-80425000D03*
X203575000Y-80425000D03*
X202675000Y-80425000D03*
D10*
X202920000Y-84520000D03*
X202920000Y-83620000D03*
X202950000Y-85470000D03*
X202950000Y-86370000D03*
D13*
X206080000Y-80410000D03*
X206980000Y-80410000D03*
D10*
X194900000Y-80925000D03*
X194900000Y-80025000D03*
D14*
X194850000Y-87400000D03*
X194850000Y-86900000D03*
D15*
X192200000Y-88190000D03*
X192200000Y-84110000D03*
D14*
X194850000Y-86400000D03*
X194850000Y-85900000D03*
X194850000Y-85400000D03*
G36*
G01*
X194577500Y-84755000D02*
X195122500Y-84755000D01*
G75*
G02*
X195195000Y-84827500I0J-72500D01*
G01*
X195195000Y-84972500D01*
G75*
G02*
X195122500Y-85045000I-72500J0D01*
G01*
X194577500Y-85045000D01*
G75*
G02*
X194505000Y-84972500I0J72500D01*
G01*
X194505000Y-84827500D01*
G75*
G02*
X194577500Y-84755000I72500J0D01*
G01*
G37*
D16*
X198050000Y-78725000D03*
X196950000Y-78725000D03*
D15*
X193300000Y-75740000D03*
X193300000Y-72160000D03*
D14*
X195950000Y-74950000D03*
X195950000Y-74450000D03*
X195950000Y-73950000D03*
X195950000Y-73450000D03*
G36*
G01*
X195677500Y-72805000D02*
X196222500Y-72805000D01*
G75*
G02*
X196295000Y-72877500I0J-72500D01*
G01*
X196295000Y-73022500D01*
G75*
G02*
X196222500Y-73095000I-72500J0D01*
G01*
X195677500Y-73095000D01*
G75*
G02*
X195605000Y-73022500I0J72500D01*
G01*
X195605000Y-72877500D01*
G75*
G02*
X195677500Y-72805000I72500J0D01*
G01*
G37*
G36*
G01*
X201720000Y-84365000D02*
X201720000Y-84485000D01*
G75*
G02*
X201660000Y-84545000I-60000J0D01*
G01*
X200915000Y-84545000D01*
G75*
G02*
X200855000Y-84485000I0J60000D01*
G01*
X200855000Y-84365000D01*
G75*
G02*
X200915000Y-84305000I60000J0D01*
G01*
X201660000Y-84305000D01*
G75*
G02*
X201720000Y-84365000I0J-60000D01*
G01*
G37*
G36*
G01*
X201720000Y-83865000D02*
X201720000Y-83985000D01*
G75*
G02*
X201660000Y-84045000I-60000J0D01*
G01*
X200915000Y-84045000D01*
G75*
G02*
X200855000Y-83985000I0J60000D01*
G01*
X200855000Y-83865000D01*
G75*
G02*
X200915000Y-83805000I60000J0D01*
G01*
X201660000Y-83805000D01*
G75*
G02*
X201720000Y-83865000I0J-60000D01*
G01*
G37*
G36*
G01*
X201720000Y-83365000D02*
X201720000Y-83485000D01*
G75*
G02*
X201660000Y-83545000I-60000J0D01*
G01*
X200915000Y-83545000D01*
G75*
G02*
X200855000Y-83485000I0J60000D01*
G01*
X200855000Y-83365000D01*
G75*
G02*
X200915000Y-83305000I60000J0D01*
G01*
X201660000Y-83305000D01*
G75*
G02*
X201720000Y-83365000I0J-60000D01*
G01*
G37*
G36*
G01*
X201720000Y-82865000D02*
X201720000Y-82985000D01*
G75*
G02*
X201660000Y-83045000I-60000J0D01*
G01*
X200915000Y-83045000D01*
G75*
G02*
X200855000Y-82985000I0J60000D01*
G01*
X200855000Y-82865000D01*
G75*
G02*
X200915000Y-82805000I60000J0D01*
G01*
X201660000Y-82805000D01*
G75*
G02*
X201720000Y-82865000I0J-60000D01*
G01*
G37*
G36*
G01*
X201720000Y-82365000D02*
X201720000Y-82485000D01*
G75*
G02*
X201660000Y-82545000I-60000J0D01*
G01*
X200915000Y-82545000D01*
G75*
G02*
X200855000Y-82485000I0J60000D01*
G01*
X200855000Y-82365000D01*
G75*
G02*
X200915000Y-82305000I60000J0D01*
G01*
X201660000Y-82305000D01*
G75*
G02*
X201720000Y-82365000I0J-60000D01*
G01*
G37*
G36*
G01*
X201720000Y-81865000D02*
X201720000Y-81985000D01*
G75*
G02*
X201660000Y-82045000I-60000J0D01*
G01*
X200915000Y-82045000D01*
G75*
G02*
X200855000Y-81985000I0J60000D01*
G01*
X200855000Y-81865000D01*
G75*
G02*
X200915000Y-81805000I60000J0D01*
G01*
X201660000Y-81805000D01*
G75*
G02*
X201720000Y-81865000I0J-60000D01*
G01*
G37*
G36*
G01*
X201720000Y-81365000D02*
X201720000Y-81485000D01*
G75*
G02*
X201660000Y-81545000I-60000J0D01*
G01*
X200915000Y-81545000D01*
G75*
G02*
X200855000Y-81485000I0J60000D01*
G01*
X200855000Y-81365000D01*
G75*
G02*
X200915000Y-81305000I60000J0D01*
G01*
X201660000Y-81305000D01*
G75*
G02*
X201720000Y-81365000I0J-60000D01*
G01*
G37*
G36*
G01*
X201720000Y-80865000D02*
X201720000Y-80985000D01*
G75*
G02*
X201660000Y-81045000I-60000J0D01*
G01*
X200915000Y-81045000D01*
G75*
G02*
X200855000Y-80985000I0J60000D01*
G01*
X200855000Y-80865000D01*
G75*
G02*
X200915000Y-80805000I60000J0D01*
G01*
X201660000Y-80805000D01*
G75*
G02*
X201720000Y-80865000I0J-60000D01*
G01*
G37*
G36*
G01*
X200720000Y-79865000D02*
X200720000Y-80610000D01*
G75*
G02*
X200660000Y-80670000I-60000J0D01*
G01*
X200540000Y-80670000D01*
G75*
G02*
X200480000Y-80610000I0J60000D01*
G01*
X200480000Y-79865000D01*
G75*
G02*
X200540000Y-79805000I60000J0D01*
G01*
X200660000Y-79805000D01*
G75*
G02*
X200720000Y-79865000I0J-60000D01*
G01*
G37*
G36*
G01*
X200220000Y-79865000D02*
X200220000Y-80610000D01*
G75*
G02*
X200160000Y-80670000I-60000J0D01*
G01*
X200040000Y-80670000D01*
G75*
G02*
X199980000Y-80610000I0J60000D01*
G01*
X199980000Y-79865000D01*
G75*
G02*
X200040000Y-79805000I60000J0D01*
G01*
X200160000Y-79805000D01*
G75*
G02*
X200220000Y-79865000I0J-60000D01*
G01*
G37*
G36*
G01*
X199720000Y-79865000D02*
X199720000Y-80610000D01*
G75*
G02*
X199660000Y-80670000I-60000J0D01*
G01*
X199540000Y-80670000D01*
G75*
G02*
X199480000Y-80610000I0J60000D01*
G01*
X199480000Y-79865000D01*
G75*
G02*
X199540000Y-79805000I60000J0D01*
G01*
X199660000Y-79805000D01*
G75*
G02*
X199720000Y-79865000I0J-60000D01*
G01*
G37*
G36*
G01*
X199220000Y-79865000D02*
X199220000Y-80610000D01*
G75*
G02*
X199160000Y-80670000I-60000J0D01*
G01*
X199040000Y-80670000D01*
G75*
G02*
X198980000Y-80610000I0J60000D01*
G01*
X198980000Y-79865000D01*
G75*
G02*
X199040000Y-79805000I60000J0D01*
G01*
X199160000Y-79805000D01*
G75*
G02*
X199220000Y-79865000I0J-60000D01*
G01*
G37*
G36*
G01*
X198720000Y-79865000D02*
X198720000Y-80610000D01*
G75*
G02*
X198660000Y-80670000I-60000J0D01*
G01*
X198540000Y-80670000D01*
G75*
G02*
X198480000Y-80610000I0J60000D01*
G01*
X198480000Y-79865000D01*
G75*
G02*
X198540000Y-79805000I60000J0D01*
G01*
X198660000Y-79805000D01*
G75*
G02*
X198720000Y-79865000I0J-60000D01*
G01*
G37*
G36*
G01*
X198220000Y-79865000D02*
X198220000Y-80610000D01*
G75*
G02*
X198160000Y-80670000I-60000J0D01*
G01*
X198040000Y-80670000D01*
G75*
G02*
X197980000Y-80610000I0J60000D01*
G01*
X197980000Y-79865000D01*
G75*
G02*
X198040000Y-79805000I60000J0D01*
G01*
X198160000Y-79805000D01*
G75*
G02*
X198220000Y-79865000I0J-60000D01*
G01*
G37*
G36*
G01*
X197720000Y-79865000D02*
X197720000Y-80610000D01*
G75*
G02*
X197660000Y-80670000I-60000J0D01*
G01*
X197540000Y-80670000D01*
G75*
G02*
X197480000Y-80610000I0J60000D01*
G01*
X197480000Y-79865000D01*
G75*
G02*
X197540000Y-79805000I60000J0D01*
G01*
X197660000Y-79805000D01*
G75*
G02*
X197720000Y-79865000I0J-60000D01*
G01*
G37*
G36*
G01*
X197220000Y-79865000D02*
X197220000Y-80610000D01*
G75*
G02*
X197160000Y-80670000I-60000J0D01*
G01*
X197040000Y-80670000D01*
G75*
G02*
X196980000Y-80610000I0J60000D01*
G01*
X196980000Y-79865000D01*
G75*
G02*
X197040000Y-79805000I60000J0D01*
G01*
X197160000Y-79805000D01*
G75*
G02*
X197220000Y-79865000I0J-60000D01*
G01*
G37*
G36*
G01*
X196845000Y-80865000D02*
X196845000Y-80985000D01*
G75*
G02*
X196785000Y-81045000I-60000J0D01*
G01*
X196040000Y-81045000D01*
G75*
G02*
X195980000Y-80985000I0J60000D01*
G01*
X195980000Y-80865000D01*
G75*
G02*
X196040000Y-80805000I60000J0D01*
G01*
X196785000Y-80805000D01*
G75*
G02*
X196845000Y-80865000I0J-60000D01*
G01*
G37*
G36*
G01*
X196845000Y-81365000D02*
X196845000Y-81485000D01*
G75*
G02*
X196785000Y-81545000I-60000J0D01*
G01*
X196040000Y-81545000D01*
G75*
G02*
X195980000Y-81485000I0J60000D01*
G01*
X195980000Y-81365000D01*
G75*
G02*
X196040000Y-81305000I60000J0D01*
G01*
X196785000Y-81305000D01*
G75*
G02*
X196845000Y-81365000I0J-60000D01*
G01*
G37*
G36*
G01*
X196845000Y-81865000D02*
X196845000Y-81985000D01*
G75*
G02*
X196785000Y-82045000I-60000J0D01*
G01*
X196040000Y-82045000D01*
G75*
G02*
X195980000Y-81985000I0J60000D01*
G01*
X195980000Y-81865000D01*
G75*
G02*
X196040000Y-81805000I60000J0D01*
G01*
X196785000Y-81805000D01*
G75*
G02*
X196845000Y-81865000I0J-60000D01*
G01*
G37*
G36*
G01*
X196845000Y-82365000D02*
X196845000Y-82485000D01*
G75*
G02*
X196785000Y-82545000I-60000J0D01*
G01*
X196040000Y-82545000D01*
G75*
G02*
X195980000Y-82485000I0J60000D01*
G01*
X195980000Y-82365000D01*
G75*
G02*
X196040000Y-82305000I60000J0D01*
G01*
X196785000Y-82305000D01*
G75*
G02*
X196845000Y-82365000I0J-60000D01*
G01*
G37*
G36*
G01*
X196845000Y-82865000D02*
X196845000Y-82985000D01*
G75*
G02*
X196785000Y-83045000I-60000J0D01*
G01*
X196040000Y-83045000D01*
G75*
G02*
X195980000Y-82985000I0J60000D01*
G01*
X195980000Y-82865000D01*
G75*
G02*
X196040000Y-82805000I60000J0D01*
G01*
X196785000Y-82805000D01*
G75*
G02*
X196845000Y-82865000I0J-60000D01*
G01*
G37*
G36*
G01*
X196845000Y-83365000D02*
X196845000Y-83485000D01*
G75*
G02*
X196785000Y-83545000I-60000J0D01*
G01*
X196040000Y-83545000D01*
G75*
G02*
X195980000Y-83485000I0J60000D01*
G01*
X195980000Y-83365000D01*
G75*
G02*
X196040000Y-83305000I60000J0D01*
G01*
X196785000Y-83305000D01*
G75*
G02*
X196845000Y-83365000I0J-60000D01*
G01*
G37*
G36*
G01*
X196845000Y-83865000D02*
X196845000Y-83985000D01*
G75*
G02*
X196785000Y-84045000I-60000J0D01*
G01*
X196040000Y-84045000D01*
G75*
G02*
X195980000Y-83985000I0J60000D01*
G01*
X195980000Y-83865000D01*
G75*
G02*
X196040000Y-83805000I60000J0D01*
G01*
X196785000Y-83805000D01*
G75*
G02*
X196845000Y-83865000I0J-60000D01*
G01*
G37*
G36*
G01*
X196845000Y-84365000D02*
X196845000Y-84485000D01*
G75*
G02*
X196785000Y-84545000I-60000J0D01*
G01*
X196040000Y-84545000D01*
G75*
G02*
X195980000Y-84485000I0J60000D01*
G01*
X195980000Y-84365000D01*
G75*
G02*
X196040000Y-84305000I60000J0D01*
G01*
X196785000Y-84305000D01*
G75*
G02*
X196845000Y-84365000I0J-60000D01*
G01*
G37*
G36*
G01*
X197220000Y-84740000D02*
X197220000Y-85485000D01*
G75*
G02*
X197160000Y-85545000I-60000J0D01*
G01*
X197040000Y-85545000D01*
G75*
G02*
X196980000Y-85485000I0J60000D01*
G01*
X196980000Y-84740000D01*
G75*
G02*
X197040000Y-84680000I60000J0D01*
G01*
X197160000Y-84680000D01*
G75*
G02*
X197220000Y-84740000I0J-60000D01*
G01*
G37*
G36*
G01*
X197720000Y-84740000D02*
X197720000Y-85485000D01*
G75*
G02*
X197660000Y-85545000I-60000J0D01*
G01*
X197540000Y-85545000D01*
G75*
G02*
X197480000Y-85485000I0J60000D01*
G01*
X197480000Y-84740000D01*
G75*
G02*
X197540000Y-84680000I60000J0D01*
G01*
X197660000Y-84680000D01*
G75*
G02*
X197720000Y-84740000I0J-60000D01*
G01*
G37*
G36*
G01*
X198220000Y-84740000D02*
X198220000Y-85485000D01*
G75*
G02*
X198160000Y-85545000I-60000J0D01*
G01*
X198040000Y-85545000D01*
G75*
G02*
X197980000Y-85485000I0J60000D01*
G01*
X197980000Y-84740000D01*
G75*
G02*
X198040000Y-84680000I60000J0D01*
G01*
X198160000Y-84680000D01*
G75*
G02*
X198220000Y-84740000I0J-60000D01*
G01*
G37*
G36*
G01*
X198720000Y-84740000D02*
X198720000Y-85485000D01*
G75*
G02*
X198660000Y-85545000I-60000J0D01*
G01*
X198540000Y-85545000D01*
G75*
G02*
X198480000Y-85485000I0J60000D01*
G01*
X198480000Y-84740000D01*
G75*
G02*
X198540000Y-84680000I60000J0D01*
G01*
X198660000Y-84680000D01*
G75*
G02*
X198720000Y-84740000I0J-60000D01*
G01*
G37*
G36*
G01*
X199220000Y-84740000D02*
X199220000Y-85485000D01*
G75*
G02*
X199160000Y-85545000I-60000J0D01*
G01*
X199040000Y-85545000D01*
G75*
G02*
X198980000Y-85485000I0J60000D01*
G01*
X198980000Y-84740000D01*
G75*
G02*
X199040000Y-84680000I60000J0D01*
G01*
X199160000Y-84680000D01*
G75*
G02*
X199220000Y-84740000I0J-60000D01*
G01*
G37*
G36*
G01*
X199720000Y-84740000D02*
X199720000Y-85485000D01*
G75*
G02*
X199660000Y-85545000I-60000J0D01*
G01*
X199540000Y-85545000D01*
G75*
G02*
X199480000Y-85485000I0J60000D01*
G01*
X199480000Y-84740000D01*
G75*
G02*
X199540000Y-84680000I60000J0D01*
G01*
X199660000Y-84680000D01*
G75*
G02*
X199720000Y-84740000I0J-60000D01*
G01*
G37*
G36*
G01*
X200220000Y-84740000D02*
X200220000Y-85485000D01*
G75*
G02*
X200160000Y-85545000I-60000J0D01*
G01*
X200040000Y-85545000D01*
G75*
G02*
X199980000Y-85485000I0J60000D01*
G01*
X199980000Y-84740000D01*
G75*
G02*
X200040000Y-84680000I60000J0D01*
G01*
X200160000Y-84680000D01*
G75*
G02*
X200220000Y-84740000I0J-60000D01*
G01*
G37*
G36*
G01*
X200720000Y-84740000D02*
X200720000Y-85485000D01*
G75*
G02*
X200660000Y-85545000I-60000J0D01*
G01*
X200540000Y-85545000D01*
G75*
G02*
X200480000Y-85485000I0J60000D01*
G01*
X200480000Y-84740000D01*
G75*
G02*
X200540000Y-84680000I60000J0D01*
G01*
X200660000Y-84680000D01*
G75*
G02*
X200720000Y-84740000I0J-60000D01*
G01*
G37*
D17*
X198850000Y-82675000D03*
D18*
X201425000Y-86800000D03*
X193525000Y-77750000D03*
M02*
