G04 #@! TF.GenerationSoftware,KiCad,Pcbnew,(5.1.6)-1*
G04 #@! TF.CreationDate,2020-08-31T21:18:16+02:00*
G04 #@! TF.ProjectId,Freude_Microcontroller,46726575-6465-45f4-9d69-63726f636f6e,rev?*
G04 #@! TF.SameCoordinates,Original*
G04 #@! TF.FileFunction,Other,User*
%FSLAX46Y46*%
G04 Gerber Fmt 4.6, Leading zero omitted, Abs format (unit mm)*
G04 Created by KiCad (PCBNEW (5.1.6)-1) date 2020-08-31 21:18:16*
%MOMM*%
%LPD*%
G01*
G04 APERTURE LIST*
%ADD10C,0.050000*%
%ADD11C,0.200000*%
G04 APERTURE END LIST*
D10*
X197490000Y-73150000D02*
X197490000Y-74750000D01*
X197490000Y-73150000D02*
X196590000Y-73150000D01*
X196590000Y-74750000D02*
X197490000Y-74750000D01*
X196590000Y-74750000D02*
X196590000Y-73150000D01*
X207290000Y-81010000D02*
X203490000Y-81010000D01*
X203490000Y-81010000D02*
X203490000Y-86610000D01*
X203490000Y-86610000D02*
X207290000Y-86610000D01*
X207290000Y-86610000D02*
X207290000Y-81010000D01*
X202340000Y-82910000D02*
X202340000Y-81310000D01*
X202340000Y-82910000D02*
X203240000Y-82910000D01*
X203240000Y-81310000D02*
X202340000Y-81310000D01*
X203240000Y-81310000D02*
X203240000Y-82910000D01*
X202050000Y-79525000D02*
X200450000Y-79525000D01*
X202050000Y-79525000D02*
X202050000Y-78625000D01*
X200450000Y-78625000D02*
X200450000Y-79525000D01*
X200450000Y-78625000D02*
X202050000Y-78625000D01*
X203925000Y-79725000D02*
X202325000Y-79725000D01*
X203925000Y-79725000D02*
X203925000Y-78825000D01*
X202325000Y-78825000D02*
X202325000Y-79725000D01*
X202325000Y-78825000D02*
X203925000Y-78825000D01*
X204025000Y-78825000D02*
X205625000Y-78825000D01*
X204025000Y-78825000D02*
X204025000Y-79725000D01*
X205625000Y-79725000D02*
X205625000Y-78825000D01*
X205625000Y-79725000D02*
X204025000Y-79725000D01*
X204490000Y-86830000D02*
X206090000Y-86830000D01*
X204490000Y-86830000D02*
X204490000Y-87730000D01*
X206090000Y-87730000D02*
X206090000Y-86830000D01*
X206090000Y-87730000D02*
X204490000Y-87730000D01*
X205600000Y-80875000D02*
X204000000Y-80875000D01*
X205600000Y-80875000D02*
X205600000Y-79975000D01*
X204000000Y-79975000D02*
X204000000Y-80875000D01*
X204000000Y-79975000D02*
X205600000Y-79975000D01*
X202325000Y-79975000D02*
X203925000Y-79975000D01*
X202325000Y-79975000D02*
X202325000Y-80875000D01*
X203925000Y-80875000D02*
X203925000Y-79975000D01*
X203925000Y-80875000D02*
X202325000Y-80875000D01*
X203370000Y-83270000D02*
X203370000Y-84870000D01*
X203370000Y-83270000D02*
X202470000Y-83270000D01*
X202470000Y-84870000D02*
X203370000Y-84870000D01*
X202470000Y-84870000D02*
X202470000Y-83270000D01*
X202500000Y-86720000D02*
X202500000Y-85120000D01*
X202500000Y-86720000D02*
X203400000Y-86720000D01*
X203400000Y-85120000D02*
X202500000Y-85120000D01*
X203400000Y-85120000D02*
X203400000Y-86720000D01*
X207330000Y-80860000D02*
X205730000Y-80860000D01*
X207330000Y-80860000D02*
X207330000Y-79960000D01*
X205730000Y-79960000D02*
X205730000Y-80860000D01*
X205730000Y-79960000D02*
X207330000Y-79960000D01*
X195350000Y-79675000D02*
X195350000Y-81275000D01*
X195350000Y-79675000D02*
X194450000Y-79675000D01*
X194450000Y-81275000D02*
X195350000Y-81275000D01*
X194450000Y-81275000D02*
X194450000Y-79675000D01*
D11*
X192675000Y-85650000D02*
X192675000Y-86650000D01*
X193175000Y-86150000D02*
X192175000Y-86150000D01*
X195300000Y-83850000D02*
X191600000Y-83850000D01*
X195300000Y-88450000D02*
X195300000Y-83850000D01*
X191600000Y-88450000D02*
X195300000Y-88450000D01*
X191600000Y-83850000D02*
X191600000Y-88450000D01*
D10*
X196500000Y-78225000D02*
X198500000Y-78225000D01*
X196500000Y-79225000D02*
X196500000Y-78225000D01*
X198500000Y-79225000D02*
X196500000Y-79225000D01*
X198500000Y-78225000D02*
X198500000Y-79225000D01*
D11*
X193775000Y-73450000D02*
X193775000Y-74450000D01*
X194275000Y-73950000D02*
X193275000Y-73950000D01*
X196400000Y-71900000D02*
X196400000Y-76000000D01*
X196400000Y-76000000D02*
X192700000Y-76000000D01*
X192700000Y-76000000D02*
X192700000Y-71900000D01*
X192700000Y-71900000D02*
X196400000Y-71900000D01*
D10*
X195730000Y-85795000D02*
X201970000Y-85795000D01*
X195730000Y-79555000D02*
X195730000Y-85795000D01*
X201970000Y-79555000D02*
X195730000Y-79555000D01*
X201970000Y-85795000D02*
X201970000Y-79555000D01*
X200425000Y-87800000D02*
X200425000Y-85800000D01*
X202425000Y-87800000D02*
X200425000Y-87800000D01*
X202425000Y-85800000D02*
X202425000Y-87800000D01*
X200425000Y-85800000D02*
X202425000Y-85800000D01*
X192525000Y-76750000D02*
X194525000Y-76750000D01*
X194525000Y-76750000D02*
X194525000Y-78750000D01*
X194525000Y-78750000D02*
X192525000Y-78750000D01*
X192525000Y-78750000D02*
X192525000Y-76750000D01*
M02*
