G04 #@! TF.GenerationSoftware,KiCad,Pcbnew,(5.1.6)-1*
G04 #@! TF.CreationDate,2020-08-30T17:28:20+02:00*
G04 #@! TF.ProjectId,Freude_Microcontroller,46726575-6465-45f4-9d69-63726f636f6e,rev?*
G04 #@! TF.SameCoordinates,Original*
G04 #@! TF.FileFunction,Legend,Bot*
G04 #@! TF.FilePolarity,Positive*
%FSLAX46Y46*%
G04 Gerber Fmt 4.6, Leading zero omitted, Abs format (unit mm)*
G04 Created by KiCad (PCBNEW (5.1.6)-1) date 2020-08-30 17:28:20*
%MOMM*%
%LPD*%
G01*
G04 APERTURE LIST*
%ADD10C,0.300000*%
%ADD11C,0.200000*%
%ADD12C,0.400000*%
%ADD13C,0.150000*%
G04 APERTURE END LIST*
D10*
X128407142Y-87778571D02*
X128550000Y-87778571D01*
X128692857Y-87850000D01*
X128764285Y-87921428D01*
X128835714Y-88064285D01*
X128907142Y-88350000D01*
X128907142Y-88707142D01*
X128835714Y-88992857D01*
X128764285Y-89135714D01*
X128692857Y-89207142D01*
X128550000Y-89278571D01*
X128407142Y-89278571D01*
X128264285Y-89207142D01*
X128192857Y-89135714D01*
X128121428Y-88992857D01*
X128050000Y-88707142D01*
X128050000Y-88350000D01*
X128121428Y-88064285D01*
X128192857Y-87921428D01*
X128264285Y-87850000D01*
X128407142Y-87778571D01*
X129550000Y-89135714D02*
X129621428Y-89207142D01*
X129550000Y-89278571D01*
X129478571Y-89207142D01*
X129550000Y-89135714D01*
X129550000Y-89278571D01*
X130121428Y-87778571D02*
X131050000Y-87778571D01*
X130550000Y-88350000D01*
X130764285Y-88350000D01*
X130907142Y-88421428D01*
X130978571Y-88492857D01*
X131050000Y-88635714D01*
X131050000Y-88992857D01*
X130978571Y-89135714D01*
X130907142Y-89207142D01*
X130764285Y-89278571D01*
X130335714Y-89278571D01*
X130192857Y-89207142D01*
X130121428Y-89135714D01*
X131978571Y-87778571D02*
X132121428Y-87778571D01*
X132264285Y-87850000D01*
X132335714Y-87921428D01*
X132407142Y-88064285D01*
X132478571Y-88350000D01*
X132478571Y-88707142D01*
X132407142Y-88992857D01*
X132335714Y-89135714D01*
X132264285Y-89207142D01*
X132121428Y-89278571D01*
X131978571Y-89278571D01*
X131835714Y-89207142D01*
X131764285Y-89135714D01*
X131692857Y-88992857D01*
X131621428Y-88707142D01*
X131621428Y-88350000D01*
X131692857Y-88064285D01*
X131764285Y-87921428D01*
X131835714Y-87850000D01*
X131978571Y-87778571D01*
X133407142Y-87778571D02*
X133550000Y-87778571D01*
X133692857Y-87850000D01*
X133764285Y-87921428D01*
X133835714Y-88064285D01*
X133907142Y-88350000D01*
X133907142Y-88707142D01*
X133835714Y-88992857D01*
X133764285Y-89135714D01*
X133692857Y-89207142D01*
X133550000Y-89278571D01*
X133407142Y-89278571D01*
X133264285Y-89207142D01*
X133192857Y-89135714D01*
X133121428Y-88992857D01*
X133050000Y-88707142D01*
X133050000Y-88350000D01*
X133121428Y-88064285D01*
X133192857Y-87921428D01*
X133264285Y-87850000D01*
X133407142Y-87778571D01*
X135692857Y-89278571D02*
X135692857Y-88278571D01*
X135692857Y-88421428D02*
X135764285Y-88350000D01*
X135907142Y-88278571D01*
X136121428Y-88278571D01*
X136264285Y-88350000D01*
X136335714Y-88492857D01*
X136335714Y-89278571D01*
X136335714Y-88492857D02*
X136407142Y-88350000D01*
X136550000Y-88278571D01*
X136764285Y-88278571D01*
X136907142Y-88350000D01*
X136978571Y-88492857D01*
X136978571Y-89278571D01*
X137692857Y-89278571D02*
X137692857Y-88278571D01*
X137692857Y-88421428D02*
X137764285Y-88350000D01*
X137907142Y-88278571D01*
X138121428Y-88278571D01*
X138264285Y-88350000D01*
X138335714Y-88492857D01*
X138335714Y-89278571D01*
X138335714Y-88492857D02*
X138407142Y-88350000D01*
X138550000Y-88278571D01*
X138764285Y-88278571D01*
X138907142Y-88350000D01*
X138978571Y-88492857D01*
X138978571Y-89278571D01*
X133400000Y-86500000D02*
X133700000Y-86500000D01*
X133400000Y-86500000D02*
X133400000Y-87086421D01*
X133700000Y-86500000D02*
X133700000Y-87086421D01*
X133700000Y-86500000D02*
X132573496Y-87086421D01*
X133700000Y-86500000D02*
X132573496Y-85913579D01*
X133400000Y-86500000D02*
X134526504Y-87086421D01*
X133400000Y-86500000D02*
X134526504Y-85913579D01*
D11*
X201800000Y-83250000D02*
X201800000Y-87950000D01*
X201800000Y-83250000D02*
X197950000Y-83250000D01*
X197950000Y-83250000D02*
X197950000Y-87950000D01*
X201800000Y-87950000D02*
X197950000Y-87950000D01*
X197570711Y-83800000D02*
G75*
G03*
X197570711Y-83800000I-70711J0D01*
G01*
D12*
X198570711Y-83750000D02*
G75*
G03*
X198570711Y-83750000I-70711J0D01*
G01*
D11*
X197925000Y-76825000D02*
X203525000Y-76825000D01*
X203875000Y-78625000D02*
X203875000Y-81025000D01*
X197925000Y-82825000D02*
X203525000Y-82825000D01*
X197575000Y-78625000D02*
X197575000Y-81025000D01*
D13*
X203839285Y-72977380D02*
X203648809Y-72977380D01*
X203553571Y-73025000D01*
X203458333Y-73120238D01*
X203410714Y-73310714D01*
X203410714Y-73644047D01*
X203458333Y-73834523D01*
X203553571Y-73929761D01*
X203648809Y-73977380D01*
X203839285Y-73977380D01*
X203934523Y-73929761D01*
X204029761Y-73834523D01*
X204077380Y-73644047D01*
X204077380Y-73310714D01*
X204029761Y-73120238D01*
X203934523Y-73025000D01*
X203839285Y-72977380D01*
X202553571Y-73310714D02*
X202553571Y-73977380D01*
X202982142Y-73310714D02*
X202982142Y-73834523D01*
X202934523Y-73929761D01*
X202839285Y-73977380D01*
X202696428Y-73977380D01*
X202601190Y-73929761D01*
X202553571Y-73882142D01*
X202220238Y-73310714D02*
X201839285Y-73310714D01*
X202077380Y-72977380D02*
X202077380Y-73834523D01*
X202029761Y-73929761D01*
X201934523Y-73977380D01*
X201839285Y-73977380D01*
X201363095Y-73977380D02*
X201458333Y-73929761D01*
X201505952Y-73834523D01*
X201505952Y-72977380D01*
X200982142Y-73977380D02*
X200982142Y-73310714D01*
X200982142Y-72977380D02*
X201029761Y-73025000D01*
X200982142Y-73072619D01*
X200934523Y-73025000D01*
X200982142Y-72977380D01*
X200982142Y-73072619D01*
X200505952Y-73310714D02*
X200505952Y-73977380D01*
X200505952Y-73405952D02*
X200458333Y-73358333D01*
X200363095Y-73310714D01*
X200220238Y-73310714D01*
X200125000Y-73358333D01*
X200077380Y-73453571D01*
X200077380Y-73977380D01*
X199220238Y-73929761D02*
X199315476Y-73977380D01*
X199505952Y-73977380D01*
X199601190Y-73929761D01*
X199648809Y-73834523D01*
X199648809Y-73453571D01*
X199601190Y-73358333D01*
X199505952Y-73310714D01*
X199315476Y-73310714D01*
X199220238Y-73358333D01*
X199172619Y-73453571D01*
X199172619Y-73548809D01*
X199648809Y-73644047D01*
X196102380Y-84816666D02*
X196816666Y-84816666D01*
X196959523Y-84769047D01*
X197054761Y-84673809D01*
X197102380Y-84530952D01*
X197102380Y-84435714D01*
X196102380Y-85197619D02*
X196102380Y-85816666D01*
X196483333Y-85483333D01*
X196483333Y-85626190D01*
X196530952Y-85721428D01*
X196578571Y-85769047D01*
X196673809Y-85816666D01*
X196911904Y-85816666D01*
X197007142Y-85769047D01*
X197054761Y-85721428D01*
X197102380Y-85626190D01*
X197102380Y-85340476D01*
X197054761Y-85245238D01*
X197007142Y-85197619D01*
X204058333Y-76179761D02*
X203915476Y-76227380D01*
X203677380Y-76227380D01*
X203582142Y-76179761D01*
X203534523Y-76132142D01*
X203486904Y-76036904D01*
X203486904Y-75941666D01*
X203534523Y-75846428D01*
X203582142Y-75798809D01*
X203677380Y-75751190D01*
X203867857Y-75703571D01*
X203963095Y-75655952D01*
X204010714Y-75608333D01*
X204058333Y-75513095D01*
X204058333Y-75417857D01*
X204010714Y-75322619D01*
X203963095Y-75275000D01*
X203867857Y-75227380D01*
X203629761Y-75227380D01*
X203486904Y-75275000D01*
X203153571Y-75227380D02*
X202915476Y-76227380D01*
X202725000Y-75513095D01*
X202534523Y-76227380D01*
X202296428Y-75227380D01*
X201391666Y-76227380D02*
X201963095Y-76227380D01*
X201677380Y-76227380D02*
X201677380Y-75227380D01*
X201772619Y-75370238D01*
X201867857Y-75465476D01*
X201963095Y-75513095D01*
M02*
