G04 #@! TF.GenerationSoftware,KiCad,Pcbnew,(5.1.6)-1*
G04 #@! TF.CreationDate,2020-08-30T17:28:20+02:00*
G04 #@! TF.ProjectId,Freude_Microcontroller,46726575-6465-45f4-9d69-63726f636f6e,rev?*
G04 #@! TF.SameCoordinates,Original*
G04 #@! TF.FileFunction,Copper,L2,Inr*
G04 #@! TF.FilePolarity,Positive*
%FSLAX46Y46*%
G04 Gerber Fmt 4.6, Leading zero omitted, Abs format (unit mm)*
G04 Created by KiCad (PCBNEW (5.1.6)-1) date 2020-08-30 17:28:20*
%MOMM*%
%LPD*%
G01*
G04 APERTURE LIST*
G04 #@! TA.AperFunction,ViaPad*
%ADD10C,1.650000*%
G04 #@! TD*
G04 #@! TA.AperFunction,ViaPad*
%ADD11C,0.400000*%
G04 #@! TD*
G04 #@! TA.AperFunction,Conductor*
%ADD12C,0.254000*%
G04 #@! TD*
G04 APERTURE END LIST*
D10*
X193675000Y-69025000D03*
X210075000Y-86825000D03*
D11*
X199600000Y-81950000D03*
X200175000Y-87350000D03*
X198100000Y-81950000D03*
X199600000Y-81950000D03*
X199600000Y-81950000D03*
X199600000Y-81950000D03*
X199600000Y-81950000D03*
X196050000Y-80025000D03*
X200800000Y-78200000D03*
X206925000Y-79400000D03*
X198655000Y-73520000D03*
X198070000Y-73515000D03*
X196220000Y-86400000D03*
X202895000Y-81105000D03*
X202150000Y-78650000D03*
X202650000Y-77575000D03*
X194075004Y-81925000D03*
X195200000Y-82425000D03*
X193831361Y-82944696D03*
X193975000Y-83775000D03*
X198630000Y-75070000D03*
X193525000Y-80925000D03*
X206050000Y-79275000D03*
X195930000Y-75465000D03*
X195930000Y-76065000D03*
X201975000Y-84975000D03*
X200675000Y-75075000D03*
X198625000Y-75750000D03*
X200675000Y-75750000D03*
X193325001Y-82449999D03*
D12*
G36*
X206698216Y-72576770D02*
G01*
X206709039Y-78919033D01*
X206675372Y-78932979D01*
X206589057Y-78990652D01*
X206515652Y-79064057D01*
X206457979Y-79150372D01*
X206418252Y-79246280D01*
X206398000Y-79348095D01*
X206398000Y-79451905D01*
X206418252Y-79553720D01*
X206457979Y-79649628D01*
X206515652Y-79735943D01*
X206589057Y-79809348D01*
X206675372Y-79867021D01*
X206710682Y-79881647D01*
X206722783Y-86973000D01*
X200543291Y-86973000D01*
X200510943Y-86940652D01*
X200424628Y-86882979D01*
X200328720Y-86843252D01*
X200226905Y-86823000D01*
X200123095Y-86823000D01*
X200021280Y-86843252D01*
X199925372Y-86882979D01*
X199839057Y-86940652D01*
X199806709Y-86973000D01*
X193152433Y-86973000D01*
X193154562Y-86348095D01*
X195693000Y-86348095D01*
X195693000Y-86451905D01*
X195713252Y-86553720D01*
X195752979Y-86649628D01*
X195810652Y-86735943D01*
X195884057Y-86809348D01*
X195970372Y-86867021D01*
X196066280Y-86906748D01*
X196168095Y-86927000D01*
X196271905Y-86927000D01*
X196373720Y-86906748D01*
X196469628Y-86867021D01*
X196555943Y-86809348D01*
X196629348Y-86735943D01*
X196687021Y-86649628D01*
X196726748Y-86553720D01*
X196747000Y-86451905D01*
X196747000Y-86348095D01*
X196726748Y-86246280D01*
X196687021Y-86150372D01*
X196629348Y-86064057D01*
X196555943Y-85990652D01*
X196469628Y-85932979D01*
X196373720Y-85893252D01*
X196271905Y-85873000D01*
X196168095Y-85873000D01*
X196066280Y-85893252D01*
X195970372Y-85932979D01*
X195884057Y-85990652D01*
X195810652Y-86064057D01*
X195752979Y-86150372D01*
X195713252Y-86246280D01*
X195693000Y-86348095D01*
X193154562Y-86348095D01*
X193166334Y-82892791D01*
X193304361Y-82892791D01*
X193304361Y-82996601D01*
X193324613Y-83098416D01*
X193364340Y-83194324D01*
X193422013Y-83280639D01*
X193495418Y-83354044D01*
X193581733Y-83411717D01*
X193589694Y-83415015D01*
X193565652Y-83439057D01*
X193507979Y-83525372D01*
X193468252Y-83621280D01*
X193448000Y-83723095D01*
X193448000Y-83826905D01*
X193468252Y-83928720D01*
X193507979Y-84024628D01*
X193565652Y-84110943D01*
X193639057Y-84184348D01*
X193725372Y-84242021D01*
X193821280Y-84281748D01*
X193923095Y-84302000D01*
X194026905Y-84302000D01*
X194128720Y-84281748D01*
X194224628Y-84242021D01*
X194310943Y-84184348D01*
X194384348Y-84110943D01*
X194442021Y-84024628D01*
X194481748Y-83928720D01*
X194502000Y-83826905D01*
X194502000Y-83723095D01*
X194481748Y-83621280D01*
X194442021Y-83525372D01*
X194384348Y-83439057D01*
X194310943Y-83365652D01*
X194224628Y-83307979D01*
X194216667Y-83304681D01*
X194240709Y-83280639D01*
X194298382Y-83194324D01*
X194338109Y-83098416D01*
X194358361Y-82996601D01*
X194358361Y-82892791D01*
X194338109Y-82790976D01*
X194298382Y-82695068D01*
X194240709Y-82608753D01*
X194167304Y-82535348D01*
X194080989Y-82477675D01*
X194015223Y-82450433D01*
X194023099Y-82452000D01*
X194126909Y-82452000D01*
X194228724Y-82431748D01*
X194324632Y-82392021D01*
X194352957Y-82373095D01*
X194673000Y-82373095D01*
X194673000Y-82476905D01*
X194693252Y-82578720D01*
X194732979Y-82674628D01*
X194790652Y-82760943D01*
X194864057Y-82834348D01*
X194950372Y-82892021D01*
X195046280Y-82931748D01*
X195148095Y-82952000D01*
X195251905Y-82952000D01*
X195353720Y-82931748D01*
X195449628Y-82892021D01*
X195535943Y-82834348D01*
X195609348Y-82760943D01*
X195667021Y-82674628D01*
X195706748Y-82578720D01*
X195727000Y-82476905D01*
X195727000Y-82373095D01*
X195706748Y-82271280D01*
X195667021Y-82175372D01*
X195609348Y-82089057D01*
X195535943Y-82015652D01*
X195449628Y-81957979D01*
X195353720Y-81918252D01*
X195252383Y-81898095D01*
X197573000Y-81898095D01*
X197573000Y-82001905D01*
X197593252Y-82103720D01*
X197632979Y-82199628D01*
X197690652Y-82285943D01*
X197764057Y-82359348D01*
X197850372Y-82417021D01*
X197946280Y-82456748D01*
X198048095Y-82477000D01*
X198151905Y-82477000D01*
X198253720Y-82456748D01*
X198349628Y-82417021D01*
X198435943Y-82359348D01*
X198509348Y-82285943D01*
X198567021Y-82199628D01*
X198606748Y-82103720D01*
X198627000Y-82001905D01*
X198627000Y-81898095D01*
X199073000Y-81898095D01*
X199073000Y-82001905D01*
X199093252Y-82103720D01*
X199132979Y-82199628D01*
X199190652Y-82285943D01*
X199264057Y-82359348D01*
X199350372Y-82417021D01*
X199446280Y-82456748D01*
X199548095Y-82477000D01*
X199651905Y-82477000D01*
X199753720Y-82456748D01*
X199849628Y-82417021D01*
X199935943Y-82359348D01*
X200009348Y-82285943D01*
X200067021Y-82199628D01*
X200106748Y-82103720D01*
X200127000Y-82001905D01*
X200127000Y-81898095D01*
X200106748Y-81796280D01*
X200067021Y-81700372D01*
X200009348Y-81614057D01*
X199935943Y-81540652D01*
X199849628Y-81482979D01*
X199753720Y-81443252D01*
X199651905Y-81423000D01*
X199548095Y-81423000D01*
X199446280Y-81443252D01*
X199350372Y-81482979D01*
X199264057Y-81540652D01*
X199190652Y-81614057D01*
X199132979Y-81700372D01*
X199093252Y-81796280D01*
X199073000Y-81898095D01*
X198627000Y-81898095D01*
X198606748Y-81796280D01*
X198567021Y-81700372D01*
X198509348Y-81614057D01*
X198435943Y-81540652D01*
X198349628Y-81482979D01*
X198253720Y-81443252D01*
X198151905Y-81423000D01*
X198048095Y-81423000D01*
X197946280Y-81443252D01*
X197850372Y-81482979D01*
X197764057Y-81540652D01*
X197690652Y-81614057D01*
X197632979Y-81700372D01*
X197593252Y-81796280D01*
X197573000Y-81898095D01*
X195252383Y-81898095D01*
X195251905Y-81898000D01*
X195148095Y-81898000D01*
X195046280Y-81918252D01*
X194950372Y-81957979D01*
X194864057Y-82015652D01*
X194790652Y-82089057D01*
X194732979Y-82175372D01*
X194693252Y-82271280D01*
X194673000Y-82373095D01*
X194352957Y-82373095D01*
X194410947Y-82334348D01*
X194484352Y-82260943D01*
X194542025Y-82174628D01*
X194581752Y-82078720D01*
X194602004Y-81976905D01*
X194602004Y-81873095D01*
X194581752Y-81771280D01*
X194542025Y-81675372D01*
X194484352Y-81589057D01*
X194410947Y-81515652D01*
X194324632Y-81457979D01*
X194228724Y-81418252D01*
X194126909Y-81398000D01*
X194023099Y-81398000D01*
X193921284Y-81418252D01*
X193825376Y-81457979D01*
X193739061Y-81515652D01*
X193665656Y-81589057D01*
X193607983Y-81675372D01*
X193568256Y-81771280D01*
X193548004Y-81873095D01*
X193548004Y-81976905D01*
X193568256Y-82078720D01*
X193607983Y-82174628D01*
X193665656Y-82260943D01*
X193739061Y-82334348D01*
X193825376Y-82392021D01*
X193891142Y-82419263D01*
X193883266Y-82417696D01*
X193779456Y-82417696D01*
X193677641Y-82437948D01*
X193581733Y-82477675D01*
X193495418Y-82535348D01*
X193422013Y-82608753D01*
X193364340Y-82695068D01*
X193324613Y-82790976D01*
X193304361Y-82892791D01*
X193166334Y-82892791D01*
X193172602Y-81053095D01*
X202368000Y-81053095D01*
X202368000Y-81156905D01*
X202388252Y-81258720D01*
X202427979Y-81354628D01*
X202485652Y-81440943D01*
X202559057Y-81514348D01*
X202645372Y-81572021D01*
X202741280Y-81611748D01*
X202843095Y-81632000D01*
X202946905Y-81632000D01*
X203048720Y-81611748D01*
X203144628Y-81572021D01*
X203230943Y-81514348D01*
X203304348Y-81440943D01*
X203362021Y-81354628D01*
X203401748Y-81258720D01*
X203422000Y-81156905D01*
X203422000Y-81053095D01*
X203401748Y-80951280D01*
X203362021Y-80855372D01*
X203304348Y-80769057D01*
X203230943Y-80695652D01*
X203144628Y-80637979D01*
X203048720Y-80598252D01*
X202946905Y-80578000D01*
X202843095Y-80578000D01*
X202741280Y-80598252D01*
X202645372Y-80637979D01*
X202559057Y-80695652D01*
X202485652Y-80769057D01*
X202427979Y-80855372D01*
X202388252Y-80951280D01*
X202368000Y-81053095D01*
X193172602Y-81053095D01*
X193176282Y-79973095D01*
X195523000Y-79973095D01*
X195523000Y-80076905D01*
X195543252Y-80178720D01*
X195582979Y-80274628D01*
X195640652Y-80360943D01*
X195714057Y-80434348D01*
X195800372Y-80492021D01*
X195896280Y-80531748D01*
X195998095Y-80552000D01*
X196101905Y-80552000D01*
X196203720Y-80531748D01*
X196299628Y-80492021D01*
X196385943Y-80434348D01*
X196459348Y-80360943D01*
X196517021Y-80274628D01*
X196556748Y-80178720D01*
X196577000Y-80076905D01*
X196577000Y-79973095D01*
X196556748Y-79871280D01*
X196517021Y-79775372D01*
X196459348Y-79689057D01*
X196385943Y-79615652D01*
X196299628Y-79557979D01*
X196203720Y-79518252D01*
X196101905Y-79498000D01*
X195998095Y-79498000D01*
X195896280Y-79518252D01*
X195800372Y-79557979D01*
X195714057Y-79615652D01*
X195640652Y-79689057D01*
X195582979Y-79775372D01*
X195543252Y-79871280D01*
X195523000Y-79973095D01*
X193176282Y-79973095D01*
X193182500Y-78148095D01*
X200273000Y-78148095D01*
X200273000Y-78251905D01*
X200293252Y-78353720D01*
X200332979Y-78449628D01*
X200390652Y-78535943D01*
X200464057Y-78609348D01*
X200550372Y-78667021D01*
X200646280Y-78706748D01*
X200748095Y-78727000D01*
X200851905Y-78727000D01*
X200953720Y-78706748D01*
X201049628Y-78667021D01*
X201135943Y-78609348D01*
X201147196Y-78598095D01*
X201623000Y-78598095D01*
X201623000Y-78701905D01*
X201643252Y-78803720D01*
X201682979Y-78899628D01*
X201740652Y-78985943D01*
X201814057Y-79059348D01*
X201900372Y-79117021D01*
X201996280Y-79156748D01*
X202098095Y-79177000D01*
X202201905Y-79177000D01*
X202303720Y-79156748D01*
X202399628Y-79117021D01*
X202485943Y-79059348D01*
X202559348Y-78985943D01*
X202617021Y-78899628D01*
X202656748Y-78803720D01*
X202677000Y-78701905D01*
X202677000Y-78598095D01*
X202656748Y-78496280D01*
X202617021Y-78400372D01*
X202559348Y-78314057D01*
X202485943Y-78240652D01*
X202399628Y-78182979D01*
X202303720Y-78143252D01*
X202201905Y-78123000D01*
X202098095Y-78123000D01*
X201996280Y-78143252D01*
X201900372Y-78182979D01*
X201814057Y-78240652D01*
X201740652Y-78314057D01*
X201682979Y-78400372D01*
X201643252Y-78496280D01*
X201623000Y-78598095D01*
X201147196Y-78598095D01*
X201209348Y-78535943D01*
X201267021Y-78449628D01*
X201306748Y-78353720D01*
X201327000Y-78251905D01*
X201327000Y-78148095D01*
X201306748Y-78046280D01*
X201267021Y-77950372D01*
X201209348Y-77864057D01*
X201135943Y-77790652D01*
X201049628Y-77732979D01*
X200953720Y-77693252D01*
X200851905Y-77673000D01*
X200748095Y-77673000D01*
X200646280Y-77693252D01*
X200550372Y-77732979D01*
X200464057Y-77790652D01*
X200390652Y-77864057D01*
X200332979Y-77950372D01*
X200293252Y-78046280D01*
X200273000Y-78148095D01*
X193182500Y-78148095D01*
X193184629Y-77523095D01*
X202123000Y-77523095D01*
X202123000Y-77626905D01*
X202143252Y-77728720D01*
X202182979Y-77824628D01*
X202240652Y-77910943D01*
X202314057Y-77984348D01*
X202400372Y-78042021D01*
X202496280Y-78081748D01*
X202598095Y-78102000D01*
X202701905Y-78102000D01*
X202803720Y-78081748D01*
X202899628Y-78042021D01*
X202985943Y-77984348D01*
X203059348Y-77910943D01*
X203117021Y-77824628D01*
X203156748Y-77728720D01*
X203177000Y-77626905D01*
X203177000Y-77523095D01*
X203156748Y-77421280D01*
X203117021Y-77325372D01*
X203059348Y-77239057D01*
X202985943Y-77165652D01*
X202899628Y-77107979D01*
X202803720Y-77068252D01*
X202701905Y-77048000D01*
X202598095Y-77048000D01*
X202496280Y-77068252D01*
X202400372Y-77107979D01*
X202314057Y-77165652D01*
X202240652Y-77239057D01*
X202182979Y-77325372D01*
X202143252Y-77421280D01*
X202123000Y-77523095D01*
X193184629Y-77523095D01*
X193198463Y-73463095D01*
X197543000Y-73463095D01*
X197543000Y-73566905D01*
X197563252Y-73668720D01*
X197602979Y-73764628D01*
X197660652Y-73850943D01*
X197734057Y-73924348D01*
X197820372Y-73982021D01*
X197916280Y-74021748D01*
X198018095Y-74042000D01*
X198121905Y-74042000D01*
X198223720Y-74021748D01*
X198319628Y-73982021D01*
X198358758Y-73955875D01*
X198405372Y-73987021D01*
X198501280Y-74026748D01*
X198603095Y-74047000D01*
X198706905Y-74047000D01*
X198808720Y-74026748D01*
X198904628Y-73987021D01*
X198990943Y-73929348D01*
X199064348Y-73855943D01*
X199122021Y-73769628D01*
X199161748Y-73673720D01*
X199182000Y-73571905D01*
X199182000Y-73468095D01*
X199161748Y-73366280D01*
X199122021Y-73270372D01*
X199064348Y-73184057D01*
X198990943Y-73110652D01*
X198904628Y-73052979D01*
X198808720Y-73013252D01*
X198706905Y-72993000D01*
X198603095Y-72993000D01*
X198501280Y-73013252D01*
X198405372Y-73052979D01*
X198366242Y-73079125D01*
X198319628Y-73047979D01*
X198223720Y-73008252D01*
X198121905Y-72988000D01*
X198018095Y-72988000D01*
X197916280Y-73008252D01*
X197820372Y-73047979D01*
X197734057Y-73105652D01*
X197660652Y-73179057D01*
X197602979Y-73265372D01*
X197563252Y-73361280D01*
X197543000Y-73463095D01*
X193198463Y-73463095D01*
X193201567Y-72552231D01*
X206698216Y-72576770D01*
G37*
X206698216Y-72576770D02*
X206709039Y-78919033D01*
X206675372Y-78932979D01*
X206589057Y-78990652D01*
X206515652Y-79064057D01*
X206457979Y-79150372D01*
X206418252Y-79246280D01*
X206398000Y-79348095D01*
X206398000Y-79451905D01*
X206418252Y-79553720D01*
X206457979Y-79649628D01*
X206515652Y-79735943D01*
X206589057Y-79809348D01*
X206675372Y-79867021D01*
X206710682Y-79881647D01*
X206722783Y-86973000D01*
X200543291Y-86973000D01*
X200510943Y-86940652D01*
X200424628Y-86882979D01*
X200328720Y-86843252D01*
X200226905Y-86823000D01*
X200123095Y-86823000D01*
X200021280Y-86843252D01*
X199925372Y-86882979D01*
X199839057Y-86940652D01*
X199806709Y-86973000D01*
X193152433Y-86973000D01*
X193154562Y-86348095D01*
X195693000Y-86348095D01*
X195693000Y-86451905D01*
X195713252Y-86553720D01*
X195752979Y-86649628D01*
X195810652Y-86735943D01*
X195884057Y-86809348D01*
X195970372Y-86867021D01*
X196066280Y-86906748D01*
X196168095Y-86927000D01*
X196271905Y-86927000D01*
X196373720Y-86906748D01*
X196469628Y-86867021D01*
X196555943Y-86809348D01*
X196629348Y-86735943D01*
X196687021Y-86649628D01*
X196726748Y-86553720D01*
X196747000Y-86451905D01*
X196747000Y-86348095D01*
X196726748Y-86246280D01*
X196687021Y-86150372D01*
X196629348Y-86064057D01*
X196555943Y-85990652D01*
X196469628Y-85932979D01*
X196373720Y-85893252D01*
X196271905Y-85873000D01*
X196168095Y-85873000D01*
X196066280Y-85893252D01*
X195970372Y-85932979D01*
X195884057Y-85990652D01*
X195810652Y-86064057D01*
X195752979Y-86150372D01*
X195713252Y-86246280D01*
X195693000Y-86348095D01*
X193154562Y-86348095D01*
X193166334Y-82892791D01*
X193304361Y-82892791D01*
X193304361Y-82996601D01*
X193324613Y-83098416D01*
X193364340Y-83194324D01*
X193422013Y-83280639D01*
X193495418Y-83354044D01*
X193581733Y-83411717D01*
X193589694Y-83415015D01*
X193565652Y-83439057D01*
X193507979Y-83525372D01*
X193468252Y-83621280D01*
X193448000Y-83723095D01*
X193448000Y-83826905D01*
X193468252Y-83928720D01*
X193507979Y-84024628D01*
X193565652Y-84110943D01*
X193639057Y-84184348D01*
X193725372Y-84242021D01*
X193821280Y-84281748D01*
X193923095Y-84302000D01*
X194026905Y-84302000D01*
X194128720Y-84281748D01*
X194224628Y-84242021D01*
X194310943Y-84184348D01*
X194384348Y-84110943D01*
X194442021Y-84024628D01*
X194481748Y-83928720D01*
X194502000Y-83826905D01*
X194502000Y-83723095D01*
X194481748Y-83621280D01*
X194442021Y-83525372D01*
X194384348Y-83439057D01*
X194310943Y-83365652D01*
X194224628Y-83307979D01*
X194216667Y-83304681D01*
X194240709Y-83280639D01*
X194298382Y-83194324D01*
X194338109Y-83098416D01*
X194358361Y-82996601D01*
X194358361Y-82892791D01*
X194338109Y-82790976D01*
X194298382Y-82695068D01*
X194240709Y-82608753D01*
X194167304Y-82535348D01*
X194080989Y-82477675D01*
X194015223Y-82450433D01*
X194023099Y-82452000D01*
X194126909Y-82452000D01*
X194228724Y-82431748D01*
X194324632Y-82392021D01*
X194352957Y-82373095D01*
X194673000Y-82373095D01*
X194673000Y-82476905D01*
X194693252Y-82578720D01*
X194732979Y-82674628D01*
X194790652Y-82760943D01*
X194864057Y-82834348D01*
X194950372Y-82892021D01*
X195046280Y-82931748D01*
X195148095Y-82952000D01*
X195251905Y-82952000D01*
X195353720Y-82931748D01*
X195449628Y-82892021D01*
X195535943Y-82834348D01*
X195609348Y-82760943D01*
X195667021Y-82674628D01*
X195706748Y-82578720D01*
X195727000Y-82476905D01*
X195727000Y-82373095D01*
X195706748Y-82271280D01*
X195667021Y-82175372D01*
X195609348Y-82089057D01*
X195535943Y-82015652D01*
X195449628Y-81957979D01*
X195353720Y-81918252D01*
X195252383Y-81898095D01*
X197573000Y-81898095D01*
X197573000Y-82001905D01*
X197593252Y-82103720D01*
X197632979Y-82199628D01*
X197690652Y-82285943D01*
X197764057Y-82359348D01*
X197850372Y-82417021D01*
X197946280Y-82456748D01*
X198048095Y-82477000D01*
X198151905Y-82477000D01*
X198253720Y-82456748D01*
X198349628Y-82417021D01*
X198435943Y-82359348D01*
X198509348Y-82285943D01*
X198567021Y-82199628D01*
X198606748Y-82103720D01*
X198627000Y-82001905D01*
X198627000Y-81898095D01*
X199073000Y-81898095D01*
X199073000Y-82001905D01*
X199093252Y-82103720D01*
X199132979Y-82199628D01*
X199190652Y-82285943D01*
X199264057Y-82359348D01*
X199350372Y-82417021D01*
X199446280Y-82456748D01*
X199548095Y-82477000D01*
X199651905Y-82477000D01*
X199753720Y-82456748D01*
X199849628Y-82417021D01*
X199935943Y-82359348D01*
X200009348Y-82285943D01*
X200067021Y-82199628D01*
X200106748Y-82103720D01*
X200127000Y-82001905D01*
X200127000Y-81898095D01*
X200106748Y-81796280D01*
X200067021Y-81700372D01*
X200009348Y-81614057D01*
X199935943Y-81540652D01*
X199849628Y-81482979D01*
X199753720Y-81443252D01*
X199651905Y-81423000D01*
X199548095Y-81423000D01*
X199446280Y-81443252D01*
X199350372Y-81482979D01*
X199264057Y-81540652D01*
X199190652Y-81614057D01*
X199132979Y-81700372D01*
X199093252Y-81796280D01*
X199073000Y-81898095D01*
X198627000Y-81898095D01*
X198606748Y-81796280D01*
X198567021Y-81700372D01*
X198509348Y-81614057D01*
X198435943Y-81540652D01*
X198349628Y-81482979D01*
X198253720Y-81443252D01*
X198151905Y-81423000D01*
X198048095Y-81423000D01*
X197946280Y-81443252D01*
X197850372Y-81482979D01*
X197764057Y-81540652D01*
X197690652Y-81614057D01*
X197632979Y-81700372D01*
X197593252Y-81796280D01*
X197573000Y-81898095D01*
X195252383Y-81898095D01*
X195251905Y-81898000D01*
X195148095Y-81898000D01*
X195046280Y-81918252D01*
X194950372Y-81957979D01*
X194864057Y-82015652D01*
X194790652Y-82089057D01*
X194732979Y-82175372D01*
X194693252Y-82271280D01*
X194673000Y-82373095D01*
X194352957Y-82373095D01*
X194410947Y-82334348D01*
X194484352Y-82260943D01*
X194542025Y-82174628D01*
X194581752Y-82078720D01*
X194602004Y-81976905D01*
X194602004Y-81873095D01*
X194581752Y-81771280D01*
X194542025Y-81675372D01*
X194484352Y-81589057D01*
X194410947Y-81515652D01*
X194324632Y-81457979D01*
X194228724Y-81418252D01*
X194126909Y-81398000D01*
X194023099Y-81398000D01*
X193921284Y-81418252D01*
X193825376Y-81457979D01*
X193739061Y-81515652D01*
X193665656Y-81589057D01*
X193607983Y-81675372D01*
X193568256Y-81771280D01*
X193548004Y-81873095D01*
X193548004Y-81976905D01*
X193568256Y-82078720D01*
X193607983Y-82174628D01*
X193665656Y-82260943D01*
X193739061Y-82334348D01*
X193825376Y-82392021D01*
X193891142Y-82419263D01*
X193883266Y-82417696D01*
X193779456Y-82417696D01*
X193677641Y-82437948D01*
X193581733Y-82477675D01*
X193495418Y-82535348D01*
X193422013Y-82608753D01*
X193364340Y-82695068D01*
X193324613Y-82790976D01*
X193304361Y-82892791D01*
X193166334Y-82892791D01*
X193172602Y-81053095D01*
X202368000Y-81053095D01*
X202368000Y-81156905D01*
X202388252Y-81258720D01*
X202427979Y-81354628D01*
X202485652Y-81440943D01*
X202559057Y-81514348D01*
X202645372Y-81572021D01*
X202741280Y-81611748D01*
X202843095Y-81632000D01*
X202946905Y-81632000D01*
X203048720Y-81611748D01*
X203144628Y-81572021D01*
X203230943Y-81514348D01*
X203304348Y-81440943D01*
X203362021Y-81354628D01*
X203401748Y-81258720D01*
X203422000Y-81156905D01*
X203422000Y-81053095D01*
X203401748Y-80951280D01*
X203362021Y-80855372D01*
X203304348Y-80769057D01*
X203230943Y-80695652D01*
X203144628Y-80637979D01*
X203048720Y-80598252D01*
X202946905Y-80578000D01*
X202843095Y-80578000D01*
X202741280Y-80598252D01*
X202645372Y-80637979D01*
X202559057Y-80695652D01*
X202485652Y-80769057D01*
X202427979Y-80855372D01*
X202388252Y-80951280D01*
X202368000Y-81053095D01*
X193172602Y-81053095D01*
X193176282Y-79973095D01*
X195523000Y-79973095D01*
X195523000Y-80076905D01*
X195543252Y-80178720D01*
X195582979Y-80274628D01*
X195640652Y-80360943D01*
X195714057Y-80434348D01*
X195800372Y-80492021D01*
X195896280Y-80531748D01*
X195998095Y-80552000D01*
X196101905Y-80552000D01*
X196203720Y-80531748D01*
X196299628Y-80492021D01*
X196385943Y-80434348D01*
X196459348Y-80360943D01*
X196517021Y-80274628D01*
X196556748Y-80178720D01*
X196577000Y-80076905D01*
X196577000Y-79973095D01*
X196556748Y-79871280D01*
X196517021Y-79775372D01*
X196459348Y-79689057D01*
X196385943Y-79615652D01*
X196299628Y-79557979D01*
X196203720Y-79518252D01*
X196101905Y-79498000D01*
X195998095Y-79498000D01*
X195896280Y-79518252D01*
X195800372Y-79557979D01*
X195714057Y-79615652D01*
X195640652Y-79689057D01*
X195582979Y-79775372D01*
X195543252Y-79871280D01*
X195523000Y-79973095D01*
X193176282Y-79973095D01*
X193182500Y-78148095D01*
X200273000Y-78148095D01*
X200273000Y-78251905D01*
X200293252Y-78353720D01*
X200332979Y-78449628D01*
X200390652Y-78535943D01*
X200464057Y-78609348D01*
X200550372Y-78667021D01*
X200646280Y-78706748D01*
X200748095Y-78727000D01*
X200851905Y-78727000D01*
X200953720Y-78706748D01*
X201049628Y-78667021D01*
X201135943Y-78609348D01*
X201147196Y-78598095D01*
X201623000Y-78598095D01*
X201623000Y-78701905D01*
X201643252Y-78803720D01*
X201682979Y-78899628D01*
X201740652Y-78985943D01*
X201814057Y-79059348D01*
X201900372Y-79117021D01*
X201996280Y-79156748D01*
X202098095Y-79177000D01*
X202201905Y-79177000D01*
X202303720Y-79156748D01*
X202399628Y-79117021D01*
X202485943Y-79059348D01*
X202559348Y-78985943D01*
X202617021Y-78899628D01*
X202656748Y-78803720D01*
X202677000Y-78701905D01*
X202677000Y-78598095D01*
X202656748Y-78496280D01*
X202617021Y-78400372D01*
X202559348Y-78314057D01*
X202485943Y-78240652D01*
X202399628Y-78182979D01*
X202303720Y-78143252D01*
X202201905Y-78123000D01*
X202098095Y-78123000D01*
X201996280Y-78143252D01*
X201900372Y-78182979D01*
X201814057Y-78240652D01*
X201740652Y-78314057D01*
X201682979Y-78400372D01*
X201643252Y-78496280D01*
X201623000Y-78598095D01*
X201147196Y-78598095D01*
X201209348Y-78535943D01*
X201267021Y-78449628D01*
X201306748Y-78353720D01*
X201327000Y-78251905D01*
X201327000Y-78148095D01*
X201306748Y-78046280D01*
X201267021Y-77950372D01*
X201209348Y-77864057D01*
X201135943Y-77790652D01*
X201049628Y-77732979D01*
X200953720Y-77693252D01*
X200851905Y-77673000D01*
X200748095Y-77673000D01*
X200646280Y-77693252D01*
X200550372Y-77732979D01*
X200464057Y-77790652D01*
X200390652Y-77864057D01*
X200332979Y-77950372D01*
X200293252Y-78046280D01*
X200273000Y-78148095D01*
X193182500Y-78148095D01*
X193184629Y-77523095D01*
X202123000Y-77523095D01*
X202123000Y-77626905D01*
X202143252Y-77728720D01*
X202182979Y-77824628D01*
X202240652Y-77910943D01*
X202314057Y-77984348D01*
X202400372Y-78042021D01*
X202496280Y-78081748D01*
X202598095Y-78102000D01*
X202701905Y-78102000D01*
X202803720Y-78081748D01*
X202899628Y-78042021D01*
X202985943Y-77984348D01*
X203059348Y-77910943D01*
X203117021Y-77824628D01*
X203156748Y-77728720D01*
X203177000Y-77626905D01*
X203177000Y-77523095D01*
X203156748Y-77421280D01*
X203117021Y-77325372D01*
X203059348Y-77239057D01*
X202985943Y-77165652D01*
X202899628Y-77107979D01*
X202803720Y-77068252D01*
X202701905Y-77048000D01*
X202598095Y-77048000D01*
X202496280Y-77068252D01*
X202400372Y-77107979D01*
X202314057Y-77165652D01*
X202240652Y-77239057D01*
X202182979Y-77325372D01*
X202143252Y-77421280D01*
X202123000Y-77523095D01*
X193184629Y-77523095D01*
X193198463Y-73463095D01*
X197543000Y-73463095D01*
X197543000Y-73566905D01*
X197563252Y-73668720D01*
X197602979Y-73764628D01*
X197660652Y-73850943D01*
X197734057Y-73924348D01*
X197820372Y-73982021D01*
X197916280Y-74021748D01*
X198018095Y-74042000D01*
X198121905Y-74042000D01*
X198223720Y-74021748D01*
X198319628Y-73982021D01*
X198358758Y-73955875D01*
X198405372Y-73987021D01*
X198501280Y-74026748D01*
X198603095Y-74047000D01*
X198706905Y-74047000D01*
X198808720Y-74026748D01*
X198904628Y-73987021D01*
X198990943Y-73929348D01*
X199064348Y-73855943D01*
X199122021Y-73769628D01*
X199161748Y-73673720D01*
X199182000Y-73571905D01*
X199182000Y-73468095D01*
X199161748Y-73366280D01*
X199122021Y-73270372D01*
X199064348Y-73184057D01*
X198990943Y-73110652D01*
X198904628Y-73052979D01*
X198808720Y-73013252D01*
X198706905Y-72993000D01*
X198603095Y-72993000D01*
X198501280Y-73013252D01*
X198405372Y-73052979D01*
X198366242Y-73079125D01*
X198319628Y-73047979D01*
X198223720Y-73008252D01*
X198121905Y-72988000D01*
X198018095Y-72988000D01*
X197916280Y-73008252D01*
X197820372Y-73047979D01*
X197734057Y-73105652D01*
X197660652Y-73179057D01*
X197602979Y-73265372D01*
X197563252Y-73361280D01*
X197543000Y-73463095D01*
X193198463Y-73463095D01*
X193201567Y-72552231D01*
X206698216Y-72576770D01*
M02*
