M48
; DRILL file {KiCad (5.1.6)-1} date 08/30/20 21:35:38
; FORMAT={-:-/ absolute / inch / decimal}
; #@! TF.CreationDate,2020-08-30T21:35:38+02:00
; #@! TF.GenerationSoftware,Kicad,Pcbnew,(5.1.6)-1
; #@! TF.FileFunction,Plated,1,2,PTH
FMAT,2
INCH
T1C0.0400
%
G90
G05
T1
X6.0982Y-2.64
X6.0982Y-2.74
X6.0982Y-2.84
X6.0982Y-2.94
X6.0982Y-3.04
X6.4998Y-3.4402
X6.4998Y-3.5402
X6.4998Y-3.6402
X6.1197Y-3.3441
X6.1197Y-3.4441
X6.1197Y-3.5441
X6.1197Y-3.6441
X6.1197Y-3.7441
X6.1197Y-3.8441
X6.299Y-2.8398
X6.299Y-2.9398
X6.299Y-3.0398
X6.299Y-3.1398
X6.299Y-3.2398
X6.299Y-3.3398
T0
M30
