G04 #@! TF.GenerationSoftware,KiCad,Pcbnew,(5.1.6)-1*
G04 #@! TF.CreationDate,2020-08-30T21:35:49+02:00*
G04 #@! TF.ProjectId,Freude_BreakoutBoard,46726575-6465-45f4-9272-65616b6f7574,rev?*
G04 #@! TF.SameCoordinates,Original*
G04 #@! TF.FileFunction,Legend,Top*
G04 #@! TF.FilePolarity,Positive*
%FSLAX46Y46*%
G04 Gerber Fmt 4.6, Leading zero omitted, Abs format (unit mm)*
G04 Created by KiCad (PCBNEW (5.1.6)-1) date 2020-08-30 21:35:49*
%MOMM*%
%LPD*%
G01*
G04 APERTURE LIST*
%ADD10C,0.200000*%
%ADD11C,0.400000*%
%ADD12C,0.120000*%
%ADD13C,0.066040*%
%ADD14C,0.203200*%
%ADD15C,0.127000*%
%ADD16C,0.150000*%
G04 APERTURE END LIST*
D10*
X165420000Y-78280000D02*
X165420000Y-82980000D01*
X165420000Y-78280000D02*
X169270000Y-78280000D01*
X169270000Y-78280000D02*
X169270000Y-82980000D01*
X165420000Y-82980000D02*
X169270000Y-82980000D01*
X169790711Y-78830000D02*
G75*
G03*
X169790711Y-78830000I-70711J0D01*
G01*
D11*
X168790711Y-78780000D02*
G75*
G03*
X168790711Y-78780000I-70711J0D01*
G01*
D10*
X148220000Y-79380000D02*
X148220000Y-84080000D01*
X148220000Y-79380000D02*
X152070000Y-79380000D01*
X152070000Y-79380000D02*
X152070000Y-84080000D01*
X148220000Y-84080000D02*
X152070000Y-84080000D01*
X152590711Y-79930000D02*
G75*
G03*
X152590711Y-79930000I-70711J0D01*
G01*
D11*
X151590711Y-79880000D02*
G75*
G03*
X151590711Y-79880000I-70711J0D01*
G01*
X151565711Y-68855000D02*
G75*
G03*
X151565711Y-68855000I-70711J0D01*
G01*
D10*
X152565711Y-68905000D02*
G75*
G03*
X152565711Y-68905000I-70711J0D01*
G01*
X148195000Y-72555000D02*
X152045000Y-72555000D01*
X152045000Y-68355000D02*
X152045000Y-72555000D01*
X148195000Y-68355000D02*
X152045000Y-68355000D01*
X148195000Y-68355000D02*
X148195000Y-72555000D01*
D12*
X160995000Y-93210000D02*
X159995000Y-93210000D01*
X159995000Y-91850000D02*
X160995000Y-91850000D01*
X159200000Y-89305000D02*
X159200000Y-90305000D01*
X157840000Y-90305000D02*
X157840000Y-89305000D01*
D13*
X164841000Y-92206000D02*
X164841000Y-92714000D01*
X164841000Y-92714000D02*
X165349000Y-92714000D01*
X165349000Y-92206000D02*
X165349000Y-92714000D01*
X164841000Y-92206000D02*
X165349000Y-92206000D01*
X164841000Y-89666000D02*
X164841000Y-90174000D01*
X164841000Y-90174000D02*
X165349000Y-90174000D01*
X165349000Y-89666000D02*
X165349000Y-90174000D01*
X164841000Y-89666000D02*
X165349000Y-89666000D01*
X164841000Y-87126000D02*
X164841000Y-87634000D01*
X164841000Y-87634000D02*
X165349000Y-87634000D01*
X165349000Y-87126000D02*
X165349000Y-87634000D01*
X164841000Y-87126000D02*
X165349000Y-87126000D01*
X159741000Y-84576000D02*
X159741000Y-85084000D01*
X159741000Y-85084000D02*
X160249000Y-85084000D01*
X160249000Y-84576000D02*
X160249000Y-85084000D01*
X159741000Y-84576000D02*
X160249000Y-84576000D01*
X159741000Y-82036000D02*
X159741000Y-82544000D01*
X159741000Y-82544000D02*
X160249000Y-82544000D01*
X160249000Y-82036000D02*
X160249000Y-82544000D01*
X159741000Y-82036000D02*
X160249000Y-82036000D01*
X159741000Y-79496000D02*
X159741000Y-80004000D01*
X159741000Y-80004000D02*
X160249000Y-80004000D01*
X160249000Y-79496000D02*
X160249000Y-80004000D01*
X159741000Y-79496000D02*
X160249000Y-79496000D01*
X159741000Y-76956000D02*
X159741000Y-77464000D01*
X159741000Y-77464000D02*
X160249000Y-77464000D01*
X160249000Y-76956000D02*
X160249000Y-77464000D01*
X159741000Y-76956000D02*
X160249000Y-76956000D01*
X159741000Y-74416000D02*
X159741000Y-74924000D01*
X159741000Y-74924000D02*
X160249000Y-74924000D01*
X160249000Y-74416000D02*
X160249000Y-74924000D01*
X159741000Y-74416000D02*
X160249000Y-74416000D01*
X159741000Y-71876000D02*
X159741000Y-72384000D01*
X159741000Y-72384000D02*
X160249000Y-72384000D01*
X160249000Y-71876000D02*
X160249000Y-72384000D01*
X159741000Y-71876000D02*
X160249000Y-71876000D01*
D14*
X160630000Y-83560000D02*
X161265000Y-84195000D01*
X161265000Y-84195000D02*
X161265000Y-85465000D01*
X161265000Y-85465000D02*
X160630000Y-86100000D01*
X159360000Y-86100000D02*
X158725000Y-85465000D01*
X158725000Y-85465000D02*
X158725000Y-84195000D01*
X158725000Y-84195000D02*
X159360000Y-83560000D01*
X161265000Y-79115000D02*
X161265000Y-80385000D01*
X161265000Y-80385000D02*
X160630000Y-81020000D01*
X159360000Y-81020000D02*
X158725000Y-80385000D01*
X160630000Y-81020000D02*
X161265000Y-81655000D01*
X161265000Y-81655000D02*
X161265000Y-82925000D01*
X161265000Y-82925000D02*
X160630000Y-83560000D01*
X159360000Y-83560000D02*
X158725000Y-82925000D01*
X158725000Y-82925000D02*
X158725000Y-81655000D01*
X158725000Y-81655000D02*
X159360000Y-81020000D01*
X160630000Y-75940000D02*
X161265000Y-76575000D01*
X161265000Y-76575000D02*
X161265000Y-77845000D01*
X161265000Y-77845000D02*
X160630000Y-78480000D01*
X159360000Y-78480000D02*
X158725000Y-77845000D01*
X158725000Y-77845000D02*
X158725000Y-76575000D01*
X158725000Y-76575000D02*
X159360000Y-75940000D01*
X161265000Y-79115000D02*
X160630000Y-78480000D01*
X159360000Y-78480000D02*
X158725000Y-79115000D01*
X158725000Y-80385000D02*
X158725000Y-79115000D01*
X161265000Y-71495000D02*
X161265000Y-72765000D01*
X161265000Y-72765000D02*
X160630000Y-73400000D01*
X159360000Y-73400000D02*
X158725000Y-72765000D01*
X160630000Y-73400000D02*
X161265000Y-74035000D01*
X161265000Y-74035000D02*
X161265000Y-75305000D01*
X161265000Y-75305000D02*
X160630000Y-75940000D01*
X159360000Y-75940000D02*
X158725000Y-75305000D01*
X158725000Y-75305000D02*
X158725000Y-74035000D01*
X158725000Y-74035000D02*
X159360000Y-73400000D01*
X160630000Y-70860000D02*
X159360000Y-70860000D01*
X161265000Y-71495000D02*
X160630000Y-70860000D01*
X159360000Y-70860000D02*
X158725000Y-71495000D01*
X158725000Y-72765000D02*
X158725000Y-71495000D01*
X160630000Y-86100000D02*
X159360000Y-86100000D01*
D15*
X159042500Y-72130000D02*
X159060280Y-71949660D01*
X159060280Y-71949660D02*
X159111080Y-71771860D01*
X159111080Y-71771860D02*
X159194900Y-71609300D01*
X159194900Y-71609300D02*
X159311740Y-71464520D01*
X159311740Y-71464520D02*
X159451440Y-71345140D01*
X159451440Y-71345140D02*
X159614000Y-71256240D01*
X159614000Y-71256240D02*
X159789260Y-71200360D01*
X159789260Y-71200360D02*
X159974680Y-71180040D01*
X159974680Y-71180040D02*
X160137240Y-71192740D01*
X160137240Y-71192740D02*
X160302340Y-71233380D01*
X160302340Y-71233380D02*
X160454740Y-71301960D01*
X160454740Y-71301960D02*
X160594440Y-71395940D01*
X160594440Y-71395940D02*
X160713820Y-71515320D01*
X160713820Y-71515320D02*
X160810340Y-71649940D01*
X160810340Y-71649940D02*
X160884000Y-71802340D01*
X160884000Y-71802340D02*
X160929720Y-71964900D01*
X160929720Y-71964900D02*
X160947500Y-72130000D01*
X160947500Y-72130000D02*
X160929720Y-72295100D01*
X160929720Y-72295100D02*
X160884000Y-72457660D01*
X160884000Y-72457660D02*
X160810340Y-72610060D01*
X160810340Y-72610060D02*
X160711280Y-72744680D01*
X160711280Y-72744680D02*
X160591900Y-72861520D01*
X160591900Y-72861520D02*
X160452200Y-72955500D01*
X160452200Y-72955500D02*
X160299800Y-73026620D01*
X160299800Y-73026620D02*
X160134700Y-73067260D01*
X160134700Y-73067260D02*
X159969600Y-73079960D01*
X159969600Y-73079960D02*
X159789260Y-73059640D01*
X159789260Y-73059640D02*
X159614000Y-73003760D01*
X159614000Y-73003760D02*
X159451440Y-72914860D01*
X159451440Y-72914860D02*
X159311740Y-72798020D01*
X159311740Y-72798020D02*
X159194900Y-72653240D01*
X159194900Y-72653240D02*
X159111080Y-72490680D01*
X159111080Y-72490680D02*
X159060280Y-72315420D01*
X159060280Y-72315420D02*
X159042500Y-72130000D01*
X159550500Y-72130000D02*
X159560660Y-72033480D01*
X159560660Y-72033480D02*
X159591140Y-71942040D01*
X159591140Y-71942040D02*
X159639400Y-71858220D01*
X159639400Y-71858220D02*
X159707980Y-71787100D01*
X159707980Y-71787100D02*
X159789260Y-71733760D01*
X159789260Y-71733760D02*
X159880700Y-71700740D01*
X159880700Y-71700740D02*
X159977220Y-71685500D01*
X159977220Y-71685500D02*
X160076280Y-71695660D01*
X160076280Y-71695660D02*
X160172800Y-71726140D01*
X160172800Y-71726140D02*
X160259160Y-71779480D01*
X160259160Y-71779480D02*
X160335360Y-71850600D01*
X160335360Y-71850600D02*
X160391240Y-71934420D01*
X160391240Y-71934420D02*
X160426800Y-72030940D01*
X160426800Y-72030940D02*
X160439500Y-72130000D01*
X160439500Y-72130000D02*
X160426800Y-72229060D01*
X160426800Y-72229060D02*
X160393780Y-72323040D01*
X160393780Y-72323040D02*
X160337900Y-72406860D01*
X160337900Y-72406860D02*
X160266780Y-72477980D01*
X160266780Y-72477980D02*
X160180420Y-72528780D01*
X160180420Y-72528780D02*
X160083900Y-72561800D01*
X160083900Y-72561800D02*
X159987380Y-72569420D01*
X159987380Y-72569420D02*
X159888320Y-72559260D01*
X159888320Y-72559260D02*
X159796880Y-72526240D01*
X159796880Y-72526240D02*
X159713060Y-72472900D01*
X159713060Y-72472900D02*
X159644480Y-72401780D01*
X159644480Y-72401780D02*
X159593680Y-72317960D01*
X159593680Y-72317960D02*
X159560660Y-72226520D01*
X159560660Y-72226520D02*
X159550500Y-72130000D01*
X159042500Y-74670000D02*
X159060280Y-74487120D01*
X159060280Y-74487120D02*
X159111080Y-74309320D01*
X159111080Y-74309320D02*
X159194900Y-74146760D01*
X159194900Y-74146760D02*
X159311740Y-74001980D01*
X159311740Y-74001980D02*
X159451440Y-73882600D01*
X159451440Y-73882600D02*
X159614000Y-73793700D01*
X159614000Y-73793700D02*
X159789260Y-73737820D01*
X159789260Y-73737820D02*
X159974680Y-73717500D01*
X159974680Y-73717500D02*
X160137240Y-73730200D01*
X160137240Y-73730200D02*
X160302340Y-73770840D01*
X160302340Y-73770840D02*
X160454740Y-73839420D01*
X160454740Y-73839420D02*
X160594440Y-73933400D01*
X160594440Y-73933400D02*
X160713820Y-74052780D01*
X160713820Y-74052780D02*
X160810340Y-74187400D01*
X160810340Y-74187400D02*
X160884000Y-74339800D01*
X160884000Y-74339800D02*
X160929720Y-74502360D01*
X160929720Y-74502360D02*
X160947500Y-74670000D01*
X160947500Y-74670000D02*
X160929720Y-74835100D01*
X160929720Y-74835100D02*
X160884000Y-74997660D01*
X160884000Y-74997660D02*
X160810340Y-75150060D01*
X160810340Y-75150060D02*
X160711280Y-75284680D01*
X160711280Y-75284680D02*
X160591900Y-75401520D01*
X160591900Y-75401520D02*
X160452200Y-75495500D01*
X160452200Y-75495500D02*
X160299800Y-75566620D01*
X160299800Y-75566620D02*
X160134700Y-75607260D01*
X160134700Y-75607260D02*
X159969600Y-75619960D01*
X159969600Y-75619960D02*
X159789260Y-75599640D01*
X159789260Y-75599640D02*
X159614000Y-75543760D01*
X159614000Y-75543760D02*
X159451440Y-75454860D01*
X159451440Y-75454860D02*
X159311740Y-75338020D01*
X159311740Y-75338020D02*
X159194900Y-75193240D01*
X159194900Y-75193240D02*
X159111080Y-75030680D01*
X159111080Y-75030680D02*
X159060280Y-74855420D01*
X159060280Y-74855420D02*
X159042500Y-74670000D01*
X159550500Y-74670000D02*
X159560660Y-74570940D01*
X159560660Y-74570940D02*
X159591140Y-74479500D01*
X159591140Y-74479500D02*
X159639400Y-74395680D01*
X159639400Y-74395680D02*
X159707980Y-74324560D01*
X159707980Y-74324560D02*
X159789260Y-74271220D01*
X159789260Y-74271220D02*
X159880700Y-74238200D01*
X159880700Y-74238200D02*
X159977220Y-74225500D01*
X159977220Y-74225500D02*
X160076280Y-74233120D01*
X160076280Y-74233120D02*
X160172800Y-74263600D01*
X160172800Y-74263600D02*
X160259160Y-74316940D01*
X160259160Y-74316940D02*
X160335360Y-74388060D01*
X160335360Y-74388060D02*
X160391240Y-74471880D01*
X160391240Y-74471880D02*
X160426800Y-74568400D01*
X160426800Y-74568400D02*
X160439500Y-74670000D01*
X160439500Y-74670000D02*
X160426800Y-74769060D01*
X160426800Y-74769060D02*
X160393780Y-74863040D01*
X160393780Y-74863040D02*
X160337900Y-74946860D01*
X160337900Y-74946860D02*
X160266780Y-75017980D01*
X160266780Y-75017980D02*
X160180420Y-75068780D01*
X160180420Y-75068780D02*
X160083900Y-75101800D01*
X160083900Y-75101800D02*
X159987380Y-75109420D01*
X159987380Y-75109420D02*
X159888320Y-75099260D01*
X159888320Y-75099260D02*
X159796880Y-75066240D01*
X159796880Y-75066240D02*
X159713060Y-75012900D01*
X159713060Y-75012900D02*
X159644480Y-74941780D01*
X159644480Y-74941780D02*
X159593680Y-74857960D01*
X159593680Y-74857960D02*
X159560660Y-74766520D01*
X159560660Y-74766520D02*
X159550500Y-74670000D01*
X159042500Y-77210000D02*
X159060280Y-77027120D01*
X159060280Y-77027120D02*
X159111080Y-76849320D01*
X159111080Y-76849320D02*
X159194900Y-76686760D01*
X159194900Y-76686760D02*
X159311740Y-76541980D01*
X159311740Y-76541980D02*
X159451440Y-76422600D01*
X159451440Y-76422600D02*
X159614000Y-76333700D01*
X159614000Y-76333700D02*
X159789260Y-76277820D01*
X159789260Y-76277820D02*
X159974680Y-76257500D01*
X159974680Y-76257500D02*
X160137240Y-76270200D01*
X160137240Y-76270200D02*
X160302340Y-76310840D01*
X160302340Y-76310840D02*
X160454740Y-76379420D01*
X160454740Y-76379420D02*
X160594440Y-76473400D01*
X160594440Y-76473400D02*
X160713820Y-76592780D01*
X160713820Y-76592780D02*
X160810340Y-76727400D01*
X160810340Y-76727400D02*
X160884000Y-76879800D01*
X160884000Y-76879800D02*
X160929720Y-77042360D01*
X160929720Y-77042360D02*
X160947500Y-77210000D01*
X160947500Y-77210000D02*
X160929720Y-77375100D01*
X160929720Y-77375100D02*
X160884000Y-77537660D01*
X160884000Y-77537660D02*
X160810340Y-77690060D01*
X160810340Y-77690060D02*
X160711280Y-77824680D01*
X160711280Y-77824680D02*
X160591900Y-77941520D01*
X160591900Y-77941520D02*
X160452200Y-78035500D01*
X160452200Y-78035500D02*
X160299800Y-78106620D01*
X160299800Y-78106620D02*
X160134700Y-78147260D01*
X160134700Y-78147260D02*
X159969600Y-78159960D01*
X159969600Y-78159960D02*
X159789260Y-78139640D01*
X159789260Y-78139640D02*
X159614000Y-78083760D01*
X159614000Y-78083760D02*
X159451440Y-77994860D01*
X159451440Y-77994860D02*
X159311740Y-77878020D01*
X159311740Y-77878020D02*
X159194900Y-77733240D01*
X159194900Y-77733240D02*
X159111080Y-77570680D01*
X159111080Y-77570680D02*
X159060280Y-77395420D01*
X159060280Y-77395420D02*
X159042500Y-77210000D01*
X159550500Y-77210000D02*
X159560660Y-77110940D01*
X159560660Y-77110940D02*
X159591140Y-77019500D01*
X159591140Y-77019500D02*
X159639400Y-76935680D01*
X159639400Y-76935680D02*
X159707980Y-76864560D01*
X159707980Y-76864560D02*
X159789260Y-76811220D01*
X159789260Y-76811220D02*
X159880700Y-76778200D01*
X159880700Y-76778200D02*
X159977220Y-76765500D01*
X159977220Y-76765500D02*
X160076280Y-76773120D01*
X160076280Y-76773120D02*
X160172800Y-76803600D01*
X160172800Y-76803600D02*
X160259160Y-76856940D01*
X160259160Y-76856940D02*
X160335360Y-76928060D01*
X160335360Y-76928060D02*
X160391240Y-77011880D01*
X160391240Y-77011880D02*
X160426800Y-77108400D01*
X160426800Y-77108400D02*
X160439500Y-77210000D01*
X160439500Y-77210000D02*
X160426800Y-77309060D01*
X160426800Y-77309060D02*
X160393780Y-77403040D01*
X160393780Y-77403040D02*
X160337900Y-77486860D01*
X160337900Y-77486860D02*
X160266780Y-77557980D01*
X160266780Y-77557980D02*
X160180420Y-77608780D01*
X160180420Y-77608780D02*
X160083900Y-77641800D01*
X160083900Y-77641800D02*
X159987380Y-77649420D01*
X159987380Y-77649420D02*
X159888320Y-77639260D01*
X159888320Y-77639260D02*
X159796880Y-77606240D01*
X159796880Y-77606240D02*
X159713060Y-77552900D01*
X159713060Y-77552900D02*
X159644480Y-77481780D01*
X159644480Y-77481780D02*
X159593680Y-77397960D01*
X159593680Y-77397960D02*
X159560660Y-77306520D01*
X159560660Y-77306520D02*
X159550500Y-77210000D01*
X159042500Y-79750000D02*
X159060280Y-79567120D01*
X159060280Y-79567120D02*
X159111080Y-79389320D01*
X159111080Y-79389320D02*
X159194900Y-79226760D01*
X159194900Y-79226760D02*
X159311740Y-79081980D01*
X159311740Y-79081980D02*
X159451440Y-78962600D01*
X159451440Y-78962600D02*
X159614000Y-78873700D01*
X159614000Y-78873700D02*
X159789260Y-78817820D01*
X159789260Y-78817820D02*
X159974680Y-78797500D01*
X159974680Y-78797500D02*
X160137240Y-78810200D01*
X160137240Y-78810200D02*
X160302340Y-78850840D01*
X160302340Y-78850840D02*
X160454740Y-78919420D01*
X160454740Y-78919420D02*
X160594440Y-79013400D01*
X160594440Y-79013400D02*
X160713820Y-79132780D01*
X160713820Y-79132780D02*
X160810340Y-79267400D01*
X160810340Y-79267400D02*
X160884000Y-79419800D01*
X160884000Y-79419800D02*
X160929720Y-79582360D01*
X160929720Y-79582360D02*
X160947500Y-79750000D01*
X160947500Y-79750000D02*
X160929720Y-79915100D01*
X160929720Y-79915100D02*
X160884000Y-80077660D01*
X160884000Y-80077660D02*
X160810340Y-80230060D01*
X160810340Y-80230060D02*
X160711280Y-80364680D01*
X160711280Y-80364680D02*
X160591900Y-80481520D01*
X160591900Y-80481520D02*
X160452200Y-80575500D01*
X160452200Y-80575500D02*
X160299800Y-80646620D01*
X160299800Y-80646620D02*
X160134700Y-80687260D01*
X160134700Y-80687260D02*
X159969600Y-80699960D01*
X159969600Y-80699960D02*
X159789260Y-80679640D01*
X159789260Y-80679640D02*
X159614000Y-80623760D01*
X159614000Y-80623760D02*
X159451440Y-80534860D01*
X159451440Y-80534860D02*
X159311740Y-80418020D01*
X159311740Y-80418020D02*
X159194900Y-80273240D01*
X159194900Y-80273240D02*
X159111080Y-80110680D01*
X159111080Y-80110680D02*
X159060280Y-79935420D01*
X159060280Y-79935420D02*
X159042500Y-79750000D01*
X159550500Y-79750000D02*
X159560660Y-79650940D01*
X159560660Y-79650940D02*
X159591140Y-79559500D01*
X159591140Y-79559500D02*
X159639400Y-79475680D01*
X159639400Y-79475680D02*
X159707980Y-79404560D01*
X159707980Y-79404560D02*
X159789260Y-79351220D01*
X159789260Y-79351220D02*
X159880700Y-79318200D01*
X159880700Y-79318200D02*
X159977220Y-79302960D01*
X159977220Y-79302960D02*
X160076280Y-79313120D01*
X160076280Y-79313120D02*
X160172800Y-79343600D01*
X160172800Y-79343600D02*
X160259160Y-79396940D01*
X160259160Y-79396940D02*
X160335360Y-79468060D01*
X160335360Y-79468060D02*
X160391240Y-79551880D01*
X160391240Y-79551880D02*
X160426800Y-79648400D01*
X160426800Y-79648400D02*
X160439500Y-79750000D01*
X160439500Y-79750000D02*
X160426800Y-79849060D01*
X160426800Y-79849060D02*
X160393780Y-79943040D01*
X160393780Y-79943040D02*
X160337900Y-80026860D01*
X160337900Y-80026860D02*
X160266780Y-80097980D01*
X160266780Y-80097980D02*
X160180420Y-80148780D01*
X160180420Y-80148780D02*
X160083900Y-80181800D01*
X160083900Y-80181800D02*
X159987380Y-80189420D01*
X159987380Y-80189420D02*
X159888320Y-80179260D01*
X159888320Y-80179260D02*
X159796880Y-80146240D01*
X159796880Y-80146240D02*
X159713060Y-80092900D01*
X159713060Y-80092900D02*
X159644480Y-80021780D01*
X159644480Y-80021780D02*
X159593680Y-79937960D01*
X159593680Y-79937960D02*
X159560660Y-79846520D01*
X159560660Y-79846520D02*
X159550500Y-79750000D01*
X159042500Y-82290000D02*
X159060280Y-82107120D01*
X159060280Y-82107120D02*
X159111080Y-81929320D01*
X159111080Y-81929320D02*
X159194900Y-81766760D01*
X159194900Y-81766760D02*
X159311740Y-81621980D01*
X159311740Y-81621980D02*
X159451440Y-81502600D01*
X159451440Y-81502600D02*
X159614000Y-81413700D01*
X159614000Y-81413700D02*
X159789260Y-81357820D01*
X159789260Y-81357820D02*
X159974680Y-81337500D01*
X159974680Y-81337500D02*
X160137240Y-81350200D01*
X160137240Y-81350200D02*
X160302340Y-81390840D01*
X160302340Y-81390840D02*
X160454740Y-81459420D01*
X160454740Y-81459420D02*
X160594440Y-81553400D01*
X160594440Y-81553400D02*
X160713820Y-81672780D01*
X160713820Y-81672780D02*
X160810340Y-81807400D01*
X160810340Y-81807400D02*
X160884000Y-81959800D01*
X160884000Y-81959800D02*
X160929720Y-82122360D01*
X160929720Y-82122360D02*
X160947500Y-82290000D01*
X160947500Y-82290000D02*
X160929720Y-82455100D01*
X160929720Y-82455100D02*
X160884000Y-82617660D01*
X160884000Y-82617660D02*
X160810340Y-82770060D01*
X160810340Y-82770060D02*
X160711280Y-82904680D01*
X160711280Y-82904680D02*
X160591900Y-83021520D01*
X160591900Y-83021520D02*
X160452200Y-83115500D01*
X160452200Y-83115500D02*
X160299800Y-83186620D01*
X160299800Y-83186620D02*
X160134700Y-83227260D01*
X160134700Y-83227260D02*
X159969600Y-83239960D01*
X159969600Y-83239960D02*
X159789260Y-83219640D01*
X159789260Y-83219640D02*
X159614000Y-83163760D01*
X159614000Y-83163760D02*
X159451440Y-83074860D01*
X159451440Y-83074860D02*
X159311740Y-82958020D01*
X159311740Y-82958020D02*
X159194900Y-82813240D01*
X159194900Y-82813240D02*
X159111080Y-82650680D01*
X159111080Y-82650680D02*
X159060280Y-82475420D01*
X159060280Y-82475420D02*
X159042500Y-82290000D01*
X159550500Y-82290000D02*
X159560660Y-82190940D01*
X159560660Y-82190940D02*
X159591140Y-82099500D01*
X159591140Y-82099500D02*
X159639400Y-82015680D01*
X159639400Y-82015680D02*
X159707980Y-81944560D01*
X159707980Y-81944560D02*
X159789260Y-81891220D01*
X159789260Y-81891220D02*
X159880700Y-81858200D01*
X159880700Y-81858200D02*
X159977220Y-81845500D01*
X159977220Y-81845500D02*
X160076280Y-81853120D01*
X160076280Y-81853120D02*
X160172800Y-81883600D01*
X160172800Y-81883600D02*
X160259160Y-81936940D01*
X160259160Y-81936940D02*
X160335360Y-82008060D01*
X160335360Y-82008060D02*
X160391240Y-82091880D01*
X160391240Y-82091880D02*
X160426800Y-82188400D01*
X160426800Y-82188400D02*
X160439500Y-82290000D01*
X160439500Y-82290000D02*
X160426800Y-82389060D01*
X160426800Y-82389060D02*
X160393780Y-82483040D01*
X160393780Y-82483040D02*
X160337900Y-82566860D01*
X160337900Y-82566860D02*
X160266780Y-82637980D01*
X160266780Y-82637980D02*
X160180420Y-82688780D01*
X160180420Y-82688780D02*
X160083900Y-82721800D01*
X160083900Y-82721800D02*
X159987380Y-82729420D01*
X159987380Y-82729420D02*
X159888320Y-82719260D01*
X159888320Y-82719260D02*
X159796880Y-82686240D01*
X159796880Y-82686240D02*
X159713060Y-82632900D01*
X159713060Y-82632900D02*
X159644480Y-82561780D01*
X159644480Y-82561780D02*
X159593680Y-82477960D01*
X159593680Y-82477960D02*
X159560660Y-82386520D01*
X159560660Y-82386520D02*
X159550500Y-82290000D01*
X159042500Y-84830000D02*
X159060280Y-84647120D01*
X159060280Y-84647120D02*
X159111080Y-84469320D01*
X159111080Y-84469320D02*
X159194900Y-84306760D01*
X159194900Y-84306760D02*
X159311740Y-84161980D01*
X159311740Y-84161980D02*
X159451440Y-84042600D01*
X159451440Y-84042600D02*
X159614000Y-83953700D01*
X159614000Y-83953700D02*
X159789260Y-83897820D01*
X159789260Y-83897820D02*
X159974680Y-83877500D01*
X159974680Y-83877500D02*
X160137240Y-83890200D01*
X160137240Y-83890200D02*
X160302340Y-83930840D01*
X160302340Y-83930840D02*
X160454740Y-83999420D01*
X160454740Y-83999420D02*
X160594440Y-84093400D01*
X160594440Y-84093400D02*
X160713820Y-84212780D01*
X160713820Y-84212780D02*
X160810340Y-84347400D01*
X160810340Y-84347400D02*
X160884000Y-84499800D01*
X160884000Y-84499800D02*
X160929720Y-84662360D01*
X160929720Y-84662360D02*
X160947500Y-84830000D01*
X160947500Y-84830000D02*
X160929720Y-84995100D01*
X160929720Y-84995100D02*
X160884000Y-85157660D01*
X160884000Y-85157660D02*
X160810340Y-85310060D01*
X160810340Y-85310060D02*
X160711280Y-85444680D01*
X160711280Y-85444680D02*
X160591900Y-85561520D01*
X160591900Y-85561520D02*
X160452200Y-85655500D01*
X160452200Y-85655500D02*
X160299800Y-85726620D01*
X160299800Y-85726620D02*
X160134700Y-85767260D01*
X160134700Y-85767260D02*
X159969600Y-85779960D01*
X159969600Y-85779960D02*
X159789260Y-85759640D01*
X159789260Y-85759640D02*
X159614000Y-85703760D01*
X159614000Y-85703760D02*
X159451440Y-85614860D01*
X159451440Y-85614860D02*
X159311740Y-85498020D01*
X159311740Y-85498020D02*
X159194900Y-85353240D01*
X159194900Y-85353240D02*
X159111080Y-85190680D01*
X159111080Y-85190680D02*
X159060280Y-85015420D01*
X159060280Y-85015420D02*
X159042500Y-84830000D01*
X159550500Y-84830000D02*
X159560660Y-84730940D01*
X159560660Y-84730940D02*
X159591140Y-84639500D01*
X159591140Y-84639500D02*
X159639400Y-84555680D01*
X159639400Y-84555680D02*
X159707980Y-84484560D01*
X159707980Y-84484560D02*
X159789260Y-84431220D01*
X159789260Y-84431220D02*
X159880700Y-84398200D01*
X159880700Y-84398200D02*
X159977220Y-84385500D01*
X159977220Y-84385500D02*
X160076280Y-84393120D01*
X160076280Y-84393120D02*
X160172800Y-84423600D01*
X160172800Y-84423600D02*
X160259160Y-84476940D01*
X160259160Y-84476940D02*
X160335360Y-84548060D01*
X160335360Y-84548060D02*
X160391240Y-84631880D01*
X160391240Y-84631880D02*
X160426800Y-84728400D01*
X160426800Y-84728400D02*
X160439500Y-84830000D01*
X160439500Y-84830000D02*
X160426800Y-84929060D01*
X160426800Y-84929060D02*
X160393780Y-85023040D01*
X160393780Y-85023040D02*
X160337900Y-85106860D01*
X160337900Y-85106860D02*
X160266780Y-85177980D01*
X160266780Y-85177980D02*
X160180420Y-85228780D01*
X160180420Y-85228780D02*
X160083900Y-85261800D01*
X160083900Y-85261800D02*
X159987380Y-85269420D01*
X159987380Y-85269420D02*
X159888320Y-85259260D01*
X159888320Y-85259260D02*
X159796880Y-85226240D01*
X159796880Y-85226240D02*
X159713060Y-85172900D01*
X159713060Y-85172900D02*
X159644480Y-85101780D01*
X159644480Y-85101780D02*
X159593680Y-85017960D01*
X159593680Y-85017960D02*
X159560660Y-84926520D01*
X159560660Y-84926520D02*
X159550500Y-84830000D01*
D13*
X154641000Y-76961000D02*
X154641000Y-77469000D01*
X154641000Y-77469000D02*
X155149000Y-77469000D01*
X155149000Y-76961000D02*
X155149000Y-77469000D01*
X154641000Y-76961000D02*
X155149000Y-76961000D01*
X154641000Y-74421000D02*
X154641000Y-74929000D01*
X154641000Y-74929000D02*
X155149000Y-74929000D01*
X155149000Y-74421000D02*
X155149000Y-74929000D01*
X154641000Y-74421000D02*
X155149000Y-74421000D01*
X154641000Y-71881000D02*
X154641000Y-72389000D01*
X154641000Y-72389000D02*
X155149000Y-72389000D01*
X155149000Y-71881000D02*
X155149000Y-72389000D01*
X154641000Y-71881000D02*
X155149000Y-71881000D01*
X154641000Y-69341000D02*
X154641000Y-69849000D01*
X154641000Y-69849000D02*
X155149000Y-69849000D01*
X155149000Y-69341000D02*
X155149000Y-69849000D01*
X154641000Y-69341000D02*
X155149000Y-69341000D01*
X154641000Y-66801000D02*
X154641000Y-67309000D01*
X154641000Y-67309000D02*
X155149000Y-67309000D01*
X155149000Y-66801000D02*
X155149000Y-67309000D01*
X154641000Y-66801000D02*
X155149000Y-66801000D01*
D12*
X162630000Y-90705000D02*
X162630000Y-88905000D01*
X159410000Y-88905000D02*
X159410000Y-91355000D01*
D10*
X148300000Y-87130000D02*
X148300000Y-91830000D01*
X148300000Y-87130000D02*
X152150000Y-87130000D01*
X152150000Y-87130000D02*
X152150000Y-91830000D01*
X148300000Y-91830000D02*
X152150000Y-91830000D01*
X152670711Y-87680000D02*
G75*
G03*
X152670711Y-87680000I-70711J0D01*
G01*
D11*
X151670711Y-87630000D02*
G75*
G03*
X151670711Y-87630000I-70711J0D01*
G01*
D15*
X155005660Y-97736520D02*
X154995500Y-97640000D01*
X155038680Y-97827960D02*
X155005660Y-97736520D01*
X155089480Y-97911780D02*
X155038680Y-97827960D01*
X155158060Y-97982900D02*
X155089480Y-97911780D01*
X155241880Y-98036240D02*
X155158060Y-97982900D01*
X155333320Y-98069260D02*
X155241880Y-98036240D01*
X155432380Y-98079420D02*
X155333320Y-98069260D01*
X155528900Y-98071800D02*
X155432380Y-98079420D01*
X155625420Y-98038780D02*
X155528900Y-98071800D01*
X155711780Y-97987980D02*
X155625420Y-98038780D01*
X155782900Y-97916860D02*
X155711780Y-97987980D01*
X155838780Y-97833040D02*
X155782900Y-97916860D01*
X155871800Y-97739060D02*
X155838780Y-97833040D01*
X155884500Y-97640000D02*
X155871800Y-97739060D01*
X155871800Y-97538400D02*
X155884500Y-97640000D01*
X155836240Y-97441880D02*
X155871800Y-97538400D01*
X155780360Y-97358060D02*
X155836240Y-97441880D01*
X155704160Y-97286940D02*
X155780360Y-97358060D01*
X155617800Y-97233600D02*
X155704160Y-97286940D01*
X155521280Y-97203120D02*
X155617800Y-97233600D01*
X155422220Y-97195500D02*
X155521280Y-97203120D01*
X155325700Y-97208200D02*
X155422220Y-97195500D01*
X155234260Y-97241220D02*
X155325700Y-97208200D01*
X155152980Y-97294560D02*
X155234260Y-97241220D01*
X155084400Y-97365680D02*
X155152980Y-97294560D01*
X155036140Y-97449500D02*
X155084400Y-97365680D01*
X155005660Y-97540940D02*
X155036140Y-97449500D01*
X154995500Y-97640000D02*
X155005660Y-97540940D01*
X154505280Y-97825420D02*
X154487500Y-97640000D01*
X154556080Y-98000680D02*
X154505280Y-97825420D01*
X154639900Y-98163240D02*
X154556080Y-98000680D01*
X154756740Y-98308020D02*
X154639900Y-98163240D01*
X154896440Y-98424860D02*
X154756740Y-98308020D01*
X155059000Y-98513760D02*
X154896440Y-98424860D01*
X155234260Y-98569640D02*
X155059000Y-98513760D01*
X155414600Y-98589960D02*
X155234260Y-98569640D01*
X155579700Y-98577260D02*
X155414600Y-98589960D01*
X155744800Y-98536620D02*
X155579700Y-98577260D01*
X155897200Y-98465500D02*
X155744800Y-98536620D01*
X156036900Y-98371520D02*
X155897200Y-98465500D01*
X156156280Y-98254680D02*
X156036900Y-98371520D01*
X156255340Y-98120060D02*
X156156280Y-98254680D01*
X156329000Y-97967660D02*
X156255340Y-98120060D01*
X156374720Y-97805100D02*
X156329000Y-97967660D01*
X156392500Y-97640000D02*
X156374720Y-97805100D01*
X156374720Y-97472360D02*
X156392500Y-97640000D01*
X156329000Y-97309800D02*
X156374720Y-97472360D01*
X156255340Y-97157400D02*
X156329000Y-97309800D01*
X156158820Y-97022780D02*
X156255340Y-97157400D01*
X156039440Y-96903400D02*
X156158820Y-97022780D01*
X155899740Y-96809420D02*
X156039440Y-96903400D01*
X155747340Y-96740840D02*
X155899740Y-96809420D01*
X155582240Y-96700200D02*
X155747340Y-96740840D01*
X155419680Y-96687500D02*
X155582240Y-96700200D01*
X155234260Y-96707820D02*
X155419680Y-96687500D01*
X155059000Y-96763700D02*
X155234260Y-96707820D01*
X154896440Y-96852600D02*
X155059000Y-96763700D01*
X154756740Y-96971980D02*
X154896440Y-96852600D01*
X154639900Y-97116760D02*
X154756740Y-96971980D01*
X154556080Y-97279320D02*
X154639900Y-97116760D01*
X154505280Y-97457120D02*
X154556080Y-97279320D01*
X154487500Y-97640000D02*
X154505280Y-97457120D01*
X155005660Y-95196520D02*
X154995500Y-95100000D01*
X155038680Y-95287960D02*
X155005660Y-95196520D01*
X155089480Y-95371780D02*
X155038680Y-95287960D01*
X155158060Y-95442900D02*
X155089480Y-95371780D01*
X155241880Y-95496240D02*
X155158060Y-95442900D01*
X155333320Y-95529260D02*
X155241880Y-95496240D01*
X155432380Y-95539420D02*
X155333320Y-95529260D01*
X155528900Y-95531800D02*
X155432380Y-95539420D01*
X155625420Y-95498780D02*
X155528900Y-95531800D01*
X155711780Y-95447980D02*
X155625420Y-95498780D01*
X155782900Y-95376860D02*
X155711780Y-95447980D01*
X155838780Y-95293040D02*
X155782900Y-95376860D01*
X155871800Y-95199060D02*
X155838780Y-95293040D01*
X155884500Y-95100000D02*
X155871800Y-95199060D01*
X155871800Y-94998400D02*
X155884500Y-95100000D01*
X155836240Y-94901880D02*
X155871800Y-94998400D01*
X155780360Y-94818060D02*
X155836240Y-94901880D01*
X155704160Y-94746940D02*
X155780360Y-94818060D01*
X155617800Y-94693600D02*
X155704160Y-94746940D01*
X155521280Y-94663120D02*
X155617800Y-94693600D01*
X155422220Y-94655500D02*
X155521280Y-94663120D01*
X155325700Y-94668200D02*
X155422220Y-94655500D01*
X155234260Y-94701220D02*
X155325700Y-94668200D01*
X155152980Y-94754560D02*
X155234260Y-94701220D01*
X155084400Y-94825680D02*
X155152980Y-94754560D01*
X155036140Y-94909500D02*
X155084400Y-94825680D01*
X155005660Y-95000940D02*
X155036140Y-94909500D01*
X154995500Y-95100000D02*
X155005660Y-95000940D01*
X154505280Y-95285420D02*
X154487500Y-95100000D01*
X154556080Y-95460680D02*
X154505280Y-95285420D01*
X154639900Y-95623240D02*
X154556080Y-95460680D01*
X154756740Y-95768020D02*
X154639900Y-95623240D01*
X154896440Y-95884860D02*
X154756740Y-95768020D01*
X155059000Y-95973760D02*
X154896440Y-95884860D01*
X155234260Y-96029640D02*
X155059000Y-95973760D01*
X155414600Y-96049960D02*
X155234260Y-96029640D01*
X155579700Y-96037260D02*
X155414600Y-96049960D01*
X155744800Y-95996620D02*
X155579700Y-96037260D01*
X155897200Y-95925500D02*
X155744800Y-95996620D01*
X156036900Y-95831520D02*
X155897200Y-95925500D01*
X156156280Y-95714680D02*
X156036900Y-95831520D01*
X156255340Y-95580060D02*
X156156280Y-95714680D01*
X156329000Y-95427660D02*
X156255340Y-95580060D01*
X156374720Y-95265100D02*
X156329000Y-95427660D01*
X156392500Y-95100000D02*
X156374720Y-95265100D01*
X156374720Y-94932360D02*
X156392500Y-95100000D01*
X156329000Y-94769800D02*
X156374720Y-94932360D01*
X156255340Y-94617400D02*
X156329000Y-94769800D01*
X156158820Y-94482780D02*
X156255340Y-94617400D01*
X156039440Y-94363400D02*
X156158820Y-94482780D01*
X155899740Y-94269420D02*
X156039440Y-94363400D01*
X155747340Y-94200840D02*
X155899740Y-94269420D01*
X155582240Y-94160200D02*
X155747340Y-94200840D01*
X155419680Y-94147500D02*
X155582240Y-94160200D01*
X155234260Y-94167820D02*
X155419680Y-94147500D01*
X155059000Y-94223700D02*
X155234260Y-94167820D01*
X154896440Y-94312600D02*
X155059000Y-94223700D01*
X154756740Y-94431980D02*
X154896440Y-94312600D01*
X154639900Y-94576760D02*
X154756740Y-94431980D01*
X154556080Y-94739320D02*
X154639900Y-94576760D01*
X154505280Y-94917120D02*
X154556080Y-94739320D01*
X154487500Y-95100000D02*
X154505280Y-94917120D01*
X155005660Y-92656520D02*
X154995500Y-92560000D01*
X155038680Y-92747960D02*
X155005660Y-92656520D01*
X155089480Y-92831780D02*
X155038680Y-92747960D01*
X155158060Y-92902900D02*
X155089480Y-92831780D01*
X155241880Y-92956240D02*
X155158060Y-92902900D01*
X155333320Y-92989260D02*
X155241880Y-92956240D01*
X155432380Y-92999420D02*
X155333320Y-92989260D01*
X155528900Y-92991800D02*
X155432380Y-92999420D01*
X155625420Y-92958780D02*
X155528900Y-92991800D01*
X155711780Y-92907980D02*
X155625420Y-92958780D01*
X155782900Y-92836860D02*
X155711780Y-92907980D01*
X155838780Y-92753040D02*
X155782900Y-92836860D01*
X155871800Y-92659060D02*
X155838780Y-92753040D01*
X155884500Y-92560000D02*
X155871800Y-92659060D01*
X155871800Y-92458400D02*
X155884500Y-92560000D01*
X155836240Y-92361880D02*
X155871800Y-92458400D01*
X155780360Y-92278060D02*
X155836240Y-92361880D01*
X155704160Y-92206940D02*
X155780360Y-92278060D01*
X155617800Y-92153600D02*
X155704160Y-92206940D01*
X155521280Y-92123120D02*
X155617800Y-92153600D01*
X155422220Y-92112960D02*
X155521280Y-92123120D01*
X155325700Y-92128200D02*
X155422220Y-92112960D01*
X155234260Y-92161220D02*
X155325700Y-92128200D01*
X155152980Y-92214560D02*
X155234260Y-92161220D01*
X155084400Y-92285680D02*
X155152980Y-92214560D01*
X155036140Y-92369500D02*
X155084400Y-92285680D01*
X155005660Y-92460940D02*
X155036140Y-92369500D01*
X154995500Y-92560000D02*
X155005660Y-92460940D01*
X154505280Y-92745420D02*
X154487500Y-92560000D01*
X154556080Y-92920680D02*
X154505280Y-92745420D01*
X154639900Y-93083240D02*
X154556080Y-92920680D01*
X154756740Y-93228020D02*
X154639900Y-93083240D01*
X154896440Y-93344860D02*
X154756740Y-93228020D01*
X155059000Y-93433760D02*
X154896440Y-93344860D01*
X155234260Y-93489640D02*
X155059000Y-93433760D01*
X155414600Y-93509960D02*
X155234260Y-93489640D01*
X155579700Y-93497260D02*
X155414600Y-93509960D01*
X155744800Y-93456620D02*
X155579700Y-93497260D01*
X155897200Y-93385500D02*
X155744800Y-93456620D01*
X156036900Y-93291520D02*
X155897200Y-93385500D01*
X156156280Y-93174680D02*
X156036900Y-93291520D01*
X156255340Y-93040060D02*
X156156280Y-93174680D01*
X156329000Y-92887660D02*
X156255340Y-93040060D01*
X156374720Y-92725100D02*
X156329000Y-92887660D01*
X156392500Y-92560000D02*
X156374720Y-92725100D01*
X156374720Y-92392360D02*
X156392500Y-92560000D01*
X156329000Y-92229800D02*
X156374720Y-92392360D01*
X156255340Y-92077400D02*
X156329000Y-92229800D01*
X156158820Y-91942780D02*
X156255340Y-92077400D01*
X156039440Y-91823400D02*
X156158820Y-91942780D01*
X155899740Y-91729420D02*
X156039440Y-91823400D01*
X155747340Y-91660840D02*
X155899740Y-91729420D01*
X155582240Y-91620200D02*
X155747340Y-91660840D01*
X155419680Y-91607500D02*
X155582240Y-91620200D01*
X155234260Y-91627820D02*
X155419680Y-91607500D01*
X155059000Y-91683700D02*
X155234260Y-91627820D01*
X154896440Y-91772600D02*
X155059000Y-91683700D01*
X154756740Y-91891980D02*
X154896440Y-91772600D01*
X154639900Y-92036760D02*
X154756740Y-91891980D01*
X154556080Y-92199320D02*
X154639900Y-92036760D01*
X154505280Y-92377120D02*
X154556080Y-92199320D01*
X154487500Y-92560000D02*
X154505280Y-92377120D01*
X155005660Y-90116520D02*
X154995500Y-90020000D01*
X155038680Y-90207960D02*
X155005660Y-90116520D01*
X155089480Y-90291780D02*
X155038680Y-90207960D01*
X155158060Y-90362900D02*
X155089480Y-90291780D01*
X155241880Y-90416240D02*
X155158060Y-90362900D01*
X155333320Y-90449260D02*
X155241880Y-90416240D01*
X155432380Y-90459420D02*
X155333320Y-90449260D01*
X155528900Y-90451800D02*
X155432380Y-90459420D01*
X155625420Y-90418780D02*
X155528900Y-90451800D01*
X155711780Y-90367980D02*
X155625420Y-90418780D01*
X155782900Y-90296860D02*
X155711780Y-90367980D01*
X155838780Y-90213040D02*
X155782900Y-90296860D01*
X155871800Y-90119060D02*
X155838780Y-90213040D01*
X155884500Y-90020000D02*
X155871800Y-90119060D01*
X155871800Y-89918400D02*
X155884500Y-90020000D01*
X155836240Y-89821880D02*
X155871800Y-89918400D01*
X155780360Y-89738060D02*
X155836240Y-89821880D01*
X155704160Y-89666940D02*
X155780360Y-89738060D01*
X155617800Y-89613600D02*
X155704160Y-89666940D01*
X155521280Y-89583120D02*
X155617800Y-89613600D01*
X155422220Y-89575500D02*
X155521280Y-89583120D01*
X155325700Y-89588200D02*
X155422220Y-89575500D01*
X155234260Y-89621220D02*
X155325700Y-89588200D01*
X155152980Y-89674560D02*
X155234260Y-89621220D01*
X155084400Y-89745680D02*
X155152980Y-89674560D01*
X155036140Y-89829500D02*
X155084400Y-89745680D01*
X155005660Y-89920940D02*
X155036140Y-89829500D01*
X154995500Y-90020000D02*
X155005660Y-89920940D01*
X154505280Y-90205420D02*
X154487500Y-90020000D01*
X154556080Y-90380680D02*
X154505280Y-90205420D01*
X154639900Y-90543240D02*
X154556080Y-90380680D01*
X154756740Y-90688020D02*
X154639900Y-90543240D01*
X154896440Y-90804860D02*
X154756740Y-90688020D01*
X155059000Y-90893760D02*
X154896440Y-90804860D01*
X155234260Y-90949640D02*
X155059000Y-90893760D01*
X155414600Y-90969960D02*
X155234260Y-90949640D01*
X155579700Y-90957260D02*
X155414600Y-90969960D01*
X155744800Y-90916620D02*
X155579700Y-90957260D01*
X155897200Y-90845500D02*
X155744800Y-90916620D01*
X156036900Y-90751520D02*
X155897200Y-90845500D01*
X156156280Y-90634680D02*
X156036900Y-90751520D01*
X156255340Y-90500060D02*
X156156280Y-90634680D01*
X156329000Y-90347660D02*
X156255340Y-90500060D01*
X156374720Y-90185100D02*
X156329000Y-90347660D01*
X156392500Y-90020000D02*
X156374720Y-90185100D01*
X156374720Y-89852360D02*
X156392500Y-90020000D01*
X156329000Y-89689800D02*
X156374720Y-89852360D01*
X156255340Y-89537400D02*
X156329000Y-89689800D01*
X156158820Y-89402780D02*
X156255340Y-89537400D01*
X156039440Y-89283400D02*
X156158820Y-89402780D01*
X155899740Y-89189420D02*
X156039440Y-89283400D01*
X155747340Y-89120840D02*
X155899740Y-89189420D01*
X155582240Y-89080200D02*
X155747340Y-89120840D01*
X155419680Y-89067500D02*
X155582240Y-89080200D01*
X155234260Y-89087820D02*
X155419680Y-89067500D01*
X155059000Y-89143700D02*
X155234260Y-89087820D01*
X154896440Y-89232600D02*
X155059000Y-89143700D01*
X154756740Y-89351980D02*
X154896440Y-89232600D01*
X154639900Y-89496760D02*
X154756740Y-89351980D01*
X154556080Y-89659320D02*
X154639900Y-89496760D01*
X154505280Y-89837120D02*
X154556080Y-89659320D01*
X154487500Y-90020000D02*
X154505280Y-89837120D01*
X155005660Y-87576520D02*
X154995500Y-87480000D01*
X155038680Y-87667960D02*
X155005660Y-87576520D01*
X155089480Y-87751780D02*
X155038680Y-87667960D01*
X155158060Y-87822900D02*
X155089480Y-87751780D01*
X155241880Y-87876240D02*
X155158060Y-87822900D01*
X155333320Y-87909260D02*
X155241880Y-87876240D01*
X155432380Y-87919420D02*
X155333320Y-87909260D01*
X155528900Y-87911800D02*
X155432380Y-87919420D01*
X155625420Y-87878780D02*
X155528900Y-87911800D01*
X155711780Y-87827980D02*
X155625420Y-87878780D01*
X155782900Y-87756860D02*
X155711780Y-87827980D01*
X155838780Y-87673040D02*
X155782900Y-87756860D01*
X155871800Y-87579060D02*
X155838780Y-87673040D01*
X155884500Y-87480000D02*
X155871800Y-87579060D01*
X155871800Y-87378400D02*
X155884500Y-87480000D01*
X155836240Y-87281880D02*
X155871800Y-87378400D01*
X155780360Y-87198060D02*
X155836240Y-87281880D01*
X155704160Y-87126940D02*
X155780360Y-87198060D01*
X155617800Y-87073600D02*
X155704160Y-87126940D01*
X155521280Y-87043120D02*
X155617800Y-87073600D01*
X155422220Y-87035500D02*
X155521280Y-87043120D01*
X155325700Y-87048200D02*
X155422220Y-87035500D01*
X155234260Y-87081220D02*
X155325700Y-87048200D01*
X155152980Y-87134560D02*
X155234260Y-87081220D01*
X155084400Y-87205680D02*
X155152980Y-87134560D01*
X155036140Y-87289500D02*
X155084400Y-87205680D01*
X155005660Y-87380940D02*
X155036140Y-87289500D01*
X154995500Y-87480000D02*
X155005660Y-87380940D01*
X154505280Y-87665420D02*
X154487500Y-87480000D01*
X154556080Y-87840680D02*
X154505280Y-87665420D01*
X154639900Y-88003240D02*
X154556080Y-87840680D01*
X154756740Y-88148020D02*
X154639900Y-88003240D01*
X154896440Y-88264860D02*
X154756740Y-88148020D01*
X155059000Y-88353760D02*
X154896440Y-88264860D01*
X155234260Y-88409640D02*
X155059000Y-88353760D01*
X155414600Y-88429960D02*
X155234260Y-88409640D01*
X155579700Y-88417260D02*
X155414600Y-88429960D01*
X155744800Y-88376620D02*
X155579700Y-88417260D01*
X155897200Y-88305500D02*
X155744800Y-88376620D01*
X156036900Y-88211520D02*
X155897200Y-88305500D01*
X156156280Y-88094680D02*
X156036900Y-88211520D01*
X156255340Y-87960060D02*
X156156280Y-88094680D01*
X156329000Y-87807660D02*
X156255340Y-87960060D01*
X156374720Y-87645100D02*
X156329000Y-87807660D01*
X156392500Y-87480000D02*
X156374720Y-87645100D01*
X156374720Y-87312360D02*
X156392500Y-87480000D01*
X156329000Y-87149800D02*
X156374720Y-87312360D01*
X156255340Y-86997400D02*
X156329000Y-87149800D01*
X156158820Y-86862780D02*
X156255340Y-86997400D01*
X156039440Y-86743400D02*
X156158820Y-86862780D01*
X155899740Y-86649420D02*
X156039440Y-86743400D01*
X155747340Y-86580840D02*
X155899740Y-86649420D01*
X155582240Y-86540200D02*
X155747340Y-86580840D01*
X155419680Y-86527500D02*
X155582240Y-86540200D01*
X155234260Y-86547820D02*
X155419680Y-86527500D01*
X155059000Y-86603700D02*
X155234260Y-86547820D01*
X154896440Y-86692600D02*
X155059000Y-86603700D01*
X154756740Y-86811980D02*
X154896440Y-86692600D01*
X154639900Y-86956760D02*
X154756740Y-86811980D01*
X154556080Y-87119320D02*
X154639900Y-86956760D01*
X154505280Y-87297120D02*
X154556080Y-87119320D01*
X154487500Y-87480000D02*
X154505280Y-87297120D01*
X155005660Y-85036520D02*
X154995500Y-84940000D01*
X155038680Y-85127960D02*
X155005660Y-85036520D01*
X155089480Y-85211780D02*
X155038680Y-85127960D01*
X155158060Y-85282900D02*
X155089480Y-85211780D01*
X155241880Y-85336240D02*
X155158060Y-85282900D01*
X155333320Y-85369260D02*
X155241880Y-85336240D01*
X155432380Y-85379420D02*
X155333320Y-85369260D01*
X155528900Y-85371800D02*
X155432380Y-85379420D01*
X155625420Y-85338780D02*
X155528900Y-85371800D01*
X155711780Y-85287980D02*
X155625420Y-85338780D01*
X155782900Y-85216860D02*
X155711780Y-85287980D01*
X155838780Y-85133040D02*
X155782900Y-85216860D01*
X155871800Y-85039060D02*
X155838780Y-85133040D01*
X155884500Y-84940000D02*
X155871800Y-85039060D01*
X155871800Y-84840940D02*
X155884500Y-84940000D01*
X155836240Y-84744420D02*
X155871800Y-84840940D01*
X155780360Y-84660600D02*
X155836240Y-84744420D01*
X155704160Y-84589480D02*
X155780360Y-84660600D01*
X155617800Y-84536140D02*
X155704160Y-84589480D01*
X155521280Y-84505660D02*
X155617800Y-84536140D01*
X155422220Y-84495500D02*
X155521280Y-84505660D01*
X155325700Y-84510740D02*
X155422220Y-84495500D01*
X155234260Y-84543760D02*
X155325700Y-84510740D01*
X155152980Y-84597100D02*
X155234260Y-84543760D01*
X155084400Y-84668220D02*
X155152980Y-84597100D01*
X155036140Y-84752040D02*
X155084400Y-84668220D01*
X155005660Y-84843480D02*
X155036140Y-84752040D01*
X154995500Y-84940000D02*
X155005660Y-84843480D01*
X154505280Y-85125420D02*
X154487500Y-84940000D01*
X154556080Y-85300680D02*
X154505280Y-85125420D01*
X154639900Y-85463240D02*
X154556080Y-85300680D01*
X154756740Y-85608020D02*
X154639900Y-85463240D01*
X154896440Y-85724860D02*
X154756740Y-85608020D01*
X155059000Y-85813760D02*
X154896440Y-85724860D01*
X155234260Y-85869640D02*
X155059000Y-85813760D01*
X155414600Y-85889960D02*
X155234260Y-85869640D01*
X155579700Y-85877260D02*
X155414600Y-85889960D01*
X155744800Y-85836620D02*
X155579700Y-85877260D01*
X155897200Y-85765500D02*
X155744800Y-85836620D01*
X156036900Y-85671520D02*
X155897200Y-85765500D01*
X156156280Y-85554680D02*
X156036900Y-85671520D01*
X156255340Y-85420060D02*
X156156280Y-85554680D01*
X156329000Y-85267660D02*
X156255340Y-85420060D01*
X156374720Y-85105100D02*
X156329000Y-85267660D01*
X156392500Y-84940000D02*
X156374720Y-85105100D01*
X156374720Y-84774900D02*
X156392500Y-84940000D01*
X156329000Y-84612340D02*
X156374720Y-84774900D01*
X156255340Y-84459940D02*
X156329000Y-84612340D01*
X156158820Y-84325320D02*
X156255340Y-84459940D01*
X156039440Y-84205940D02*
X156158820Y-84325320D01*
X155899740Y-84111960D02*
X156039440Y-84205940D01*
X155747340Y-84043380D02*
X155899740Y-84111960D01*
X155582240Y-84002740D02*
X155747340Y-84043380D01*
X155419680Y-83990040D02*
X155582240Y-84002740D01*
X155234260Y-84010360D02*
X155419680Y-83990040D01*
X155059000Y-84066240D02*
X155234260Y-84010360D01*
X154896440Y-84155140D02*
X155059000Y-84066240D01*
X154756740Y-84274520D02*
X154896440Y-84155140D01*
X154639900Y-84419300D02*
X154756740Y-84274520D01*
X154556080Y-84581860D02*
X154639900Y-84419300D01*
X154505280Y-84759660D02*
X154556080Y-84581860D01*
X154487500Y-84940000D02*
X154505280Y-84759660D01*
D14*
X156075000Y-98910000D02*
X154805000Y-98910000D01*
X154170000Y-85575000D02*
X154170000Y-84305000D01*
X154805000Y-83670000D02*
X154170000Y-84305000D01*
X156710000Y-84305000D02*
X156075000Y-83670000D01*
X156075000Y-83670000D02*
X154805000Y-83670000D01*
X154170000Y-86845000D02*
X154805000Y-86210000D01*
X154170000Y-88115000D02*
X154170000Y-86845000D01*
X154805000Y-88750000D02*
X154170000Y-88115000D01*
X156710000Y-88115000D02*
X156075000Y-88750000D01*
X156710000Y-86845000D02*
X156710000Y-88115000D01*
X156075000Y-86210000D02*
X156710000Y-86845000D01*
X154805000Y-86210000D02*
X154170000Y-85575000D01*
X156710000Y-85575000D02*
X156075000Y-86210000D01*
X156710000Y-84305000D02*
X156710000Y-85575000D01*
X154170000Y-93195000D02*
X154170000Y-91925000D01*
X154805000Y-91290000D02*
X154170000Y-91925000D01*
X156710000Y-91925000D02*
X156075000Y-91290000D01*
X154170000Y-89385000D02*
X154805000Y-88750000D01*
X154170000Y-90655000D02*
X154170000Y-89385000D01*
X154805000Y-91290000D02*
X154170000Y-90655000D01*
X156710000Y-90655000D02*
X156075000Y-91290000D01*
X156710000Y-89385000D02*
X156710000Y-90655000D01*
X156075000Y-88750000D02*
X156710000Y-89385000D01*
X154170000Y-94465000D02*
X154805000Y-93830000D01*
X154170000Y-95735000D02*
X154170000Y-94465000D01*
X154805000Y-96370000D02*
X154170000Y-95735000D01*
X156710000Y-95735000D02*
X156075000Y-96370000D01*
X156710000Y-94465000D02*
X156710000Y-95735000D01*
X156075000Y-93830000D02*
X156710000Y-94465000D01*
X154805000Y-93830000D02*
X154170000Y-93195000D01*
X156710000Y-93195000D02*
X156075000Y-93830000D01*
X156710000Y-91925000D02*
X156710000Y-93195000D01*
X154170000Y-97005000D02*
X154805000Y-96370000D01*
X154170000Y-98275000D02*
X154170000Y-97005000D01*
X154805000Y-98910000D02*
X154170000Y-98275000D01*
X156710000Y-98275000D02*
X156075000Y-98910000D01*
X156710000Y-97005000D02*
X156710000Y-98275000D01*
X156075000Y-96370000D02*
X156710000Y-97005000D01*
D13*
X155186000Y-84686000D02*
X155694000Y-84686000D01*
X155694000Y-84686000D02*
X155694000Y-85194000D01*
X155186000Y-85194000D02*
X155694000Y-85194000D01*
X155186000Y-84686000D02*
X155186000Y-85194000D01*
X155186000Y-87226000D02*
X155694000Y-87226000D01*
X155694000Y-87226000D02*
X155694000Y-87734000D01*
X155186000Y-87734000D02*
X155694000Y-87734000D01*
X155186000Y-87226000D02*
X155186000Y-87734000D01*
X155186000Y-89766000D02*
X155694000Y-89766000D01*
X155694000Y-89766000D02*
X155694000Y-90274000D01*
X155186000Y-90274000D02*
X155694000Y-90274000D01*
X155186000Y-89766000D02*
X155186000Y-90274000D01*
X155186000Y-92306000D02*
X155694000Y-92306000D01*
X155694000Y-92306000D02*
X155694000Y-92814000D01*
X155186000Y-92814000D02*
X155694000Y-92814000D01*
X155186000Y-92306000D02*
X155186000Y-92814000D01*
X155186000Y-94846000D02*
X155694000Y-94846000D01*
X155694000Y-94846000D02*
X155694000Y-95354000D01*
X155186000Y-95354000D02*
X155694000Y-95354000D01*
X155186000Y-94846000D02*
X155186000Y-95354000D01*
X155186000Y-97386000D02*
X155694000Y-97386000D01*
X155694000Y-97386000D02*
X155694000Y-97894000D01*
X155186000Y-97894000D02*
X155694000Y-97894000D01*
X155186000Y-97386000D02*
X155186000Y-97894000D01*
D16*
X170022380Y-80989523D02*
X170736666Y-80989523D01*
X170879523Y-81037142D01*
X170974761Y-81132380D01*
X171022380Y-81275238D01*
X171022380Y-81370476D01*
X171022380Y-79989523D02*
X171022380Y-80560952D01*
X171022380Y-80275238D02*
X170022380Y-80275238D01*
X170165238Y-80370476D01*
X170260476Y-80465714D01*
X170308095Y-80560952D01*
X170022380Y-79370476D02*
X170022380Y-79275238D01*
X170070000Y-79180000D01*
X170117619Y-79132380D01*
X170212857Y-79084761D01*
X170403333Y-79037142D01*
X170641428Y-79037142D01*
X170831904Y-79084761D01*
X170927142Y-79132380D01*
X170974761Y-79180000D01*
X171022380Y-79275238D01*
X171022380Y-79370476D01*
X170974761Y-79465714D01*
X170927142Y-79513333D01*
X170831904Y-79560952D01*
X170641428Y-79608571D01*
X170403333Y-79608571D01*
X170212857Y-79560952D01*
X170117619Y-79513333D01*
X170070000Y-79465714D01*
X170022380Y-79370476D01*
X152822380Y-81613333D02*
X153536666Y-81613333D01*
X153679523Y-81660952D01*
X153774761Y-81756190D01*
X153822380Y-81899047D01*
X153822380Y-81994285D01*
X153822380Y-81089523D02*
X153822380Y-80899047D01*
X153774761Y-80803809D01*
X153727142Y-80756190D01*
X153584285Y-80660952D01*
X153393809Y-80613333D01*
X153012857Y-80613333D01*
X152917619Y-80660952D01*
X152870000Y-80708571D01*
X152822380Y-80803809D01*
X152822380Y-80994285D01*
X152870000Y-81089523D01*
X152917619Y-81137142D01*
X153012857Y-81184761D01*
X153250952Y-81184761D01*
X153346190Y-81137142D01*
X153393809Y-81089523D01*
X153441428Y-80994285D01*
X153441428Y-80803809D01*
X153393809Y-80708571D01*
X153346190Y-80660952D01*
X153250952Y-80613333D01*
X152797380Y-71314523D02*
X153511666Y-71314523D01*
X153654523Y-71362142D01*
X153749761Y-71457380D01*
X153797380Y-71600238D01*
X153797380Y-71695476D01*
X153797380Y-70314523D02*
X153797380Y-70885952D01*
X153797380Y-70600238D02*
X152797380Y-70600238D01*
X152940238Y-70695476D01*
X153035476Y-70790714D01*
X153083095Y-70885952D01*
X152892619Y-69933571D02*
X152845000Y-69885952D01*
X152797380Y-69790714D01*
X152797380Y-69552619D01*
X152845000Y-69457380D01*
X152892619Y-69409761D01*
X152987857Y-69362142D01*
X153083095Y-69362142D01*
X153225952Y-69409761D01*
X153797380Y-69981190D01*
X153797380Y-69362142D01*
X159852142Y-94337142D02*
X159804523Y-94384761D01*
X159661666Y-94432380D01*
X159566428Y-94432380D01*
X159423571Y-94384761D01*
X159328333Y-94289523D01*
X159280714Y-94194285D01*
X159233095Y-94003809D01*
X159233095Y-93860952D01*
X159280714Y-93670476D01*
X159328333Y-93575238D01*
X159423571Y-93480000D01*
X159566428Y-93432380D01*
X159661666Y-93432380D01*
X159804523Y-93480000D01*
X159852142Y-93527619D01*
X160804523Y-94432380D02*
X160233095Y-94432380D01*
X160518809Y-94432380D02*
X160518809Y-93432380D01*
X160423571Y-93575238D01*
X160328333Y-93670476D01*
X160233095Y-93718095D01*
X161137857Y-93432380D02*
X161756904Y-93432380D01*
X161423571Y-93813333D01*
X161566428Y-93813333D01*
X161661666Y-93860952D01*
X161709285Y-93908571D01*
X161756904Y-94003809D01*
X161756904Y-94241904D01*
X161709285Y-94337142D01*
X161661666Y-94384761D01*
X161566428Y-94432380D01*
X161280714Y-94432380D01*
X161185476Y-94384761D01*
X161137857Y-94337142D01*
X157427142Y-90447857D02*
X157474761Y-90495476D01*
X157522380Y-90638333D01*
X157522380Y-90733571D01*
X157474761Y-90876428D01*
X157379523Y-90971666D01*
X157284285Y-91019285D01*
X157093809Y-91066904D01*
X156950952Y-91066904D01*
X156760476Y-91019285D01*
X156665238Y-90971666D01*
X156570000Y-90876428D01*
X156522380Y-90733571D01*
X156522380Y-90638333D01*
X156570000Y-90495476D01*
X156617619Y-90447857D01*
X157522380Y-89495476D02*
X157522380Y-90066904D01*
X157522380Y-89781190D02*
X156522380Y-89781190D01*
X156665238Y-89876428D01*
X156760476Y-89971666D01*
X156808095Y-90066904D01*
X156855714Y-88638333D02*
X157522380Y-88638333D01*
X156474761Y-88876428D02*
X157189047Y-89114523D01*
X157189047Y-88495476D01*
X157572380Y-90566904D02*
X158381904Y-90566904D01*
X158477142Y-90519285D01*
X158524761Y-90471666D01*
X158572380Y-90376428D01*
X158572380Y-90185952D01*
X158524761Y-90090714D01*
X158477142Y-90043095D01*
X158381904Y-89995476D01*
X157572380Y-89995476D01*
X157572380Y-89614523D02*
X157572380Y-88995476D01*
X157953333Y-89328809D01*
X157953333Y-89185952D01*
X158000952Y-89090714D01*
X158048571Y-89043095D01*
X158143809Y-88995476D01*
X158381904Y-88995476D01*
X158477142Y-89043095D01*
X158524761Y-89090714D01*
X158572380Y-89185952D01*
X158572380Y-89471666D01*
X158524761Y-89566904D01*
X158477142Y-89614523D01*
X152902380Y-89363333D02*
X153616666Y-89363333D01*
X153759523Y-89410952D01*
X153854761Y-89506190D01*
X153902380Y-89649047D01*
X153902380Y-89744285D01*
X152902380Y-88410952D02*
X152902380Y-88887142D01*
X153378571Y-88934761D01*
X153330952Y-88887142D01*
X153283333Y-88791904D01*
X153283333Y-88553809D01*
X153330952Y-88458571D01*
X153378571Y-88410952D01*
X153473809Y-88363333D01*
X153711904Y-88363333D01*
X153807142Y-88410952D01*
X153854761Y-88458571D01*
X153902380Y-88553809D01*
X153902380Y-88791904D01*
X153854761Y-88887142D01*
X153807142Y-88934761D01*
M02*
