G04 #@! TF.GenerationSoftware,KiCad,Pcbnew,(5.1.6)-1*
G04 #@! TF.CreationDate,2020-08-30T18:04:44+02:00*
G04 #@! TF.ProjectId,Freude_Touchpad,46726575-6465-45f5-946f-756368706164,rev?*
G04 #@! TF.SameCoordinates,Original*
G04 #@! TF.FileFunction,Copper,L1,Top*
G04 #@! TF.FilePolarity,Positive*
%FSLAX46Y46*%
G04 Gerber Fmt 4.6, Leading zero omitted, Abs format (unit mm)*
G04 Created by KiCad (PCBNEW (5.1.6)-1) date 2020-08-30 18:04:44*
%MOMM*%
%LPD*%
G01*
G04 APERTURE LIST*
G04 #@! TA.AperFunction,SMDPad,CuDef*
%ADD10R,0.400000X0.600000*%
G04 #@! TD*
G04 #@! TA.AperFunction,SMDPad,CuDef*
%ADD11R,0.600000X0.400000*%
G04 #@! TD*
G04 #@! TA.AperFunction,SMDPad,CuDef*
%ADD12C,0.100000*%
G04 #@! TD*
G04 #@! TA.AperFunction,SMDPad,CuDef*
%ADD13R,0.550000X0.300000*%
G04 #@! TD*
G04 #@! TA.AperFunction,SMDPad,CuDef*
%ADD14R,0.300000X0.550000*%
G04 #@! TD*
G04 #@! TA.AperFunction,SMDPad,CuDef*
%ADD15R,0.700000X0.300000*%
G04 #@! TD*
G04 #@! TA.AperFunction,SMDPad,CuDef*
%ADD16R,1.000000X0.300000*%
G04 #@! TD*
G04 #@! TA.AperFunction,ViaPad*
%ADD17C,0.400000*%
G04 #@! TD*
G04 #@! TA.AperFunction,Conductor*
%ADD18C,0.250000*%
G04 #@! TD*
G04 APERTURE END LIST*
D10*
X104450000Y-102800000D03*
X103550000Y-102800000D03*
X99550000Y-100350000D03*
X100450000Y-100350000D03*
X102800000Y-104000000D03*
X101900000Y-104000000D03*
X101850000Y-102800000D03*
X102750000Y-102800000D03*
X103600000Y-104000000D03*
X104500000Y-104000000D03*
D11*
X105450000Y-103750000D03*
X105450000Y-104650000D03*
D10*
X105250000Y-102800000D03*
X106150000Y-102800000D03*
G04 #@! TA.AperFunction,SMDPad,CuDef*
D12*
G36*
X102204345Y-100200603D02*
G01*
X102204345Y-100350603D01*
X102054345Y-100500603D01*
X101654345Y-100500603D01*
X101654345Y-100200603D01*
X102204345Y-100200603D01*
G37*
G04 #@! TD.AperFunction*
D13*
X101929345Y-99850603D03*
X101929345Y-99350603D03*
X101929345Y-98850603D03*
X101929345Y-98350603D03*
X101929345Y-97850603D03*
G04 #@! TA.AperFunction,SMDPad,CuDef*
D12*
G36*
X102054345Y-97200603D02*
G01*
X102204345Y-97350603D01*
X102204345Y-97500603D01*
X101654345Y-97500603D01*
X101654345Y-97200603D01*
X102054345Y-97200603D01*
G37*
G04 #@! TD.AperFunction*
G04 #@! TA.AperFunction,SMDPad,CuDef*
G36*
X102154345Y-97100603D02*
G01*
X102154345Y-96700603D01*
X102454345Y-96700603D01*
X102454345Y-97250603D01*
X102304345Y-97250603D01*
X102154345Y-97100603D01*
G37*
G04 #@! TD.AperFunction*
D14*
X102804345Y-96975603D03*
X103304345Y-96975603D03*
X103804345Y-96975603D03*
X104304345Y-96975603D03*
X104804345Y-96975603D03*
G04 #@! TA.AperFunction,SMDPad,CuDef*
D12*
G36*
X105154345Y-96700603D02*
G01*
X105454345Y-96700603D01*
X105454345Y-97100603D01*
X105304345Y-97250603D01*
X105154345Y-97250603D01*
X105154345Y-96700603D01*
G37*
G04 #@! TD.AperFunction*
G04 #@! TA.AperFunction,SMDPad,CuDef*
G36*
X105554345Y-97200603D02*
G01*
X105954345Y-97200603D01*
X105954345Y-97500603D01*
X105404345Y-97500603D01*
X105404345Y-97350603D01*
X105554345Y-97200603D01*
G37*
G04 #@! TD.AperFunction*
D13*
X105679345Y-97850603D03*
X105679345Y-98350603D03*
X105679345Y-98850603D03*
X105679345Y-99350603D03*
X105679345Y-99850603D03*
G04 #@! TA.AperFunction,SMDPad,CuDef*
D12*
G36*
X105954345Y-100200603D02*
G01*
X105954345Y-100500603D01*
X105554345Y-100500603D01*
X105404345Y-100350603D01*
X105404345Y-100200603D01*
X105954345Y-100200603D01*
G37*
G04 #@! TD.AperFunction*
G04 #@! TA.AperFunction,SMDPad,CuDef*
G36*
X105154345Y-100450603D02*
G01*
X105304345Y-100450603D01*
X105454345Y-100600603D01*
X105454345Y-101000603D01*
X105154345Y-101000603D01*
X105154345Y-100450603D01*
G37*
G04 #@! TD.AperFunction*
D14*
X104804345Y-100725603D03*
X104304345Y-100725603D03*
X103804345Y-100725603D03*
X103304345Y-100725603D03*
X102804345Y-100725603D03*
G04 #@! TA.AperFunction,SMDPad,CuDef*
D12*
G36*
X102154345Y-100600603D02*
G01*
X102304345Y-100450603D01*
X102454345Y-100450603D01*
X102454345Y-101000603D01*
X102154345Y-101000603D01*
X102154345Y-100600603D01*
G37*
G04 #@! TD.AperFunction*
G04 #@! TA.AperFunction,SMDPad,CuDef*
G36*
G01*
X93600000Y-101400000D02*
X93050000Y-101400000D01*
G75*
G02*
X92975000Y-101325000I0J75000D01*
G01*
X92975000Y-101175000D01*
G75*
G02*
X93050000Y-101100000I75000J0D01*
G01*
X93600000Y-101100000D01*
G75*
G02*
X93675000Y-101175000I0J-75000D01*
G01*
X93675000Y-101325000D01*
G75*
G02*
X93600000Y-101400000I-75000J0D01*
G01*
G37*
G04 #@! TD.AperFunction*
D15*
X93325000Y-100750000D03*
X93325000Y-100250000D03*
X93325000Y-99750000D03*
D16*
X95975000Y-102040000D03*
X95975000Y-97960000D03*
D15*
X93325000Y-99250000D03*
X93325000Y-98750000D03*
D17*
X95250000Y-90000000D03*
X96750000Y-90000000D03*
X99250000Y-90000000D03*
X100750000Y-90000000D03*
X103250000Y-90000000D03*
X104750000Y-90000000D03*
X108750000Y-94000000D03*
X107250000Y-94000000D03*
X104750000Y-94000000D03*
X103250000Y-94000000D03*
X100750000Y-94000000D03*
X99250000Y-94000000D03*
X96750000Y-94000000D03*
X95250000Y-94000000D03*
X92750000Y-94000000D03*
X91250000Y-94000000D03*
X91250000Y-98000000D03*
X92750000Y-98000000D03*
X95125000Y-98000000D03*
X96850000Y-98000000D03*
X99250000Y-98000000D03*
X100750000Y-98000000D03*
X103250000Y-98000000D03*
X104750000Y-98000000D03*
X107250000Y-98000000D03*
X108750000Y-98000000D03*
X108750000Y-102000000D03*
X107250000Y-102000000D03*
X104750000Y-102000000D03*
X103250000Y-102000000D03*
X100750000Y-102000000D03*
X99250000Y-102000000D03*
X96850000Y-102000000D03*
X95125000Y-102000000D03*
X92750000Y-102000000D03*
X91250000Y-102000000D03*
X104804948Y-98700000D03*
X91250000Y-106000000D03*
X92750000Y-106000000D03*
X95250000Y-106000000D03*
X96750000Y-106000000D03*
X99250000Y-106000000D03*
X100750000Y-106000000D03*
X103250000Y-106000000D03*
X104750000Y-106000000D03*
X107250000Y-106000000D03*
X108750000Y-106000000D03*
X107400000Y-98600000D03*
X104750000Y-110000000D03*
X103250000Y-110000000D03*
X100750000Y-110000000D03*
X99250000Y-110000000D03*
X96750000Y-110000000D03*
X95250000Y-110000000D03*
X106900000Y-99100000D03*
X89400000Y-96000000D03*
X93374996Y-96000000D03*
X97349988Y-96000012D03*
X101400000Y-96000000D03*
X100649397Y-97350603D03*
X103400000Y-99100000D03*
X99200000Y-98800000D03*
X106810466Y-99981708D03*
X110700000Y-100000000D03*
X101100000Y-99100000D03*
D18*
X105304345Y-96600603D02*
X105304345Y-96975603D01*
X105550000Y-90000000D02*
X105950000Y-90400000D01*
X104750000Y-90000000D02*
X105550000Y-90000000D01*
X105950000Y-95650000D02*
X105300000Y-96300000D01*
X105300000Y-96300000D02*
X105300000Y-96596258D01*
X105950000Y-90400000D02*
X105950000Y-95650000D01*
X105300000Y-96596258D02*
X105304345Y-96600603D01*
X107250000Y-97050000D02*
X107250000Y-94000000D01*
X106950000Y-97350000D02*
X107250000Y-97050000D01*
X106054948Y-97350000D02*
X106950000Y-97350000D01*
X105679345Y-97350603D02*
X106054345Y-97350603D01*
X106054345Y-97350603D02*
X106054948Y-97350000D01*
X104804345Y-98054345D02*
X104750000Y-98000000D01*
X107100603Y-97850603D02*
X107250000Y-98000000D01*
X105679345Y-97850603D02*
X107100603Y-97850603D01*
X105154345Y-98350603D02*
X104804948Y-98700000D01*
X105679345Y-98350603D02*
X105154345Y-98350603D01*
X104804948Y-98700000D02*
X104804948Y-98700000D01*
X105679345Y-98850603D02*
X106349397Y-98850603D01*
X106349397Y-98850603D02*
X106600000Y-98600000D01*
X106600000Y-98600000D02*
X107400000Y-98600000D01*
X106649397Y-99350603D02*
X106900000Y-99100000D01*
X106900000Y-99100000D02*
X106649397Y-99350603D01*
X105679345Y-99350603D02*
X106649397Y-99350603D01*
X103804345Y-96975603D02*
X103804345Y-96450603D01*
X103804345Y-96450603D02*
X103800000Y-96446258D01*
X90700000Y-94700000D02*
X89400000Y-96000000D01*
X103804345Y-96450603D02*
X103804345Y-95204345D01*
X103804345Y-95204345D02*
X103300000Y-94700000D01*
X103300000Y-94700000D02*
X90700000Y-94700000D01*
X103304345Y-96975603D02*
X103304345Y-95504345D01*
X94274996Y-95100000D02*
X93374996Y-96000000D01*
X103304345Y-95504345D02*
X102900000Y-95100000D01*
X102900000Y-95100000D02*
X94274996Y-95100000D01*
X102804345Y-96975603D02*
X102804345Y-95804345D01*
X102804345Y-95804345D02*
X102500000Y-95500000D01*
X97850000Y-95500000D02*
X97349988Y-96000012D01*
X102500000Y-95500000D02*
X97850000Y-95500000D01*
X102000000Y-96000000D02*
X101400000Y-96000000D01*
X102300000Y-96300000D02*
X102000000Y-96000000D01*
X102300000Y-96596258D02*
X102300000Y-96300000D01*
X102304345Y-96975603D02*
X102304345Y-96600603D01*
X102304345Y-96600603D02*
X102300000Y-96596258D01*
X101929345Y-97350603D02*
X100649397Y-97350603D01*
X100649397Y-97350603D02*
X100649397Y-97350603D01*
X99200000Y-98800000D02*
X100600000Y-98800000D01*
X101404345Y-97850603D02*
X101354948Y-97900000D01*
X101929345Y-97850603D02*
X101404345Y-97850603D01*
X101354948Y-97902694D02*
X101200000Y-98057642D01*
X101354948Y-97900000D02*
X101354948Y-97902694D01*
X101200000Y-98200000D02*
X100600000Y-98800000D01*
X101200000Y-98057642D02*
X101200000Y-98200000D01*
X101746943Y-98350603D02*
X101100000Y-98997546D01*
X101929345Y-98350603D02*
X101746943Y-98350603D01*
X101100000Y-98997546D02*
X101100000Y-98997546D01*
X106150000Y-103550000D02*
X106150000Y-102800000D01*
X105400000Y-103750000D02*
X105950000Y-103750000D01*
X105950000Y-103750000D02*
X106150000Y-103550000D01*
X106150000Y-102800000D02*
X106150000Y-102550000D01*
X104804345Y-101250603D02*
X104804345Y-100725603D01*
X106103742Y-102550000D02*
X104804345Y-101250603D01*
X106150000Y-102550000D02*
X106103742Y-102550000D01*
X100450000Y-100700000D02*
X100450000Y-100350000D01*
X100700000Y-100950000D02*
X100450000Y-100700000D01*
X101500000Y-100950000D02*
X100700000Y-100950000D01*
X101503687Y-100946313D02*
X101500000Y-100950000D01*
X102304345Y-100725603D02*
X102083635Y-100946313D01*
X102083635Y-100946313D02*
X101503687Y-100946313D01*
X104450000Y-104000000D02*
X104450000Y-102800000D01*
X104450000Y-102800000D02*
X104450000Y-102450000D01*
X104304345Y-102304345D02*
X104304345Y-100725603D01*
X104450000Y-102450000D02*
X104304345Y-102304345D01*
X104450000Y-102800000D02*
X105250000Y-102800000D01*
X105400000Y-104650000D02*
X104400000Y-104650000D01*
X104450000Y-104600000D02*
X104400000Y-104650000D01*
X104450000Y-104000000D02*
X104450000Y-104600000D01*
X99500000Y-100300000D02*
X99550000Y-100350000D01*
X90725000Y-102650000D02*
X90725000Y-101200000D01*
X103925000Y-105125000D02*
X100325000Y-105125000D01*
X104450000Y-104600000D02*
X103925000Y-105125000D01*
X100325000Y-105125000D02*
X98850000Y-103650000D01*
X98850000Y-103650000D02*
X91725000Y-103650000D01*
X91725000Y-103650000D02*
X90725000Y-102650000D01*
X92175000Y-99750000D02*
X90725000Y-101200000D01*
X93325000Y-99750000D02*
X92175000Y-99750000D01*
X98275000Y-99775000D02*
X98850000Y-100350000D01*
X98850000Y-100350000D02*
X99550000Y-100350000D01*
X93325000Y-99750000D02*
X98275000Y-99750000D01*
X98275000Y-99750000D02*
X98275000Y-99775000D01*
X102750000Y-102800000D02*
X103804345Y-102800000D01*
X103804345Y-100725603D02*
X103804345Y-102800000D01*
X103804345Y-102800000D02*
X103804345Y-103745655D01*
X102750000Y-104000000D02*
X103550000Y-104000000D01*
X103550000Y-104000000D02*
X103804345Y-103745655D01*
X92730012Y-100250000D02*
X93325000Y-100250000D01*
X91775000Y-101205012D02*
X92730012Y-100250000D01*
X91775000Y-102575000D02*
X91775000Y-101205012D01*
X103550000Y-104000000D02*
X103550000Y-104550000D01*
X103550000Y-104550000D02*
X103400000Y-104700000D01*
X103400000Y-104700000D02*
X100700000Y-104700000D01*
X92350000Y-103150000D02*
X91775000Y-102575000D01*
X100700000Y-104700000D02*
X99150000Y-103150000D01*
X99150000Y-103150000D02*
X92350000Y-103150000D01*
X103304345Y-100725603D02*
X103304345Y-101250603D01*
X103304345Y-101250603D02*
X102954948Y-101600000D01*
X101850000Y-104000000D02*
X102100000Y-104000000D01*
X102100000Y-104000000D02*
X102300000Y-103800000D01*
X102300000Y-102254948D02*
X102954948Y-101600000D01*
X102300000Y-103800000D02*
X102300000Y-102254948D01*
X100950000Y-104000000D02*
X101850000Y-104000000D01*
X98675000Y-102650000D02*
X99600000Y-102650000D01*
X97475000Y-101450000D02*
X98675000Y-102650000D01*
X93950000Y-102575000D02*
X95075000Y-101450000D01*
X93325000Y-100750000D02*
X92725000Y-100750000D01*
X99600000Y-102650000D02*
X100950000Y-104000000D01*
X92725000Y-100750000D02*
X92250000Y-101225000D01*
X95075000Y-101450000D02*
X97475000Y-101450000D01*
X92575000Y-102575000D02*
X93950000Y-102575000D01*
X92250000Y-101225000D02*
X92250000Y-102250000D01*
X92250000Y-102250000D02*
X92575000Y-102575000D01*
X102804345Y-101095655D02*
X102804345Y-100725603D01*
X101850000Y-102800000D02*
X101850000Y-102050000D01*
X101850000Y-102050000D02*
X102804345Y-101095655D01*
X101400000Y-102800000D02*
X101850000Y-102800000D01*
X94075000Y-101250000D02*
X94375000Y-100950000D01*
X98300000Y-101450000D02*
X99400000Y-101450000D01*
X93325000Y-101250000D02*
X94075000Y-101250000D01*
X99400000Y-101450000D02*
X100750000Y-102800000D01*
X94375000Y-100950000D02*
X97800000Y-100950000D01*
X100750000Y-102800000D02*
X101400000Y-102800000D01*
X97800000Y-100950000D02*
X98300000Y-101450000D01*
X106550000Y-102100000D02*
X106550000Y-100650000D01*
X106750000Y-102300000D02*
X106550000Y-102100000D01*
X106750000Y-104725000D02*
X106750000Y-102300000D01*
X90200000Y-100900000D02*
X90200000Y-102925000D01*
X91425000Y-104150000D02*
X98550000Y-104150000D01*
X106150000Y-105325000D02*
X106750000Y-104725000D01*
X93325000Y-99250000D02*
X91850000Y-99250000D01*
X91850000Y-99250000D02*
X90200000Y-100900000D01*
X98550000Y-104150000D02*
X100000000Y-105600000D01*
X106550000Y-100650000D02*
X106250603Y-100350603D01*
X100025001Y-105574999D02*
X104350001Y-105574999D01*
X90200000Y-102925000D02*
X91425000Y-104150000D01*
X100000000Y-105600000D02*
X100025001Y-105574999D01*
X104350001Y-105574999D02*
X104600000Y-105325000D01*
X106250603Y-100350603D02*
X105679345Y-100350603D01*
X104600000Y-105325000D02*
X106150000Y-105325000D01*
M02*
