M48
; DRILL file {KiCad (5.1.6)-1} date 08/30/20 18:04:31
; FORMAT={-:-/ absolute / inch / decimal}
; #@! TF.CreationDate,2020-08-30T18:04:31+02:00
; #@! TF.GenerationSoftware,Kicad,Pcbnew,(5.1.6)-1
; #@! TF.FileFunction,Plated,1,4,PTH
FMAT,2
INCH
T1C0.0079
%
G90
G05
T1
X3.5197Y-3.7795
X3.5925Y-3.7008
X3.5925Y-3.8583
X3.5925Y-4.0157
X3.5925Y-4.1732
X3.6516Y-3.7008
X3.6516Y-3.8583
X3.6516Y-4.0157
X3.6516Y-4.1732
X3.6762Y-3.7795
X3.7451Y-3.8583
X3.7451Y-4.0157
X3.75Y-3.5433
X3.75Y-3.7008
X3.75Y-4.1732
X3.75Y-4.3307
X3.8091Y-3.5433
X3.8091Y-3.7008
X3.8091Y-4.1732
X3.8091Y-4.3307
X3.813Y-3.8583
X3.813Y-4.0157
X3.8327Y-3.7795
X3.9055Y-3.8898
X3.9075Y-3.5433
X3.9075Y-3.7008
X3.9075Y-3.8583
X3.9075Y-4.0157
X3.9075Y-4.1732
X3.9075Y-4.3307
X3.9626Y-3.8327
X3.9665Y-3.5433
X3.9665Y-3.7008
X3.9665Y-3.8583
X3.9665Y-4.0157
X3.9665Y-4.1732
X3.9665Y-4.3307
X3.9803Y-3.9016
X3.9921Y-3.7795
X4.065Y-3.5433
X4.065Y-3.7008
X4.065Y-3.8583
X4.065Y-4.0157
X4.065Y-4.1732
X4.065Y-4.3307
X4.0709Y-3.9016
X4.124Y-3.5433
X4.124Y-3.7008
X4.124Y-3.8583
X4.124Y-4.0157
X4.124Y-4.1732
X4.124Y-4.3307
X4.1262Y-3.8858
X4.2051Y-3.9363
X4.2087Y-3.9016
X4.2224Y-3.7008
X4.2224Y-3.8583
X4.2224Y-4.0157
X4.2224Y-4.1732
X4.2283Y-3.8819
X4.2815Y-3.7008
X4.2815Y-3.8583
X4.2815Y-4.0157
X4.2815Y-4.1732
X4.3583Y-3.937
T0
M30
