G04 #@! TF.GenerationSoftware,KiCad,Pcbnew,(5.1.6)-1*
G04 #@! TF.CreationDate,2020-08-30T18:04:45+02:00*
G04 #@! TF.ProjectId,Freude_Touchpad,46726575-6465-45f5-946f-756368706164,rev?*
G04 #@! TF.SameCoordinates,Original*
G04 #@! TF.FileFunction,Copper,L4,Bot*
G04 #@! TF.FilePolarity,Positive*
%FSLAX46Y46*%
G04 Gerber Fmt 4.6, Leading zero omitted, Abs format (unit mm)*
G04 Created by KiCad (PCBNEW (5.1.6)-1) date 2020-08-30 18:04:45*
%MOMM*%
%LPD*%
G01*
G04 APERTURE LIST*
G04 #@! TA.AperFunction,ViaPad*
%ADD10C,0.400000*%
G04 #@! TD*
G04 #@! TA.AperFunction,Conductor*
%ADD11C,0.250000*%
G04 #@! TD*
G04 #@! TA.AperFunction,Conductor*
%ADD12C,0.254000*%
G04 #@! TD*
G04 APERTURE END LIST*
D10*
X95250000Y-90000000D03*
X96750000Y-90000000D03*
X99250000Y-90000000D03*
X100750000Y-90000000D03*
X103250000Y-90000000D03*
X104750000Y-90000000D03*
X108750000Y-94000000D03*
X107250000Y-94000000D03*
X104750000Y-94000000D03*
X103250000Y-94000000D03*
X100750000Y-94000000D03*
X99250000Y-94000000D03*
X96750000Y-94000000D03*
X95250000Y-94000000D03*
X92750000Y-94000000D03*
X91250000Y-94000000D03*
X91250000Y-98000000D03*
X92750000Y-98000000D03*
X95125000Y-98000000D03*
X96850000Y-98000000D03*
X99250000Y-98000000D03*
X100750000Y-98000000D03*
X103250000Y-98000000D03*
X104750000Y-98000000D03*
X107250000Y-98000000D03*
X108750000Y-98000000D03*
X108750000Y-102000000D03*
X107250000Y-102000000D03*
X104750000Y-102000000D03*
X103250000Y-102000000D03*
X100750000Y-102000000D03*
X99250000Y-102000000D03*
X96850000Y-102000000D03*
X95125000Y-102000000D03*
X92750000Y-102000000D03*
X91250000Y-102000000D03*
X104804948Y-98700000D03*
X91250000Y-106000000D03*
X92750000Y-106000000D03*
X95250000Y-106000000D03*
X96750000Y-106000000D03*
X99250000Y-106000000D03*
X100750000Y-106000000D03*
X103250000Y-106000000D03*
X104750000Y-106000000D03*
X107250000Y-106000000D03*
X108750000Y-106000000D03*
X107400000Y-98600000D03*
X104750000Y-110000000D03*
X103250000Y-110000000D03*
X100750000Y-110000000D03*
X99250000Y-110000000D03*
X96750000Y-110000000D03*
X95250000Y-110000000D03*
X106900000Y-99100000D03*
X89400000Y-96000000D03*
X93374996Y-96000000D03*
X97349988Y-96000012D03*
X101400000Y-96000000D03*
X100649397Y-97350603D03*
X103400000Y-99100000D03*
X99200000Y-98800000D03*
X106810466Y-99981708D03*
X110700000Y-100000000D03*
X101100000Y-99100000D03*
D11*
X88000000Y-96925000D02*
X88000000Y-99425000D01*
X88000000Y-102875000D02*
X88000000Y-100850000D01*
X92000000Y-100775000D02*
X92000000Y-103175000D01*
X92000000Y-104775000D02*
X92000000Y-107175000D01*
X92000000Y-92775000D02*
X92000000Y-95175000D01*
X92000000Y-96775000D02*
X92000000Y-99175000D01*
X96000000Y-88775000D02*
X96000000Y-91175000D01*
X96000000Y-92775000D02*
X96000000Y-95175000D01*
X96000000Y-96775000D02*
X96000000Y-99175000D01*
X96000000Y-100775000D02*
X96000000Y-103175000D01*
X96000000Y-104775000D02*
X96000000Y-107175000D01*
X96000000Y-108775000D02*
X96000000Y-111175000D01*
X100000000Y-108775000D02*
X100000000Y-111175000D01*
X100000000Y-104775000D02*
X100000000Y-107175000D01*
X100000000Y-100775000D02*
X100000000Y-103175000D01*
X100000000Y-96775000D02*
X100000000Y-99175000D01*
X100000000Y-92775000D02*
X100000000Y-95175000D01*
X100000000Y-88775000D02*
X100000000Y-91175000D01*
X104000000Y-88775000D02*
X104000000Y-91175000D01*
X104000000Y-92775000D02*
X104000000Y-95175000D01*
X104000000Y-96775000D02*
X104000000Y-99175000D01*
X104000000Y-100775000D02*
X104000000Y-103175000D01*
X104000000Y-104775000D02*
X104000000Y-107175000D01*
X104000000Y-108775000D02*
X104000000Y-111175000D01*
X108000000Y-104775000D02*
X108000000Y-107175000D01*
X108000000Y-100775000D02*
X108000000Y-103175000D01*
X108000000Y-96775000D02*
X108000000Y-99175000D01*
X108000000Y-92775000D02*
X108000000Y-95175000D01*
X112000000Y-96775000D02*
X112000000Y-99175000D01*
X112000000Y-100775000D02*
X112000000Y-103175000D01*
D12*
G36*
X88000440Y-102349776D02*
G01*
X88007667Y-102373601D01*
X88019403Y-102395557D01*
X88035197Y-102414803D01*
X89620394Y-104000000D01*
X88350742Y-105269652D01*
X88267228Y-105096597D01*
X88130107Y-104772493D01*
X87714126Y-103595274D01*
X87522102Y-102774076D01*
X87954908Y-102423710D01*
X87972630Y-102406224D01*
X87986600Y-102385617D01*
X87996282Y-102362680D01*
X87999954Y-102344842D01*
X88000440Y-102349776D01*
G37*
X88000440Y-102349776D02*
X88007667Y-102373601D01*
X88019403Y-102395557D01*
X88035197Y-102414803D01*
X89620394Y-104000000D01*
X88350742Y-105269652D01*
X88267228Y-105096597D01*
X88130107Y-104772493D01*
X87714126Y-103595274D01*
X87522102Y-102774076D01*
X87954908Y-102423710D01*
X87972630Y-102406224D01*
X87986600Y-102385617D01*
X87996282Y-102362680D01*
X87999954Y-102344842D01*
X88000440Y-102349776D01*
G36*
X88000440Y-98349776D02*
G01*
X88007667Y-98373601D01*
X88019403Y-98395557D01*
X88035197Y-98414803D01*
X89620394Y-100000000D01*
X88035197Y-101585197D01*
X88019403Y-101604443D01*
X88007667Y-101626399D01*
X88000440Y-101650224D01*
X88000000Y-101654692D01*
X87999560Y-101650224D01*
X87992333Y-101626399D01*
X87980597Y-101604443D01*
X87964803Y-101585197D01*
X87952746Y-101574578D01*
X87250023Y-101030534D01*
X87225725Y-100828603D01*
X87211944Y-99421816D01*
X87258026Y-98963270D01*
X87952746Y-98425422D01*
X87970843Y-98408325D01*
X87985258Y-98388026D01*
X87995435Y-98365304D01*
X88000002Y-98345329D01*
X88000440Y-98349776D01*
G37*
X88000440Y-98349776D02*
X88007667Y-98373601D01*
X88019403Y-98395557D01*
X88035197Y-98414803D01*
X89620394Y-100000000D01*
X88035197Y-101585197D01*
X88019403Y-101604443D01*
X88007667Y-101626399D01*
X88000440Y-101650224D01*
X88000000Y-101654692D01*
X87999560Y-101650224D01*
X87992333Y-101626399D01*
X87980597Y-101604443D01*
X87964803Y-101585197D01*
X87952746Y-101574578D01*
X87250023Y-101030534D01*
X87225725Y-100828603D01*
X87211944Y-99421816D01*
X87258026Y-98963270D01*
X87952746Y-98425422D01*
X87970843Y-98408325D01*
X87985258Y-98388026D01*
X87995435Y-98365304D01*
X88000002Y-98345329D01*
X88000440Y-98349776D01*
G36*
X88434789Y-94789395D02*
G01*
X89621262Y-95999132D01*
X88035197Y-97585197D01*
X88019403Y-97604443D01*
X88007667Y-97626399D01*
X88000440Y-97650224D01*
X88000000Y-97654692D01*
X87999560Y-97650224D01*
X87992333Y-97626399D01*
X87980597Y-97604443D01*
X87964803Y-97585197D01*
X87954908Y-97576290D01*
X87522353Y-97226126D01*
X87638262Y-96682622D01*
X87659668Y-96605026D01*
X88088689Y-95310718D01*
X88361439Y-94716045D01*
X88434789Y-94789395D01*
G37*
X88434789Y-94789395D02*
X89621262Y-95999132D01*
X88035197Y-97585197D01*
X88019403Y-97604443D01*
X88007667Y-97626399D01*
X88000440Y-97650224D01*
X88000000Y-97654692D01*
X87999560Y-97650224D01*
X87992333Y-97626399D01*
X87980597Y-97604443D01*
X87964803Y-97585197D01*
X87954908Y-97576290D01*
X87522353Y-97226126D01*
X87638262Y-96682622D01*
X87659668Y-96605026D01*
X88088689Y-95310718D01*
X88361439Y-94716045D01*
X88434789Y-94789395D01*
G36*
X112000440Y-102349776D02*
G01*
X112007667Y-102373601D01*
X112019403Y-102395557D01*
X112035197Y-102414803D01*
X112045092Y-102423710D01*
X112485311Y-102780077D01*
X112182249Y-103932110D01*
X111677192Y-105245176D01*
X111650811Y-105296205D01*
X111565211Y-105210605D01*
X110378738Y-104000868D01*
X111964803Y-102414803D01*
X111980597Y-102395557D01*
X111992333Y-102373601D01*
X111999560Y-102349776D01*
X112000000Y-102345308D01*
X112000440Y-102349776D01*
G37*
X112000440Y-102349776D02*
X112007667Y-102373601D01*
X112019403Y-102395557D01*
X112035197Y-102414803D01*
X112045092Y-102423710D01*
X112485311Y-102780077D01*
X112182249Y-103932110D01*
X111677192Y-105245176D01*
X111650811Y-105296205D01*
X111565211Y-105210605D01*
X110378738Y-104000868D01*
X111964803Y-102414803D01*
X111980597Y-102395557D01*
X111992333Y-102373601D01*
X111999560Y-102349776D01*
X112000000Y-102345308D01*
X112000440Y-102349776D01*
G36*
X112000440Y-98349776D02*
G01*
X112007667Y-98373601D01*
X112019403Y-98395557D01*
X112035197Y-98414803D01*
X112047254Y-98425422D01*
X112740026Y-98961762D01*
X112799126Y-99774067D01*
X112752270Y-101028760D01*
X112047254Y-101574578D01*
X112029157Y-101591675D01*
X112014742Y-101611974D01*
X112004565Y-101634696D01*
X111999998Y-101654671D01*
X111999560Y-101650224D01*
X111992333Y-101626399D01*
X111980597Y-101604443D01*
X111964803Y-101585197D01*
X110379606Y-100000000D01*
X111964803Y-98414803D01*
X111980597Y-98395557D01*
X111992333Y-98373601D01*
X111999560Y-98349776D01*
X112000000Y-98345308D01*
X112000440Y-98349776D01*
G37*
X112000440Y-98349776D02*
X112007667Y-98373601D01*
X112019403Y-98395557D01*
X112035197Y-98414803D01*
X112047254Y-98425422D01*
X112740026Y-98961762D01*
X112799126Y-99774067D01*
X112752270Y-101028760D01*
X112047254Y-101574578D01*
X112029157Y-101591675D01*
X112014742Y-101611974D01*
X112004565Y-101634696D01*
X111999998Y-101654671D01*
X111999560Y-101650224D01*
X111992333Y-101626399D01*
X111980597Y-101604443D01*
X111964803Y-101585197D01*
X110379606Y-100000000D01*
X111964803Y-98414803D01*
X111980597Y-98395557D01*
X111992333Y-98373601D01*
X111999560Y-98349776D01*
X112000000Y-98345308D01*
X112000440Y-98349776D01*
G36*
X112035882Y-95640389D02*
G01*
X112441597Y-96987466D01*
X112484621Y-97220481D01*
X112045092Y-97576290D01*
X112027370Y-97593776D01*
X112013400Y-97614383D01*
X112003718Y-97637320D01*
X112000046Y-97655158D01*
X111999560Y-97650224D01*
X111992333Y-97626399D01*
X111980597Y-97604443D01*
X111964803Y-97585197D01*
X110379606Y-96000000D01*
X111648687Y-94730919D01*
X112035882Y-95640389D01*
G37*
X112035882Y-95640389D02*
X112441597Y-96987466D01*
X112484621Y-97220481D01*
X112045092Y-97576290D01*
X112027370Y-97593776D01*
X112013400Y-97614383D01*
X112003718Y-97637320D01*
X112000046Y-97655158D01*
X111999560Y-97650224D01*
X111992333Y-97626399D01*
X111980597Y-97604443D01*
X111964803Y-97585197D01*
X110379606Y-96000000D01*
X111648687Y-94730919D01*
X112035882Y-95640389D01*
G36*
X95548000Y-93927606D02*
G01*
X95548001Y-94072393D01*
X94000000Y-95620394D01*
X92452000Y-94072394D01*
X92452000Y-93927606D01*
X94000000Y-92379606D01*
X95548000Y-93927606D01*
G37*
X95548000Y-93927606D02*
X95548001Y-94072393D01*
X94000000Y-95620394D01*
X92452000Y-94072394D01*
X92452000Y-93927606D01*
X94000000Y-92379606D01*
X95548000Y-93927606D01*
G36*
X91548000Y-97927606D02*
G01*
X91548001Y-98072393D01*
X90000000Y-99620394D01*
X88452000Y-98072394D01*
X88452000Y-97927606D01*
X90000000Y-96379606D01*
X91548000Y-97927606D01*
G37*
X91548000Y-97927606D02*
X91548001Y-98072393D01*
X90000000Y-99620394D01*
X88452000Y-98072394D01*
X88452000Y-97927606D01*
X90000000Y-96379606D01*
X91548000Y-97927606D01*
G36*
X95548000Y-97927606D02*
G01*
X95548001Y-98072393D01*
X94000000Y-99620394D01*
X92452000Y-98072394D01*
X92452000Y-97927606D01*
X94000000Y-96379606D01*
X95548000Y-97927606D01*
G37*
X95548000Y-97927606D02*
X95548001Y-98072393D01*
X94000000Y-99620394D01*
X92452000Y-98072394D01*
X92452000Y-97927606D01*
X94000000Y-96379606D01*
X95548000Y-97927606D01*
G36*
X99548001Y-97927607D02*
G01*
X99548001Y-98072393D01*
X99331552Y-98288842D01*
X99251905Y-98273000D01*
X99148095Y-98273000D01*
X99046280Y-98293252D01*
X98950372Y-98332979D01*
X98864057Y-98390652D01*
X98790652Y-98464057D01*
X98732979Y-98550372D01*
X98693252Y-98646280D01*
X98673000Y-98748095D01*
X98673000Y-98851905D01*
X98688842Y-98931552D01*
X98000000Y-99620394D01*
X96452000Y-98072394D01*
X96452000Y-97927606D01*
X98000000Y-96379606D01*
X99548001Y-97927607D01*
G37*
X99548001Y-97927607D02*
X99548001Y-98072393D01*
X99331552Y-98288842D01*
X99251905Y-98273000D01*
X99148095Y-98273000D01*
X99046280Y-98293252D01*
X98950372Y-98332979D01*
X98864057Y-98390652D01*
X98790652Y-98464057D01*
X98732979Y-98550372D01*
X98693252Y-98646280D01*
X98673000Y-98748095D01*
X98673000Y-98851905D01*
X98688842Y-98931552D01*
X98000000Y-99620394D01*
X96452000Y-98072394D01*
X96452000Y-97927606D01*
X98000000Y-96379606D01*
X99548001Y-97927607D01*
G36*
X99548000Y-93927606D02*
G01*
X99548001Y-94072393D01*
X98000000Y-95620394D01*
X96452000Y-94072394D01*
X96452000Y-93927606D01*
X98000000Y-92379606D01*
X99548000Y-93927606D01*
G37*
X99548000Y-93927606D02*
X99548001Y-94072393D01*
X98000000Y-95620394D01*
X96452000Y-94072394D01*
X96452000Y-93927606D01*
X98000000Y-92379606D01*
X99548000Y-93927606D01*
G36*
X103548000Y-93927606D02*
G01*
X103548001Y-94072393D01*
X102000000Y-95620394D01*
X100452000Y-94072394D01*
X100452000Y-93927606D01*
X102000000Y-92379606D01*
X103548000Y-93927606D01*
G37*
X103548000Y-93927606D02*
X103548001Y-94072393D01*
X102000000Y-95620394D01*
X100452000Y-94072394D01*
X100452000Y-93927606D01*
X102000000Y-92379606D01*
X103548000Y-93927606D01*
G36*
X103548001Y-97927607D02*
G01*
X103548001Y-98072393D01*
X102000000Y-99620394D01*
X101611158Y-99231552D01*
X101627000Y-99151905D01*
X101627000Y-99048095D01*
X101606748Y-98946280D01*
X101567021Y-98850372D01*
X101509348Y-98764057D01*
X101435943Y-98690652D01*
X101349628Y-98632979D01*
X101253720Y-98593252D01*
X101151905Y-98573000D01*
X101048095Y-98573000D01*
X100968448Y-98588842D01*
X100452000Y-98072394D01*
X100452000Y-97927606D01*
X100517845Y-97861761D01*
X100597492Y-97877603D01*
X100701302Y-97877603D01*
X100803117Y-97857351D01*
X100899025Y-97817624D01*
X100985340Y-97759951D01*
X101058745Y-97686546D01*
X101116418Y-97600231D01*
X101156145Y-97504323D01*
X101176397Y-97402508D01*
X101176397Y-97298698D01*
X101160555Y-97219051D01*
X102000000Y-96379606D01*
X103548001Y-97927607D01*
G37*
X103548001Y-97927607D02*
X103548001Y-98072393D01*
X102000000Y-99620394D01*
X101611158Y-99231552D01*
X101627000Y-99151905D01*
X101627000Y-99048095D01*
X101606748Y-98946280D01*
X101567021Y-98850372D01*
X101509348Y-98764057D01*
X101435943Y-98690652D01*
X101349628Y-98632979D01*
X101253720Y-98593252D01*
X101151905Y-98573000D01*
X101048095Y-98573000D01*
X100968448Y-98588842D01*
X100452000Y-98072394D01*
X100452000Y-97927606D01*
X100517845Y-97861761D01*
X100597492Y-97877603D01*
X100701302Y-97877603D01*
X100803117Y-97857351D01*
X100899025Y-97817624D01*
X100985340Y-97759951D01*
X101058745Y-97686546D01*
X101116418Y-97600231D01*
X101156145Y-97504323D01*
X101176397Y-97402508D01*
X101176397Y-97298698D01*
X101160555Y-97219051D01*
X102000000Y-96379606D01*
X103548001Y-97927607D01*
G36*
X107548001Y-97927607D02*
G01*
X107548001Y-98072393D01*
X107531552Y-98088842D01*
X107451905Y-98073000D01*
X107348095Y-98073000D01*
X107246280Y-98093252D01*
X107150372Y-98132979D01*
X107064057Y-98190652D01*
X106990652Y-98264057D01*
X106932979Y-98350372D01*
X106893252Y-98446280D01*
X106873000Y-98548095D01*
X106873000Y-98573000D01*
X106848095Y-98573000D01*
X106746280Y-98593252D01*
X106650372Y-98632979D01*
X106564057Y-98690652D01*
X106490652Y-98764057D01*
X106432979Y-98850372D01*
X106393252Y-98946280D01*
X106373000Y-99048095D01*
X106373000Y-99151905D01*
X106388842Y-99231552D01*
X106000000Y-99620394D01*
X105288742Y-98909136D01*
X105311696Y-98853720D01*
X105331948Y-98751905D01*
X105331948Y-98648095D01*
X105311696Y-98546280D01*
X105271969Y-98450372D01*
X105214296Y-98364057D01*
X105140891Y-98290652D01*
X105054576Y-98232979D01*
X104958668Y-98193252D01*
X104856853Y-98173000D01*
X104753043Y-98173000D01*
X104651228Y-98193252D01*
X104595812Y-98216206D01*
X104452000Y-98072394D01*
X104452000Y-97927606D01*
X106000000Y-96379606D01*
X107548001Y-97927607D01*
G37*
X107548001Y-97927607D02*
X107548001Y-98072393D01*
X107531552Y-98088842D01*
X107451905Y-98073000D01*
X107348095Y-98073000D01*
X107246280Y-98093252D01*
X107150372Y-98132979D01*
X107064057Y-98190652D01*
X106990652Y-98264057D01*
X106932979Y-98350372D01*
X106893252Y-98446280D01*
X106873000Y-98548095D01*
X106873000Y-98573000D01*
X106848095Y-98573000D01*
X106746280Y-98593252D01*
X106650372Y-98632979D01*
X106564057Y-98690652D01*
X106490652Y-98764057D01*
X106432979Y-98850372D01*
X106393252Y-98946280D01*
X106373000Y-99048095D01*
X106373000Y-99151905D01*
X106388842Y-99231552D01*
X106000000Y-99620394D01*
X105288742Y-98909136D01*
X105311696Y-98853720D01*
X105331948Y-98751905D01*
X105331948Y-98648095D01*
X105311696Y-98546280D01*
X105271969Y-98450372D01*
X105214296Y-98364057D01*
X105140891Y-98290652D01*
X105054576Y-98232979D01*
X104958668Y-98193252D01*
X104856853Y-98173000D01*
X104753043Y-98173000D01*
X104651228Y-98193252D01*
X104595812Y-98216206D01*
X104452000Y-98072394D01*
X104452000Y-97927606D01*
X106000000Y-96379606D01*
X107548001Y-97927607D01*
G36*
X107548000Y-93927606D02*
G01*
X107548001Y-94072393D01*
X106000000Y-95620394D01*
X104452000Y-94072394D01*
X104452000Y-93927606D01*
X106000000Y-92379606D01*
X107548000Y-93927606D01*
G37*
X107548000Y-93927606D02*
X107548001Y-94072393D01*
X106000000Y-95620394D01*
X104452000Y-94072394D01*
X104452000Y-93927606D01*
X106000000Y-92379606D01*
X107548000Y-93927606D01*
G36*
X111548000Y-97927606D02*
G01*
X111548001Y-98072393D01*
X110000000Y-99620394D01*
X108452000Y-98072394D01*
X108452000Y-97927606D01*
X110000000Y-96379606D01*
X111548000Y-97927606D01*
G37*
X111548000Y-97927606D02*
X111548001Y-98072393D01*
X110000000Y-99620394D01*
X108452000Y-98072394D01*
X108452000Y-97927606D01*
X110000000Y-96379606D01*
X111548000Y-97927606D01*
G36*
X99548000Y-89927606D02*
G01*
X99548001Y-90072393D01*
X98000000Y-91620394D01*
X96452000Y-90072394D01*
X96452000Y-89927606D01*
X98000000Y-88379606D01*
X99548000Y-89927606D01*
G37*
X99548000Y-89927606D02*
X99548001Y-90072393D01*
X98000000Y-91620394D01*
X96452000Y-90072394D01*
X96452000Y-89927606D01*
X98000000Y-88379606D01*
X99548000Y-89927606D01*
G36*
X103548000Y-89927606D02*
G01*
X103548001Y-90072393D01*
X102000000Y-91620394D01*
X100452000Y-90072394D01*
X100452000Y-89927606D01*
X102000000Y-88379606D01*
X103548000Y-89927606D01*
G37*
X103548000Y-89927606D02*
X103548001Y-90072393D01*
X102000000Y-91620394D01*
X100452000Y-90072394D01*
X100452000Y-89927606D01*
X102000000Y-88379606D01*
X103548000Y-89927606D01*
G36*
X91548000Y-101927606D02*
G01*
X91548001Y-102072393D01*
X90000000Y-103620394D01*
X88452000Y-102072394D01*
X88452000Y-101927606D01*
X90000000Y-100379606D01*
X91548000Y-101927606D01*
G37*
X91548000Y-101927606D02*
X91548001Y-102072393D01*
X90000000Y-103620394D01*
X88452000Y-102072394D01*
X88452000Y-101927606D01*
X90000000Y-100379606D01*
X91548000Y-101927606D01*
G36*
X95548000Y-101927606D02*
G01*
X95548001Y-102072393D01*
X94000000Y-103620394D01*
X92452000Y-102072394D01*
X92452000Y-101927606D01*
X94000000Y-100379606D01*
X95548000Y-101927606D01*
G37*
X95548000Y-101927606D02*
X95548001Y-102072393D01*
X94000000Y-103620394D01*
X92452000Y-102072394D01*
X92452000Y-101927606D01*
X94000000Y-100379606D01*
X95548000Y-101927606D01*
G36*
X95548000Y-105927606D02*
G01*
X95548001Y-106072393D01*
X94000000Y-107620394D01*
X92452000Y-106072394D01*
X92452000Y-105927606D01*
X94000000Y-104379606D01*
X95548000Y-105927606D01*
G37*
X95548000Y-105927606D02*
X95548001Y-106072393D01*
X94000000Y-107620394D01*
X92452000Y-106072394D01*
X92452000Y-105927606D01*
X94000000Y-104379606D01*
X95548000Y-105927606D01*
G36*
X99548000Y-105927606D02*
G01*
X99548001Y-106072393D01*
X98000000Y-107620394D01*
X96452000Y-106072394D01*
X96452000Y-105927606D01*
X98000000Y-104379606D01*
X99548000Y-105927606D01*
G37*
X99548000Y-105927606D02*
X99548001Y-106072393D01*
X98000000Y-107620394D01*
X96452000Y-106072394D01*
X96452000Y-105927606D01*
X98000000Y-104379606D01*
X99548000Y-105927606D01*
G36*
X99548000Y-101927606D02*
G01*
X99548001Y-102072393D01*
X98000000Y-103620394D01*
X96452000Y-102072394D01*
X96452000Y-101927606D01*
X98000000Y-100379606D01*
X99548000Y-101927606D01*
G37*
X99548000Y-101927606D02*
X99548001Y-102072393D01*
X98000000Y-103620394D01*
X96452000Y-102072394D01*
X96452000Y-101927606D01*
X98000000Y-100379606D01*
X99548000Y-101927606D01*
G36*
X103548000Y-101927606D02*
G01*
X103548001Y-102072393D01*
X102000000Y-103620394D01*
X100452000Y-102072394D01*
X100452000Y-101927606D01*
X102000000Y-100379606D01*
X103548000Y-101927606D01*
G37*
X103548000Y-101927606D02*
X103548001Y-102072393D01*
X102000000Y-103620394D01*
X100452000Y-102072394D01*
X100452000Y-101927606D01*
X102000000Y-100379606D01*
X103548000Y-101927606D01*
G36*
X103548000Y-105927606D02*
G01*
X103548001Y-106072393D01*
X102000000Y-107620394D01*
X100452000Y-106072394D01*
X100452000Y-105927606D01*
X102000000Y-104379606D01*
X103548000Y-105927606D01*
G37*
X103548000Y-105927606D02*
X103548001Y-106072393D01*
X102000000Y-107620394D01*
X100452000Y-106072394D01*
X100452000Y-105927606D01*
X102000000Y-104379606D01*
X103548000Y-105927606D01*
G36*
X99548000Y-109927606D02*
G01*
X99548001Y-110072393D01*
X98000000Y-111620394D01*
X96452000Y-110072394D01*
X96452000Y-109927606D01*
X98000000Y-108379606D01*
X99548000Y-109927606D01*
G37*
X99548000Y-109927606D02*
X99548001Y-110072393D01*
X98000000Y-111620394D01*
X96452000Y-110072394D01*
X96452000Y-109927606D01*
X98000000Y-108379606D01*
X99548000Y-109927606D01*
G36*
X103548000Y-109927606D02*
G01*
X103548001Y-110072393D01*
X102000000Y-111620394D01*
X100452000Y-110072394D01*
X100452000Y-109927606D01*
X102000000Y-108379606D01*
X103548000Y-109927606D01*
G37*
X103548000Y-109927606D02*
X103548001Y-110072393D01*
X102000000Y-111620394D01*
X100452000Y-110072394D01*
X100452000Y-109927606D01*
X102000000Y-108379606D01*
X103548000Y-109927606D01*
G36*
X107548000Y-105927606D02*
G01*
X107548001Y-106072393D01*
X106000000Y-107620394D01*
X104452000Y-106072394D01*
X104452000Y-105927606D01*
X106000000Y-104379606D01*
X107548000Y-105927606D01*
G37*
X107548000Y-105927606D02*
X107548001Y-106072393D01*
X106000000Y-107620394D01*
X104452000Y-106072394D01*
X104452000Y-105927606D01*
X106000000Y-104379606D01*
X107548000Y-105927606D01*
G36*
X107548000Y-101927606D02*
G01*
X107548001Y-102072393D01*
X106000000Y-103620394D01*
X104452000Y-102072394D01*
X104452000Y-101927606D01*
X106000000Y-100379606D01*
X107548000Y-101927606D01*
G37*
X107548000Y-101927606D02*
X107548001Y-102072393D01*
X106000000Y-103620394D01*
X104452000Y-102072394D01*
X104452000Y-101927606D01*
X106000000Y-100379606D01*
X107548000Y-101927606D01*
G36*
X111548000Y-101927606D02*
G01*
X111548001Y-102072393D01*
X110000000Y-103620394D01*
X108452000Y-102072394D01*
X108452000Y-101927606D01*
X110000000Y-100379606D01*
X111548000Y-101927606D01*
G37*
X111548000Y-101927606D02*
X111548001Y-102072393D01*
X110000000Y-103620394D01*
X108452000Y-102072394D01*
X108452000Y-101927606D01*
X110000000Y-100379606D01*
X111548000Y-101927606D01*
G36*
X92000440Y-106349776D02*
G01*
X92007667Y-106373601D01*
X92019403Y-106395557D01*
X92035197Y-106414803D01*
X93620394Y-108000000D01*
X92010197Y-109610197D01*
X92000000Y-109622623D01*
X91989803Y-109610197D01*
X90379606Y-108000000D01*
X91964803Y-106414803D01*
X91980597Y-106395557D01*
X91992333Y-106373601D01*
X91999560Y-106349776D01*
X92000000Y-106345308D01*
X92000440Y-106349776D01*
G37*
X92000440Y-106349776D02*
X92007667Y-106373601D01*
X92019403Y-106395557D01*
X92035197Y-106414803D01*
X93620394Y-108000000D01*
X92010197Y-109610197D01*
X92000000Y-109622623D01*
X91989803Y-109610197D01*
X90379606Y-108000000D01*
X91964803Y-106414803D01*
X91980597Y-106395557D01*
X91992333Y-106373601D01*
X91999560Y-106349776D01*
X92000000Y-106345308D01*
X92000440Y-106349776D01*
G36*
X92000440Y-102349776D02*
G01*
X92007667Y-102373601D01*
X92019403Y-102395557D01*
X92035197Y-102414803D01*
X93620394Y-104000000D01*
X92035197Y-105585197D01*
X92019403Y-105604443D01*
X92007667Y-105626399D01*
X92000440Y-105650224D01*
X92000000Y-105654692D01*
X91999560Y-105650224D01*
X91992333Y-105626399D01*
X91980597Y-105604443D01*
X91964803Y-105585197D01*
X90379606Y-104000000D01*
X91964803Y-102414803D01*
X91980597Y-102395557D01*
X91992333Y-102373601D01*
X91999560Y-102349776D01*
X92000000Y-102345308D01*
X92000440Y-102349776D01*
G37*
X92000440Y-102349776D02*
X92007667Y-102373601D01*
X92019403Y-102395557D01*
X92035197Y-102414803D01*
X93620394Y-104000000D01*
X92035197Y-105585197D01*
X92019403Y-105604443D01*
X92007667Y-105626399D01*
X92000440Y-105650224D01*
X92000000Y-105654692D01*
X91999560Y-105650224D01*
X91992333Y-105626399D01*
X91980597Y-105604443D01*
X91964803Y-105585197D01*
X90379606Y-104000000D01*
X91964803Y-102414803D01*
X91980597Y-102395557D01*
X91992333Y-102373601D01*
X91999560Y-102349776D01*
X92000000Y-102345308D01*
X92000440Y-102349776D01*
G36*
X92000440Y-98349776D02*
G01*
X92007667Y-98373601D01*
X92019403Y-98395557D01*
X92035197Y-98414803D01*
X93620394Y-100000000D01*
X92035197Y-101585197D01*
X92019403Y-101604443D01*
X92007667Y-101626399D01*
X92000440Y-101650224D01*
X92000000Y-101654692D01*
X91999560Y-101650224D01*
X91992333Y-101626399D01*
X91980597Y-101604443D01*
X91964803Y-101585197D01*
X90379606Y-100000000D01*
X91964803Y-98414803D01*
X91980597Y-98395557D01*
X91992333Y-98373601D01*
X91999560Y-98349776D01*
X92000000Y-98345308D01*
X92000440Y-98349776D01*
G37*
X92000440Y-98349776D02*
X92007667Y-98373601D01*
X92019403Y-98395557D01*
X92035197Y-98414803D01*
X93620394Y-100000000D01*
X92035197Y-101585197D01*
X92019403Y-101604443D01*
X92007667Y-101626399D01*
X92000440Y-101650224D01*
X92000000Y-101654692D01*
X91999560Y-101650224D01*
X91992333Y-101626399D01*
X91980597Y-101604443D01*
X91964803Y-101585197D01*
X90379606Y-100000000D01*
X91964803Y-98414803D01*
X91980597Y-98395557D01*
X91992333Y-98373601D01*
X91999560Y-98349776D01*
X92000000Y-98345308D01*
X92000440Y-98349776D01*
G36*
X92000440Y-94349776D02*
G01*
X92007667Y-94373601D01*
X92019403Y-94395557D01*
X92035197Y-94414803D01*
X93620394Y-96000000D01*
X92035197Y-97585197D01*
X92019403Y-97604443D01*
X92007667Y-97626399D01*
X92000440Y-97650224D01*
X92000000Y-97654692D01*
X91999560Y-97650224D01*
X91992333Y-97626399D01*
X91980597Y-97604443D01*
X91964803Y-97585197D01*
X90379606Y-96000000D01*
X91964803Y-94414803D01*
X91980597Y-94395557D01*
X91992333Y-94373601D01*
X91999560Y-94349776D01*
X92000000Y-94345308D01*
X92000440Y-94349776D01*
G37*
X92000440Y-94349776D02*
X92007667Y-94373601D01*
X92019403Y-94395557D01*
X92035197Y-94414803D01*
X93620394Y-96000000D01*
X92035197Y-97585197D01*
X92019403Y-97604443D01*
X92007667Y-97626399D01*
X92000440Y-97650224D01*
X92000000Y-97654692D01*
X91999560Y-97650224D01*
X91992333Y-97626399D01*
X91980597Y-97604443D01*
X91964803Y-97585197D01*
X90379606Y-96000000D01*
X91964803Y-94414803D01*
X91980597Y-94395557D01*
X91992333Y-94373601D01*
X91999560Y-94349776D01*
X92000000Y-94345308D01*
X92000440Y-94349776D01*
G36*
X92010197Y-90389803D02*
G01*
X93620394Y-92000000D01*
X92035197Y-93585197D01*
X92019403Y-93604443D01*
X92007667Y-93626399D01*
X92000440Y-93650224D01*
X92000000Y-93654692D01*
X91999560Y-93650224D01*
X91992333Y-93626399D01*
X91980597Y-93604443D01*
X91964803Y-93585197D01*
X90379606Y-92000000D01*
X91989803Y-90389803D01*
X92000000Y-90377377D01*
X92010197Y-90389803D01*
G37*
X92010197Y-90389803D02*
X93620394Y-92000000D01*
X92035197Y-93585197D01*
X92019403Y-93604443D01*
X92007667Y-93626399D01*
X92000440Y-93650224D01*
X92000000Y-93654692D01*
X91999560Y-93650224D01*
X91992333Y-93626399D01*
X91980597Y-93604443D01*
X91964803Y-93585197D01*
X90379606Y-92000000D01*
X91989803Y-90389803D01*
X92000000Y-90377377D01*
X92010197Y-90389803D01*
G36*
X108000440Y-106349776D02*
G01*
X108007667Y-106373601D01*
X108019403Y-106395557D01*
X108035197Y-106414803D01*
X109620394Y-108000000D01*
X108010197Y-109610197D01*
X108000000Y-109622623D01*
X107989803Y-109610197D01*
X106379606Y-108000000D01*
X107964803Y-106414803D01*
X107980597Y-106395557D01*
X107992333Y-106373601D01*
X107999560Y-106349776D01*
X108000000Y-106345308D01*
X108000440Y-106349776D01*
G37*
X108000440Y-106349776D02*
X108007667Y-106373601D01*
X108019403Y-106395557D01*
X108035197Y-106414803D01*
X109620394Y-108000000D01*
X108010197Y-109610197D01*
X108000000Y-109622623D01*
X107989803Y-109610197D01*
X106379606Y-108000000D01*
X107964803Y-106414803D01*
X107980597Y-106395557D01*
X107992333Y-106373601D01*
X107999560Y-106349776D01*
X108000000Y-106345308D01*
X108000440Y-106349776D01*
G36*
X108000440Y-102349776D02*
G01*
X108007667Y-102373601D01*
X108019403Y-102395557D01*
X108035197Y-102414803D01*
X109620394Y-104000000D01*
X108035197Y-105585197D01*
X108019403Y-105604443D01*
X108007667Y-105626399D01*
X108000440Y-105650224D01*
X108000000Y-105654692D01*
X107999560Y-105650224D01*
X107992333Y-105626399D01*
X107980597Y-105604443D01*
X107964803Y-105585197D01*
X106379606Y-104000000D01*
X107964803Y-102414803D01*
X107980597Y-102395557D01*
X107992333Y-102373601D01*
X107999560Y-102349776D01*
X108000000Y-102345308D01*
X108000440Y-102349776D01*
G37*
X108000440Y-102349776D02*
X108007667Y-102373601D01*
X108019403Y-102395557D01*
X108035197Y-102414803D01*
X109620394Y-104000000D01*
X108035197Y-105585197D01*
X108019403Y-105604443D01*
X108007667Y-105626399D01*
X108000440Y-105650224D01*
X108000000Y-105654692D01*
X107999560Y-105650224D01*
X107992333Y-105626399D01*
X107980597Y-105604443D01*
X107964803Y-105585197D01*
X106379606Y-104000000D01*
X107964803Y-102414803D01*
X107980597Y-102395557D01*
X107992333Y-102373601D01*
X107999560Y-102349776D01*
X108000000Y-102345308D01*
X108000440Y-102349776D01*
G36*
X108000440Y-98349776D02*
G01*
X108007667Y-98373601D01*
X108019403Y-98395557D01*
X108035197Y-98414803D01*
X109620394Y-100000000D01*
X108035197Y-101585197D01*
X108019403Y-101604443D01*
X108007667Y-101626399D01*
X108000440Y-101650224D01*
X108000000Y-101654692D01*
X107999560Y-101650224D01*
X107992333Y-101626399D01*
X107980597Y-101604443D01*
X107964803Y-101585197D01*
X106379606Y-100000000D01*
X106768448Y-99611158D01*
X106848095Y-99627000D01*
X106951905Y-99627000D01*
X107053720Y-99606748D01*
X107149628Y-99567021D01*
X107235943Y-99509348D01*
X107309348Y-99435943D01*
X107367021Y-99349628D01*
X107406748Y-99253720D01*
X107427000Y-99151905D01*
X107427000Y-99127000D01*
X107451905Y-99127000D01*
X107553720Y-99106748D01*
X107649628Y-99067021D01*
X107735943Y-99009348D01*
X107809348Y-98935943D01*
X107867021Y-98849628D01*
X107906748Y-98753720D01*
X107927000Y-98651905D01*
X107927000Y-98548095D01*
X107911158Y-98468448D01*
X107964803Y-98414803D01*
X107980597Y-98395557D01*
X107992333Y-98373601D01*
X107999560Y-98349776D01*
X108000000Y-98345308D01*
X108000440Y-98349776D01*
G37*
X108000440Y-98349776D02*
X108007667Y-98373601D01*
X108019403Y-98395557D01*
X108035197Y-98414803D01*
X109620394Y-100000000D01*
X108035197Y-101585197D01*
X108019403Y-101604443D01*
X108007667Y-101626399D01*
X108000440Y-101650224D01*
X108000000Y-101654692D01*
X107999560Y-101650224D01*
X107992333Y-101626399D01*
X107980597Y-101604443D01*
X107964803Y-101585197D01*
X106379606Y-100000000D01*
X106768448Y-99611158D01*
X106848095Y-99627000D01*
X106951905Y-99627000D01*
X107053720Y-99606748D01*
X107149628Y-99567021D01*
X107235943Y-99509348D01*
X107309348Y-99435943D01*
X107367021Y-99349628D01*
X107406748Y-99253720D01*
X107427000Y-99151905D01*
X107427000Y-99127000D01*
X107451905Y-99127000D01*
X107553720Y-99106748D01*
X107649628Y-99067021D01*
X107735943Y-99009348D01*
X107809348Y-98935943D01*
X107867021Y-98849628D01*
X107906748Y-98753720D01*
X107927000Y-98651905D01*
X107927000Y-98548095D01*
X107911158Y-98468448D01*
X107964803Y-98414803D01*
X107980597Y-98395557D01*
X107992333Y-98373601D01*
X107999560Y-98349776D01*
X108000000Y-98345308D01*
X108000440Y-98349776D01*
G36*
X108000440Y-94349776D02*
G01*
X108007667Y-94373601D01*
X108019403Y-94395557D01*
X108035197Y-94414803D01*
X109620394Y-96000000D01*
X108035197Y-97585197D01*
X108019403Y-97604443D01*
X108007667Y-97626399D01*
X108000440Y-97650224D01*
X108000000Y-97654692D01*
X107999560Y-97650224D01*
X107992333Y-97626399D01*
X107980597Y-97604443D01*
X107964803Y-97585197D01*
X106379606Y-96000000D01*
X107964803Y-94414803D01*
X107980597Y-94395557D01*
X107992333Y-94373601D01*
X107999560Y-94349776D01*
X108000000Y-94345308D01*
X108000440Y-94349776D01*
G37*
X108000440Y-94349776D02*
X108007667Y-94373601D01*
X108019403Y-94395557D01*
X108035197Y-94414803D01*
X109620394Y-96000000D01*
X108035197Y-97585197D01*
X108019403Y-97604443D01*
X108007667Y-97626399D01*
X108000440Y-97650224D01*
X108000000Y-97654692D01*
X107999560Y-97650224D01*
X107992333Y-97626399D01*
X107980597Y-97604443D01*
X107964803Y-97585197D01*
X106379606Y-96000000D01*
X107964803Y-94414803D01*
X107980597Y-94395557D01*
X107992333Y-94373601D01*
X107999560Y-94349776D01*
X108000000Y-94345308D01*
X108000440Y-94349776D01*
G36*
X108010197Y-90389803D02*
G01*
X109620394Y-92000000D01*
X108035197Y-93585197D01*
X108019403Y-93604443D01*
X108007667Y-93626399D01*
X108000440Y-93650224D01*
X108000000Y-93654692D01*
X107999560Y-93650224D01*
X107992333Y-93626399D01*
X107980597Y-93604443D01*
X107964803Y-93585197D01*
X106379606Y-92000000D01*
X107989803Y-90389803D01*
X108000000Y-90377377D01*
X108010197Y-90389803D01*
G37*
X108010197Y-90389803D02*
X109620394Y-92000000D01*
X108035197Y-93585197D01*
X108019403Y-93604443D01*
X108007667Y-93626399D01*
X108000440Y-93650224D01*
X108000000Y-93654692D01*
X107999560Y-93650224D01*
X107992333Y-93626399D01*
X107980597Y-93604443D01*
X107964803Y-93585197D01*
X106379606Y-92000000D01*
X107989803Y-90389803D01*
X108000000Y-90377377D01*
X108010197Y-90389803D01*
G36*
X104000440Y-110349776D02*
G01*
X104007667Y-110373601D01*
X104019403Y-110395557D01*
X104036010Y-110415608D01*
X105282302Y-111639644D01*
X104735510Y-111893008D01*
X103401841Y-112340832D01*
X102860134Y-112458560D01*
X102381384Y-111998222D01*
X103964803Y-110414803D01*
X103980597Y-110395557D01*
X103992333Y-110373601D01*
X103999560Y-110349776D01*
X104000000Y-110345308D01*
X104000440Y-110349776D01*
G37*
X104000440Y-110349776D02*
X104007667Y-110373601D01*
X104019403Y-110395557D01*
X104036010Y-110415608D01*
X105282302Y-111639644D01*
X104735510Y-111893008D01*
X103401841Y-112340832D01*
X102860134Y-112458560D01*
X102381384Y-111998222D01*
X103964803Y-110414803D01*
X103980597Y-110395557D01*
X103992333Y-110373601D01*
X103999560Y-110349776D01*
X104000000Y-110345308D01*
X104000440Y-110349776D01*
G36*
X104000440Y-106349776D02*
G01*
X104007667Y-106373601D01*
X104019403Y-106395557D01*
X104035197Y-106414803D01*
X105620394Y-108000000D01*
X104035197Y-109585197D01*
X104019403Y-109604443D01*
X104007667Y-109626399D01*
X104000440Y-109650224D01*
X104000000Y-109654692D01*
X103999560Y-109650224D01*
X103992333Y-109626399D01*
X103980597Y-109604443D01*
X103964803Y-109585197D01*
X102379606Y-108000000D01*
X103964803Y-106414803D01*
X103980597Y-106395557D01*
X103992333Y-106373601D01*
X103999560Y-106349776D01*
X104000000Y-106345308D01*
X104000440Y-106349776D01*
G37*
X104000440Y-106349776D02*
X104007667Y-106373601D01*
X104019403Y-106395557D01*
X104035197Y-106414803D01*
X105620394Y-108000000D01*
X104035197Y-109585197D01*
X104019403Y-109604443D01*
X104007667Y-109626399D01*
X104000440Y-109650224D01*
X104000000Y-109654692D01*
X103999560Y-109650224D01*
X103992333Y-109626399D01*
X103980597Y-109604443D01*
X103964803Y-109585197D01*
X102379606Y-108000000D01*
X103964803Y-106414803D01*
X103980597Y-106395557D01*
X103992333Y-106373601D01*
X103999560Y-106349776D01*
X104000000Y-106345308D01*
X104000440Y-106349776D01*
G36*
X104000440Y-102349776D02*
G01*
X104007667Y-102373601D01*
X104019403Y-102395557D01*
X104035197Y-102414803D01*
X105620394Y-104000000D01*
X104035197Y-105585197D01*
X104019403Y-105604443D01*
X104007667Y-105626399D01*
X104000440Y-105650224D01*
X104000000Y-105654692D01*
X103999560Y-105650224D01*
X103992333Y-105626399D01*
X103980597Y-105604443D01*
X103964803Y-105585197D01*
X102379606Y-104000000D01*
X103964803Y-102414803D01*
X103980597Y-102395557D01*
X103992333Y-102373601D01*
X103999560Y-102349776D01*
X104000000Y-102345308D01*
X104000440Y-102349776D01*
G37*
X104000440Y-102349776D02*
X104007667Y-102373601D01*
X104019403Y-102395557D01*
X104035197Y-102414803D01*
X105620394Y-104000000D01*
X104035197Y-105585197D01*
X104019403Y-105604443D01*
X104007667Y-105626399D01*
X104000440Y-105650224D01*
X104000000Y-105654692D01*
X103999560Y-105650224D01*
X103992333Y-105626399D01*
X103980597Y-105604443D01*
X103964803Y-105585197D01*
X102379606Y-104000000D01*
X103964803Y-102414803D01*
X103980597Y-102395557D01*
X103992333Y-102373601D01*
X103999560Y-102349776D01*
X104000000Y-102345308D01*
X104000440Y-102349776D01*
G36*
X104000440Y-98349776D02*
G01*
X104007667Y-98373601D01*
X104019403Y-98395557D01*
X104035197Y-98414803D01*
X104277948Y-98657554D01*
X104277948Y-98751905D01*
X104298200Y-98853720D01*
X104337927Y-98949628D01*
X104395600Y-99035943D01*
X104469005Y-99109348D01*
X104555320Y-99167021D01*
X104651228Y-99206748D01*
X104753043Y-99227000D01*
X104847394Y-99227000D01*
X105620394Y-100000000D01*
X104035197Y-101585197D01*
X104019403Y-101604443D01*
X104007667Y-101626399D01*
X104000440Y-101650224D01*
X104000000Y-101654692D01*
X103999560Y-101650224D01*
X103992333Y-101626399D01*
X103980597Y-101604443D01*
X103964803Y-101585197D01*
X102379606Y-100000000D01*
X103964803Y-98414803D01*
X103980597Y-98395557D01*
X103992333Y-98373601D01*
X103999560Y-98349776D01*
X104000000Y-98345308D01*
X104000440Y-98349776D01*
G37*
X104000440Y-98349776D02*
X104007667Y-98373601D01*
X104019403Y-98395557D01*
X104035197Y-98414803D01*
X104277948Y-98657554D01*
X104277948Y-98751905D01*
X104298200Y-98853720D01*
X104337927Y-98949628D01*
X104395600Y-99035943D01*
X104469005Y-99109348D01*
X104555320Y-99167021D01*
X104651228Y-99206748D01*
X104753043Y-99227000D01*
X104847394Y-99227000D01*
X105620394Y-100000000D01*
X104035197Y-101585197D01*
X104019403Y-101604443D01*
X104007667Y-101626399D01*
X104000440Y-101650224D01*
X104000000Y-101654692D01*
X103999560Y-101650224D01*
X103992333Y-101626399D01*
X103980597Y-101604443D01*
X103964803Y-101585197D01*
X102379606Y-100000000D01*
X103964803Y-98414803D01*
X103980597Y-98395557D01*
X103992333Y-98373601D01*
X103999560Y-98349776D01*
X104000000Y-98345308D01*
X104000440Y-98349776D01*
G36*
X104000440Y-94349776D02*
G01*
X104007667Y-94373601D01*
X104019403Y-94395557D01*
X104035197Y-94414803D01*
X105620394Y-96000000D01*
X104035197Y-97585197D01*
X104019403Y-97604443D01*
X104007667Y-97626399D01*
X104000440Y-97650224D01*
X104000000Y-97654692D01*
X103999560Y-97650224D01*
X103992333Y-97626399D01*
X103980597Y-97604443D01*
X103964803Y-97585197D01*
X102379606Y-96000000D01*
X103964803Y-94414803D01*
X103980597Y-94395557D01*
X103992333Y-94373601D01*
X103999560Y-94349776D01*
X104000000Y-94345308D01*
X104000440Y-94349776D01*
G37*
X104000440Y-94349776D02*
X104007667Y-94373601D01*
X104019403Y-94395557D01*
X104035197Y-94414803D01*
X105620394Y-96000000D01*
X104035197Y-97585197D01*
X104019403Y-97604443D01*
X104007667Y-97626399D01*
X104000440Y-97650224D01*
X104000000Y-97654692D01*
X103999560Y-97650224D01*
X103992333Y-97626399D01*
X103980597Y-97604443D01*
X103964803Y-97585197D01*
X102379606Y-96000000D01*
X103964803Y-94414803D01*
X103980597Y-94395557D01*
X103992333Y-94373601D01*
X103999560Y-94349776D01*
X104000000Y-94345308D01*
X104000440Y-94349776D01*
G36*
X104000440Y-90349776D02*
G01*
X104007667Y-90373601D01*
X104019403Y-90395557D01*
X104035197Y-90414803D01*
X105620394Y-92000000D01*
X104035197Y-93585197D01*
X104019403Y-93604443D01*
X104007667Y-93626399D01*
X104000440Y-93650224D01*
X104000000Y-93654692D01*
X103999560Y-93650224D01*
X103992333Y-93626399D01*
X103980597Y-93604443D01*
X103964803Y-93585197D01*
X102379606Y-92000000D01*
X103964803Y-90414803D01*
X103980597Y-90395557D01*
X103992333Y-90373601D01*
X103999560Y-90349776D01*
X104000000Y-90345308D01*
X104000440Y-90349776D01*
G37*
X104000440Y-90349776D02*
X104007667Y-90373601D01*
X104019403Y-90395557D01*
X104035197Y-90414803D01*
X105620394Y-92000000D01*
X104035197Y-93585197D01*
X104019403Y-93604443D01*
X104007667Y-93626399D01*
X104000440Y-93650224D01*
X104000000Y-93654692D01*
X103999560Y-93650224D01*
X103992333Y-93626399D01*
X103980597Y-93604443D01*
X103964803Y-93585197D01*
X102379606Y-92000000D01*
X103964803Y-90414803D01*
X103980597Y-90395557D01*
X103992333Y-90373601D01*
X103999560Y-90349776D01*
X104000000Y-90345308D01*
X104000440Y-90349776D01*
G36*
X102964178Y-87546794D02*
G01*
X104276688Y-87936542D01*
X104337154Y-87957520D01*
X105285709Y-88357010D01*
X104036010Y-89584392D01*
X104020043Y-89603494D01*
X104008110Y-89625344D01*
X104000669Y-89649102D01*
X104000045Y-89655153D01*
X103999560Y-89650224D01*
X103992333Y-89626399D01*
X103980597Y-89604443D01*
X103964803Y-89585197D01*
X102381384Y-88001778D01*
X102871901Y-87530126D01*
X102964178Y-87546794D01*
G37*
X102964178Y-87546794D02*
X104276688Y-87936542D01*
X104337154Y-87957520D01*
X105285709Y-88357010D01*
X104036010Y-89584392D01*
X104020043Y-89603494D01*
X104008110Y-89625344D01*
X104000669Y-89649102D01*
X104000045Y-89655153D01*
X103999560Y-89650224D01*
X103992333Y-89626399D01*
X103980597Y-89604443D01*
X103964803Y-89585197D01*
X102381384Y-88001778D01*
X102871901Y-87530126D01*
X102964178Y-87546794D01*
G36*
X96000440Y-110349776D02*
G01*
X96007667Y-110373601D01*
X96019403Y-110395557D01*
X96035197Y-110414803D01*
X97618616Y-111998222D01*
X97139234Y-112459167D01*
X96259730Y-112242510D01*
X94938890Y-111758140D01*
X94711946Y-111645293D01*
X95963990Y-110415608D01*
X95979957Y-110396506D01*
X95991890Y-110374656D01*
X95999331Y-110350898D01*
X95999955Y-110344847D01*
X96000440Y-110349776D01*
G37*
X96000440Y-110349776D02*
X96007667Y-110373601D01*
X96019403Y-110395557D01*
X96035197Y-110414803D01*
X97618616Y-111998222D01*
X97139234Y-112459167D01*
X96259730Y-112242510D01*
X94938890Y-111758140D01*
X94711946Y-111645293D01*
X95963990Y-110415608D01*
X95979957Y-110396506D01*
X95991890Y-110374656D01*
X95999331Y-110350898D01*
X95999955Y-110344847D01*
X96000440Y-110349776D01*
G36*
X96000440Y-106349776D02*
G01*
X96007667Y-106373601D01*
X96019403Y-106395557D01*
X96035197Y-106414803D01*
X97620394Y-108000000D01*
X96035197Y-109585197D01*
X96019403Y-109604443D01*
X96007667Y-109626399D01*
X96000440Y-109650224D01*
X96000000Y-109654692D01*
X95999560Y-109650224D01*
X95992333Y-109626399D01*
X95980597Y-109604443D01*
X95964803Y-109585197D01*
X94379606Y-108000000D01*
X95964803Y-106414803D01*
X95980597Y-106395557D01*
X95992333Y-106373601D01*
X95999560Y-106349776D01*
X96000000Y-106345308D01*
X96000440Y-106349776D01*
G37*
X96000440Y-106349776D02*
X96007667Y-106373601D01*
X96019403Y-106395557D01*
X96035197Y-106414803D01*
X97620394Y-108000000D01*
X96035197Y-109585197D01*
X96019403Y-109604443D01*
X96007667Y-109626399D01*
X96000440Y-109650224D01*
X96000000Y-109654692D01*
X95999560Y-109650224D01*
X95992333Y-109626399D01*
X95980597Y-109604443D01*
X95964803Y-109585197D01*
X94379606Y-108000000D01*
X95964803Y-106414803D01*
X95980597Y-106395557D01*
X95992333Y-106373601D01*
X95999560Y-106349776D01*
X96000000Y-106345308D01*
X96000440Y-106349776D01*
G36*
X96000440Y-102349776D02*
G01*
X96007667Y-102373601D01*
X96019403Y-102395557D01*
X96035197Y-102414803D01*
X97620394Y-104000000D01*
X96035197Y-105585197D01*
X96019403Y-105604443D01*
X96007667Y-105626399D01*
X96000440Y-105650224D01*
X96000000Y-105654692D01*
X95999560Y-105650224D01*
X95992333Y-105626399D01*
X95980597Y-105604443D01*
X95964803Y-105585197D01*
X94379606Y-104000000D01*
X95964803Y-102414803D01*
X95980597Y-102395557D01*
X95992333Y-102373601D01*
X95999560Y-102349776D01*
X96000000Y-102345308D01*
X96000440Y-102349776D01*
G37*
X96000440Y-102349776D02*
X96007667Y-102373601D01*
X96019403Y-102395557D01*
X96035197Y-102414803D01*
X97620394Y-104000000D01*
X96035197Y-105585197D01*
X96019403Y-105604443D01*
X96007667Y-105626399D01*
X96000440Y-105650224D01*
X96000000Y-105654692D01*
X95999560Y-105650224D01*
X95992333Y-105626399D01*
X95980597Y-105604443D01*
X95964803Y-105585197D01*
X94379606Y-104000000D01*
X95964803Y-102414803D01*
X95980597Y-102395557D01*
X95992333Y-102373601D01*
X95999560Y-102349776D01*
X96000000Y-102345308D01*
X96000440Y-102349776D01*
G36*
X96000440Y-98349776D02*
G01*
X96007667Y-98373601D01*
X96019403Y-98395557D01*
X96035197Y-98414803D01*
X97620394Y-100000000D01*
X96035197Y-101585197D01*
X96019403Y-101604443D01*
X96007667Y-101626399D01*
X96000440Y-101650224D01*
X96000000Y-101654692D01*
X95999560Y-101650224D01*
X95992333Y-101626399D01*
X95980597Y-101604443D01*
X95964803Y-101585197D01*
X94379606Y-100000000D01*
X95964803Y-98414803D01*
X95980597Y-98395557D01*
X95992333Y-98373601D01*
X95999560Y-98349776D01*
X96000000Y-98345308D01*
X96000440Y-98349776D01*
G37*
X96000440Y-98349776D02*
X96007667Y-98373601D01*
X96019403Y-98395557D01*
X96035197Y-98414803D01*
X97620394Y-100000000D01*
X96035197Y-101585197D01*
X96019403Y-101604443D01*
X96007667Y-101626399D01*
X96000440Y-101650224D01*
X96000000Y-101654692D01*
X95999560Y-101650224D01*
X95992333Y-101626399D01*
X95980597Y-101604443D01*
X95964803Y-101585197D01*
X94379606Y-100000000D01*
X95964803Y-98414803D01*
X95980597Y-98395557D01*
X95992333Y-98373601D01*
X95999560Y-98349776D01*
X96000000Y-98345308D01*
X96000440Y-98349776D01*
G36*
X96000440Y-94349776D02*
G01*
X96007667Y-94373601D01*
X96019403Y-94395557D01*
X96035197Y-94414803D01*
X97620394Y-96000000D01*
X96035197Y-97585197D01*
X96019403Y-97604443D01*
X96007667Y-97626399D01*
X96000440Y-97650224D01*
X96000000Y-97654692D01*
X95999560Y-97650224D01*
X95992333Y-97626399D01*
X95980597Y-97604443D01*
X95964803Y-97585197D01*
X94379606Y-96000000D01*
X95964803Y-94414803D01*
X95980597Y-94395557D01*
X95992333Y-94373601D01*
X95999560Y-94349776D01*
X96000000Y-94345308D01*
X96000440Y-94349776D01*
G37*
X96000440Y-94349776D02*
X96007667Y-94373601D01*
X96019403Y-94395557D01*
X96035197Y-94414803D01*
X97620394Y-96000000D01*
X96035197Y-97585197D01*
X96019403Y-97604443D01*
X96007667Y-97626399D01*
X96000440Y-97650224D01*
X96000000Y-97654692D01*
X95999560Y-97650224D01*
X95992333Y-97626399D01*
X95980597Y-97604443D01*
X95964803Y-97585197D01*
X94379606Y-96000000D01*
X95964803Y-94414803D01*
X95980597Y-94395557D01*
X95992333Y-94373601D01*
X95999560Y-94349776D01*
X96000000Y-94345308D01*
X96000440Y-94349776D01*
G36*
X96000440Y-90349776D02*
G01*
X96007667Y-90373601D01*
X96019403Y-90395557D01*
X96035197Y-90414803D01*
X97620394Y-92000000D01*
X96035197Y-93585197D01*
X96019403Y-93604443D01*
X96007667Y-93626399D01*
X96000440Y-93650224D01*
X96000000Y-93654692D01*
X95999560Y-93650224D01*
X95992333Y-93626399D01*
X95980597Y-93604443D01*
X95964803Y-93585197D01*
X94379606Y-92000000D01*
X95964803Y-90414803D01*
X95980597Y-90395557D01*
X95992333Y-90373601D01*
X95999560Y-90349776D01*
X96000000Y-90345308D01*
X96000440Y-90349776D01*
G37*
X96000440Y-90349776D02*
X96007667Y-90373601D01*
X96019403Y-90395557D01*
X96035197Y-90414803D01*
X97620394Y-92000000D01*
X96035197Y-93585197D01*
X96019403Y-93604443D01*
X96007667Y-93626399D01*
X96000440Y-93650224D01*
X96000000Y-93654692D01*
X95999560Y-93650224D01*
X95992333Y-93626399D01*
X95980597Y-93604443D01*
X95964803Y-93585197D01*
X94379606Y-92000000D01*
X95964803Y-90414803D01*
X95980597Y-90395557D01*
X95992333Y-90373601D01*
X95999560Y-90349776D01*
X96000000Y-90345308D01*
X96000440Y-90349776D01*
G36*
X97618616Y-88001778D02*
G01*
X96035197Y-89585197D01*
X96019403Y-89604443D01*
X96007667Y-89626399D01*
X96000440Y-89650224D01*
X96000000Y-89654692D01*
X95999560Y-89650224D01*
X95992333Y-89626399D01*
X95980597Y-89604443D01*
X95963990Y-89584392D01*
X94703495Y-88346407D01*
X94709507Y-88343269D01*
X96013834Y-87835749D01*
X96024176Y-87832161D01*
X97133828Y-87535634D01*
X97618616Y-88001778D01*
G37*
X97618616Y-88001778D02*
X96035197Y-89585197D01*
X96019403Y-89604443D01*
X96007667Y-89626399D01*
X96000440Y-89650224D01*
X96000000Y-89654692D01*
X95999560Y-89650224D01*
X95992333Y-89626399D01*
X95980597Y-89604443D01*
X95963990Y-89584392D01*
X94703495Y-88346407D01*
X94709507Y-88343269D01*
X96013834Y-87835749D01*
X96024176Y-87832161D01*
X97133828Y-87535634D01*
X97618616Y-88001778D01*
G36*
X91548000Y-93927606D02*
G01*
X91548001Y-94072393D01*
X90000710Y-95619684D01*
X88599740Y-94196478D01*
X88675200Y-94031954D01*
X89398485Y-92825283D01*
X89721303Y-92400583D01*
X89961042Y-92340648D01*
X91548000Y-93927606D01*
G37*
X91548000Y-93927606D02*
X91548001Y-94072393D01*
X90000710Y-95619684D01*
X88599740Y-94196478D01*
X88675200Y-94031954D01*
X89398485Y-92825283D01*
X89721303Y-92400583D01*
X89961042Y-92340648D01*
X91548000Y-93927606D01*
G36*
X107573000Y-109952606D02*
G01*
X107573000Y-110299893D01*
X107215845Y-110573564D01*
X106011990Y-111301533D01*
X105801989Y-111398840D01*
X104452000Y-110071351D01*
X104452000Y-109927606D01*
X106000000Y-108379606D01*
X107573000Y-109952606D01*
G37*
X107573000Y-109952606D02*
X107573000Y-110299893D01*
X107215845Y-110573564D01*
X106011990Y-111301533D01*
X105801989Y-111398840D01*
X104452000Y-110071351D01*
X104452000Y-109927606D01*
X106000000Y-108379606D01*
X107573000Y-109952606D01*
G36*
X111392569Y-105795709D02*
G01*
X111031100Y-106494884D01*
X110299660Y-107594177D01*
X110038958Y-107659352D01*
X108452000Y-106072394D01*
X108452000Y-105927606D01*
X109999290Y-104380316D01*
X111392569Y-105795709D01*
G37*
X111392569Y-105795709D02*
X111031100Y-106494884D01*
X110299660Y-107594177D01*
X110038958Y-107659352D01*
X108452000Y-106072394D01*
X108452000Y-105927606D01*
X109999290Y-104380316D01*
X111392569Y-105795709D01*
G36*
X110278946Y-92400645D02*
G01*
X110795004Y-93119841D01*
X111400539Y-94196194D01*
X109999290Y-95619684D01*
X108452000Y-94072394D01*
X108452000Y-93927606D01*
X110038958Y-92340648D01*
X110278946Y-92400645D01*
G37*
X110278946Y-92400645D02*
X110795004Y-93119841D01*
X111400539Y-94196194D01*
X109999290Y-95619684D01*
X108452000Y-94072394D01*
X108452000Y-93927606D01*
X110038958Y-92340648D01*
X110278946Y-92400645D01*
G36*
X106838178Y-89178354D02*
G01*
X107573000Y-89701313D01*
X107573000Y-90047394D01*
X106000000Y-91620394D01*
X104452000Y-90072394D01*
X104452000Y-89928649D01*
X105802286Y-88600868D01*
X106838178Y-89178354D01*
G37*
X106838178Y-89178354D02*
X107573000Y-89701313D01*
X107573000Y-90047394D01*
X106000000Y-91620394D01*
X104452000Y-90072394D01*
X104452000Y-89928649D01*
X105802286Y-88600868D01*
X106838178Y-89178354D01*
G36*
X95548000Y-89928649D02*
G01*
X95548001Y-90072393D01*
X94000000Y-91620394D01*
X92427000Y-90047394D01*
X92427000Y-89688900D01*
X93462314Y-88994214D01*
X94204039Y-88607087D01*
X95548000Y-89928649D01*
G37*
X95548000Y-89928649D02*
X95548001Y-90072393D01*
X94000000Y-91620394D01*
X92427000Y-90047394D01*
X92427000Y-89688900D01*
X93462314Y-88994214D01*
X94204039Y-88607087D01*
X95548000Y-89928649D01*
G36*
X95548000Y-109927606D02*
G01*
X95548001Y-110071351D01*
X94204157Y-111392796D01*
X93679179Y-111131752D01*
X92495821Y-110370920D01*
X92427000Y-110315113D01*
X92427000Y-109952606D01*
X94000000Y-108379606D01*
X95548000Y-109927606D01*
G37*
X95548000Y-109927606D02*
X95548001Y-110071351D01*
X94204157Y-111392796D01*
X93679179Y-111131752D01*
X92495821Y-110370920D01*
X92427000Y-110315113D01*
X92427000Y-109952606D01*
X94000000Y-108379606D01*
X95548000Y-109927606D01*
G36*
X91548000Y-105927606D02*
G01*
X91548001Y-106072393D01*
X89961042Y-107659352D01*
X89712108Y-107597119D01*
X89541085Y-107381042D01*
X88794291Y-106188761D01*
X88605538Y-105797633D01*
X90000710Y-104380316D01*
X91548000Y-105927606D01*
G37*
X91548000Y-105927606D02*
X91548001Y-106072393D01*
X89961042Y-107659352D01*
X89712108Y-107597119D01*
X89541085Y-107381042D01*
X88794291Y-106188761D01*
X88605538Y-105797633D01*
X90000710Y-104380316D01*
X91548000Y-105927606D01*
G36*
X100000440Y-110349776D02*
G01*
X100007667Y-110373601D01*
X100019403Y-110395557D01*
X100035197Y-110414803D01*
X101620394Y-112000000D01*
X101185745Y-112434649D01*
X101173589Y-112414902D01*
X101170162Y-112410456D01*
X101170161Y-112410454D01*
X101170158Y-112410451D01*
X101048642Y-112255008D01*
X101023522Y-112228645D01*
X100998745Y-112201902D01*
X100994520Y-112198206D01*
X100845120Y-112069322D01*
X100815310Y-112048306D01*
X100785858Y-112026920D01*
X100781002Y-112024118D01*
X100780997Y-112024115D01*
X100780992Y-112024113D01*
X100609407Y-111926704D01*
X100576147Y-111911907D01*
X100543041Y-111896621D01*
X100537726Y-111894814D01*
X100350485Y-111832586D01*
X100314984Y-111824531D01*
X100279537Y-111815966D01*
X100273973Y-111815226D01*
X100078211Y-111790552D01*
X100041783Y-111789545D01*
X100005386Y-111788029D01*
X99999784Y-111788383D01*
X99802957Y-111802203D01*
X99766994Y-111808296D01*
X99731029Y-111813874D01*
X99725614Y-111815307D01*
X99725603Y-111815309D01*
X99725594Y-111815313D01*
X99535210Y-111867096D01*
X99501139Y-111880050D01*
X99466918Y-111892516D01*
X99461880Y-111894976D01*
X99461875Y-111894978D01*
X99461871Y-111894980D01*
X99285166Y-111982760D01*
X99254241Y-112002096D01*
X99223115Y-112020959D01*
X99218647Y-112024353D01*
X99218643Y-112024355D01*
X99218640Y-112024358D01*
X99062352Y-112144786D01*
X99035795Y-112169738D01*
X99008899Y-112194312D01*
X99005173Y-112198511D01*
X98875249Y-112347008D01*
X98854048Y-112376640D01*
X98832436Y-112405970D01*
X98829597Y-112410812D01*
X98815262Y-112435656D01*
X98379606Y-112000000D01*
X99964803Y-110414803D01*
X99980597Y-110395557D01*
X99992333Y-110373601D01*
X99999560Y-110349776D01*
X100000000Y-110345308D01*
X100000440Y-110349776D01*
G37*
X100000440Y-110349776D02*
X100007667Y-110373601D01*
X100019403Y-110395557D01*
X100035197Y-110414803D01*
X101620394Y-112000000D01*
X101185745Y-112434649D01*
X101173589Y-112414902D01*
X101170162Y-112410456D01*
X101170161Y-112410454D01*
X101170158Y-112410451D01*
X101048642Y-112255008D01*
X101023522Y-112228645D01*
X100998745Y-112201902D01*
X100994520Y-112198206D01*
X100845120Y-112069322D01*
X100815310Y-112048306D01*
X100785858Y-112026920D01*
X100781002Y-112024118D01*
X100780997Y-112024115D01*
X100780992Y-112024113D01*
X100609407Y-111926704D01*
X100576147Y-111911907D01*
X100543041Y-111896621D01*
X100537726Y-111894814D01*
X100350485Y-111832586D01*
X100314984Y-111824531D01*
X100279537Y-111815966D01*
X100273973Y-111815226D01*
X100078211Y-111790552D01*
X100041783Y-111789545D01*
X100005386Y-111788029D01*
X99999784Y-111788383D01*
X99802957Y-111802203D01*
X99766994Y-111808296D01*
X99731029Y-111813874D01*
X99725614Y-111815307D01*
X99725603Y-111815309D01*
X99725594Y-111815313D01*
X99535210Y-111867096D01*
X99501139Y-111880050D01*
X99466918Y-111892516D01*
X99461880Y-111894976D01*
X99461875Y-111894978D01*
X99461871Y-111894980D01*
X99285166Y-111982760D01*
X99254241Y-112002096D01*
X99223115Y-112020959D01*
X99218647Y-112024353D01*
X99218643Y-112024355D01*
X99218640Y-112024358D01*
X99062352Y-112144786D01*
X99035795Y-112169738D01*
X99008899Y-112194312D01*
X99005173Y-112198511D01*
X98875249Y-112347008D01*
X98854048Y-112376640D01*
X98832436Y-112405970D01*
X98829597Y-112410812D01*
X98815262Y-112435656D01*
X98379606Y-112000000D01*
X99964803Y-110414803D01*
X99980597Y-110395557D01*
X99992333Y-110373601D01*
X99999560Y-110349776D01*
X100000000Y-110345308D01*
X100000440Y-110349776D01*
G36*
X100000440Y-106349776D02*
G01*
X100007667Y-106373601D01*
X100019403Y-106395557D01*
X100035197Y-106414803D01*
X101620394Y-108000000D01*
X100035197Y-109585197D01*
X100019403Y-109604443D01*
X100007667Y-109626399D01*
X100000440Y-109650224D01*
X100000000Y-109654692D01*
X99999560Y-109650224D01*
X99992333Y-109626399D01*
X99980597Y-109604443D01*
X99964803Y-109585197D01*
X98379606Y-108000000D01*
X99964803Y-106414803D01*
X99980597Y-106395557D01*
X99992333Y-106373601D01*
X99999560Y-106349776D01*
X100000000Y-106345308D01*
X100000440Y-106349776D01*
G37*
X100000440Y-106349776D02*
X100007667Y-106373601D01*
X100019403Y-106395557D01*
X100035197Y-106414803D01*
X101620394Y-108000000D01*
X100035197Y-109585197D01*
X100019403Y-109604443D01*
X100007667Y-109626399D01*
X100000440Y-109650224D01*
X100000000Y-109654692D01*
X99999560Y-109650224D01*
X99992333Y-109626399D01*
X99980597Y-109604443D01*
X99964803Y-109585197D01*
X98379606Y-108000000D01*
X99964803Y-106414803D01*
X99980597Y-106395557D01*
X99992333Y-106373601D01*
X99999560Y-106349776D01*
X100000000Y-106345308D01*
X100000440Y-106349776D01*
G36*
X100000440Y-102349776D02*
G01*
X100007667Y-102373601D01*
X100019403Y-102395557D01*
X100035197Y-102414803D01*
X101620394Y-104000000D01*
X100035197Y-105585197D01*
X100019403Y-105604443D01*
X100007667Y-105626399D01*
X100000440Y-105650224D01*
X100000000Y-105654692D01*
X99999560Y-105650224D01*
X99992333Y-105626399D01*
X99980597Y-105604443D01*
X99964803Y-105585197D01*
X98379606Y-104000000D01*
X99964803Y-102414803D01*
X99980597Y-102395557D01*
X99992333Y-102373601D01*
X99999560Y-102349776D01*
X100000000Y-102345308D01*
X100000440Y-102349776D01*
G37*
X100000440Y-102349776D02*
X100007667Y-102373601D01*
X100019403Y-102395557D01*
X100035197Y-102414803D01*
X101620394Y-104000000D01*
X100035197Y-105585197D01*
X100019403Y-105604443D01*
X100007667Y-105626399D01*
X100000440Y-105650224D01*
X100000000Y-105654692D01*
X99999560Y-105650224D01*
X99992333Y-105626399D01*
X99980597Y-105604443D01*
X99964803Y-105585197D01*
X98379606Y-104000000D01*
X99964803Y-102414803D01*
X99980597Y-102395557D01*
X99992333Y-102373601D01*
X99999560Y-102349776D01*
X100000000Y-102345308D01*
X100000440Y-102349776D01*
G36*
X100000440Y-98349776D02*
G01*
X100007667Y-98373601D01*
X100019403Y-98395557D01*
X100035197Y-98414803D01*
X100588842Y-98968448D01*
X100573000Y-99048095D01*
X100573000Y-99151905D01*
X100593252Y-99253720D01*
X100632979Y-99349628D01*
X100690652Y-99435943D01*
X100764057Y-99509348D01*
X100850372Y-99567021D01*
X100946280Y-99606748D01*
X101048095Y-99627000D01*
X101151905Y-99627000D01*
X101231552Y-99611158D01*
X101620394Y-100000000D01*
X100035197Y-101585197D01*
X100019403Y-101604443D01*
X100007667Y-101626399D01*
X100000440Y-101650224D01*
X100000000Y-101654692D01*
X99999560Y-101650224D01*
X99992333Y-101626399D01*
X99980597Y-101604443D01*
X99964803Y-101585197D01*
X98379606Y-100000000D01*
X99068448Y-99311158D01*
X99148095Y-99327000D01*
X99251905Y-99327000D01*
X99353720Y-99306748D01*
X99449628Y-99267021D01*
X99535943Y-99209348D01*
X99609348Y-99135943D01*
X99667021Y-99049628D01*
X99706748Y-98953720D01*
X99727000Y-98851905D01*
X99727000Y-98748095D01*
X99711158Y-98668448D01*
X99964803Y-98414803D01*
X99980597Y-98395557D01*
X99992333Y-98373601D01*
X99999560Y-98349776D01*
X100000000Y-98345308D01*
X100000440Y-98349776D01*
G37*
X100000440Y-98349776D02*
X100007667Y-98373601D01*
X100019403Y-98395557D01*
X100035197Y-98414803D01*
X100588842Y-98968448D01*
X100573000Y-99048095D01*
X100573000Y-99151905D01*
X100593252Y-99253720D01*
X100632979Y-99349628D01*
X100690652Y-99435943D01*
X100764057Y-99509348D01*
X100850372Y-99567021D01*
X100946280Y-99606748D01*
X101048095Y-99627000D01*
X101151905Y-99627000D01*
X101231552Y-99611158D01*
X101620394Y-100000000D01*
X100035197Y-101585197D01*
X100019403Y-101604443D01*
X100007667Y-101626399D01*
X100000440Y-101650224D01*
X100000000Y-101654692D01*
X99999560Y-101650224D01*
X99992333Y-101626399D01*
X99980597Y-101604443D01*
X99964803Y-101585197D01*
X98379606Y-100000000D01*
X99068448Y-99311158D01*
X99148095Y-99327000D01*
X99251905Y-99327000D01*
X99353720Y-99306748D01*
X99449628Y-99267021D01*
X99535943Y-99209348D01*
X99609348Y-99135943D01*
X99667021Y-99049628D01*
X99706748Y-98953720D01*
X99727000Y-98851905D01*
X99727000Y-98748095D01*
X99711158Y-98668448D01*
X99964803Y-98414803D01*
X99980597Y-98395557D01*
X99992333Y-98373601D01*
X99999560Y-98349776D01*
X100000000Y-98345308D01*
X100000440Y-98349776D01*
G36*
X100000440Y-94349776D02*
G01*
X100007667Y-94373601D01*
X100019403Y-94395557D01*
X100035197Y-94414803D01*
X101620394Y-96000000D01*
X100780949Y-96839445D01*
X100701302Y-96823603D01*
X100597492Y-96823603D01*
X100495677Y-96843855D01*
X100399769Y-96883582D01*
X100313454Y-96941255D01*
X100240049Y-97014660D01*
X100182376Y-97100975D01*
X100142649Y-97196883D01*
X100122397Y-97298698D01*
X100122397Y-97402508D01*
X100138239Y-97482155D01*
X100035197Y-97585197D01*
X100019403Y-97604443D01*
X100007667Y-97626399D01*
X100000440Y-97650224D01*
X100000000Y-97654692D01*
X99999560Y-97650224D01*
X99992333Y-97626399D01*
X99980597Y-97604443D01*
X99964803Y-97585197D01*
X98379606Y-96000000D01*
X99964803Y-94414803D01*
X99980597Y-94395557D01*
X99992333Y-94373601D01*
X99999560Y-94349776D01*
X100000000Y-94345308D01*
X100000440Y-94349776D01*
G37*
X100000440Y-94349776D02*
X100007667Y-94373601D01*
X100019403Y-94395557D01*
X100035197Y-94414803D01*
X101620394Y-96000000D01*
X100780949Y-96839445D01*
X100701302Y-96823603D01*
X100597492Y-96823603D01*
X100495677Y-96843855D01*
X100399769Y-96883582D01*
X100313454Y-96941255D01*
X100240049Y-97014660D01*
X100182376Y-97100975D01*
X100142649Y-97196883D01*
X100122397Y-97298698D01*
X100122397Y-97402508D01*
X100138239Y-97482155D01*
X100035197Y-97585197D01*
X100019403Y-97604443D01*
X100007667Y-97626399D01*
X100000440Y-97650224D01*
X100000000Y-97654692D01*
X99999560Y-97650224D01*
X99992333Y-97626399D01*
X99980597Y-97604443D01*
X99964803Y-97585197D01*
X98379606Y-96000000D01*
X99964803Y-94414803D01*
X99980597Y-94395557D01*
X99992333Y-94373601D01*
X99999560Y-94349776D01*
X100000000Y-94345308D01*
X100000440Y-94349776D01*
G36*
X100000440Y-90349776D02*
G01*
X100007667Y-90373601D01*
X100019403Y-90395557D01*
X100035197Y-90414803D01*
X101620394Y-92000000D01*
X100035197Y-93585197D01*
X100019403Y-93604443D01*
X100007667Y-93626399D01*
X100000440Y-93650224D01*
X100000000Y-93654692D01*
X99999560Y-93650224D01*
X99992333Y-93626399D01*
X99980597Y-93604443D01*
X99964803Y-93585197D01*
X98379606Y-92000000D01*
X99964803Y-90414803D01*
X99980597Y-90395557D01*
X99992333Y-90373601D01*
X99999560Y-90349776D01*
X100000000Y-90345308D01*
X100000440Y-90349776D01*
G37*
X100000440Y-90349776D02*
X100007667Y-90373601D01*
X100019403Y-90395557D01*
X100035197Y-90414803D01*
X101620394Y-92000000D01*
X100035197Y-93585197D01*
X100019403Y-93604443D01*
X100007667Y-93626399D01*
X100000440Y-93650224D01*
X100000000Y-93654692D01*
X99999560Y-93650224D01*
X99992333Y-93626399D01*
X99980597Y-93604443D01*
X99964803Y-93585197D01*
X98379606Y-92000000D01*
X99964803Y-90414803D01*
X99980597Y-90395557D01*
X99992333Y-90373601D01*
X99999560Y-90349776D01*
X100000000Y-90345308D01*
X100000440Y-90349776D01*
G36*
X100892504Y-87249412D02*
G01*
X101621616Y-87998778D01*
X100035197Y-89585197D01*
X100019403Y-89604443D01*
X100007667Y-89626399D01*
X100000440Y-89650224D01*
X100000000Y-89654692D01*
X99999560Y-89650224D01*
X99992333Y-89626399D01*
X99980597Y-89604443D01*
X99964803Y-89585197D01*
X98378384Y-87998778D01*
X99112817Y-87243943D01*
X100176210Y-87200094D01*
X100892504Y-87249412D01*
G37*
X100892504Y-87249412D02*
X101621616Y-87998778D01*
X100035197Y-89585197D01*
X100019403Y-89604443D01*
X100007667Y-89626399D01*
X100000440Y-89650224D01*
X100000000Y-89654692D01*
X99999560Y-89650224D01*
X99992333Y-89626399D01*
X99980597Y-89604443D01*
X99964803Y-89585197D01*
X98378384Y-87998778D01*
X99112817Y-87243943D01*
X100176210Y-87200094D01*
X100892504Y-87249412D01*
M02*
