G04 #@! TF.GenerationSoftware,KiCad,Pcbnew,(5.1.6)-1*
G04 #@! TF.CreationDate,2020-08-30T18:04:45+02:00*
G04 #@! TF.ProjectId,Freude_Touchpad,46726575-6465-45f5-946f-756368706164,rev?*
G04 #@! TF.SameCoordinates,Original*
G04 #@! TF.FileFunction,Soldermask,Top*
G04 #@! TF.FilePolarity,Negative*
%FSLAX46Y46*%
G04 Gerber Fmt 4.6, Leading zero omitted, Abs format (unit mm)*
G04 Created by KiCad (PCBNEW (5.1.6)-1) date 2020-08-30 18:04:45*
%MOMM*%
%LPD*%
G01*
G04 APERTURE LIST*
%ADD10R,0.800000X1.000000*%
%ADD11R,1.000000X0.800000*%
%ADD12C,0.100000*%
%ADD13R,0.950000X0.700000*%
%ADD14R,0.700000X0.950000*%
%ADD15R,1.100000X0.700000*%
%ADD16R,1.400000X0.700000*%
G04 APERTURE END LIST*
D10*
X104450000Y-102800000D03*
X103550000Y-102800000D03*
X99550000Y-100350000D03*
X100450000Y-100350000D03*
X102800000Y-104000000D03*
X101900000Y-104000000D03*
X101850000Y-102800000D03*
X102750000Y-102800000D03*
X103600000Y-104000000D03*
X104500000Y-104000000D03*
D11*
X105450000Y-103750000D03*
X105450000Y-104650000D03*
D10*
X105250000Y-102800000D03*
X106150000Y-102800000D03*
D12*
G36*
X101458188Y-100161585D02*
G01*
X101469569Y-100124066D01*
X101488051Y-100089489D01*
X101512924Y-100059182D01*
X101543231Y-100034309D01*
X101577808Y-100015827D01*
X101615327Y-100004446D01*
X101654345Y-100000603D01*
X102204345Y-100000603D01*
X102243363Y-100004446D01*
X102280882Y-100015827D01*
X102315459Y-100034309D01*
X102345766Y-100059182D01*
X102370639Y-100089489D01*
X102389121Y-100124066D01*
X102400502Y-100161585D01*
X102404345Y-100200603D01*
X102404345Y-100350603D01*
X102400502Y-100389621D01*
X102389121Y-100427140D01*
X102370639Y-100461717D01*
X102345766Y-100492024D01*
X102195766Y-100642024D01*
X102165459Y-100666897D01*
X102130882Y-100685379D01*
X102093363Y-100696760D01*
X102054345Y-100700603D01*
X101654345Y-100700603D01*
X101615327Y-100696760D01*
X101577808Y-100685379D01*
X101543231Y-100666897D01*
X101512924Y-100642024D01*
X101488051Y-100611717D01*
X101469569Y-100577140D01*
X101458188Y-100539621D01*
X101454345Y-100500603D01*
X101454345Y-100200603D01*
X101458188Y-100161585D01*
G37*
D13*
X101929345Y-99850603D03*
X101929345Y-99350603D03*
X101929345Y-98850603D03*
X101929345Y-98350603D03*
X101929345Y-97850603D03*
D12*
G36*
X101458188Y-97161585D02*
G01*
X101469569Y-97124066D01*
X101488051Y-97089489D01*
X101512924Y-97059182D01*
X101543231Y-97034309D01*
X101577808Y-97015827D01*
X101615327Y-97004446D01*
X101654345Y-97000603D01*
X102054345Y-97000603D01*
X102093363Y-97004446D01*
X102130882Y-97015827D01*
X102165459Y-97034309D01*
X102195766Y-97059182D01*
X102345766Y-97209182D01*
X102370639Y-97239489D01*
X102389121Y-97274066D01*
X102400502Y-97311585D01*
X102404345Y-97350603D01*
X102404345Y-97500603D01*
X102400502Y-97539621D01*
X102389121Y-97577140D01*
X102370639Y-97611717D01*
X102345766Y-97642024D01*
X102315459Y-97666897D01*
X102280882Y-97685379D01*
X102243363Y-97696760D01*
X102204345Y-97700603D01*
X101654345Y-97700603D01*
X101615327Y-97696760D01*
X101577808Y-97685379D01*
X101543231Y-97666897D01*
X101512924Y-97642024D01*
X101488051Y-97611717D01*
X101469569Y-97577140D01*
X101458188Y-97539621D01*
X101454345Y-97500603D01*
X101454345Y-97200603D01*
X101458188Y-97161585D01*
G37*
G36*
X102265327Y-97446760D02*
G01*
X102227808Y-97435379D01*
X102193231Y-97416897D01*
X102162924Y-97392024D01*
X102012924Y-97242024D01*
X101988051Y-97211717D01*
X101969569Y-97177140D01*
X101958188Y-97139621D01*
X101954345Y-97100603D01*
X101954345Y-96700603D01*
X101958188Y-96661585D01*
X101969569Y-96624066D01*
X101988051Y-96589489D01*
X102012924Y-96559182D01*
X102043231Y-96534309D01*
X102077808Y-96515827D01*
X102115327Y-96504446D01*
X102154345Y-96500603D01*
X102454345Y-96500603D01*
X102493363Y-96504446D01*
X102530882Y-96515827D01*
X102565459Y-96534309D01*
X102595766Y-96559182D01*
X102620639Y-96589489D01*
X102639121Y-96624066D01*
X102650502Y-96661585D01*
X102654345Y-96700603D01*
X102654345Y-97250603D01*
X102650502Y-97289621D01*
X102639121Y-97327140D01*
X102620639Y-97361717D01*
X102595766Y-97392024D01*
X102565459Y-97416897D01*
X102530882Y-97435379D01*
X102493363Y-97446760D01*
X102454345Y-97450603D01*
X102304345Y-97450603D01*
X102265327Y-97446760D01*
G37*
D14*
X102804345Y-96975603D03*
X103304345Y-96975603D03*
X103804345Y-96975603D03*
X104304345Y-96975603D03*
X104804345Y-96975603D03*
D12*
G36*
X105115327Y-97446760D02*
G01*
X105077808Y-97435379D01*
X105043231Y-97416897D01*
X105012924Y-97392024D01*
X104988051Y-97361717D01*
X104969569Y-97327140D01*
X104958188Y-97289621D01*
X104954345Y-97250603D01*
X104954345Y-96700603D01*
X104958188Y-96661585D01*
X104969569Y-96624066D01*
X104988051Y-96589489D01*
X105012924Y-96559182D01*
X105043231Y-96534309D01*
X105077808Y-96515827D01*
X105115327Y-96504446D01*
X105154345Y-96500603D01*
X105454345Y-96500603D01*
X105493363Y-96504446D01*
X105530882Y-96515827D01*
X105565459Y-96534309D01*
X105595766Y-96559182D01*
X105620639Y-96589489D01*
X105639121Y-96624066D01*
X105650502Y-96661585D01*
X105654345Y-96700603D01*
X105654345Y-97100603D01*
X105650502Y-97139621D01*
X105639121Y-97177140D01*
X105620639Y-97211717D01*
X105595766Y-97242024D01*
X105445766Y-97392024D01*
X105415459Y-97416897D01*
X105380882Y-97435379D01*
X105343363Y-97446760D01*
X105304345Y-97450603D01*
X105154345Y-97450603D01*
X105115327Y-97446760D01*
G37*
G36*
X105208188Y-97311585D02*
G01*
X105219569Y-97274066D01*
X105238051Y-97239489D01*
X105262924Y-97209182D01*
X105412924Y-97059182D01*
X105443231Y-97034309D01*
X105477808Y-97015827D01*
X105515327Y-97004446D01*
X105554345Y-97000603D01*
X105954345Y-97000603D01*
X105993363Y-97004446D01*
X106030882Y-97015827D01*
X106065459Y-97034309D01*
X106095766Y-97059182D01*
X106120639Y-97089489D01*
X106139121Y-97124066D01*
X106150502Y-97161585D01*
X106154345Y-97200603D01*
X106154345Y-97500603D01*
X106150502Y-97539621D01*
X106139121Y-97577140D01*
X106120639Y-97611717D01*
X106095766Y-97642024D01*
X106065459Y-97666897D01*
X106030882Y-97685379D01*
X105993363Y-97696760D01*
X105954345Y-97700603D01*
X105404345Y-97700603D01*
X105365327Y-97696760D01*
X105327808Y-97685379D01*
X105293231Y-97666897D01*
X105262924Y-97642024D01*
X105238051Y-97611717D01*
X105219569Y-97577140D01*
X105208188Y-97539621D01*
X105204345Y-97500603D01*
X105204345Y-97350603D01*
X105208188Y-97311585D01*
G37*
D13*
X105679345Y-97850603D03*
X105679345Y-98350603D03*
X105679345Y-98850603D03*
X105679345Y-99350603D03*
X105679345Y-99850603D03*
D12*
G36*
X105208188Y-100161585D02*
G01*
X105219569Y-100124066D01*
X105238051Y-100089489D01*
X105262924Y-100059182D01*
X105293231Y-100034309D01*
X105327808Y-100015827D01*
X105365327Y-100004446D01*
X105404345Y-100000603D01*
X105954345Y-100000603D01*
X105993363Y-100004446D01*
X106030882Y-100015827D01*
X106065459Y-100034309D01*
X106095766Y-100059182D01*
X106120639Y-100089489D01*
X106139121Y-100124066D01*
X106150502Y-100161585D01*
X106154345Y-100200603D01*
X106154345Y-100500603D01*
X106150502Y-100539621D01*
X106139121Y-100577140D01*
X106120639Y-100611717D01*
X106095766Y-100642024D01*
X106065459Y-100666897D01*
X106030882Y-100685379D01*
X105993363Y-100696760D01*
X105954345Y-100700603D01*
X105554345Y-100700603D01*
X105515327Y-100696760D01*
X105477808Y-100685379D01*
X105443231Y-100666897D01*
X105412924Y-100642024D01*
X105262924Y-100492024D01*
X105238051Y-100461717D01*
X105219569Y-100427140D01*
X105208188Y-100389621D01*
X105204345Y-100350603D01*
X105204345Y-100200603D01*
X105208188Y-100161585D01*
G37*
G36*
X105115327Y-101196760D02*
G01*
X105077808Y-101185379D01*
X105043231Y-101166897D01*
X105012924Y-101142024D01*
X104988051Y-101111717D01*
X104969569Y-101077140D01*
X104958188Y-101039621D01*
X104954345Y-101000603D01*
X104954345Y-100450603D01*
X104958188Y-100411585D01*
X104969569Y-100374066D01*
X104988051Y-100339489D01*
X105012924Y-100309182D01*
X105043231Y-100284309D01*
X105077808Y-100265827D01*
X105115327Y-100254446D01*
X105154345Y-100250603D01*
X105304345Y-100250603D01*
X105343363Y-100254446D01*
X105380882Y-100265827D01*
X105415459Y-100284309D01*
X105445766Y-100309182D01*
X105595766Y-100459182D01*
X105620639Y-100489489D01*
X105639121Y-100524066D01*
X105650502Y-100561585D01*
X105654345Y-100600603D01*
X105654345Y-101000603D01*
X105650502Y-101039621D01*
X105639121Y-101077140D01*
X105620639Y-101111717D01*
X105595766Y-101142024D01*
X105565459Y-101166897D01*
X105530882Y-101185379D01*
X105493363Y-101196760D01*
X105454345Y-101200603D01*
X105154345Y-101200603D01*
X105115327Y-101196760D01*
G37*
D14*
X104804345Y-100725603D03*
X104304345Y-100725603D03*
X103804345Y-100725603D03*
X103304345Y-100725603D03*
X102804345Y-100725603D03*
D12*
G36*
X102115327Y-101196760D02*
G01*
X102077808Y-101185379D01*
X102043231Y-101166897D01*
X102012924Y-101142024D01*
X101988051Y-101111717D01*
X101969569Y-101077140D01*
X101958188Y-101039621D01*
X101954345Y-101000603D01*
X101954345Y-100600603D01*
X101958188Y-100561585D01*
X101969569Y-100524066D01*
X101988051Y-100489489D01*
X102012924Y-100459182D01*
X102162924Y-100309182D01*
X102193231Y-100284309D01*
X102227808Y-100265827D01*
X102265327Y-100254446D01*
X102304345Y-100250603D01*
X102454345Y-100250603D01*
X102493363Y-100254446D01*
X102530882Y-100265827D01*
X102565459Y-100284309D01*
X102595766Y-100309182D01*
X102620639Y-100339489D01*
X102639121Y-100374066D01*
X102650502Y-100411585D01*
X102654345Y-100450603D01*
X102654345Y-101000603D01*
X102650502Y-101039621D01*
X102639121Y-101077140D01*
X102620639Y-101111717D01*
X102595766Y-101142024D01*
X102565459Y-101166897D01*
X102530882Y-101185379D01*
X102493363Y-101196760D01*
X102454345Y-101200603D01*
X102154345Y-101200603D01*
X102115327Y-101196760D01*
G37*
G36*
G01*
X93700000Y-101600000D02*
X92950000Y-101600000D01*
G75*
G02*
X92775000Y-101425000I0J175000D01*
G01*
X92775000Y-101075000D01*
G75*
G02*
X92950000Y-100900000I175000J0D01*
G01*
X93700000Y-100900000D01*
G75*
G02*
X93875000Y-101075000I0J-175000D01*
G01*
X93875000Y-101425000D01*
G75*
G02*
X93700000Y-101600000I-175000J0D01*
G01*
G37*
D15*
X93325000Y-100750000D03*
X93325000Y-100250000D03*
X93325000Y-99750000D03*
D16*
X95975000Y-102040000D03*
X95975000Y-97960000D03*
D15*
X93325000Y-99250000D03*
X93325000Y-98750000D03*
M02*
