G04 #@! TF.GenerationSoftware,KiCad,Pcbnew,(5.1.6)-1*
G04 #@! TF.CreationDate,2020-08-31T21:17:31+02:00*
G04 #@! TF.ProjectId,Freude_Touchpad,46726575-6465-45f5-946f-756368706164,rev?*
G04 #@! TF.SameCoordinates,Original*
G04 #@! TF.FileFunction,Soldermask,Top*
G04 #@! TF.FilePolarity,Negative*
%FSLAX46Y46*%
G04 Gerber Fmt 4.6, Leading zero omitted, Abs format (unit mm)*
G04 Created by KiCad (PCBNEW (5.1.6)-1) date 2020-08-31 21:17:31*
%MOMM*%
%LPD*%
G01*
G04 APERTURE LIST*
%ADD10R,0.390000X0.590000*%
%ADD11R,0.590000X0.390000*%
%ADD12C,0.100000*%
%ADD13R,0.540000X0.290000*%
%ADD14R,0.290000X0.540000*%
%ADD15R,0.690000X0.290000*%
%ADD16R,0.990000X0.290000*%
G04 APERTURE END LIST*
D10*
X104450000Y-102800000D03*
X103550000Y-102800000D03*
X99550000Y-100350000D03*
X100450000Y-100350000D03*
X102800000Y-104000000D03*
X101900000Y-104000000D03*
X101850000Y-102800000D03*
X102750000Y-102800000D03*
X103600000Y-104000000D03*
X104500000Y-104000000D03*
D11*
X105450000Y-103750000D03*
X105450000Y-104650000D03*
D10*
X105250000Y-102800000D03*
X106150000Y-102800000D03*
D12*
G36*
X102199345Y-100205603D02*
G01*
X102199345Y-100348531D01*
X102052273Y-100495603D01*
X101659345Y-100495603D01*
X101659345Y-100205603D01*
X102199345Y-100205603D01*
G37*
D13*
X101929345Y-99850603D03*
X101929345Y-99350603D03*
X101929345Y-98850603D03*
X101929345Y-98350603D03*
X101929345Y-97850603D03*
D12*
G36*
X102052273Y-97205603D02*
G01*
X102199345Y-97352675D01*
X102199345Y-97495603D01*
X101659345Y-97495603D01*
X101659345Y-97205603D01*
X102052273Y-97205603D01*
G37*
G36*
X102159345Y-97098531D02*
G01*
X102159345Y-96705603D01*
X102449345Y-96705603D01*
X102449345Y-97245603D01*
X102306417Y-97245603D01*
X102159345Y-97098531D01*
G37*
D14*
X102804345Y-96975603D03*
X103304345Y-96975603D03*
X103804345Y-96975603D03*
X104304345Y-96975603D03*
X104804345Y-96975603D03*
D12*
G36*
X105159345Y-96705603D02*
G01*
X105449345Y-96705603D01*
X105449345Y-97098531D01*
X105302273Y-97245603D01*
X105159345Y-97245603D01*
X105159345Y-96705603D01*
G37*
G36*
X105556417Y-97205603D02*
G01*
X105949345Y-97205603D01*
X105949345Y-97495603D01*
X105409345Y-97495603D01*
X105409345Y-97352675D01*
X105556417Y-97205603D01*
G37*
D13*
X105679345Y-97850603D03*
X105679345Y-98350603D03*
X105679345Y-98850603D03*
X105679345Y-99350603D03*
X105679345Y-99850603D03*
D12*
G36*
X105949345Y-100205603D02*
G01*
X105949345Y-100495603D01*
X105556417Y-100495603D01*
X105409345Y-100348531D01*
X105409345Y-100205603D01*
X105949345Y-100205603D01*
G37*
G36*
X105159345Y-100455603D02*
G01*
X105302273Y-100455603D01*
X105449345Y-100602675D01*
X105449345Y-100995603D01*
X105159345Y-100995603D01*
X105159345Y-100455603D01*
G37*
D14*
X104804345Y-100725603D03*
X104304345Y-100725603D03*
X103804345Y-100725603D03*
X103304345Y-100725603D03*
X102804345Y-100725603D03*
D12*
G36*
X102159345Y-100602675D02*
G01*
X102306417Y-100455603D01*
X102449345Y-100455603D01*
X102449345Y-100995603D01*
X102159345Y-100995603D01*
X102159345Y-100602675D01*
G37*
G36*
G01*
X93597500Y-101395000D02*
X93052500Y-101395000D01*
G75*
G02*
X92980000Y-101322500I0J72500D01*
G01*
X92980000Y-101177500D01*
G75*
G02*
X93052500Y-101105000I72500J0D01*
G01*
X93597500Y-101105000D01*
G75*
G02*
X93670000Y-101177500I0J-72500D01*
G01*
X93670000Y-101322500D01*
G75*
G02*
X93597500Y-101395000I-72500J0D01*
G01*
G37*
D15*
X93325000Y-100750000D03*
X93325000Y-100250000D03*
X93325000Y-99750000D03*
D16*
X95975000Y-102040000D03*
X95975000Y-97960000D03*
D15*
X93325000Y-99250000D03*
X93325000Y-98750000D03*
M02*
