G04 #@! TF.GenerationSoftware,KiCad,Pcbnew,(5.1.6)-1*
G04 #@! TF.CreationDate,2020-08-31T21:17:31+02:00*
G04 #@! TF.ProjectId,Freude_Touchpad,46726575-6465-45f5-946f-756368706164,rev?*
G04 #@! TF.SameCoordinates,Original*
G04 #@! TF.FileFunction,Copper,L3,Inr*
G04 #@! TF.FilePolarity,Positive*
%FSLAX46Y46*%
G04 Gerber Fmt 4.6, Leading zero omitted, Abs format (unit mm)*
G04 Created by KiCad (PCBNEW (5.1.6)-1) date 2020-08-31 21:17:31*
%MOMM*%
%LPD*%
G01*
G04 APERTURE LIST*
G04 #@! TA.AperFunction,ViaPad*
%ADD10C,0.450000*%
G04 #@! TD*
G04 #@! TA.AperFunction,ViaPad*
%ADD11C,0.400000*%
G04 #@! TD*
G04 #@! TA.AperFunction,Conductor*
%ADD12C,0.250000*%
G04 #@! TD*
G04 APERTURE END LIST*
D10*
X95250000Y-90000000D03*
X96750000Y-90000000D03*
X99250000Y-90000000D03*
X100750000Y-90000000D03*
X103250000Y-90000000D03*
X104750000Y-90000000D03*
X108750000Y-94000000D03*
X107250000Y-94000000D03*
X104750000Y-94000000D03*
X103250000Y-94000000D03*
X100750000Y-94000000D03*
D11*
X99250000Y-94000000D03*
D10*
X96750000Y-94000000D03*
X95250000Y-94000000D03*
X92750000Y-94000000D03*
D11*
X91250000Y-94000000D03*
D10*
X91250000Y-98000000D03*
X92750000Y-98000000D03*
X95125000Y-98000000D03*
X96850000Y-98000000D03*
D11*
X99250000Y-98000000D03*
D10*
X100750000Y-98000000D03*
X103250000Y-98000000D03*
X104750000Y-98000000D03*
X107250000Y-98000000D03*
X108750000Y-98000000D03*
X108750000Y-102000000D03*
X107250000Y-102000000D03*
X104750000Y-102000000D03*
X103250000Y-102000000D03*
X100750000Y-102000000D03*
X99250000Y-102000000D03*
X96850000Y-102000000D03*
X95125000Y-102000000D03*
X92750000Y-102000000D03*
X91250000Y-102000000D03*
X104804948Y-98700000D03*
X91250000Y-106000000D03*
X92750000Y-106000000D03*
X95250000Y-106000000D03*
X96750000Y-106000000D03*
X99250000Y-106000000D03*
X100750000Y-106000000D03*
X103250000Y-106000000D03*
X104750000Y-106000000D03*
X107250000Y-106000000D03*
X108750000Y-106000000D03*
X107400000Y-98600000D03*
X104750000Y-110000000D03*
X103250000Y-110000000D03*
X100750000Y-110000000D03*
X99250000Y-110000000D03*
X96750000Y-110000000D03*
X95250000Y-110000000D03*
X106900000Y-99100000D03*
X89400000Y-96000000D03*
X93374996Y-96000000D03*
X97349988Y-96000012D03*
X101400000Y-96000000D03*
X100649397Y-97350603D03*
X103400000Y-99100000D03*
X99200000Y-98800000D03*
X106810466Y-99981708D03*
X110700000Y-100000000D03*
X101100000Y-99100000D03*
D12*
X100649397Y-97350603D02*
X102350603Y-97350603D01*
X102350603Y-97350603D02*
X102700000Y-97700000D01*
X102700000Y-97700000D02*
X102700000Y-98400000D01*
X102700000Y-98400000D02*
X103400000Y-99100000D01*
X99200000Y-98800000D02*
X99200000Y-98800000D01*
X99200000Y-98800000D02*
X100381708Y-99981708D01*
X100381708Y-99981708D02*
X106810466Y-99981708D01*
X110700000Y-100000000D02*
X110256706Y-99556706D01*
X101556706Y-99556706D02*
X101100000Y-99100000D01*
X110256706Y-99556706D02*
X101556706Y-99556706D01*
M02*
