G04 #@! TF.GenerationSoftware,KiCad,Pcbnew,(5.1.6)-1*
G04 #@! TF.CreationDate,2020-08-31T21:17:31+02:00*
G04 #@! TF.ProjectId,Freude_Touchpad,46726575-6465-45f5-946f-756368706164,rev?*
G04 #@! TF.SameCoordinates,Original*
G04 #@! TF.FileFunction,Legend,Bot*
G04 #@! TF.FilePolarity,Positive*
%FSLAX46Y46*%
G04 Gerber Fmt 4.6, Leading zero omitted, Abs format (unit mm)*
G04 Created by KiCad (PCBNEW (5.1.6)-1) date 2020-08-31 21:17:31*
%MOMM*%
%LPD*%
G01*
G04 APERTURE LIST*
%ADD10C,0.300000*%
G04 APERTURE END LIST*
D10*
X128407142Y-87778571D02*
X128550000Y-87778571D01*
X128692857Y-87850000D01*
X128764285Y-87921428D01*
X128835714Y-88064285D01*
X128907142Y-88350000D01*
X128907142Y-88707142D01*
X128835714Y-88992857D01*
X128764285Y-89135714D01*
X128692857Y-89207142D01*
X128550000Y-89278571D01*
X128407142Y-89278571D01*
X128264285Y-89207142D01*
X128192857Y-89135714D01*
X128121428Y-88992857D01*
X128050000Y-88707142D01*
X128050000Y-88350000D01*
X128121428Y-88064285D01*
X128192857Y-87921428D01*
X128264285Y-87850000D01*
X128407142Y-87778571D01*
X129550000Y-89135714D02*
X129621428Y-89207142D01*
X129550000Y-89278571D01*
X129478571Y-89207142D01*
X129550000Y-89135714D01*
X129550000Y-89278571D01*
X130121428Y-87778571D02*
X131050000Y-87778571D01*
X130550000Y-88350000D01*
X130764285Y-88350000D01*
X130907142Y-88421428D01*
X130978571Y-88492857D01*
X131050000Y-88635714D01*
X131050000Y-88992857D01*
X130978571Y-89135714D01*
X130907142Y-89207142D01*
X130764285Y-89278571D01*
X130335714Y-89278571D01*
X130192857Y-89207142D01*
X130121428Y-89135714D01*
X131978571Y-87778571D02*
X132121428Y-87778571D01*
X132264285Y-87850000D01*
X132335714Y-87921428D01*
X132407142Y-88064285D01*
X132478571Y-88350000D01*
X132478571Y-88707142D01*
X132407142Y-88992857D01*
X132335714Y-89135714D01*
X132264285Y-89207142D01*
X132121428Y-89278571D01*
X131978571Y-89278571D01*
X131835714Y-89207142D01*
X131764285Y-89135714D01*
X131692857Y-88992857D01*
X131621428Y-88707142D01*
X131621428Y-88350000D01*
X131692857Y-88064285D01*
X131764285Y-87921428D01*
X131835714Y-87850000D01*
X131978571Y-87778571D01*
X133407142Y-87778571D02*
X133550000Y-87778571D01*
X133692857Y-87850000D01*
X133764285Y-87921428D01*
X133835714Y-88064285D01*
X133907142Y-88350000D01*
X133907142Y-88707142D01*
X133835714Y-88992857D01*
X133764285Y-89135714D01*
X133692857Y-89207142D01*
X133550000Y-89278571D01*
X133407142Y-89278571D01*
X133264285Y-89207142D01*
X133192857Y-89135714D01*
X133121428Y-88992857D01*
X133050000Y-88707142D01*
X133050000Y-88350000D01*
X133121428Y-88064285D01*
X133192857Y-87921428D01*
X133264285Y-87850000D01*
X133407142Y-87778571D01*
X135692857Y-89278571D02*
X135692857Y-88278571D01*
X135692857Y-88421428D02*
X135764285Y-88350000D01*
X135907142Y-88278571D01*
X136121428Y-88278571D01*
X136264285Y-88350000D01*
X136335714Y-88492857D01*
X136335714Y-89278571D01*
X136335714Y-88492857D02*
X136407142Y-88350000D01*
X136550000Y-88278571D01*
X136764285Y-88278571D01*
X136907142Y-88350000D01*
X136978571Y-88492857D01*
X136978571Y-89278571D01*
X137692857Y-89278571D02*
X137692857Y-88278571D01*
X137692857Y-88421428D02*
X137764285Y-88350000D01*
X137907142Y-88278571D01*
X138121428Y-88278571D01*
X138264285Y-88350000D01*
X138335714Y-88492857D01*
X138335714Y-89278571D01*
X138335714Y-88492857D02*
X138407142Y-88350000D01*
X138550000Y-88278571D01*
X138764285Y-88278571D01*
X138907142Y-88350000D01*
X138978571Y-88492857D01*
X138978571Y-89278571D01*
X133400000Y-86500000D02*
X133700000Y-86500000D01*
X133400000Y-86500000D02*
X133400000Y-87086421D01*
X133700000Y-86500000D02*
X133700000Y-87086421D01*
X133700000Y-86500000D02*
X132573496Y-87086421D01*
X133700000Y-86500000D02*
X132573496Y-85913579D01*
X133400000Y-86500000D02*
X134526504Y-87086421D01*
X133400000Y-86500000D02*
X134526504Y-85913579D01*
M02*
