G04 #@! TF.GenerationSoftware,KiCad,Pcbnew,(5.1.6)-1*
G04 #@! TF.CreationDate,2020-08-31T21:17:31+02:00*
G04 #@! TF.ProjectId,Freude_Touchpad,46726575-6465-45f5-946f-756368706164,rev?*
G04 #@! TF.SameCoordinates,Original*
G04 #@! TF.FileFunction,Copper,L2,Inr*
G04 #@! TF.FilePolarity,Positive*
%FSLAX46Y46*%
G04 Gerber Fmt 4.6, Leading zero omitted, Abs format (unit mm)*
G04 Created by KiCad (PCBNEW (5.1.6)-1) date 2020-08-31 21:17:31*
%MOMM*%
%LPD*%
G01*
G04 APERTURE LIST*
G04 #@! TA.AperFunction,ViaPad*
%ADD10C,0.450000*%
G04 #@! TD*
G04 #@! TA.AperFunction,ViaPad*
%ADD11C,0.400000*%
G04 #@! TD*
G04 #@! TA.AperFunction,Conductor*
%ADD12C,0.250000*%
G04 #@! TD*
G04 APERTURE END LIST*
D10*
X95250000Y-90000000D03*
X96750000Y-90000000D03*
X99250000Y-90000000D03*
X100750000Y-90000000D03*
X103250000Y-90000000D03*
X104750000Y-90000000D03*
X108750000Y-94000000D03*
X107250000Y-94000000D03*
X104750000Y-94000000D03*
X103250000Y-94000000D03*
X100750000Y-94000000D03*
D11*
X99250000Y-94000000D03*
D10*
X96750000Y-94000000D03*
X95250000Y-94000000D03*
X92750000Y-94000000D03*
D11*
X91250000Y-94000000D03*
D10*
X91250000Y-98000000D03*
X92750000Y-98000000D03*
X95125000Y-98000000D03*
X96850000Y-98000000D03*
D11*
X99250000Y-98000000D03*
D10*
X100750000Y-98000000D03*
X103250000Y-98000000D03*
X104750000Y-98000000D03*
X107250000Y-98000000D03*
X108750000Y-98000000D03*
X108750000Y-102000000D03*
X107250000Y-102000000D03*
X104750000Y-102000000D03*
X103250000Y-102000000D03*
X100750000Y-102000000D03*
X99250000Y-102000000D03*
X96850000Y-102000000D03*
X95125000Y-102000000D03*
X92750000Y-102000000D03*
X91250000Y-102000000D03*
X104804948Y-98700000D03*
X91250000Y-106000000D03*
X92750000Y-106000000D03*
X95250000Y-106000000D03*
X96750000Y-106000000D03*
X99250000Y-106000000D03*
X100750000Y-106000000D03*
X103250000Y-106000000D03*
X104750000Y-106000000D03*
X107250000Y-106000000D03*
X108750000Y-106000000D03*
X107400000Y-98600000D03*
X104750000Y-110000000D03*
X103250000Y-110000000D03*
X100750000Y-110000000D03*
X99250000Y-110000000D03*
X96750000Y-110000000D03*
X95250000Y-110000000D03*
X106900000Y-99100000D03*
X89400000Y-96000000D03*
X93374996Y-96000000D03*
X97349988Y-96000012D03*
X101400000Y-96000000D03*
X100649397Y-97350603D03*
X103400000Y-99100000D03*
X99200000Y-98800000D03*
X106810466Y-99981708D03*
X110700000Y-100000000D03*
X101100000Y-99100000D03*
D12*
X99250000Y-90000000D02*
X100750000Y-90000000D01*
X103250000Y-90000000D02*
X104750000Y-90000000D01*
X95250000Y-90000000D02*
X96750000Y-90000000D01*
X91250000Y-94000000D02*
X92750000Y-94000000D01*
X95250000Y-94000000D02*
X96750000Y-94000000D01*
X99250000Y-94000000D02*
X100750000Y-94000000D01*
X103250000Y-94000000D02*
X104750000Y-94000000D01*
X107250000Y-94000000D02*
X108750000Y-94000000D01*
X91250000Y-98000000D02*
X92750000Y-98000000D01*
X95250000Y-98000000D02*
X96750000Y-98000000D01*
X99250000Y-98000000D02*
X100750000Y-98000000D01*
X103250000Y-98000000D02*
X104750000Y-98000000D01*
X107250000Y-98000000D02*
X108750000Y-98000000D01*
X108750000Y-102000000D02*
X107250000Y-102000000D01*
X104750000Y-102000000D02*
X103250000Y-102000000D01*
X100750000Y-102000000D02*
X99250000Y-102000000D01*
X92750000Y-102000000D02*
X91250000Y-102000000D01*
X104804948Y-101945052D02*
X104750000Y-102000000D01*
X104804948Y-98700000D02*
X104804948Y-101945052D01*
X96750000Y-102000000D02*
X95125000Y-102000000D01*
X91250000Y-106000000D02*
X92750000Y-106000000D01*
X95250000Y-106000000D02*
X96750000Y-106000000D01*
X99250000Y-106000000D02*
X100750000Y-106000000D01*
X103250000Y-106000000D02*
X104750000Y-106000000D01*
X107250000Y-106000000D02*
X108750000Y-106000000D01*
X109150000Y-105600000D02*
X108750000Y-106000000D01*
X109150000Y-103350000D02*
X109150000Y-105600000D01*
X109600000Y-102900000D02*
X109150000Y-103350000D01*
X109600000Y-98900000D02*
X109600000Y-102900000D01*
X107400000Y-98600000D02*
X109300000Y-98600000D01*
X109300000Y-98600000D02*
X109600000Y-98900000D01*
X104750000Y-110000000D02*
X103250000Y-110000000D01*
X99250000Y-110000000D02*
X100750000Y-110000000D01*
X95250000Y-110000000D02*
X96750000Y-110000000D01*
X105900000Y-100100000D02*
X106900000Y-99100000D01*
X105900000Y-108100000D02*
X105900000Y-100100000D01*
X104750000Y-110000000D02*
X104750000Y-109250000D01*
X104750000Y-109250000D02*
X105900000Y-108100000D01*
M02*
