G04 #@! TF.GenerationSoftware,KiCad,Pcbnew,(5.1.6)-1*
G04 #@! TF.CreationDate,2020-08-31T21:17:31+02:00*
G04 #@! TF.ProjectId,Freude_Touchpad,46726575-6465-45f5-946f-756368706164,rev?*
G04 #@! TF.SameCoordinates,Original*
G04 #@! TF.FileFunction,Legend,Top*
G04 #@! TF.FilePolarity,Positive*
%FSLAX46Y46*%
G04 Gerber Fmt 4.6, Leading zero omitted, Abs format (unit mm)*
G04 Created by KiCad (PCBNEW (5.1.6)-1) date 2020-08-31 21:17:31*
%MOMM*%
%LPD*%
G01*
G04 APERTURE LIST*
%ADD10C,0.150000*%
%ADD11C,0.120000*%
%ADD12C,0.300000*%
%ADD13C,0.200000*%
%ADD14C,0.400000*%
G04 APERTURE END LIST*
D10*
X103850000Y-105500000D02*
X103850000Y-109500000D01*
X97000000Y-105500000D02*
X103850000Y-105500000D01*
D11*
X103750000Y-103330000D02*
X104250000Y-103330000D01*
X104250000Y-102270000D02*
X103750000Y-102270000D01*
X100250000Y-99820000D02*
X99750000Y-99820000D01*
X99750000Y-100880000D02*
X100250000Y-100880000D01*
X102100000Y-104530000D02*
X102600000Y-104530000D01*
X102600000Y-103470000D02*
X102100000Y-103470000D01*
X102550000Y-102270000D02*
X102050000Y-102270000D01*
X102050000Y-103330000D02*
X102550000Y-103330000D01*
X104300000Y-103470000D02*
X103800000Y-103470000D01*
X103800000Y-104530000D02*
X104300000Y-104530000D01*
X105980000Y-104450000D02*
X105980000Y-103950000D01*
X104920000Y-103950000D02*
X104920000Y-104450000D01*
X105950000Y-102270000D02*
X105450000Y-102270000D01*
X105450000Y-103330000D02*
X105950000Y-103330000D01*
D12*
X101834729Y-100950603D02*
G75*
G03*
X101834729Y-100950603I-130384J0D01*
G01*
D10*
X105829345Y-100875603D02*
X105804345Y-100875603D01*
X105829345Y-100850603D02*
X105829345Y-100875603D01*
X105829345Y-96825603D02*
X105804345Y-96825603D01*
X105829345Y-96850603D02*
X105829345Y-96825603D01*
X101779345Y-96825603D02*
X101804345Y-96825603D01*
X101779345Y-96850603D02*
X101779345Y-96825603D01*
D13*
X96675000Y-102350000D02*
X96675000Y-97650000D01*
X96675000Y-102350000D02*
X92825000Y-102350000D01*
X92825000Y-102350000D02*
X92825000Y-97650000D01*
X96675000Y-97650000D02*
X92825000Y-97650000D01*
X92445711Y-101800000D02*
G75*
G03*
X92445711Y-101800000I-70711J0D01*
G01*
D14*
X93445711Y-101850000D02*
G75*
G03*
X93445711Y-101850000I-70711J0D01*
G01*
D10*
X100183333Y-107632142D02*
X100135714Y-107679761D01*
X99992857Y-107727380D01*
X99897619Y-107727380D01*
X99754761Y-107679761D01*
X99659523Y-107584523D01*
X99611904Y-107489285D01*
X99564285Y-107298809D01*
X99564285Y-107155952D01*
X99611904Y-106965476D01*
X99659523Y-106870238D01*
X99754761Y-106775000D01*
X99897619Y-106727380D01*
X99992857Y-106727380D01*
X100135714Y-106775000D01*
X100183333Y-106822619D01*
X101040476Y-107060714D02*
X101040476Y-107727380D01*
X100802380Y-106679761D02*
X100564285Y-107394047D01*
X101183333Y-107394047D01*
X99358333Y-99232142D02*
X99310714Y-99279761D01*
X99167857Y-99327380D01*
X99072619Y-99327380D01*
X98929761Y-99279761D01*
X98834523Y-99184523D01*
X98786904Y-99089285D01*
X98739285Y-98898809D01*
X98739285Y-98755952D01*
X98786904Y-98565476D01*
X98834523Y-98470238D01*
X98929761Y-98375000D01*
X99072619Y-98327380D01*
X99167857Y-98327380D01*
X99310714Y-98375000D01*
X99358333Y-98422619D01*
X100310714Y-99327380D02*
X99739285Y-99327380D01*
X100025000Y-99327380D02*
X100025000Y-98327380D01*
X99929761Y-98470238D01*
X99834523Y-98565476D01*
X99739285Y-98613095D01*
X97983333Y-109377380D02*
X97650000Y-108901190D01*
X97411904Y-109377380D02*
X97411904Y-108377380D01*
X97792857Y-108377380D01*
X97888095Y-108425000D01*
X97935714Y-108472619D01*
X97983333Y-108567857D01*
X97983333Y-108710714D01*
X97935714Y-108805952D01*
X97888095Y-108853571D01*
X97792857Y-108901190D01*
X97411904Y-108901190D01*
X98935714Y-109377380D02*
X98364285Y-109377380D01*
X98650000Y-109377380D02*
X98650000Y-108377380D01*
X98554761Y-108520238D01*
X98459523Y-108615476D01*
X98364285Y-108663095D01*
X97858333Y-107727380D02*
X97525000Y-107251190D01*
X97286904Y-107727380D02*
X97286904Y-106727380D01*
X97667857Y-106727380D01*
X97763095Y-106775000D01*
X97810714Y-106822619D01*
X97858333Y-106917857D01*
X97858333Y-107060714D01*
X97810714Y-107155952D01*
X97763095Y-107203571D01*
X97667857Y-107251190D01*
X97286904Y-107251190D01*
X98239285Y-106822619D02*
X98286904Y-106775000D01*
X98382142Y-106727380D01*
X98620238Y-106727380D01*
X98715476Y-106775000D01*
X98763095Y-106822619D01*
X98810714Y-106917857D01*
X98810714Y-107013095D01*
X98763095Y-107155952D01*
X98191666Y-107727380D01*
X98810714Y-107727380D01*
X100083333Y-109307142D02*
X100035714Y-109354761D01*
X99892857Y-109402380D01*
X99797619Y-109402380D01*
X99654761Y-109354761D01*
X99559523Y-109259523D01*
X99511904Y-109164285D01*
X99464285Y-108973809D01*
X99464285Y-108830952D01*
X99511904Y-108640476D01*
X99559523Y-108545238D01*
X99654761Y-108450000D01*
X99797619Y-108402380D01*
X99892857Y-108402380D01*
X100035714Y-108450000D01*
X100083333Y-108497619D01*
X100988095Y-108402380D02*
X100511904Y-108402380D01*
X100464285Y-108878571D01*
X100511904Y-108830952D01*
X100607142Y-108783333D01*
X100845238Y-108783333D01*
X100940476Y-108830952D01*
X100988095Y-108878571D01*
X101035714Y-108973809D01*
X101035714Y-109211904D01*
X100988095Y-109307142D01*
X100940476Y-109354761D01*
X100845238Y-109402380D01*
X100607142Y-109402380D01*
X100511904Y-109354761D01*
X100464285Y-109307142D01*
X103032142Y-109116666D02*
X103079761Y-109164285D01*
X103127380Y-109307142D01*
X103127380Y-109402380D01*
X103079761Y-109545238D01*
X102984523Y-109640476D01*
X102889285Y-109688095D01*
X102698809Y-109735714D01*
X102555952Y-109735714D01*
X102365476Y-109688095D01*
X102270238Y-109640476D01*
X102175000Y-109545238D01*
X102127380Y-109402380D01*
X102127380Y-109307142D01*
X102175000Y-109164285D01*
X102222619Y-109116666D01*
X102127380Y-108783333D02*
X102127380Y-108164285D01*
X102508333Y-108497619D01*
X102508333Y-108354761D01*
X102555952Y-108259523D01*
X102603571Y-108211904D01*
X102698809Y-108164285D01*
X102936904Y-108164285D01*
X103032142Y-108211904D01*
X103079761Y-108259523D01*
X103127380Y-108354761D01*
X103127380Y-108640476D01*
X103079761Y-108735714D01*
X103032142Y-108783333D01*
X102408333Y-107482142D02*
X102360714Y-107529761D01*
X102217857Y-107577380D01*
X102122619Y-107577380D01*
X101979761Y-107529761D01*
X101884523Y-107434523D01*
X101836904Y-107339285D01*
X101789285Y-107148809D01*
X101789285Y-107005952D01*
X101836904Y-106815476D01*
X101884523Y-106720238D01*
X101979761Y-106625000D01*
X102122619Y-106577380D01*
X102217857Y-106577380D01*
X102360714Y-106625000D01*
X102408333Y-106672619D01*
X102789285Y-106672619D02*
X102836904Y-106625000D01*
X102932142Y-106577380D01*
X103170238Y-106577380D01*
X103265476Y-106625000D01*
X103313095Y-106672619D01*
X103360714Y-106767857D01*
X103360714Y-106863095D01*
X103313095Y-107005952D01*
X102741666Y-107577380D01*
X103360714Y-107577380D01*
X103063095Y-95077380D02*
X103063095Y-95886904D01*
X103110714Y-95982142D01*
X103158333Y-96029761D01*
X103253571Y-96077380D01*
X103444047Y-96077380D01*
X103539285Y-96029761D01*
X103586904Y-95982142D01*
X103634523Y-95886904D01*
X103634523Y-95077380D01*
X104634523Y-96077380D02*
X104063095Y-96077380D01*
X104348809Y-96077380D02*
X104348809Y-95077380D01*
X104253571Y-95220238D01*
X104158333Y-95315476D01*
X104063095Y-95363095D01*
X94441666Y-95452380D02*
X94441666Y-96166666D01*
X94394047Y-96309523D01*
X94298809Y-96404761D01*
X94155952Y-96452380D01*
X94060714Y-96452380D01*
X95441666Y-96452380D02*
X94870238Y-96452380D01*
X95155952Y-96452380D02*
X95155952Y-95452380D01*
X95060714Y-95595238D01*
X94965476Y-95690476D01*
X94870238Y-95738095D01*
M02*
